<svg xmlns="http://www.w3.org/2000/svg" viewBox="0 0 674.55 407.97"><defs><style>.cls-1{fill:#e8ecf9;}.cls-10,.cls-12,.cls-16,.cls-18,.cls-19,.cls-2,.cls-20,.cls-23,.cls-24,.cls-25,.cls-28,.cls-32,.cls-34,.cls-37{fill:none;}.cls-2,.cls-37{stroke:#a0b3ea;stroke-width:1.5px;}.cls-16,.cls-19,.cls-2,.cls-32{stroke-linejoin:round;}.cls-3{fill:#ffd18d;}.cls-4{fill:#fff;}.cls-5{fill:#eff2f9;}.cls-6{fill:#a0b3ea;}.cls-7{fill:#fff8dc;}.cls-8{fill:#f4aa78;}.cls-9{fill:#c6d4f4;}.cls-10{stroke:#d3834c;}.cls-10,.cls-12,.cls-18,.cls-20,.cls-23,.cls-24,.cls-25,.cls-28,.cls-34,.cls-37{stroke-miterlimit:10;}.cls-11{fill:#693937;}.cls-12{stroke:#3f1e1e;}.cls-13{fill:#ffab86;}.cls-14{fill:#e06743;}.cls-15{fill:#432b3f;}.cls-16,.cls-25{stroke:#000;}.cls-17{fill:#b24b42;}.cls-18{stroke:#d16f5e;}.cls-19{stroke:#7a372a;}.cls-20{stroke:#6b3022;stroke-width:3px;}.cls-21{fill:#845d7f;}.cls-22{fill:#643021;}.cls-23{stroke:#3f1c14;}.cls-24{stroke:#ffd18d;}.cls-26{fill:#f4c3b3;}.cls-27{fill:#252549;}.cls-28{stroke:#494975;}.cls-29{fill:#1b1b35;}.cls-30{fill:#6458b9;}.cls-31{fill:#2c2c51;}.cls-32{stroke:#9e796a;}.cls-33{fill:#3f2524;}.cls-34{stroke:#5b3e3e;}.cls-35{fill:#488c6c;}.cls-36{fill:#55af8c;}</style></defs><g id="OBJECTS"><path class="cls-1" d="M694.85,229.34c-.11,17-2.41,34.28,3.72,50.46,2.87,7.55,7.5,14.29,11.07,21.55,12.28,25,10.77,56.24-3.86,79.92-22.91,37.08-64.49,42.17-104.25,35.71-65.85-10.71-126.74-36.93-194.09-38.75-69.23-1.87-138.12,8.68-205.33,24.55-35.68,8.42-76.31,16.56-112.1,4.65-23.47-7.81-35.81-30-26.33-53.63,4.46-11.13,12.23-20.56,19.74-29.91,17.65-22,23.76-47.54,21.12-75.29-1.22-12.78-4.59-25.08-6.24-37.78C95.67,190.62,94.08,167,107,149.7c6.14-8.21,15.12-14,24.68-17.69a107.79,107.79,0,0,1,69.66-2.51c29.5,8.9,51.62,31,71.12,53.85,4.68,5.49,9.33,11,14.16,16.38,20.82,23.11,45.1,44.62,74.78,53.94,20.73,6.5,42.46,9.39,63.25,3,18.49-5.66,36.1-13.81,53.64-21.94l58.57-27.14c12.39-5.74,24.8-11.49,37.66-16.08a213.17,213.17,0,0,1,59.29-12.13c17.13-1,37.34-2.16,50.21,11.32C694,201.13,694.94,215.69,694.85,229.34Z" transform="translate(-43.35 -51.17)"/><line class="cls-2" x1="513.53" y1="53.91" x2="541.43" y2="53.91"/><line class="cls-2" x1="547.27" y1="53.91" x2="559.71" y2="53.91"/><line class="cls-2" x1="316.85" y1="230.87" x2="328.29" y2="230.87"/><line class="cls-2" x1="334.87" y1="230.87" x2="356.97" y2="230.87"/><path class="cls-2" d="M283.71,246.38a4,4,0,1,1-4-4A4,4,0,0,1,283.71,246.38Z" transform="translate(-43.35 -51.17)"/><path class="cls-2" d="M374.28,340.5a4,4,0,1,1-4-4A4,4,0,0,1,374.28,340.5Z" transform="translate(-43.35 -51.17)"/><path class="cls-2" d="M709.31,341a4,4,0,1,1-4-4A4,4,0,0,1,709.31,341Z" transform="translate(-43.35 -51.17)"/><circle class="cls-2" cx="584.78" cy="59.34" r="7.42" transform="translate(433.99 586.05) rotate(-85.26)"/><circle class="cls-2" cx="137.04" cy="42.31" r="7.42"/><polygon class="cls-2" points="449.22 29.6 449.22 40.76 458.64 34.73 449.22 29.6"/><polygon class="cls-2" points="621.38 143.83 621.38 154.99 611.96 148.96 621.38 143.83"/><polygon class="cls-2" points="13.16 223.18 17.51 233.46 6.49 231.57 13.16 223.18"/><polygon class="cls-2" points="134.73 365.16 124.64 369.94 134.12 375.87 134.73 365.16"/><path class="cls-3" d="M84.06,117.18h58.67a1.28,1.28,0,0,0,.78-2.29l-9.42-7.29V99a18.2,18.2,0,0,0-18.2-18.2H84.06A18.2,18.2,0,0,0,65.86,99h0A18.2,18.2,0,0,0,84.06,117.18Z" transform="translate(-43.35 -51.17)"/><path class="cls-4" d="M119.36,99a2.4,2.4,0,1,0,2.4-2.4A2.41,2.41,0,0,0,119.36,99Z" transform="translate(-43.35 -51.17)"/><path class="cls-4" d="M100.14,99a2.4,2.4,0,1,0,2.4-2.4A2.4,2.4,0,0,0,100.14,99Z" transform="translate(-43.35 -51.17)"/><path class="cls-4" d="M80.91,99a2.4,2.4,0,1,0,2.4-2.4A2.41,2.41,0,0,0,80.91,99Z" transform="translate(-43.35 -51.17)"/><path class="cls-5" d="M271.08,118.72H199.91a1.92,1.92,0,0,1-1.17-3.44l14.14-10.93V91.42a27.3,27.3,0,0,1,27.3-27.3h30.9a27.29,27.29,0,0,1,27.29,27.3h0A27.29,27.29,0,0,1,271.08,118.72Z" transform="translate(-43.35 -51.17)"/><path class="cls-6" d="M235.66,95.29a4.52,4.52,0,0,1-.74,2.6,4.69,4.69,0,0,1-2.11,1.68,8.55,8.55,0,0,1-3.28.58,14.42,14.42,0,0,1-1.78-.11,10.8,10.8,0,0,1-1.6-.31,8.14,8.14,0,0,1-1.37-.49V96.62a18.39,18.39,0,0,0,2.32.81,9.18,9.18,0,0,0,2.6.37,4.84,4.84,0,0,0,1.79-.28,2.22,2.22,0,0,0,1.06-.82,2.12,2.12,0,0,0,.36-1.23,2,2,0,0,0-.41-1.28,3.83,3.83,0,0,0-1.23-1,18.22,18.22,0,0,0-2.06-.94,11.64,11.64,0,0,1-1.59-.76,6.79,6.79,0,0,1-1.35-1,4.62,4.62,0,0,1-.94-1.38,4.73,4.73,0,0,1-.35-1.87,4.35,4.35,0,0,1,.7-2.47,4.46,4.46,0,0,1,2-1.57,7.24,7.24,0,0,1,2.94-.55,10.75,10.75,0,0,1,2.52.29,14.28,14.28,0,0,1,2.31.78L234.53,86a19.5,19.5,0,0,0-2-.69,7.89,7.89,0,0,0-2-.26,3.72,3.72,0,0,0-1.5.27,2.07,2.07,0,0,0-.93.75,2,2,0,0,0-.32,1.14,2.13,2.13,0,0,0,.36,1.26,3.53,3.53,0,0,0,1.14.91c.52.28,1.18.59,2,.93a15.1,15.1,0,0,1,2.39,1.22,4.68,4.68,0,0,1,1.51,1.53A4.39,4.39,0,0,1,235.66,95.29Z" transform="translate(-43.35 -51.17)"/><path class="cls-6" d="M241.38,81.84v8.74c0,.39,0,.82,0,1.29s-.07.91-.1,1.32h.06c.2-.27.44-.59.73-1a12.37,12.37,0,0,1,.8-.95l3.93-4.23h3.14l-5.15,5.53,5.48,7.32H247l-4.11-5.64-1.54,1.32v4.32h-2.74V81.84Z" transform="translate(-43.35 -51.17)"/><path class="cls-6" d="M253.66,82.13a1.83,1.83,0,0,1,1.09.34,1.72,1.72,0,0,1,0,2.32,1.89,1.89,0,0,1-2.19,0,1.69,1.69,0,0,1,0-2.32A1.82,1.82,0,0,1,253.66,82.13ZM255,87.06V99.91h-2.74V87.06Z" transform="translate(-43.35 -51.17)"/><path class="cls-6" d="M261.65,99.91H258.9V81.84h2.75Z" transform="translate(-43.35 -51.17)"/><path class="cls-6" d="M268.28,99.91h-2.75V81.84h2.75Z" transform="translate(-43.35 -51.17)"/><path class="cls-6" d="M280.81,96.24a3.6,3.6,0,0,1-.61,2.14,3.76,3.76,0,0,1-1.8,1.32,8.1,8.1,0,0,1-2.88.45,12.85,12.85,0,0,1-2.32-.19,8.6,8.6,0,0,1-1.84-.59V97a12.22,12.22,0,0,0,2.07.74,8.2,8.2,0,0,0,2.17.32,3.34,3.34,0,0,0,1.93-.43,1.32,1.32,0,0,0,.6-1.13,1.24,1.24,0,0,0-.24-.75,2.6,2.6,0,0,0-.88-.68,15.21,15.21,0,0,0-1.9-.84,16,16,0,0,1-2.06-1,3.58,3.58,0,0,1-1.26-1.17,3.27,3.27,0,0,1-.43-1.77,2.91,2.91,0,0,1,1.36-2.61,6.47,6.47,0,0,1,3.59-.89,10,10,0,0,1,2.23.24,11.08,11.08,0,0,1,2.06.69l-.86,2.06a13.43,13.43,0,0,0-1.74-.62,6.39,6.39,0,0,0-1.79-.25,3.32,3.32,0,0,0-1.61.32,1,1,0,0,0-.55.92,1.15,1.15,0,0,0,.27.77,2.75,2.75,0,0,0,.92.62q.66.31,1.83.78a13.83,13.83,0,0,1,2,.93,3.71,3.71,0,0,1,1.3,1.17A3.29,3.29,0,0,1,280.81,96.24Z" transform="translate(-43.35 -51.17)"/><path class="cls-7" d="M644.8,161.35h-80a1.54,1.54,0,0,1-.94-2.76l11.38-8.81V139.37a22,22,0,0,1,22-22H644.8a22,22,0,0,1,22,22h0A22,22,0,0,1,644.8,161.35Z" transform="translate(-43.35 -51.17)"/><path class="cls-3" d="M595.41,138.19h6.91v9.3a21,21,0,0,1-3,.75,20.49,20.49,0,0,1-3.5.27,9.42,9.42,0,0,1-4.78-1.13,7.22,7.22,0,0,1-3-3.25,12,12,0,0,1-1-5.16,10.59,10.59,0,0,1,1.13-5,7.85,7.85,0,0,1,3.28-3.3,10.82,10.82,0,0,1,5.22-1.18,14,14,0,0,1,2.92.31,13.66,13.66,0,0,1,2.6.81l-1.08,2.51a13.55,13.55,0,0,0-2.1-.74,9.59,9.59,0,0,0-2.41-.3,6.59,6.59,0,0,0-3.43.86,5.69,5.69,0,0,0-2.21,2.42,8.16,8.16,0,0,0-.78,3.69,9.86,9.86,0,0,0,.62,3.63,5.05,5.05,0,0,0,2,2.42,6.12,6.12,0,0,0,3.43.87,12.93,12.93,0,0,0,1.78-.11c.49-.08.95-.16,1.36-.26V140.8h-3.92Z" transform="translate(-43.35 -51.17)"/><path class="cls-3" d="M618.89,141.2a9.56,9.56,0,0,1-.46,3.11,6,6,0,0,1-1.33,2.29A5.55,5.55,0,0,1,615,148a7.61,7.61,0,0,1-2.78.49,7.14,7.14,0,0,1-2.65-.49,5.72,5.72,0,0,1-2.08-1.42,6.37,6.37,0,0,1-1.36-2.29,9,9,0,0,1-.49-3.11,8.71,8.71,0,0,1,.81-3.93,5.68,5.68,0,0,1,2.3-2.47,7.16,7.16,0,0,1,3.56-.85,6.83,6.83,0,0,1,3.42.85,5.84,5.84,0,0,1,2.32,2.47A8.51,8.51,0,0,1,618.89,141.2Zm-10.18,0a8.12,8.12,0,0,0,.38,2.63,3.26,3.26,0,0,0,1.16,1.67,3.32,3.32,0,0,0,5.2-1.67,8.14,8.14,0,0,0,.37-2.63,7.92,7.92,0,0,0-.37-2.59,3.27,3.27,0,0,0-1.16-1.63,3.39,3.39,0,0,0-2-.57,3,3,0,0,0-2.7,1.25A6.19,6.19,0,0,0,608.71,141.2Z" transform="translate(-43.35 -51.17)"/><path class="cls-3" d="M627.81,134a6,6,0,0,1,4,1.18,4.61,4.61,0,0,1,1.36,3.68v9.44h-2.12l-.58-2h-.1a7.39,7.39,0,0,1-1.23,1.26,4.11,4.11,0,0,1-1.46.74,6.89,6.89,0,0,1-2,.25,5.25,5.25,0,0,1-2.26-.47,3.47,3.47,0,0,1-1.55-1.41,4.62,4.62,0,0,1-.57-2.41,3.68,3.68,0,0,1,1.62-3.26,9.56,9.56,0,0,1,4.89-1.2l2.42-.09v-.73a2.3,2.3,0,0,0-2.58-2.69,7,7,0,0,0-2,.3,15.87,15.87,0,0,0-1.92.74l-1-2.11a11.42,11.42,0,0,1,5.08-1.23Zm2.43,7.6-1.8.07a5.66,5.66,0,0,0-3.14.76,2.2,2.2,0,0,0-.9,1.87,1.77,1.77,0,0,0,.63,1.51,2.57,2.57,0,0,0,1.63.48,3.81,3.81,0,0,0,2.56-.88,3.23,3.23,0,0,0,1-2.58Z" transform="translate(-43.35 -51.17)"/><path class="cls-3" d="M640.36,148.25h-3V128.53h3Z" transform="translate(-43.35 -51.17)"/><path class="cls-3" d="M654,144.25a3.91,3.91,0,0,1-.67,2.33,4.15,4.15,0,0,1-2,1.44,9.06,9.06,0,0,1-3.15.49,13.23,13.23,0,0,1-2.53-.21,9.81,9.81,0,0,1-2-.64v-2.58a13.1,13.1,0,0,0,2.27.81,8.82,8.82,0,0,0,2.36.35,3.72,3.72,0,0,0,2.11-.47,1.44,1.44,0,0,0,.65-1.23,1.38,1.38,0,0,0-.26-.82,2.89,2.89,0,0,0-1-.75,21.41,21.41,0,0,0-2.07-.92,15.94,15.94,0,0,1-2.25-1.07,4,4,0,0,1-1.38-1.28,3.6,3.6,0,0,1-.47-1.93,3.2,3.2,0,0,1,1.49-2.85,7.07,7.07,0,0,1,3.91-1,11.2,11.2,0,0,1,2.44.26,12.17,12.17,0,0,1,2.25.76l-.94,2.24a18,18,0,0,0-1.9-.68,7.17,7.17,0,0,0-2-.27,3.5,3.5,0,0,0-1.76.36,1.1,1.1,0,0,0-.6,1,1.23,1.23,0,0,0,.29.83,3.12,3.12,0,0,0,1,.69c.48.23,1.15.51,2,.85a14.3,14.3,0,0,1,2.17,1,3.94,3.94,0,0,1,1.42,1.28A3.55,3.55,0,0,1,654,144.25Z" transform="translate(-43.35 -51.17)"/><path class="cls-8" d="M329.81,193.13h-93.2a2,2,0,0,1-1.24-3.63l15-11.58V164.23a28.91,28.91,0,0,1,28.91-28.91h50.56a28.91,28.91,0,0,1,28.9,28.91h0A28.9,28.9,0,0,1,329.81,193.13Z" transform="translate(-43.35 -51.17)"/><path class="cls-4" d="M289.46,156.18V145.1h2.35v9.14h4.49v1.94Z" transform="translate(-43.35 -51.17)"/><path class="cls-4" d="M298.84,156.18V145.1h2.35v11.08Z" transform="translate(-43.35 -51.17)"/><path class="cls-4" d="M306.91,156.18H304.6V145.1H311V147h-4v2.85h3.76v1.92h-3.76Z" transform="translate(-43.35 -51.17)"/><path class="cls-4" d="M320.11,156.18h-6.37V145.1h6.37V147h-4v2.43h3.75v1.92h-3.75v2.86h4Z" transform="translate(-43.35 -51.17)"/><path class="cls-4" d="M267.05,167.27a2.59,2.59,0,0,0-1.2.27,2.39,2.39,0,0,0-.87.75,3.61,3.61,0,0,0-.53,1.19,6.25,6.25,0,0,0-.19,1.57,5.89,5.89,0,0,0,.3,2,2.51,2.51,0,0,0,.9,1.27,2.69,2.69,0,0,0,1.59.43,6.27,6.27,0,0,0,1.35-.15,14.37,14.37,0,0,0,1.47-.43v2a7.45,7.45,0,0,1-1.45.43,8.47,8.47,0,0,1-1.59.14A5.15,5.15,0,0,1,264,176a4.22,4.22,0,0,1-1.63-2,7.59,7.59,0,0,1-.53-3,7.3,7.3,0,0,1,.34-2.3,5.22,5.22,0,0,1,1-1.81,4.31,4.31,0,0,1,1.63-1.18,5.54,5.54,0,0,1,2.23-.42,6.67,6.67,0,0,1,1.65.21,8.86,8.86,0,0,1,1.59.57l-.76,1.91a12.23,12.23,0,0,0-1.25-.52A3.9,3.9,0,0,0,267.05,167.27Z" transform="translate(-43.35 -51.17)"/><path class="cls-4" d="M282.9,171a8.05,8.05,0,0,1-.32,2.33,5,5,0,0,1-1,1.81A4.33,4.33,0,0,1,280,176.3a6.25,6.25,0,0,1-2.35.41,6.17,6.17,0,0,1-2.35-.41,4.25,4.25,0,0,1-1.64-1.16,5.16,5.16,0,0,1-1-1.81,8.12,8.12,0,0,1-.32-2.34,7.3,7.3,0,0,1,.57-3,4.25,4.25,0,0,1,1.74-2,6.67,6.67,0,0,1,5.95,0,4.34,4.34,0,0,1,1.73,2A7.55,7.55,0,0,1,282.9,171Zm-8.08,0a6,6,0,0,0,.29,2,2.58,2.58,0,0,0,.91,1.29,2.69,2.69,0,0,0,1.61.45,2.72,2.72,0,0,0,1.62-.45,2.56,2.56,0,0,0,.9-1.29,6.25,6.25,0,0,0,.29-2,5,5,0,0,0-.65-2.74,2.37,2.37,0,0,0-2.15-1,2.72,2.72,0,0,0-1.62.45,2.58,2.58,0,0,0-.91,1.29A6,6,0,0,0,274.82,171Z" transform="translate(-43.35 -51.17)"/><path class="cls-4" d="M292.59,176.55l-.8-2.63h-4l-.8,2.63h-2.53l3.91-11.12h2.87l3.93,11.12Zm-1.36-4.6-.8-2.58-.2-.66c-.08-.27-.17-.55-.25-.83s-.15-.52-.2-.73c0,.21-.12.47-.21.77l-.25.87c-.09.27-.14.47-.18.58l-.79,2.58Z" transform="translate(-43.35 -51.17)"/><path class="cls-4" d="M301.84,167.27a2.54,2.54,0,0,0-1.19.27,2.24,2.24,0,0,0-.87.75,3.42,3.42,0,0,0-.53,1.19,5.82,5.82,0,0,0-.19,1.57,5.89,5.89,0,0,0,.3,2,2.51,2.51,0,0,0,.9,1.27,2.68,2.68,0,0,0,1.58.43,6.37,6.37,0,0,0,1.36-.15,14.37,14.37,0,0,0,1.47-.43v2a7.45,7.45,0,0,1-1.45.43,8.58,8.58,0,0,1-1.6.14,5.11,5.11,0,0,1-2.81-.71,4.17,4.17,0,0,1-1.63-2,7.59,7.59,0,0,1-.53-3,7.3,7.3,0,0,1,.34-2.3,5.22,5.22,0,0,1,1-1.81,4.31,4.31,0,0,1,1.63-1.18,5.53,5.53,0,0,1,2.22-.42,6.74,6.74,0,0,1,1.66.21,8.86,8.86,0,0,1,1.59.57l-.76,1.91a13.24,13.24,0,0,0-1.25-.52A3.91,3.91,0,0,0,301.84,167.27Z" transform="translate(-43.35 -51.17)"/><path class="cls-4" d="M316.72,176.55h-2.34v-4.78H310v4.78h-2.34V165.48H310v4.34h4.39v-4.34h2.34Z" transform="translate(-43.35 -51.17)"/><path class="cls-4" d="M320.14,176.55V165.48h2.34v11.07Z" transform="translate(-43.35 -51.17)"/><path class="cls-4" d="M335.72,176.55h-3l-4.81-8.37h-.07c0,.34,0,.7,0,1s0,.7.05,1.06,0,.7,0,1.05v5.21h-2.1V165.48h3l4.81,8.29h.05c0-.34,0-.68,0-1s0-.68,0-1,0-.68,0-1v-5.24h2.11Z" transform="translate(-43.35 -51.17)"/><path class="cls-4" d="M343.33,170.34h4.39v5.74a14.52,14.52,0,0,1-1.81.46,12.22,12.22,0,0,1-2.12.17,5.56,5.56,0,0,1-2.81-.66,4.2,4.2,0,0,1-1.75-1.92,7.31,7.31,0,0,1-.6-3.13,6.34,6.34,0,0,1,.68-3,4.6,4.6,0,0,1,2-2,6.49,6.49,0,0,1,3.15-.7,7.8,7.8,0,0,1,1.74.19,8.82,8.82,0,0,1,1.55.49l-.78,1.88a5.84,5.84,0,0,0-1.16-.43,5.07,5.07,0,0,0-1.36-.18,3.33,3.33,0,0,0-1.78.47,3.26,3.26,0,0,0-1.17,1.32,4.53,4.53,0,0,0-.41,2,5.69,5.69,0,0,0,.3,1.92,2.63,2.63,0,0,0,.93,1.31,2.74,2.74,0,0,0,1.66.47,6.53,6.53,0,0,0,.84-.05l.65-.1v-2.31h-2.1Z" transform="translate(-43.35 -51.17)"/><path class="cls-5" d="M409,194h42.39a1.15,1.15,0,0,0,.7-2.05l-8.42-6.51v-7.71a16.26,16.26,0,0,0-16.27-16.26H409a16.27,16.27,0,0,0-16.27,16.26h0A16.27,16.27,0,0,0,409,194Z" transform="translate(-43.35 -51.17)"/><path class="cls-6" d="M406,177.75a1.85,1.85,0,1,1-1.85-1.85A1.85,1.85,0,0,1,406,177.75Z" transform="translate(-43.35 -51.17)"/><path class="cls-6" d="M419.13,177.75a1.85,1.85,0,1,1-1.85-1.85A1.85,1.85,0,0,1,419.13,177.75Z" transform="translate(-43.35 -51.17)"/><path class="cls-6" d="M432.28,177.75a1.85,1.85,0,1,1-1.85-1.85A1.85,1.85,0,0,1,432.28,177.75Z" transform="translate(-43.35 -51.17)"/><path class="cls-9" d="M427.58,128.63h55.1a1.48,1.48,0,0,0,.91-2.66l-10.95-8.46v-10A21.13,21.13,0,0,0,451.5,86.36H427.58a21.13,21.13,0,0,0-21.14,21.13h0A21.13,21.13,0,0,0,427.58,128.63Z" transform="translate(-43.35 -51.17)"/><path class="cls-4" d="M423.63,107.49a2.41,2.41,0,1,1-2.41-2.4A2.41,2.41,0,0,1,423.63,107.49Z" transform="translate(-43.35 -51.17)"/><path class="cls-4" d="M440.72,107.49a2.41,2.41,0,1,1-2.4-2.4A2.4,2.4,0,0,1,440.72,107.49Z" transform="translate(-43.35 -51.17)"/><path class="cls-4" d="M457.82,107.49a2.41,2.41,0,1,1-2.41-2.4A2.41,2.41,0,0,1,457.82,107.49Z" transform="translate(-43.35 -51.17)"/><path class="cls-8" d="M264.61,334.77l-3.49-18.38a13.54,13.54,0,0,0-13.3-11H192.5a13.17,13.17,0,0,0-13,11.24l-1.81,12.14a21.43,21.43,0,0,0,21.2,24.58h50.38A15.65,15.65,0,0,0,264.61,334.77Z" transform="translate(-43.35 -51.17)"/><path class="cls-8" d="M223.44,353.34H138.23a34.07,34.07,0,0,1-33.47-27.71L90.08,248.36a36,36,0,0,1,35.35-42.7h25.72a53.43,53.43,0,0,1,52.49,43.45Z" transform="translate(-43.35 -51.17)"/><path class="cls-8" d="M236.46,339.35H120.39a17.19,17.19,0,0,0,16.89,14H245.35l-1.49-7.87A7.53,7.53,0,0,0,236.46,339.35Z" transform="translate(-43.35 -51.17)"/><path class="cls-10" d="M103.81,225.55c7.76,3.49,13.91,10.47,18.07,18.37s6.5,16.73,8.34,25.55c2.48,11.85,4.14,23.87,5.44,35.91" transform="translate(-43.35 -51.17)"/><rect class="cls-11" x="88.97" y="302.16" width="114.27" height="11.08"/><polygon class="cls-11" points="99.92 313.25 91.52 313.25 62.38 407.22 66.44 407.22 99.92 313.25"/><polygon class="cls-11" points="122.19 313.25 113.78 313.25 92.66 407.22 96.72 407.22 122.19 313.25"/><polygon class="cls-11" points="192.48 313.25 200.89 313.25 230.02 407.22 225.96 407.22 192.48 313.25"/><polygon class="cls-11" points="170.22 313.25 178.62 313.25 199.74 407.22 195.68 407.22 170.22 313.25"/><line class="cls-12" x1="91.52" y1="313.25" x2="99.92" y2="313.25"/><line class="cls-12" x1="113.78" y1="313.25" x2="122.19" y2="313.25"/><line class="cls-12" x1="170.22" y1="313.25" x2="178.62" y2="313.25"/><line class="cls-12" x1="192.48" y1="313.25" x2="200.89" y2="313.25"/><polyline class="cls-13" points="99.06 126.72 96.68 147.51 119.19 173.72 126.12 150.67 123.59 149.25 122.73 140.52"/><path class="cls-3" d="M185.16,216.37l-11.85-14.53h-3.83l-5.69,18.91L140,198.69l-18.64,3.15L157,298.28l52.47-8.43S192.93,250,191.58,244.76,185.16,216.37,185.16,216.37Z" transform="translate(-43.35 -51.17)"/><path class="cls-14" d="M168.61,201a486.52,486.52,0,0,0,12.58,51.1c6,20.16,17.24,39.24,17.24,39.24l18.77,3.9s-15.91-33.43-19.74-41.63S193.12,235,189,224.89s-9.76-23-9.76-23Z" transform="translate(-43.35 -51.17)"/><path class="cls-15" d="M293.24,404.64s-3.06-11.66-2.92-19.23c0-5-6.83-16.57-10.35-24.56l28.73-10.46s10.42,13.63,12.57,16.19a28.86,28.86,0,0,0,15.57,9.84c4.53,1.1,9.23,1.47,13.76,2.57,2.32.57,6.39,1.66,5.42,5.06-9.65,3-24.77,8.37-38.29,12.56C316.61,397,312,394,312,394l-6.16-1.49,2,7.37Z" transform="translate(-43.35 -51.17)"/><line class="cls-16" x1="262.02" y1="340.59" x2="247.95" y2="344.37"/><path class="cls-15" d="M258.29,458.32s.58-12.33,2.95-19.66c1.49-4.81-1.47-18.31-2.4-27.21l29.82-1s5.68,16.59,6.93,19.77a29.72,29.72,0,0,0,11.59,14.55c3.89,2.52,8.16,4.38,12.05,6.9,2,1.29,5.46,3.65,3.55,6.66-9.85-.18-25.51.23-39.33,0-1.15,0-4.52-4.38-4.52-4.38l-5.3-3.42-.34,7.8Z" transform="translate(-43.35 -51.17)"/><line class="cls-16" x1="215.7" y1="398.58" x2="230.28" y2="399.34"/><path class="cls-17" d="M225.81,282.11s15.7-4.37,25-4.47,19.19,2.89,26.38,15.83c6.45,11.59,38.41,65.59,38.41,65.59l-52.33,32L234.14,309" transform="translate(-43.35 -51.17)"/><path class="cls-16" d="M258.9,306.18a12.89,12.89,0,0,1,5.25-.84" transform="translate(-43.35 -51.17)"/><line class="cls-18" x1="264.01" y1="294.01" x2="214.24" y2="323.97"/><path class="cls-17" d="M156,295s1.68,23.44,6.78,30.81c3.66,5.28,8.22,12.33,17.86,12.33H218.1a5.18,5.18,0,0,1,5.12,4.41l20.54,94.15,50.76-15.36S272.28,339.38,269.26,332c-4.55-11.11-10.87-18.79-20.54-23.64-8.68-4.35-61.91-15.72-61.91-15.72" transform="translate(-43.35 -51.17)"/><path class="cls-16" d="M256,328.26a195.37,195.37,0,0,1-2.46,31.49" transform="translate(-43.35 -51.17)"/><path class="cls-16" d="M261.67,341a116.26,116.26,0,0,1,2.43,16.28" transform="translate(-43.35 -51.17)"/><line class="cls-18" x1="196.8" y1="368.09" x2="246.9" y2="354.5"/><path class="cls-16" d="M282.74,379.14C277,358.07,270.8,335.74,269.26,332c-4.55-11.11-10.87-18.79-20.54-23.64" transform="translate(-43.35 -51.17)"/><path class="cls-17" d="M138.61,294.12s-5.15,44,20.12,44h23.92c17.25,0,66.07-29.77,66.07-29.77L233.6,280.18l-41.34,9.89" transform="translate(-43.35 -51.17)"/><path class="cls-16" d="M182.65,338.11c17.25,0,66.07-29.77,66.07-29.77a14.72,14.72,0,0,1,7-1.7" transform="translate(-43.35 -51.17)"/><line class="cls-16" x1="137.6" y1="241.45" x2="163.2" y2="235.67"/><path class="cls-14" d="M177.12,201.84A27.19,27.19,0,0,1,191,205.73c8.11,5,27.78,44.43,27.78,44.43l13.33,3.46-12,19.94s-19.68,1.15-23.18-6.34-19.69-35.64-19.69-35.64" transform="translate(-43.35 -51.17)"/><path class="cls-19" d="M189.59,222.42c3.13,6.5,6.28,13,8.23,20,2.83,10.09,3.26,21.28,9.46,29.72" transform="translate(-43.35 -51.17)"/><path class="cls-14" d="M138.18,198.34c9.74,16.67,15.65,31.9,22.07,50.9A574.9,574.9,0,0,1,179.36,317l-43.19,1.46c-4-33-19.82-63.55-25.29-96.34l10.68-20.57Z" transform="translate(-43.35 -51.17)"/><path class="cls-19" d="M127.21,200.42c4.11,8.46,7.13,16.73,11.75,24.91a3.82,3.82,0,0,0,1.21,1.48,3.54,3.54,0,0,0,1.24.4q3,.56,6,.92L143,234.91a1.1,1.1,0,0,0-.25.66,1.12,1.12,0,0,0,.52.73,120.57,120.57,0,0,1,18.17,17.9" transform="translate(-43.35 -51.17)"/><line class="cls-20" x1="145.68" y1="187.97" x2="159.49" y2="209.5"/><path class="cls-13" d="M156.25,290.07q15-5.44,29.84-11.58l-5.34-21.12-32.27,6" transform="translate(-43.35 -51.17)"/><path class="cls-14" d="M125.05,200.83s-3.49.67-5.28,1.16a23.16,23.16,0,0,0-8.44,4c-10.26,7-11.91,13.59-10.17,24.73,1.78,11.39,7.34,26.8,12.57,37.07,3.56,7,7.46,16.16,12.85,21.94,7.73,8.28,15.52,8.5,25.47,4.41,5.27-2.17,17.43-7.27,17.43-7.27l-10.88-26-8.87,1.39-10.08-23.42" transform="translate(-43.35 -51.17)"/><polyline class="cls-19" points="115.25 209.7 106.38 211.09 96.3 187.66"/><path class="cls-19" d="M132.42,294.47c5.92,3.36,12.17,2.72,19.63-.35,5.27-2.17,17.43-7.27,17.43-7.27" transform="translate(-43.35 -51.17)"/><path class="cls-13" d="M172.54,259.76l11-4.25a33.12,33.12,0,0,1,5.3-2,50.91,50.91,0,0,1,5.64-.75c1.71-.13,3.42-.19,5.13-.16a11.77,11.77,0,0,1,1.87.14,12.21,12.21,0,0,1,3.15,1.26,36.26,36.26,0,0,1,6.51,4,1.17,1.17,0,0,1,.43.56.78.78,0,0,1-.49.82,2.38,2.38,0,0,1-1,.12,1.84,1.84,0,0,1,.75,1.16c0,.64-.58,1.12-1.18,1.34a4.55,4.55,0,0,1-2,.29c.32-.09.6.31.53.63a1.24,1.24,0,0,1-.64.71,4.93,4.93,0,0,1-1.67.61c.17,0,0,.74,0,.8a4.25,4.25,0,0,1-1.07,1.13c-1.94,1.59-3.82,2-6,3-3.18,1.53-4.64,5-7.42,7.1-3.75,2.84-8.89,2.9-13.16,4.89" transform="translate(-43.35 -51.17)"/><path class="cls-16" d="M194.1,265.91s3.93-1,5.81-1.47a20.63,20.63,0,0,1,6.36-.42" transform="translate(-43.35 -51.17)"/><path class="cls-16" d="M193.2,261.67c1.31-.3,2.64-.55,4-.76a19.56,19.56,0,0,1,5.66-.24,23.07,23.07,0,0,1,5.29,1.61" transform="translate(-43.35 -51.17)"/><path class="cls-16" d="M193.57,256.66c1.91-.13,4.65-.05,6.57,0a18.67,18.67,0,0,1,2.9.17,21.46,21.46,0,0,1,6.93,2.84" transform="translate(-43.35 -51.17)"/><path class="cls-19" d="M142.07,264.16l7.66-1.9" transform="translate(-43.35 -51.17)"/><path class="cls-19" d="M104.75,218.16c9.07.45,21.38,1.61,34.9,20.68" transform="translate(-43.35 -51.17)"/><polygon class="cls-15" points="183.46 230.9 144.16 234.64 166.55 175.15 205.85 171.4 183.46 230.9"/><path class="cls-19" d="M181.66,249.84a181.76,181.76,0,0,0,1.49-20.33c0-1.43-5.89-5.91-5.89-5.91s5.14-1.33,5.61-3.39-4.69-18.45-4.69-18.45" transform="translate(-43.35 -51.17)"/><path class="cls-13" d="M238.24,251.72l-1.09,2.89c-1.56.62-3.32.86-4.88,1.48a6.42,6.42,0,0,0-3.08,2.49,3.39,3.39,0,0,0-.21,3,6.35,6.35,0,0,0-1.81,1.88c-.55.94-1,3.14.25,3.77a4.51,4.51,0,0,0-.49.66c-.52.87-.91,3,.39,3.45-.44.79-.76,2.62.44,2.92a1.74,1.74,0,0,0,1.06-.19c1.36-.55,4.32-1.27,5.69-1.83a9.31,9.31,0,0,0,2.13-1.09,3.21,3.21,0,0,0,1.32-1.95,3.53,3.53,0,0,0-.19-1.58,3.64,3.64,0,0,0,1.42-2.18,4.64,4.64,0,0,0-.3-2.11h0a4.2,4.2,0,0,0,1.73-2.56,5.29,5.29,0,0,0-.4-2.54,3.71,3.71,0,0,0,1.38-2.16C241.83,254.82,239.71,252.72,238.24,251.72Z" transform="translate(-43.35 -51.17)"/><path class="cls-16" d="M229.08,261.66a10.82,10.82,0,0,0,5.07-1l6-2.3" transform="translate(-43.35 -51.17)"/><path class="cls-16" d="M227.46,267.37c1.9.14,4.69-1.31,11.33-4" transform="translate(-43.35 -51.17)"/><path class="cls-16" d="M227.41,271.28a4.71,4.71,0,0,0,2.73-.35,37.26,37.26,0,0,0,7.59-3.18" transform="translate(-43.35 -51.17)"/><path class="cls-21" d="M244.15,220.46l-4,.38.4-1.07a.85.85,0,0,0-.88-1.15L225,220a2.23,2.23,0,0,0-1.88,1.44l-.4,1.05-4.39.42a3.94,3.94,0,0,0-3.31,2.53l-1.93,5.13,30.65-2.92,1.95-5.17A1.51,1.51,0,0,0,244.15,220.46Z" transform="translate(-43.35 -51.17)"/><path class="cls-22" d="M173.51,143.06c8.17,4.95,9.08,10.76,9.94,16.08.92,5.67-.78,11.81,1.61,17,.74,1.62,1.84,3.06,2.61,4.66,2.29,4.74,1.51,10.32.67,15.52l-28.19-10.61-9.41-42.12" transform="translate(-43.35 -51.17)"/><path class="cls-23" d="M181.42,165.81a40.55,40.55,0,0,0-1,7.19,9.27,9.27,0,0,0,.15,2.58,14.32,14.32,0,0,0,1.34,3,17.75,17.75,0,0,1,1.84,9.2" transform="translate(-43.35 -51.17)"/><ellipse class="cls-24" cx="131.26" cy="132.99" rx="2.71" ry="4.44"/><path class="cls-13" d="M176.48,181.13a12.86,12.86,0,0,1-5.47,8.76c-6.69,4.59-16.17.3-21.31-4.74A26.52,26.52,0,0,1,143.38,175a34.26,34.26,0,0,1-1.46-13.39c.4-6.32,3.35-12.66,9.86-14.51a21.22,21.22,0,0,1,9.74-.06A24.17,24.17,0,0,1,171,150.7c3.37,2.34,5.92,5,6.25,8.94A110.15,110.15,0,0,1,176.48,181.13Z" transform="translate(-43.35 -51.17)"/><path class="cls-22" d="M179.84,149.64a11.13,11.13,0,0,0-2.79-3.8A48.45,48.45,0,0,0,161.84,137c-5.33-2-12.27-1.34-17.62.33-3.87,1.21-7.19,4.45-9.72,7.51a18.56,18.56,0,0,0-4.27,11.8c0,3.15,0,6.19-1.55,9s-4.19,5-4.64,8.33c-.37,2.72.31,6.24.78,8.94a25.33,25.33,0,0,1,.07,8.9l27,6.41a6.81,6.81,0,0,0,1.23-4.45c-.14-3.23-.75-5-3-7.27-1.11-1.1-2.63-2.06-2.8-3.61-.14-1.18.58-2.27,1-3.38a9.12,9.12,0,0,0,0-5.68c-.49-1.62-1.48-3-2.05-4.54-.48-1.32,0-3,.57-4.25,1.11-2.61,3.13-4.53,4.62-6.87a51,51,0,0,0,4.18-8.54c2.17.64,5.26,1,10,2.55,6.31,2.15,11.94,8,11.94,13.36,1.58-2,3-3.82,3.36-6.34A17.42,17.42,0,0,0,179.84,149.64Z" transform="translate(-43.35 -51.17)"/><path class="cls-23" d="M150.23,148.41a24.11,24.11,0,0,1-5.13,11c-1.94,2.34-4.48,4.69-4.38,7.72s3,5.72,2.45,8.74c-.36,2.15-2.39,3.92-2.12,6.08.18,1.42,1.3,2.49,2.22,3.59s1.69,2.62,1.07,3.9" transform="translate(-43.35 -51.17)"/><path class="cls-23" d="M138.05,156.11c-4,4.17-4.71,10.51-4,16.23a9.31,9.31,0,0,1,.06,3.07,12.46,12.46,0,0,1-1.22,2.81,14,14,0,0,0-.42,11.21" transform="translate(-43.35 -51.17)"/><path class="cls-23" d="M162.48,145A21.62,21.62,0,0,1,177,156.38" transform="translate(-43.35 -51.17)"/><path class="cls-23" d="M154.41,139.37a25.2,25.2,0,0,1,16.34,6.19" transform="translate(-43.35 -51.17)"/><path class="cls-25" d="M169.05,167.13c-.06,2.15-.48,5,1.31,6.62a8.57,8.57,0,0,1,.79.68c1.54,1.69-.65,3.41-2,4.22" transform="translate(-43.35 -51.17)"/><path class="cls-4" d="M170.93,180.54l-9.29-2.09s0,5.21,3.91,6.36C168.69,185.73,170.93,180.54,170.93,180.54Z" transform="translate(-43.35 -51.17)"/><path class="cls-25" d="M155.56,162.56a5.45,5.45,0,0,1,3.36-1.9,5.65,5.65,0,0,1,3.83.8" transform="translate(-43.35 -51.17)"/><path class="cls-25" d="M172.8,163.74a3,3,0,0,1,3.75.81" transform="translate(-43.35 -51.17)"/><path d="M162.55,169.18c-.07,1-.69,1.76-1.39,1.71S159.94,170,160,169s.69-1.76,1.39-1.71S162.61,168.2,162.55,169.18Z" transform="translate(-43.35 -51.17)"/><path d="M176.06,170.21c-.06,1-.69,1.75-1.39,1.71s-1.22-.89-1.15-1.88.69-1.75,1.39-1.7S176.13,169.22,176.06,170.21Z" transform="translate(-43.35 -51.17)"/><path class="cls-13" d="M149.92,167.47c-1.55-1.61-3.59-1.23-4.85-1-2.86.57-3.5,4.13-3.17,6.62a7.91,7.91,0,0,0,4.89,6.42,4,4,0,0,0,5.25-3.72" transform="translate(-43.35 -51.17)"/><path class="cls-25" d="M144.77,170.87c2.22,1,3.41,2.12,5.47,3.41" transform="translate(-43.35 -51.17)"/><path class="cls-25" d="M145.56,179a4.17,4.17,0,0,0,5.34-.69,9.54,9.54,0,0,0,1-1.65" transform="translate(-43.35 -51.17)"/><path class="cls-25" d="M146.48,166.28a7.51,7.51,0,0,1,4.26,1.55" transform="translate(-43.35 -51.17)"/><path class="cls-24" d="M149.19,183c0,2.45-1.21,4.44-2.71,4.44s-2.71-2-2.71-4.44,1.22-4.44,2.71-4.44S149.19,180.49,149.19,183Z" transform="translate(-43.35 -51.17)"/><path class="cls-25" d="M154.52,188.94a20.89,20.89,0,0,0,11.86,3.38" transform="translate(-43.35 -51.17)"/><line class="cls-16" x1="150.1" y1="116.1" x2="173.38" y2="104.1"/><line class="cls-16" x1="153.79" y1="126.04" x2="177.46" y2="119.64"/><line class="cls-16" x1="157.57" y1="135.55" x2="178.69" y2="135.34"/><path class="cls-8" d="M210.23,334.77l-3.5-18.38a13.52,13.52,0,0,0-13.29-11H128.51a13.18,13.18,0,0,0-13,11.24l-1.8,12.14a21.42,21.42,0,0,0,21.19,24.58h60A15.65,15.65,0,0,0,210.23,334.77Z" transform="translate(-43.35 -51.17)"/><path class="cls-10" d="M198.4,352.94a15.66,15.66,0,0,0,11.83-18.17l-3.5-18.38a13.52,13.52,0,0,0-13.29-11H128.51a13.18,13.18,0,0,0-13,11.24l-1.8,12.14a21.36,21.36,0,0,0,7,19.18" transform="translate(-43.35 -51.17)"/><path class="cls-8" d="M452.5,334.77l3.5-18.38a13.52,13.52,0,0,1,13.29-11h55.33a13.18,13.18,0,0,1,13,11.24l1.8,12.14a21.42,21.42,0,0,1-21.19,24.58H467.87A15.65,15.65,0,0,1,452.5,334.77Z" transform="translate(-43.35 -51.17)"/><path class="cls-8" d="M493.67,353.34h85.21a34.08,34.08,0,0,0,33.48-27.71L627,248.36a36,36,0,0,0-35.36-42.7H566a53.42,53.42,0,0,0-52.49,43.45Z" transform="translate(-43.35 -51.17)"/><path class="cls-8" d="M480.65,339.35H596.73a17.21,17.21,0,0,1-16.9,14H471.76l1.5-7.87A7.51,7.51,0,0,1,480.65,339.35Z" transform="translate(-43.35 -51.17)"/><path class="cls-10" d="M613.3,225.55c-7.76,3.49-13.91,10.47-18.07,18.37s-6.49,16.73-8.34,25.55c-2.48,11.85-4.14,23.87-5.44,35.91" transform="translate(-43.35 -51.17)"/><rect class="cls-11" x="470.51" y="353.34" width="114.27" height="11.08" transform="translate(1011.94 666.58) rotate(180)"/><polygon class="cls-11" points="530.48 313.25 538.89 313.25 568.03 407.22 563.97 407.22 530.48 313.25"/><polygon class="cls-11" points="508.22 313.25 516.63 313.25 537.75 407.22 533.68 407.22 508.22 313.25"/><polygon class="cls-11" points="437.93 313.25 429.52 313.25 400.38 407.22 404.45 407.22 437.93 313.25"/><polygon class="cls-11" points="460.19 313.25 451.78 313.25 430.66 407.22 434.73 407.22 460.19 313.25"/><line class="cls-12" x1="538.89" y1="313.25" x2="530.48" y2="313.25"/><line class="cls-12" x1="516.63" y1="313.25" x2="508.22" y2="313.25"/><line class="cls-12" x1="460.19" y1="313.25" x2="451.78" y2="313.25"/><line class="cls-12" x1="437.93" y1="313.25" x2="429.52" y2="313.25"/><path class="cls-26" d="M447.24,220.16l-10.87,8.31L411.29,208.2l-19.44,20.27s32,34.49,40.55,38.46,18.89-1.37,25.9-7.42c8.78-7.57,26.22-26,26.22-26" transform="translate(-43.35 -51.17)"/><path class="cls-27" d="M502,189.14s-13.49.68-20.32,3.4c-11.51,4.58-34.2,25.51-42.83,33.74l30.63,33.64,25.86-25" transform="translate(-43.35 -51.17)"/><path class="cls-27" d="M484.76,216.76c2.89,25.94,4.68,52.19,7.65,77.53l92.34,4.14c-2.25-31.79-5.27-56.91-13.21-84l-11.61-18.14-28.15-8.88-19.93,16.73-9.89-15Z" transform="translate(-43.35 -51.17)"/><line class="cls-28" x1="444.08" y1="192.01" x2="441.41" y2="165.58"/><polyline class="cls-28" points="449.27 138.95 454.45 160.32 468.43 154.88 484 160.79 501.04 140.19"/><line class="cls-28" x1="401.95" y1="168.82" x2="432.37" y2="202.67"/><polyline class="cls-28" points="472.67 156.49 475.56 189 467.84 189 464.95 156.49"/><line class="cls-28" x1="467.62" y1="164.64" x2="471.74" y2="164.64"/><line class="cls-28" x1="469" y1="179.86" x2="473.12" y2="179.86"/><path class="cls-26" d="M425.55,219.72s-6-4.17-7.74-6.06c-3.3-3.54-6.58-7.2-10.68-9.83A54.85,54.85,0,0,0,394.34,198c-5.08-1.63-10.62-2.73-15.75-4.18-1.93-.54-2.4,1.68-1.08,3.33a10.89,10.89,0,0,0,2.17,2c.8.57,2.92,2.44,2.92,2.44s-7.69,2.34-11.32,2.05a81.26,81.26,0,0,0-9.74-.5c-.85,0-3.35,1-2.69,2.39a1.13,1.13,0,0,0,.35.4,8.89,8.89,0,0,0,3.16,1,59.66,59.66,0,0,0,6,.88s-7.2.72-11.88,1.36c-.85.12-3.48,1.56-3.32,3.11.09.84,2.95,1,2.95,1a3.72,3.72,0,0,0-1.42.61,2.49,2.49,0,0,0-1.33,1.71c-.49,2.12,4,2.38,5.22,2.62,5,1,15-.13,15-.13a22.5,22.5,0,0,1-4.56,1c-2.57.23-7.65-.69-9.51,1.54-.53.64-.79,1.1,0,1.92a3.43,3.43,0,0,0,1.71.63q1.08.28,2.16.51c4.07.83,27.82,4.67,28.25,4.84S403.38,239,403.38,239" transform="translate(-43.35 -51.17)"/><path class="cls-16" d="M367.53,207.74c2.33,0,8.68-.42,8.68-.42" transform="translate(-43.35 -51.17)"/><path class="cls-16" d="M355.75,213.34c2.36,0,5.58.35,8.8.11a66.9,66.9,0,0,0,9.62-1.5" transform="translate(-43.35 -51.17)"/><path class="cls-16" d="M373.3,218.07a67.39,67.39,0,0,0,9.49-2.33,46.57,46.57,0,0,1,7.41-1.41c1.79-.18,4.8-.84,6.49.08" transform="translate(-43.35 -51.17)"/><path class="cls-16" d="M436.65,227.91c5.11,4.41,10.31,9.25,12.47,15.64" transform="translate(-43.35 -51.17)"/><path class="cls-26" d="M380.53,419l-5.59,16s-13.33,7.92-18.07,10.49c2.25.56,64.61.85,64.6.44-.13-3.34-.81-5.29-.66-9.66.07-2.09,4.64-15.07,4.64-15.07" transform="translate(-43.35 -51.17)"/><path class="cls-29" d="M421.12,434.42,374,434.2S352.82,446,349.58,448.51s-5.58,5.84-5.71,9.05h78.79S421.89,442.53,421.12,434.42Z" transform="translate(-43.35 -51.17)"/><line class="cls-28" x1="327.07" y1="385.01" x2="336.12" y2="389.56"/><line class="cls-28" x1="320.98" y1="388.18" x2="330.03" y2="392.72"/><line class="cls-28" x1="378.98" y1="400.46" x2="303.03" y2="400.46"/><path class="cls-30" d="M491.62,290.32s-37.37,0-45.88,0c-15.8-.06-36,3.06-44.86,27.68-10.61,29.64-24.08,109.47-24.08,109.47h46.84L442,339.28h78c15.22,0,22.72-26.24,18.54-43.75" transform="translate(-43.35 -51.17)"/><path class="cls-26" d="M436.87,419l-3.67,16s-14.16,8.39-18.91,11c2.25.56,66.41.38,66.39,0-.12-3.34-.81-5.29-.66-9.66.08-2.09,2.72-15.07,2.72-15.07" transform="translate(-43.35 -51.17)"/><path class="cls-31" d="M480.33,434.42l-48.12-.22S411.08,446,407.83,448.51s-5.58,5.84-5.71,9.05h79.75S481.11,442.53,480.33,434.42Z" transform="translate(-43.35 -51.17)"/><line class="cls-32" x1="438.19" y1="400.46" x2="361.28" y2="400.46"/><path class="cls-32" d="M480.82,440.73a19.91,19.91,0,0,0-12.58,10.91" transform="translate(-43.35 -51.17)"/><line class="cls-32" x1="385.32" y1="385.01" x2="394.37" y2="389.56"/><line class="cls-32" x1="379.24" y1="388.18" x2="388.29" y2="392.72"/><path class="cls-30" d="M531.51,296.09s-36.67-1.26-45.08,0c-14.56,2.18-35.61,6.43-40.64,41.22-4.79,33.17-12.58,90.16-12.58,90.16H482l15.13-88.19H570c15.22,0,16.55-23.33,12.37-40.85" transform="translate(-43.35 -51.17)"/><path class="cls-25" d="M503.85,294.52c-26.06,1-48.77,1-54.29,28.24-1.23,6.07-4.27,16.52-4.27,16.52" transform="translate(-43.35 -51.17)"/><path class="cls-25" d="M497.31,339.24,491,342.45" transform="translate(-43.35 -51.17)"/><path class="cls-25" d="M406.49,315.31a203.58,203.58,0,0,0-.94,24.57" transform="translate(-43.35 -51.17)"/><path class="cls-25" d="M457,325.58a105.31,105.31,0,0,0,4,25.31" transform="translate(-43.35 -51.17)"/><path class="cls-25" d="M464.1,331.82a44.78,44.78,0,0,0,4.66,8.68" transform="translate(-43.35 -51.17)"/><polyline class="cls-26" points="459.65 125.51 458.6 137.97 468.43 154.88 491.46 136.89 487.9 110.51"/><path class="cls-26" d="M490.81,163.81a15.91,15.91,0,0,0,2.88,11.47c5.34,7.26,16.11,5.61,22.73,1.71a28.55,28.55,0,0,0,9.34-9.19,41.76,41.76,0,0,0,5.42-14.33c1.47-7.12.39-15.09-5.58-19.27a20.77,20.77,0,0,0-9.74-3.24,23.06,23.06,0,0,0-10.55,1,14.91,14.91,0,0,0-8.89,7.86C493.12,146.49,491.88,156.61,490.81,163.81Z" transform="translate(-43.35 -51.17)"/><path class="cls-4" d="M496.17,165.4a2.94,2.94,0,0,0-1.82.43c-1.54,1.14-1.7,4.16.33,4.78,1.24.38,7.62,1.27,6.82-1.74C500.85,166.42,498.57,165.46,496.17,165.4Z" transform="translate(-43.35 -51.17)"/><path class="cls-26" d="M493.5,151.2a64.91,64.91,0,0,1-4.11,8.82c-1.18,2.25,3,2.87,5.08,3" transform="translate(-43.35 -51.17)"/><path class="cls-25" d="M500.94,143.93a10,10,0,0,0,2.93,3.95c1.23,1.1,2.58,2.05,3.75,3.22" transform="translate(-43.35 -51.17)"/><path class="cls-25" d="M500.65,150.12a8.24,8.24,0,0,0,4.29,3.54" transform="translate(-43.35 -51.17)"/><path d="M503.15,154c0,1.05-.56,1.9-1.25,1.9s-1.25-.85-1.25-1.9.56-1.9,1.25-1.9S503.15,152.92,503.15,154Z" transform="translate(-43.35 -51.17)"/><path class="cls-33" d="M527.13,173.36a6.34,6.34,0,0,0-1.22.2c-1.21.31-2.36,1-3.6.93a4,4,0,0,1-3.07-2.24,13.63,13.63,0,0,1-1.14-3.79,68.38,68.38,0,0,0-5.28-15.73,12.74,12.74,0,0,1-1.18-2.83c-.06-.24.08-2.69.41-2.56-2.18-.84-4.54-1.82-5.65-3.88a7,7,0,0,1-.45-4.74c-1.76-.55-4.58-1.29-6.37-.55a10.26,10.26,0,0,0-4.06,3.35c-1-2.26-1.92-3.66-1.54-6.18a11.5,11.5,0,0,1,3.31-6.49,23,23,0,0,1,7.52-4.67,30.76,30.76,0,0,1,9.5-2.55,19.51,19.51,0,0,1,8.6,1.25,5.94,5.94,0,0,1,3.25,3.28c4.32-.35,5.82-.22,8.67.44,2.52.58,5.16,1.25,7,3a7.72,7.72,0,0,1,.75,9.89,4.32,4.32,0,0,1,2.14,2,7.78,7.78,0,0,1,.61,5.81,12.85,12.85,0,0,1-4.37,6,3.82,3.82,0,0,1,2.62,4.22,7.68,7.68,0,0,1-2.73,4.58,27.94,27.94,0,0,0-3.44,4.08,6.29,6.29,0,0,0-1.16,2.14c-.19.81-.08,1.67-.32,2.46-.54,1.78-2.64,2.57-4.5,2.64C530,173.48,528.55,173.25,527.13,173.36Z" transform="translate(-43.35 -51.17)"/><path class="cls-34" d="M540.08,153.65c-3.55-.2-6.77,2-10.27,2.71" transform="translate(-43.35 -51.17)"/><path class="cls-34" d="M542.16,139.56A69,69,0,0,0,527,142.72" transform="translate(-43.35 -51.17)"/><path class="cls-34" d="M526.07,126.19a19.61,19.61,0,0,0-5.27,1.38" transform="translate(-43.35 -51.17)"/><path class="cls-34" d="M506.13,138.33c2.25.21,4.66.39,6.62-.73" transform="translate(-43.35 -51.17)"/><path class="cls-34" d="M512.08,147.11a50.41,50.41,0,0,0,8.15-.51" transform="translate(-43.35 -51.17)"/><path class="cls-26" d="M513.12,154.46a5,5,0,0,1,4.37-1.2c3,.57,3.71,4.37,3.4,7a8.44,8.44,0,0,1-5,6.93c-1.9.73-5.08-.22-5.53-3.9" transform="translate(-43.35 -51.17)"/><path class="cls-25" d="M518.48,157.29a52.56,52.56,0,0,0-6.66,3.75" transform="translate(-43.35 -51.17)"/><path class="cls-25" d="M512.36,154.74a8,8,0,0,1,2-1.25" transform="translate(-43.35 -51.17)"/><path class="cls-25" d="M510.39,164.4a4.1,4.1,0,0,0,2.54,2.77,4.78,4.78,0,0,0,3.74-.25,6.54,6.54,0,0,0,2.75-2.69" transform="translate(-43.35 -51.17)"/><path class="cls-25" d="M502.6,180.7c6,.81,12.94-2.13,15.75-5" transform="translate(-43.35 -51.17)"/><path class="cls-25" d="M490.86,162.1a13.94,13.94,0,0,0,2.49.26" transform="translate(-43.35 -51.17)"/><path class="cls-25" d="M492.06,154.42c.85-1.44,1.65-2.9,2.42-4.39" transform="translate(-43.35 -51.17)"/><line class="cls-16" x1="435.59" y1="105.59" x2="419.58" y2="95.73"/><line class="cls-16" x1="434.55" y1="111.35" x2="415.05" y2="110.4"/><line class="cls-16" x1="434.98" y1="121.72" x2="415.3" y2="125.29"/><path class="cls-8" d="M507.5,334.79l3.5-18.4a13.53,13.53,0,0,1,13.3-11h65a13.18,13.18,0,0,1,13,11.24l1.81,12.15a21.44,21.44,0,0,1-21.21,24.59h-60A15.65,15.65,0,0,1,507.5,334.79Z" transform="translate(-43.35 -51.17)"/><path class="cls-10" d="M519.33,353a15.66,15.66,0,0,1-11.83-18.17l3.5-18.4a13.53,13.53,0,0,1,13.3-11h65a13.18,13.18,0,0,1,13,11.24l1.81,12.15a21.41,21.41,0,0,1-7,19.19" transform="translate(-43.35 -51.17)"/><path class="cls-26" d="M549.28,249c0,.44,8.5,26.95,8.5,26.95s-26.63,4.27-39.08,11,12.06,19,12.06,19h53.68c11.43,0,16.34-10.68,13.48-21.93s-10-36.17-10-36.17" transform="translate(-43.35 -51.17)"/><path class="cls-27" d="M546.83,192.23s16.27,3,24.61,10.57C582.66,213,596,257.43,596,257.43l-45.6,3.73-7.17-31" transform="translate(-43.35 -51.17)"/><line class="cls-28" x1="507.06" y1="209.98" x2="499.89" y2="178.99"/><path class="cls-26" d="M522.74,285.1c-12.29,5.06-16.44,11.62-20.56,18.08a31.56,31.56,0,0,0-3.91,8.53,22.18,22.18,0,0,0-.43,6.69,57.84,57.84,0,0,0,2.41,6,10.79,10.79,0,0,0,.55,3.18c.61,2.11.44,4.34,1.63,4.15a3.72,3.72,0,0,0,2.38-1.55c2.13.23,3.74.28,4.93-1.8,0,.49.9.74,1.37.62a4.73,4.73,0,0,0,1.65-1.24c1.8-2.19,3.59-4.42,5.44-6.59,3.44-4,6-5.56,10.44-8.41a47.54,47.54,0,0,0,10-8.68" transform="translate(-43.35 -51.17)"/><path class="cls-25" d="M535.83,306.62a15.6,15.6,0,0,1,5.47-3.85" transform="translate(-43.35 -51.17)"/><path class="cls-25" d="M509.74,328.36c-.19-.54,1.51-5.93,2.36-7.62a49.33,49.33,0,0,1,5.18-7.3" transform="translate(-43.35 -51.17)"/><path class="cls-25" d="M504.81,330.16A102.94,102.94,0,0,1,507,318.31c1.13-3.69,4.57-8.26,4.57-8.26" transform="translate(-43.35 -51.17)"/><path class="cls-25" d="M500.28,325.53s.57-7.65,1.35-10.53,4.63-9.62,4.63-9.62" transform="translate(-43.35 -51.17)"/><path class="cls-25" d="M557.71,275.59c9.12-1.16,20.43,1.27,27.47,4" transform="translate(-43.35 -51.17)"/><line class="cls-28" x1="548.66" y1="195.21" x2="504.73" y2="199.89"/><path class="cls-35" d="M679.22,217.48c-4.9,3.87-9,9.81-11.39,14.16-5.05,9.05-7.83,19.29-10.73,29.17a244.6,244.6,0,0,0-7.45,34.59c-1.63,11.54-3.11,23.4.41,34.76.7,2.25,2.57,5.86,5.44,4.34,3.22-1.7,5.36-7.78,6.83-10.83,1.64-3.42,3-6.95,4.62-10.41q12.57-27.47,25.13-54.93c4-8.82,8.14-17.91,8.54-27.6a21.31,21.31,0,0,0-2-10.82c-1.73-3.28-4.93-5.94-8.63-6.31S682.51,214.88,679.22,217.48Z" transform="translate(-43.35 -51.17)"/><path class="cls-35" d="M645.73,258.37c-.89-15.33-3.25-30.91-9.71-45-3.6-7.85-11.83-21.3-22.46-16.65-4.29,1.87-5.5,7.33-5.63,12-.2,7.76,1,15.49,2.61,23.09,2.48,12,5.75,23.76,9.22,35.47,4.32,14.6,9,29.17,15.81,42.77.89,1.76,2.21,3.75,4.18,3.72a4,4,0,0,0,3.09-2c1.43-2.18,1.64-4.9,1.82-7.5C645.67,289,646.61,273.65,645.73,258.37Z" transform="translate(-43.35 -51.17)"/><path class="cls-36" d="M619.79,290.33c-3.16-12.39-7-24.69-13.11-35.33s-14.73-19.57-25-23.12c-2.3-.8-4.89-1.28-7,.1-3.09,2-3.75,7.08-3.31,11.3.69,6.49,3.1,12.5,5.55,18.33a441.19,441.19,0,0,0,23.2,48c3.82,6.7,8.39,17.1,13.95,21.82,5.74,4.87,9.2-2.35,9.73-8.58C624.71,311.83,622.45,300.74,619.79,290.33Z" transform="translate(-43.35 -51.17)"/><path class="cls-25" d="M580,241.52c24.87,37.24,41.66,82.33,48.24,129.57" transform="translate(-43.35 -51.17)"/><path class="cls-25" d="M618.81,205.66C640,264.48,646.1,334.31,640,396.54" transform="translate(-43.35 -51.17)"/><path class="cls-25" d="M683.17,233.6a285.76,285.76,0,0,0-14.23,31.28c-14.53,39.19-15.12,82-15.54,123.77" transform="translate(-43.35 -51.17)"/><path class="cls-36" d="M674.77,287.53a95.16,95.16,0,0,0-9.47,24.07,139.82,139.82,0,0,0-4,25.19c-.19,2.88-1.23,7.83.41,10.2s4.93,1.87,6.92.36a17.38,17.38,0,0,0,4.05-5.19c8.23-13.82,16.37-27.76,25.8-40.64,5.5-7.52,24.58-24.46,12.65-34.84-3.66-3.18-9-2.39-13.44-.6C687.79,270.09,680.29,278,674.77,287.53Z" transform="translate(-43.35 -51.17)"/><path class="cls-25" d="M705.33,271.54C691.55,284.29,677,303.6,671,321.4a230.7,230.7,0,0,0-11.73,84" transform="translate(-43.35 -51.17)"/><rect class="cls-4" x="571.66" y="315.03" width="70.13" height="73.38"/><line class="cls-37" x1="641.79" y1="388.42" x2="571.66" y2="388.42"/><line class="cls-37" x1="571.66" y1="315.03" x2="571.66" y2="407.08"/><line class="cls-37" x1="621.32" y1="315.03" x2="621.32" y2="407.08"/><line class="cls-37" x1="641.79" y1="315.03" x2="641.79" y2="407.08"/><line class="cls-37" y1="407.22" x2="663.29" y2="407.22"/></g></svg>