<svg width="49" height="49" viewBox="0 0 49 49" fill="none" xmlns="http://www.w3.org/2000/svg">
<g id="mingcute:send-fill" clip-path="url(#clip0_445_2448)">
<g id="Group">
<path id="Vector" d="M41.3131 11.6089C42.1951 9.16908 39.8308 6.80484 37.391 7.68888L7.57249 18.473C5.12453 19.359 4.82848 22.6992 7.08044 24.0038L16.5987 29.5143L25.0982 21.0148C25.4832 20.6429 25.9989 20.4371 26.5343 20.4418C27.0696 20.4464 27.5817 20.6612 27.9602 21.0397C28.3387 21.4182 28.5535 21.9303 28.5581 22.4656C28.5628 23.001 28.357 23.5167 27.9851 23.9018L19.4856 32.4012L24.9981 41.9195C26.3007 44.1714 29.6409 43.8733 30.5269 41.4274L41.3131 11.6089Z" fill="#757575"/>
</g>
</g>
<defs>
<clipPath id="clip0_445_2448">
<rect width="49" height="49" fill="white"/>
</clipPath>
</defs>
</svg>
