<svg width="96" height="99" viewBox="0 0 96 99" fill="none" xmlns="http://www.w3.org/2000/svg">
<g id="Group 165">
<circle id="Ellipse 4" cx="88" cy="8" r="8" fill="#6DDC30"/>
<circle id="Ellipse 45" cx="45" cy="54" r="45" fill="#FCFCFC"/>
<g id="Design Work">
<path id="Vector" d="M73.5411 72.367C70.8859 75.0478 67.7257 77.1735 64.2439 78.6208C60.7622 80.0681 57.0281 80.8082 53.2586 80.798C45.7471 80.6565 38.5773 77.6275 33.2326 72.3377C27.8879 67.0479 24.7773 59.9021 24.5444 52.3787C24.3725 46.4724 26.0435 40.6595 29.3246 35.7495C25.278 40.9898 23.1248 47.45 23.2166 54.0749C23.2166 69.9724 36.611 82.3445 52.4785 82.3445C56.4525 82.1762 60.3539 81.2211 63.9576 79.5343C67.5613 77.8475 70.7958 75.4624 73.4747 72.5166C73.4899 72.4639 73.5122 72.4136 73.5411 72.367Z" fill="#EF6036"/>
<path id="Vector_2" d="M59.0013 26.0713C62.1826 26.8784 65.2219 28.1682 68.0139 29.896C65.2513 28.112 62.2025 26.8181 59.0013 26.0713Z" fill="#EF6036"/>
<path id="Vector_3" d="M73.3088 72.9157C73.3398 72.7805 73.3786 72.6472 73.425 72.5166C70.7499 75.4682 67.5164 77.8584 63.9122 79.5483C60.3079 81.2382 56.4047 82.1943 52.4287 82.361C36.5613 82.361 23.1668 69.9723 23.1668 54.0914C23.1668 38.2106 34.2708 25.3063 52.4785 25.3063C59.6988 25.3054 66.6529 28.0376 71.9478 32.9557L72.6781 33.4879L73.5577 34.0699C67.2506 26.6699 58.0388 21.9805 50.271 21.9805C30.918 21.9805 17.3078 35.5665 17.3078 53.1934C17.2991 57.3897 18.1165 61.5465 19.7133 65.4258C21.31 69.3052 23.6548 72.8309 26.6133 75.8012C29.5718 78.7715 33.086 81.1281 36.9547 82.7359C40.8234 84.3438 44.9706 85.1714 49.159 85.1714C57.7898 85.1714 67.0514 80.4154 73.342 73.0154L73.3088 72.9157Z" fill="#EE3138"/>
<path id="Vector_4" d="M28.196 52.878C28.196 45.9317 30.9502 39.2699 35.8527 34.3581C40.7552 29.4464 47.4044 26.687 54.3376 26.687C60.1233 26.6437 65.7648 28.4947 70.4042 31.9584L71.2175 32.4906L71.5661 32.7234L71.7321 32.8564C66.4147 27.7211 59.2996 24.8792 51.9143 24.9409C34.0883 24.9409 24.3951 37.2798 24.3951 52.4955C24.3951 67.7112 37.2916 80.9979 55.0513 80.9979C60.4869 81.0616 65.7728 79.2139 69.9893 75.7764C64.7761 78.8297 58.7931 80.3081 52.7608 80.0334C40.2626 80.0334 28.196 67.944 28.196 52.878Z" fill="#D13236"/>
<path id="Vector_5" d="M64.5617 60.128C64.5617 64.0691 61.8895 70.1055 55.1839 70.1055C53.9612 70.1772 52.737 69.9939 51.5887 69.567C50.4404 69.1401 49.3931 68.4789 48.5131 67.6254C47.6332 66.7719 46.9396 65.7446 46.4765 64.6086C46.0134 63.4726 45.7908 62.2526 45.8228 61.0259C45.7044 58.9134 46.3693 56.8316 47.6897 55.1803C49.0101 53.529 50.8929 52.4247 52.9764 52.0795V45.9766C49.3472 46.5113 46.0308 48.3357 43.6327 51.1169C41.2347 53.8981 39.9148 57.4505 39.914 61.1257C39.8666 63.1449 40.2337 65.1522 40.9924 67.0234C41.7511 68.8946 42.8853 70.5898 44.3247 72.0038C45.7641 73.4179 47.478 74.5207 49.3603 75.2439C51.2425 75.9672 53.2529 76.2954 55.2669 76.2084C57.3109 76.1956 59.3319 75.7754 61.2122 74.9723C63.0925 74.1691 64.7944 72.999 66.2187 71.5302C67.6431 70.0614 68.7613 68.3232 69.5084 66.417C70.2555 64.5108 70.6164 62.4747 70.5701 60.4273C70.5701 60.3275 70.5701 60.2277 70.5701 60.128H64.5617Z" fill="#00AFF0"/>
<path id="Vector_6" d="M70.5701 45.9766H55.2338V52.0961H70.5701V45.9766Z" fill="#EE3138"/>
<path id="Vector_7" d="M64.4456 45.9929V57.8994H70.5535V45.9929H64.4456Z" fill="#EE3138"/>
<path id="Vector_8" d="M68.0141 44.7293C69.6916 44.7293 71.0515 43.3669 71.0515 41.6862C71.0515 40.0055 69.6916 38.6431 68.0141 38.6431C66.3366 38.6431 64.9767 40.0055 64.9767 41.6862C64.9767 43.3669 66.3366 44.7293 68.0141 44.7293Z" fill="#00AFF0"/>
<path id="Vector_9" d="M66.6697 71.0039C64.5535 73.0875 61.8779 74.509 58.9691 75.0951C56.0604 75.6813 53.0442 75.4067 50.2886 74.3048C47.5329 73.2029 45.1569 71.3214 43.4503 68.8898C41.7437 66.4581 40.7803 63.5815 40.6775 60.6106C40.5506 57.5234 41.4113 54.4763 43.134 51.9136C40.9488 54.6222 39.7749 58.0095 39.8144 61.492C39.8144 69.8066 46.9349 76.1922 55.35 76.1922C59.589 76.0136 63.5884 74.1743 66.4871 71.0704L66.6697 71.0039Z" fill="#0071BC"/>
</g>
</g>
</svg>
