<svg width="229" height="73" viewBox="0 0 229 73" fill="none" xmlns="http://www.w3.org/2000/svg">
<path d="M56.0504 55.8082C53.4039 58.4803 50.254 60.5991 46.7835 62.0417C43.313 63.4843 39.5911 64.222 35.8338 64.2118C28.3468 64.0708 21.2003 61.0517 15.873 55.7791C10.5457 50.5064 7.44519 43.3839 7.21303 35.8849C7.04171 29.9978 8.70725 24.2038 11.9777 19.3098C7.9443 24.5331 5.79806 30.9723 5.88953 37.5756C5.88953 53.4214 19.2404 65.7533 35.0563 65.7533C39.0174 65.5855 42.9061 64.6335 46.4981 62.9522C50.09 61.2709 53.3141 58.8936 55.9842 55.9574C55.9994 55.9049 56.0216 55.8547 56.0504 55.8082Z" fill="#EF6036"/>
<path d="M41.5581 9.66333C44.729 10.4678 47.7585 11.7534 50.5414 13.4756C47.7877 11.6974 44.7488 10.4078 41.5581 9.66333Z" fill="#EF6036"/>
<path d="M55.8189 56.3553C55.8499 56.2205 55.8885 56.0877 55.9347 55.9575C53.2684 58.8995 50.0454 61.2819 46.4529 62.9663C42.8604 64.6507 38.9698 65.6037 35.0068 65.7699C19.1909 65.7699 5.84004 53.4215 5.84004 37.5922C5.84004 21.763 16.9079 8.90072 35.0564 8.90072C42.2532 8.89977 49.1847 11.6231 54.4623 16.5253L55.1903 17.0557L56.0671 17.6358C49.7804 10.2599 40.5986 5.58569 32.8561 5.58569C13.566 5.58569 6.89748e-05 19.1276 6.89748e-05 36.6972C-0.00863291 40.8798 0.806122 45.0231 2.39769 48.8898C3.98926 52.7565 6.32639 56.2708 9.2753 59.2314C12.2242 62.1921 15.727 64.5409 19.5831 66.1436C23.4392 67.7462 27.5729 68.5711 31.7477 68.5711C40.3505 68.5711 49.5819 63.8306 55.852 56.4547L55.8189 56.3553Z" fill="#EE3138"/>
<path d="M10.853 36.3826C10.853 29.4589 13.5982 22.8188 18.4848 17.923C23.3713 13.0272 29.9989 10.2768 36.9095 10.2768C42.6764 10.2336 48.2996 12.0786 52.9239 15.5311L53.7346 16.0615L54.082 16.2935L54.2474 16.4261C48.9474 11.3075 41.8554 8.47485 34.4941 8.53638C16.726 8.53638 7.06445 20.8351 7.06445 36.0013C7.06445 51.1676 19.919 64.4111 37.6209 64.4111C43.0389 64.4746 48.3076 62.6329 52.5103 59.2065C47.3141 62.2499 41.3506 63.7235 35.3379 63.4497C22.8803 63.4497 10.853 51.3996 10.853 36.3826Z" fill="#D13236"/>
<path d="M47.1004 43.609C47.1004 47.5373 44.4369 53.5541 37.7532 53.5541C36.5345 53.6256 35.3142 53.4429 34.1696 53.0174C33.0251 52.5919 31.9812 51.9329 31.1041 51.0821C30.2269 50.2314 29.5357 49.2074 29.0741 48.0751C28.6125 46.9428 28.3906 45.7268 28.4225 44.5041C28.3045 42.3985 28.9672 40.3234 30.2833 38.6775C31.5994 37.0315 33.4761 35.9308 35.5528 35.5867V29.5037C31.9354 30.0366 28.6298 31.8552 26.2395 34.6273C23.8492 37.3994 22.5336 40.9403 22.5329 44.6036C22.4857 46.6161 22.8516 48.617 23.6078 50.4821C24.3641 52.3472 25.4946 54.0369 26.9293 55.4463C28.364 56.8558 30.0723 57.955 31.9484 58.6759C33.8245 59.3968 35.8284 59.7239 37.8359 59.6371C39.8732 59.6245 41.8877 59.2056 43.7618 58.4051C45.636 57.6045 47.3323 56.4382 48.7521 54.9742C50.1718 53.5101 51.2864 51.7776 52.0311 49.8776C52.7757 47.9776 53.1354 45.9481 53.0893 43.9074C53.0893 43.808 53.0893 43.7085 53.0893 43.609H47.1004Z" fill="#00AFF0"/>
<path d="M53.0892 29.5037H37.8027V35.6033H53.0892V29.5037Z" fill="#EE3138"/>
<path d="M46.9844 29.5202V41.3879H53.0725V29.5202H46.9844Z" fill="#EE3138"/>
<path d="M50.5417 28.2606C52.2137 28.2606 53.5692 26.9025 53.5692 25.2273C53.5692 23.5521 52.2137 22.1941 50.5417 22.1941C48.8696 22.1941 47.5142 23.5521 47.5142 25.2273C47.5142 26.9025 48.8696 28.2606 50.5417 28.2606Z" fill="#00AFF0"/>
<path d="M49.2015 54.4496C47.0922 56.5264 44.4253 57.9433 41.526 58.5276C38.6267 59.1118 35.6203 58.8381 32.8737 57.7398C30.127 56.6415 27.7587 54.7661 26.0576 52.3424C24.3566 49.9187 23.3963 47.0513 23.2939 44.0902C23.1673 41.013 24.0252 37.9758 25.7423 35.4214C23.5643 38.1212 22.3942 41.4975 22.4336 44.9686C22.4336 53.2562 29.5309 59.621 37.9186 59.621C42.1438 59.4431 46.1302 57.6098 49.0195 54.5159L49.2015 54.4496Z" fill="#0071BC"/>
<path d="M207.708 60.0186H64.769V61.0462H207.708V60.0186Z" fill="#00AFF0"/>
<path d="M62.2365 70L63.3232 63.4545H67.5163L67.3501 64.4485H64.3427L64.0487 66.2255H66.7685L66.6023 67.2195H63.8825L63.4222 70H62.2365ZM73.8892 66.804C73.7741 67.4986 73.5472 68.0909 73.2085 68.581C72.8718 69.0689 72.4606 69.4428 71.9748 69.7028C71.4911 69.9606 70.9702 70.0895 70.4119 70.0895C69.826 70.0895 69.3232 69.9531 68.9034 69.6804C68.4837 69.4055 68.1811 69.0124 67.9957 68.5011C67.8125 67.9897 67.7805 67.3761 67.8999 66.6602C68.0149 65.9677 68.2408 65.3754 68.5774 64.8832C68.9141 64.391 69.3263 64.0149 69.8143 63.755C70.3022 63.495 70.8285 63.3651 71.3931 63.3651C71.9748 63.3651 72.4734 63.5025 72.8888 63.7773C73.3065 64.0501 73.6069 64.4432 73.7901 64.9567C73.9755 65.4702 74.0085 66.0859 73.8892 66.804ZM72.7227 66.6602C72.8015 66.1765 72.794 65.7685 72.7003 65.4361C72.6087 65.1037 72.4457 64.8533 72.2113 64.685C71.9769 64.5146 71.6882 64.4293 71.3452 64.4293C70.9744 64.4293 70.6314 64.522 70.3161 64.7074C70.0028 64.8906 69.7365 65.1591 69.517 65.5128C69.2997 65.8665 69.1506 66.2969 69.0696 66.804C68.9844 67.2898 68.9897 67.6978 69.0856 68.0281C69.1815 68.3583 69.3477 68.6076 69.5842 68.7759C69.8207 68.9421 70.1094 69.0252 70.4503 69.0252C70.8189 69.0252 71.1598 68.9336 71.473 68.7504C71.7862 68.5671 72.0515 68.2997 72.2688 67.9482C72.4883 67.5966 72.6396 67.1673 72.7227 66.6602ZM74.4797 70L75.5663 63.4545H78.0209C78.5237 63.4545 78.9317 63.5419 79.2449 63.7166C79.5582 63.8913 79.7765 64.1364 79.9001 64.4517C80.0237 64.7649 80.0503 65.1303 79.98 65.5479C79.9118 65.9656 79.7627 66.3288 79.5326 66.6378C79.3046 66.9446 79.0031 67.1822 78.6281 67.3505C78.2552 67.5188 77.8174 67.603 77.3145 67.603H75.5663L75.7325 66.6186H77.3241C77.6182 66.6186 77.8653 66.5781 78.0656 66.4972C78.2659 66.4141 78.4236 66.2937 78.5386 66.136C78.6558 65.9762 78.7336 65.7802 78.7719 65.5479C78.8082 65.3157 78.7943 65.1175 78.7304 64.9535C78.6686 64.7873 78.5503 64.6616 78.3756 64.5763C78.203 64.489 77.9697 64.4453 77.6757 64.4453H76.589L75.6654 70H74.4797ZM78.3532 67.0341L79.4814 70H78.1583L77.0589 67.0341H78.3532ZM83.24 63.4545H84.5791L85.7009 66.3501H85.7712L87.8454 63.4545H89.1846L86.1228 67.5582L85.7169 70H84.5344L84.9403 67.5582L83.24 63.4545ZM94.9478 66.804C94.8327 67.4986 94.6058 68.0909 94.267 68.581C93.9304 69.0689 93.5192 69.4428 93.0334 69.7028C92.5497 69.9606 92.0288 70.0895 91.4705 70.0895C90.8846 70.0895 90.3817 69.9531 89.962 69.6804C89.5423 69.4055 89.2397 69.0124 89.0543 68.5011C88.8711 67.9897 88.8391 67.3761 88.9585 66.6602C89.0735 65.9677 89.2994 65.3754 89.636 64.8832C89.9727 64.391 90.3849 64.0149 90.8729 63.755C91.3608 63.495 91.8871 63.3651 92.4517 63.3651C93.0334 63.3651 93.532 63.5025 93.9474 63.7773C94.3651 64.0501 94.6655 64.4432 94.8487 64.9567C95.0341 65.4702 95.0671 66.0859 94.9478 66.804ZM93.7812 66.6602C93.8601 66.1765 93.8526 65.7685 93.7589 65.4361C93.6673 65.1037 93.5043 64.8533 93.2699 64.685C93.0355 64.5146 92.7468 64.4293 92.4038 64.4293C92.033 64.4293 91.69 64.522 91.3746 64.7074C91.0614 64.8906 90.7951 65.1591 90.5756 65.5128C90.3583 65.8665 90.2092 66.2969 90.1282 66.804C90.043 67.2898 90.0483 67.6978 90.1442 68.0281C90.2401 68.3583 90.4062 68.6076 90.6428 68.7759C90.8793 68.9421 91.168 69.0252 91.5089 69.0252C91.8775 69.0252 92.2184 68.9336 92.5316 68.7504C92.8448 68.5671 93.1101 68.2997 93.3274 67.9482C93.5469 67.5966 93.6982 67.1673 93.7812 66.6602ZM100.751 63.4545H101.937L101.227 67.7308C101.15 68.1996 100.972 68.6119 100.69 68.9677C100.411 69.3235 100.055 69.6016 99.6228 69.8018C99.1903 70 98.7087 70.0991 98.1782 70.0991C97.6434 70.0991 97.1938 70 96.8295 69.8018C96.4651 69.6016 96.202 69.3235 96.04 68.9677C95.8802 68.6119 95.8387 68.1996 95.9154 67.7308L96.6249 63.4545H97.8106L97.1171 67.6317C97.0724 67.9045 97.0926 68.1474 97.1778 68.3604C97.2652 68.5714 97.4079 68.7376 97.6061 68.859C97.8064 68.9805 98.0567 69.0412 98.3572 69.0412C98.6576 69.0412 98.9282 68.9805 99.1689 68.859C99.4097 68.7376 99.6068 68.5714 99.7602 68.3604C99.9136 68.1474 100.013 67.9045 100.057 67.6317L100.751 63.4545ZM102.139 70L103.225 63.4545H105.68C106.183 63.4545 106.591 63.5419 106.904 63.7166C107.217 63.8913 107.436 64.1364 107.559 64.4517C107.683 64.7649 107.71 65.1303 107.639 65.5479C107.571 65.9656 107.422 66.3288 107.192 66.6378C106.964 66.9446 106.662 67.1822 106.287 67.3505C105.914 67.5188 105.477 67.603 104.974 67.603H103.225L103.392 66.6186H104.983C105.277 66.6186 105.525 66.5781 105.725 66.4972C105.925 66.4141 106.083 66.2937 106.198 66.136C106.315 65.9762 106.393 65.7802 106.431 65.5479C106.467 65.3157 106.453 65.1175 106.39 64.9535C106.328 64.7873 106.21 64.6616 106.035 64.5763C105.862 64.489 105.629 64.4453 105.335 64.4453H104.248L103.325 70H102.139ZM106.012 67.0341L107.141 70H105.817L104.718 67.0341H106.012ZM116.575 65.663H115.399C115.399 65.467 115.367 65.2933 115.303 65.142C115.239 64.9886 115.15 64.8587 115.035 64.7521C114.92 64.6456 114.783 64.5657 114.626 64.5124C114.468 64.457 114.293 64.4293 114.102 64.4293C113.735 64.4293 113.394 64.522 113.079 64.7074C112.763 64.8928 112.496 65.1623 112.277 65.516C112.057 65.8675 111.905 66.2947 111.82 66.7976C111.741 67.2876 111.748 67.6978 111.842 68.0281C111.938 68.3583 112.104 68.6076 112.341 68.7759C112.577 68.9421 112.865 69.0252 113.203 69.0252C113.41 69.0252 113.608 68.9996 113.798 68.9485C113.988 68.8952 114.162 68.8175 114.322 68.7152C114.484 68.6108 114.626 68.484 114.747 68.3349C114.871 68.1857 114.967 68.0163 115.035 67.8267H116.227C116.129 68.1378 115.985 68.4308 115.795 68.7056C115.606 68.9783 115.378 69.2191 115.112 69.4279C114.845 69.6346 114.547 69.7965 114.217 69.9137C113.886 70.0309 113.531 70.0895 113.149 70.0895C112.563 70.0895 112.061 69.9531 111.644 69.6804C111.228 69.4055 110.93 69.0124 110.749 68.5011C110.568 67.9876 110.536 67.3729 110.653 66.657C110.77 65.9602 110.996 65.3668 111.331 64.8768C111.667 64.3867 112.077 64.0128 112.561 63.755C113.047 63.495 113.57 63.3651 114.13 63.3651C114.501 63.3651 114.838 63.4162 115.14 63.5185C115.445 63.6207 115.706 63.771 115.923 63.9691C116.141 64.1651 116.306 64.4059 116.419 64.6914C116.534 64.9748 116.586 65.2987 116.575 65.663ZM123.328 66.804C123.213 67.4986 122.986 68.0909 122.647 68.581C122.31 69.0689 121.899 69.4428 121.413 69.7028C120.93 69.9606 120.409 70.0895 119.85 70.0895C119.264 70.0895 118.762 69.9531 118.342 69.6804C117.922 69.4055 117.62 69.0124 117.434 68.5011C117.251 67.9897 117.219 67.3761 117.338 66.6602C117.453 65.9677 117.679 65.3754 118.016 64.8832C118.353 64.391 118.765 64.0149 119.253 63.755C119.741 63.495 120.267 63.3651 120.832 63.3651C121.413 63.3651 121.912 63.5025 122.327 63.7773C122.745 64.0501 123.045 64.4432 123.229 64.9567C123.414 65.4702 123.447 66.0859 123.328 66.804ZM122.161 66.6602C122.24 66.1765 122.233 65.7685 122.139 65.4361C122.047 65.1037 121.884 64.8533 121.65 64.685C121.415 64.5146 121.127 64.4293 120.784 64.4293C120.413 64.4293 120.07 64.522 119.755 64.7074C119.441 64.8906 119.175 65.1591 118.956 65.5128C118.738 65.8665 118.589 66.2969 118.508 66.804C118.423 67.2898 118.428 67.6978 118.524 68.0281C118.62 68.3583 118.786 68.6076 119.023 68.7759C119.259 68.9421 119.548 69.0252 119.889 69.0252C120.257 69.0252 120.598 68.9336 120.911 68.7504C121.225 68.5671 121.49 68.2997 121.707 67.9482C121.927 67.5966 122.078 67.1673 122.161 66.6602ZM130.384 63.4545L129.297 70H128.242L125.9 65.5415H125.849L125.104 70H123.918L125.005 63.4545H126.066L128.405 67.9162H128.466L129.204 63.4545H130.384ZM130.589 70L131.676 63.4545H135.869L135.703 64.4485H132.695L132.401 66.2255H135.121L134.955 67.2195H132.235L131.775 70H130.589ZM141.075 63.4545H142.261L141.551 67.7308C141.475 68.1996 141.296 68.6119 141.014 68.9677C140.735 69.3235 140.38 69.6016 139.947 69.8018C139.514 70 139.033 70.0991 138.502 70.0991C137.968 70.0991 137.518 70 137.154 69.8018C136.789 69.6016 136.526 69.3235 136.364 68.9677C136.204 68.6119 136.163 68.1996 136.24 67.7308L136.949 63.4545H138.135L137.441 67.6317C137.397 67.9045 137.417 68.1474 137.502 68.3604C137.589 68.5714 137.732 68.7376 137.93 68.859C138.131 68.9805 138.381 69.0412 138.681 69.0412C138.982 69.0412 139.252 68.9805 139.493 68.859C139.734 68.7376 139.931 68.5714 140.084 68.3604C140.238 68.1474 140.337 67.9045 140.382 67.6317L141.075 63.4545ZM146.8 65.2859C146.809 64.9897 146.718 64.7628 146.528 64.6051C146.341 64.4474 146.071 64.3686 145.72 64.3686C145.473 64.3686 145.254 64.4059 145.065 64.4805C144.877 64.5529 144.726 64.6541 144.611 64.7841C144.496 64.9119 144.424 65.0579 144.397 65.2219C144.373 65.3562 144.385 65.4734 144.432 65.5735C144.479 65.6737 144.55 65.7589 144.646 65.8292C144.744 65.8995 144.855 65.9581 144.978 66.005C145.104 66.0518 145.232 66.0913 145.362 66.1232L145.95 66.2766C146.184 66.3342 146.408 66.4119 146.621 66.5099C146.834 66.6058 147.018 66.7294 147.174 66.8807C147.332 67.0298 147.447 67.2099 147.519 67.4208C147.592 67.6317 147.603 67.8789 147.554 68.1623C147.49 68.5458 147.336 68.8835 147.091 69.1754C146.848 69.4652 146.528 69.6921 146.132 69.8562C145.738 70.0181 145.279 70.0991 144.755 70.0991C144.248 70.0991 143.819 70.0202 143.47 69.8626C143.12 69.7028 142.865 69.4716 142.703 69.169C142.543 68.8665 142.492 68.4989 142.549 68.0664H143.716C143.692 68.2944 143.73 68.484 143.828 68.6353C143.928 68.7866 144.072 68.8995 144.259 68.9741C144.447 69.0487 144.664 69.0859 144.911 69.0859C145.169 69.0859 145.402 69.0476 145.611 68.9709C145.82 68.892 145.99 68.7834 146.123 68.6449C146.257 68.5043 146.339 68.3402 146.369 68.1527C146.398 67.9844 146.374 67.8437 146.295 67.7308C146.216 67.6179 146.094 67.5241 145.928 67.4496C145.763 67.3729 145.567 67.3047 145.339 67.245L144.63 67.0533C144.116 66.9126 143.727 66.7017 143.46 66.4205C143.196 66.1392 143.102 65.7642 143.179 65.2955C143.243 64.9077 143.404 64.57 143.662 64.2823C143.919 63.9925 144.242 63.7678 144.63 63.608C145.018 63.446 145.442 63.3651 145.902 63.3651C146.366 63.3651 146.76 63.446 147.081 63.608C147.405 63.7699 147.642 63.9957 147.791 64.2855C147.942 64.5732 147.992 64.9066 147.941 65.2859H146.8ZM148.308 70L149.394 63.4545H153.652L153.485 64.4485H150.414L150.12 66.2255H152.971L152.805 67.2195H149.954L149.66 69.006H152.757L152.59 70H148.308ZM156.025 70H153.775L154.861 63.4545H157.092C157.742 63.4545 158.281 63.5888 158.709 63.8572C159.138 64.1257 159.438 64.5092 159.611 65.0078C159.785 65.5043 159.815 66.0966 159.7 66.7848C159.589 67.4581 159.371 68.0344 159.045 68.5138C158.719 68.9933 158.3 69.3608 157.789 69.6165C157.277 69.8722 156.689 70 156.025 70ZM155.13 68.9741H156.085C156.539 68.9741 156.934 68.8878 157.271 68.7152C157.61 68.5405 157.886 68.2816 158.099 67.9386C158.314 67.5934 158.463 67.1651 158.546 66.6538C158.629 66.1637 158.624 65.7589 158.53 65.4393C158.437 65.1175 158.254 64.8778 157.984 64.7202C157.715 64.5604 157.359 64.4805 156.916 64.4805H155.874L155.13 68.9741ZM163.615 63.4545H165.066L166.226 68.1974H166.303L169.029 63.4545H170.48L169.394 70H168.256L169.004 65.5032H168.946L166.389 69.9808H165.542L164.481 65.4936H164.421L163.666 70H162.528L163.615 63.4545ZM177.064 66.804C176.949 67.4986 176.722 68.0909 176.383 68.581C176.047 69.0689 175.635 69.4428 175.15 69.7028C174.666 69.9606 174.145 70.0895 173.587 70.0895C173.001 70.0895 172.498 69.9531 172.078 69.6804C171.658 69.4055 171.356 69.0124 171.171 68.5011C170.987 67.9897 170.955 67.3761 171.075 66.6602C171.19 65.9677 171.416 65.3754 171.752 64.8832C172.089 64.391 172.501 64.0149 172.989 63.755C173.477 63.495 174.003 63.3651 174.568 63.3651C175.15 63.3651 175.648 63.5025 176.064 63.7773C176.481 64.0501 176.782 64.4432 176.965 64.9567C177.15 65.4702 177.183 66.0859 177.064 66.804ZM175.897 66.6602C175.976 66.1765 175.969 65.7685 175.875 65.4361C175.783 65.1037 175.62 64.8533 175.386 64.685C175.152 64.5146 174.863 64.4293 174.52 64.4293C174.149 64.4293 173.806 64.522 173.491 64.7074C173.178 64.8906 172.911 65.1591 172.692 65.5128C172.475 65.8665 172.325 66.2969 172.244 66.804C172.159 67.2898 172.165 67.6978 172.26 68.0281C172.356 68.3583 172.522 68.6076 172.759 68.7759C172.995 68.9421 173.284 69.0252 173.625 69.0252C173.994 69.0252 174.335 68.9336 174.648 68.7504C174.961 68.5671 175.226 68.2997 175.444 67.9482C175.663 67.5966 175.814 67.1673 175.897 66.6602ZM178.741 63.4545H180.192L181.352 68.1974H181.429L184.155 63.4545H185.606L184.52 70H183.382L184.13 65.5032H184.072L181.515 69.9808H180.668L179.607 65.4936H179.547L178.792 70H177.654L178.741 63.4545ZM185.811 70L186.897 63.4545H191.154L190.988 64.4485H187.917L187.623 66.2255H190.474L190.308 67.2195H187.457L187.163 69.006H190.26L190.093 70H185.811ZM197.743 63.4545L196.656 70H195.602L193.259 65.5415H193.208L192.463 70H191.278L192.364 63.4545H193.425L195.765 67.9162H195.825L196.564 63.4545H197.743ZM198.581 64.4485L198.747 63.4545H203.97L203.804 64.4485H201.78L200.86 70H199.684L200.604 64.4485H198.581ZM208.227 65.2859C208.235 64.9897 208.145 64.7628 207.955 64.6051C207.768 64.4474 207.498 64.3686 207.147 64.3686C206.899 64.3686 206.681 64.4059 206.491 64.4805C206.304 64.5529 206.153 64.6541 206.038 64.7841C205.922 64.9119 205.851 65.0579 205.823 65.2219C205.8 65.3562 205.812 65.4734 205.859 65.5735C205.905 65.6737 205.977 65.7589 206.073 65.8292C206.171 65.8995 206.282 65.9581 206.405 66.005C206.531 66.0518 206.659 66.0913 206.789 66.1232L207.377 66.2766C207.611 66.3342 207.835 66.4119 208.048 66.5099C208.261 66.6058 208.445 66.7294 208.601 66.8807C208.758 67.0298 208.873 67.2099 208.946 67.4208C209.018 67.6317 209.03 67.8789 208.981 68.1623C208.917 68.5458 208.763 68.8835 208.518 69.1754C208.275 69.4652 207.955 69.6921 207.559 69.8562C207.165 70.0181 206.706 70.0991 206.181 70.0991C205.674 70.0991 205.246 70.0202 204.897 69.8626C204.547 69.7028 204.291 69.4716 204.13 69.169C203.97 68.8665 203.919 68.4989 203.976 68.0664H205.143C205.119 68.2944 205.157 68.484 205.255 68.6353C205.355 68.7866 205.498 68.8995 205.686 68.9741C205.873 69.0487 206.091 69.0859 206.338 69.0859C206.596 69.0859 206.829 69.0476 207.038 68.9709C207.247 68.892 207.417 68.7834 207.549 68.6449C207.684 68.5043 207.766 68.3402 207.795 68.1527C207.825 67.9844 207.801 67.8437 207.722 67.7308C207.643 67.6179 207.521 67.5241 207.354 67.4496C207.19 67.3729 206.994 67.3047 206.766 67.245L206.057 67.0533C205.543 66.9126 205.153 66.7017 204.887 66.4205C204.623 66.1392 204.529 65.7642 204.606 65.2955C204.67 64.9077 204.831 64.57 205.088 64.2823C205.346 63.9925 205.669 63.7678 206.057 63.608C206.445 63.446 206.869 63.3651 207.329 63.3651C207.793 63.3651 208.186 63.446 208.508 63.608C208.832 63.7699 209.068 63.9957 209.218 64.2855C209.369 64.5732 209.419 64.9066 209.368 65.2859H208.227Z" fill="white"/>
<path fill-rule="evenodd" clip-rule="evenodd" d="M93.8698 26.6526H80.6348C78.2194 26.6526 76.9951 25.6416 76.9951 23.6028C77.0042 23.0429 77.082 22.4862 77.2267 21.9453L80.5355 7.97252C80.7169 6.60027 81.4094 5.34744 82.474 4.46522C83.5387 3.58299 84.8968 3.13657 86.2762 3.21547H99.5113L99.1804 6.77911C98.1365 6.33401 97.0044 6.13552 95.8716 6.19898H89.0556C88.6889 6.17103 88.3246 6.27701 88.0299 6.49734C87.7347 6.81088 87.534 7.20159 87.4508 7.62444L83.9435 22.2437C83.9182 22.4639 83.9182 22.6864 83.9435 22.9067C83.9316 23.015 83.9464 23.1246 83.9868 23.2258C84.0272 23.327 84.0919 23.4166 84.1751 23.4868C84.4169 23.6036 84.685 23.6551 84.9527 23.636H91.8184C93.0659 23.684 94.3115 23.4985 95.4911 23.089L93.8698 26.6526ZM119.331 14.0059C119.41 13.6446 119.471 13.2795 119.513 12.9119C119.532 12.6747 119.532 12.4363 119.513 12.1992C119.513 10.293 118.404 9.34825 116.204 9.34825H101.315L100.206 12.3318C100.709 12.184 101.224 12.0787 101.745 12.0168C102.262 11.9797 102.782 11.9797 103.3 12.0168H112.73C112.825 12.0066 112.921 12.016 113.012 12.0445C113.103 12.073 113.187 12.12 113.259 12.1826C113.384 12.3735 113.437 12.6027 113.408 12.829L113.143 13.8733C113.099 14.1206 112.964 14.3425 112.765 14.4957C112.567 14.6489 112.318 14.7225 112.068 14.702H103.316C102.437 14.6671 101.562 14.8493 100.769 15.2324C100.009 15.6401 99.3912 16.2704 98.9984 17.0391C98.4027 18.1792 97.9631 19.3946 97.6914 20.6525C97.5306 21.2414 97.4035 21.8391 97.3109 22.4426C97.2335 22.8973 97.1893 23.3571 97.1786 23.8183C97.1363 24.2206 97.1842 24.6272 97.3187 25.0086C97.4532 25.39 97.671 25.7364 97.9561 26.0228C98.6856 26.5002 99.5526 26.7217 100.421 26.6526H108.131C108.681 26.6673 109.225 26.5297 109.702 26.2548C110.207 25.8881 110.63 25.4194 110.943 24.8791H111.026L110.877 26.6526H116.618C116.653 25.3367 116.841 24.0294 117.18 22.7575L119.331 14.0059ZM112.3 17.4203L111.026 22.7078C110.955 23.0724 110.776 23.4073 110.513 23.6691C110.258 23.8519 109.95 23.9452 109.636 23.9343H104.144C103.923 23.9562 103.702 23.9037 103.515 23.7852C103.446 23.7304 103.392 23.6593 103.357 23.5783C103.322 23.4973 103.308 23.4088 103.316 23.3211V22.7078L104.292 18.68C104.369 18.3194 104.534 17.9835 104.772 17.7021C105.023 17.4964 105.343 17.3955 105.666 17.4203H112.3ZM137.297 9.34825L136.354 13.1605C134.993 12.9316 133.615 12.8262 132.235 12.8456H129.886C129.598 12.8091 129.308 12.8803 129.069 13.0455C128.831 13.2107 128.662 13.4583 128.595 13.7407L126.378 22.7575C126.036 24.029 125.841 25.3362 125.799 26.6526H118.884C119.442 25.4003 119.874 24.0955 120.175 22.7575L122.491 13.2434C122.829 11.9709 123.023 10.6643 123.07 9.34825H129.025L128.794 11.2875C128.997 10.6622 129.412 10.1283 129.968 9.7792C130.645 9.44306 131.399 9.29427 132.152 9.34825H137.297ZM143.055 16.8733H150.681L151.542 13.3097V12.6964C151.56 12.6128 151.559 12.526 151.539 12.4427C151.519 12.3594 151.48 12.2818 151.426 12.2157C151.236 12.1041 151.016 12.0575 150.797 12.0831H145.305C144.975 12.0623 144.647 12.1559 144.378 12.3483C144.137 12.6209 143.971 12.9525 143.898 13.3097L143.055 16.8733ZM156.29 19.6082L157.646 14.0224C157.746 13.5583 157.795 13.1937 157.828 12.9119C157.841 12.6745 157.841 12.4366 157.828 12.1992C157.828 10.293 156.72 9.34825 154.519 9.34825H142.939C141.665 9.30159 140.42 9.73311 139.448 10.5582C138.466 11.5082 137.806 12.7431 137.562 14.0887L135.593 22.1111C135.593 22.542 135.444 22.8901 135.411 23.1719C135.398 23.4093 135.398 23.6472 135.411 23.8846C135.378 24.2845 135.436 24.6868 135.583 25.0604C135.729 25.4341 135.959 25.769 136.255 26.0394C136.982 26.5547 137.865 26.8008 138.753 26.7355H154.089L155.314 23.7852C154.638 23.9227 153.951 24.0003 153.262 24.0172H142.409C142.207 24.0063 142.012 23.9372 141.847 23.8183C141.784 23.7594 141.735 23.6871 141.704 23.6068C141.672 23.5266 141.659 23.4403 141.665 23.3542V22.7243L142.409 19.6414L156.29 19.6082ZM165.538 16.8733H173.164L174.025 13.3097V12.6964C174.031 12.6079 174.018 12.519 173.986 12.4361C173.955 12.3531 173.906 12.2779 173.843 12.2157C173.646 12.1071 173.421 12.0608 173.197 12.0831H167.705C167.375 12.0649 167.049 12.1583 166.778 12.3483C166.543 12.625 166.378 12.955 166.299 13.3097L165.455 16.8733H165.538ZM178.773 19.6082H164.876L164.115 22.6912V23.3211C164.107 23.4088 164.121 23.4973 164.156 23.5783C164.19 23.6593 164.244 23.7304 164.313 23.7852C164.501 23.9014 164.722 23.9537 164.942 23.9343H175.745C176.429 23.9165 177.11 23.8388 177.78 23.7023L176.556 26.6526H161.154C160.265 26.718 159.382 26.4719 158.655 25.9565C158.359 25.6861 158.129 25.3512 157.983 24.9776C157.837 24.604 157.778 24.2017 157.812 23.8017C157.798 23.5644 157.798 23.3264 157.812 23.089C157.859 22.7321 157.925 22.378 158.01 22.0282L160.045 14.0059C160.295 12.6935 160.942 11.4899 161.898 10.5582C162.87 9.77592 164.093 9.37523 165.339 9.43113H176.92C179.137 9.43113 180.229 10.3759 180.229 12.282C180.242 12.5194 180.242 12.7574 180.229 12.9948C180.229 13.2765 180.129 13.6412 180.03 14.1053L178.673 19.6911L178.773 19.6082ZM198.096 9.34825H193.017C192.264 9.29667 191.51 9.44534 190.833 9.7792C190.278 10.1258 189.867 10.6614 189.675 11.2875H189.592L189.824 9.34825H183.868C183.796 10.6676 183.574 11.9745 183.206 13.2434L180.874 22.7575C180.578 24.0946 180.151 25.3993 179.6 26.6526H186.515C186.55 25.3367 186.739 24.0294 187.078 22.7575L189.295 13.7407C189.365 13.4601 189.535 13.2147 189.772 13.0501C190.009 12.8855 190.298 12.8128 190.585 12.8456H192.934C194.314 12.8262 195.693 12.9316 197.054 13.1605L198.096 9.34825Z" fill="black"/>
<path fill-rule="evenodd" clip-rule="evenodd" d="M111.423 55.8416V53.9852C111.227 54.5042 110.885 54.9555 110.439 55.2848C109.993 55.6141 109.461 55.8074 108.908 55.8416H99.925C98.9026 55.9165 97.8858 55.6354 97.0464 55.046C96.705 54.7337 96.4396 54.3473 96.2704 53.9163C96.1012 53.4853 96.0327 53.0213 96.0703 52.5597C96.0488 52.2839 96.0488 52.0068 96.0703 51.731C96.117 51.3181 96.1888 50.9085 96.2853 50.5044L98.5519 41.2721C98.8275 39.7181 99.586 38.2911 100.719 37.1946C101.834 36.2921 103.241 35.8319 104.673 35.9017H113.276C113.508 35.8677 113.746 35.8907 113.968 35.9686C114.19 36.0466 114.389 36.1772 114.55 36.3493C114.88 36.8402 115.063 37.4151 115.079 38.0068H115.377L116.535 33.2663C116.767 32.3381 116.916 31.4928 117.048 30.7303C117.132 30.0874 117.171 29.4394 117.164 28.791H124.724L119.232 51.3497C118.833 52.8152 118.611 54.3232 118.57 55.8416H111.423ZM104.193 52.6923H110.53C110.89 52.7134 111.247 52.6079 111.539 52.394C111.843 52.0909 112.05 51.7045 112.134 51.2834L114.715 40.3936L114.798 39.6974C114.805 39.5959 114.79 39.4941 114.752 39.3994C114.715 39.3048 114.657 39.2197 114.583 39.1505C114.365 39.0174 114.109 38.9592 113.855 38.9847H107.519C107.142 38.9603 106.768 39.0655 106.46 39.2831C106.19 39.6027 106.002 39.9841 105.914 40.3936L103.333 51.2171V51.9299C103.324 52.029 103.34 52.1288 103.377 52.221C103.414 52.3132 103.473 52.3952 103.548 52.4603C103.768 52.5891 104.022 52.6469 104.276 52.626L104.193 52.6923ZM130.051 52.6923H136.388C136.747 52.7055 137.102 52.6008 137.397 52.394C137.701 52.0909 137.908 51.7045 137.992 51.2834L140.573 40.3936V39.6974C140.58 39.5959 140.565 39.4941 140.528 39.3994C140.49 39.3048 140.433 39.2197 140.358 39.1505C140.134 39.0161 139.873 38.9579 139.614 38.9847H133.377C133 38.9603 132.626 39.0655 132.318 39.2831C132.048 39.6027 131.86 39.9841 131.772 40.3936L129.191 51.2171V51.9299C129.182 52.029 129.198 52.1288 129.235 52.221C129.272 52.3132 129.331 52.3952 129.406 52.4603C129.626 52.5891 129.88 52.6469 130.134 52.626L130.051 52.6923ZM139.167 55.8416C140.154 55.8823 141.138 55.701 142.046 55.3112C142.87 54.9132 143.573 54.3007 144.08 53.5376C144.672 52.6368 145.082 51.629 145.288 50.5707L147.555 41.3384C147.654 40.8245 147.737 40.3936 147.77 40.0621C147.79 39.7918 147.79 39.5202 147.77 39.2499C147.77 37.062 146.479 35.9349 143.915 35.9349H130.597C129.166 35.8651 127.758 36.3252 126.643 37.2277C125.51 38.3243 124.752 39.7513 124.476 41.3052L122.21 50.5044C122.113 50.9085 122.041 51.3181 121.994 51.731C121.973 52.0068 121.973 52.2839 121.994 52.5597C121.957 53.0213 122.025 53.4853 122.195 53.9163C122.364 54.3473 122.629 54.7337 122.971 55.046C123.81 55.6354 124.827 55.9165 125.849 55.8416H139.167ZM170.782 46.659L169.624 51.3995C169.373 52.7654 168.613 53.9845 167.498 54.8095C166.382 55.6344 164.996 56.0034 163.619 55.8416H147.207L147.488 52.394C148.025 52.5795 148.579 52.7073 149.143 52.7752L152.005 52.8581H160.707C161.119 52.8852 161.527 52.7699 161.865 52.5316C162.202 52.2933 162.447 51.9464 162.56 51.5486L162.841 50.4878C162.841 49.5762 162.428 49.1287 161.617 49.1287H152.584C150.378 49.1287 149.275 48.0844 149.275 45.996C149.264 45.2262 149.347 44.458 149.523 43.7086L150.119 41.3218C150.4 39.7943 151.112 38.3795 152.17 37.2443C152.652 36.7913 153.219 36.4392 153.839 36.2086C154.458 35.9781 155.117 35.8738 155.777 35.9017H172.817L172.536 39.3328C171.037 38.9703 169.494 38.8197 167.953 38.8853H158.953C158.592 38.8378 158.226 38.9346 157.935 39.1548C157.644 39.3749 157.452 39.7008 157.398 40.0621L157.15 41.0069C157.123 41.3418 157.198 41.677 157.365 41.9682C157.465 42.066 157.584 42.1405 157.716 42.1864C157.848 42.2322 157.988 42.2483 158.126 42.2334H166.911C169.624 42.2334 170.981 43.2114 170.981 45.1672C170.971 45.6704 170.905 46.1709 170.782 46.659ZM180.99 44.5705H189.824L190.833 40.4765L190.916 39.7637C190.923 39.6622 190.908 39.5604 190.871 39.4657C190.833 39.3711 190.775 39.286 190.701 39.2168C190.483 39.0837 190.227 39.0255 189.973 39.051H183.637C183.26 39.0266 182.887 39.1318 182.578 39.3494C182.305 39.6734 182.117 40.0609 182.032 40.4765L181.056 44.5705H180.99ZM196.177 47.7198L197.831 41.2721C197.928 40.8569 198 40.4362 198.046 40.0124C198.067 39.7365 198.067 39.4595 198.046 39.1836C198.046 36.9957 196.756 35.8686 194.192 35.8686H180.808C179.376 35.7988 177.969 36.2589 176.854 37.1614C175.721 38.258 174.962 39.685 174.687 41.2389L172.42 50.4712C172.323 50.8753 172.252 51.2849 172.205 51.6978C172.184 51.9736 172.184 52.2507 172.205 52.5266C172.167 52.9881 172.236 53.4522 172.405 53.8832C172.574 54.3141 172.84 54.7006 173.181 55.0128C174.021 55.6023 175.037 55.8833 176.06 55.8084H193.629L195.035 52.4105C194.261 52.5611 193.475 52.6443 192.686 52.6592H180.245C179.996 52.6822 179.747 52.6241 179.534 52.4934C179.454 52.432 179.39 52.351 179.35 52.2582C179.309 52.1654 179.293 52.0638 179.302 51.963V51.2503L180.163 47.6866L196.177 47.7198Z" fill="black"/>
<path d="M199.047 1.885L199.14 1.32727H202.07L201.977 1.885H200.842L200.326 5H199.666L200.182 1.885H199.047ZM202.635 1.32727H203.449L204.1 3.98857H204.143L205.673 1.32727H206.487L205.878 5H205.239L205.659 2.47679H205.627L204.192 4.98924H203.717L203.121 2.47141H203.087L202.664 5H202.026L202.635 1.32727Z" fill="#000F1E"/>
</svg>
