<svg width="57" height="65" viewBox="0 0 57 65" fill="none" xmlns="http://www.w3.org/2000/svg">
<g id="Design Work">
<path id="Vector" d="M56.5411 51.367C53.8859 54.0478 50.7257 56.1735 47.2439 57.6208C43.7622 59.0681 40.0281 59.8082 36.2586 59.798C28.7471 59.6565 21.5773 56.6275 16.2326 51.3377C10.8879 46.0479 7.7773 38.9021 7.54438 31.3787C7.37251 25.4724 9.04348 19.6595 12.3246 14.7495C8.27804 19.9898 6.1248 26.45 6.21656 33.0749C6.21656 48.9724 19.611 61.3445 35.4785 61.3445C39.4525 61.1762 43.3539 60.2211 46.9576 58.5343C50.5613 56.8475 53.7958 54.4624 56.4747 51.5166C56.4899 51.4639 56.5122 51.4136 56.5411 51.367Z" fill="#EF6036"/>
<path id="Vector_2" d="M42.0013 5.07129C45.1826 5.87837 48.2219 7.16818 51.0139 8.896C48.2513 7.11196 45.2025 5.81814 42.0013 5.07129Z" fill="#EF6036"/>
<path id="Vector_3" d="M56.3088 51.9157C56.3398 51.7805 56.3786 51.6472 56.425 51.5166C53.7499 54.4682 50.5164 56.8584 46.9122 58.5483C43.3079 60.2382 39.4047 61.1943 35.4287 61.361C19.5613 61.361 6.16683 48.9723 6.16683 33.0914C6.16683 17.2106 17.2708 4.30631 35.4785 4.30631C42.6988 4.30536 49.6529 7.0376 54.9478 11.9557L55.6781 12.4879L56.5577 13.0699C50.2506 5.6699 41.0388 0.980469 33.271 0.980469C13.918 0.980469 0.307808 14.5665 0.307808 32.1934C0.299078 36.3897 1.11649 40.5465 2.71325 44.4258C4.31001 48.3052 6.65477 51.8309 9.61329 54.8012C12.5718 57.7715 16.086 60.1281 19.9547 61.7359C23.8234 63.3438 27.9706 64.1714 32.159 64.1714C40.7898 64.1714 50.0514 59.4154 56.342 52.0154L56.3088 51.9157Z" fill="#EE3138"/>
<path id="Vector_4" d="M11.196 31.878C11.196 24.9317 13.9502 18.2699 18.8527 13.3581C23.7552 8.44639 30.4044 5.68699 37.3376 5.68699C43.1233 5.64368 48.7648 7.49467 53.4042 10.9584L54.2175 11.4906L54.5661 11.7234L54.7321 11.8564C49.4147 6.72106 42.2996 3.87919 34.9143 3.94093C17.0883 3.94093 7.39514 16.2798 7.39514 31.4955C7.39514 46.7112 20.2916 59.9979 38.0513 59.9979C43.4869 60.0616 48.7728 58.2139 52.9893 54.7764C47.7761 57.8297 41.7931 59.3081 35.7608 59.0334C23.2626 59.0334 11.196 46.944 11.196 31.878Z" fill="#D13236"/>
<path id="Vector_5" d="M47.5617 39.128C47.5617 43.0691 44.8895 49.1055 38.1839 49.1055C36.9612 49.1772 35.737 48.9939 34.5887 48.567C33.4404 48.1401 32.3931 47.4789 31.5131 46.6254C30.6332 45.7719 29.9396 44.7446 29.4765 43.6086C29.0134 42.4726 28.7908 41.2526 28.8228 40.0259C28.7044 37.9134 29.3693 35.8316 30.6897 34.1803C32.0101 32.529 33.8929 31.4247 35.9764 31.0795V24.9766C32.3472 25.5113 29.0308 27.3357 26.6327 30.1169C24.2347 32.8981 22.9148 36.4505 22.914 40.1257C22.8666 42.1449 23.2337 44.1522 23.9924 46.0234C24.7511 47.8946 25.8853 49.5898 27.3247 51.0038C28.7641 52.4179 30.478 53.5207 32.3603 54.2439C34.2425 54.9672 36.2529 55.2954 38.2669 55.2084C40.3109 55.1956 42.3319 54.7754 44.2122 53.9723C46.0925 53.1691 47.7944 51.999 49.2187 50.5302C50.6431 49.0614 51.7613 47.3232 52.5084 45.417C53.2555 43.5108 53.6164 41.4747 53.5701 39.4273C53.5701 39.3275 53.5701 39.2277 53.5701 39.128H47.5617Z" fill="#00AFF0"/>
<path id="Vector_6" d="M53.5701 24.9766H38.2338V31.0961H53.5701V24.9766Z" fill="#EE3138"/>
<path id="Vector_7" d="M47.4456 24.9929V36.8994H53.5535V24.9929H47.4456Z" fill="#EE3138"/>
<path id="Vector_8" d="M51.0141 23.7293C52.6916 23.7293 54.0515 22.3669 54.0515 20.6862C54.0515 19.0055 52.6916 17.6431 51.0141 17.6431C49.3366 17.6431 47.9767 19.0055 47.9767 20.6862C47.9767 22.3669 49.3366 23.7293 51.0141 23.7293Z" fill="#00AFF0"/>
<path id="Vector_9" d="M49.6697 50.0039C47.5535 52.0875 44.8779 53.509 41.9691 54.0951C39.0604 54.6813 36.0442 54.4067 33.2886 53.3048C30.5329 52.2029 28.1569 50.3214 26.4503 47.8898C24.7437 45.4581 23.7803 42.5815 23.6775 39.6106C23.5506 36.5234 24.4113 33.4763 26.134 30.9136C23.9488 33.6222 22.7749 37.0095 22.8144 40.492C22.8144 48.8066 29.9349 55.1922 38.35 55.1922C42.589 55.0136 46.5884 53.1743 49.4871 50.0704L49.6697 50.0039Z" fill="#0071BC"/>
</g>
</svg>
