<svg width="18" height="18" viewBox="0 0 18 18" fill="none" xmlns="http://www.w3.org/2000/svg">
<g id="devicon:twitter" clip-path="url(#clip0_167_566)">
<path id="Vector" d="M16.0641 5.5763C16.0746 5.7289 16.0746 5.88136 16.0746 6.03531C16.0746 10.7255 12.504 16.1347 5.97527 16.1347V16.132C4.04651 16.1347 2.15772 15.5822 0.534424 14.5406C0.814887 14.5744 1.0967 14.5913 1.37919 14.5919C2.97778 14.5932 4.53038 14.057 5.78753 13.0696C5.04683 13.0556 4.32902 12.8105 3.73446 12.3685C3.1399 11.9266 2.69831 11.3099 2.47144 10.6046C3.00358 10.7073 3.5518 10.6861 4.07407 10.5434C2.41805 10.2089 1.22673 8.75398 1.22673 7.06431V7.0193C1.72038 7.29431 2.27289 7.44668 2.83773 7.46358C1.27782 6.4212 0.797315 4.34632 1.73913 2.72423C2.63024 3.82076 3.74205 4.71758 5.00234 5.35643C6.26263 5.99528 7.64321 6.36188 9.05441 6.43242C8.91374 5.82673 8.93456 5.19472 9.11479 4.59959C9.29501 4.00447 9.62831 3.46709 10.0814 3.04119C11.511 1.69726 13.7594 1.7662 15.1032 3.19514C15.8981 3.03818 16.6604 2.74673 17.3573 2.33334C17.0923 3.15522 16.5378 3.85289 15.797 4.29658C16.5006 4.21362 17.1877 4.02521 17.8353 3.73768C17.3589 4.45102 16.7591 5.07365 16.0641 5.5763Z" fill="#1D9BF0"/>
</g>
<defs>
<clipPath id="clip0_167_566">
<rect width="17.3008" height="17.3008" fill="white" transform="translate(0.534424 0.455078)"/>
</clipPath>
</defs>
</svg>
