<svg width="34" height="34" viewBox="0 0 34 34" fill="none" xmlns="http://www.w3.org/2000/svg">
<g id="fluent:emoji-16-regular">
<path id="Vector" d="M13.2812 16.4688C13.7039 16.4688 14.1093 16.3008 14.4082 16.002C14.7071 15.7031 14.875 15.2977 14.875 14.875C14.875 14.4523 14.7071 14.0469 14.4082 13.748C14.1093 13.4492 13.7039 13.2812 13.2812 13.2812C12.8586 13.2812 12.4532 13.4492 12.1543 13.748C11.8554 14.0469 11.6875 14.4523 11.6875 14.875C11.6875 15.2977 11.8554 15.7031 12.1543 16.002C12.4532 16.3008 12.8586 16.4688 13.2812 16.4688ZM13.039 20.5424C12.9464 20.4369 12.8337 20.3509 12.7076 20.2892C12.5816 20.2276 12.4445 20.1915 12.3044 20.1831C12.1643 20.1747 12.0239 20.1942 11.8914 20.2404C11.7588 20.2865 11.6367 20.3585 11.5321 20.4521C11.4276 20.5457 11.3426 20.6592 11.2821 20.7858C11.2216 20.9125 11.1868 21.0499 11.1797 21.19C11.1726 21.3302 11.1934 21.4704 11.2408 21.6025C11.2882 21.7346 11.3613 21.8561 11.4559 21.9597C12.1531 22.7403 13.0075 23.3645 13.963 23.7915C14.9184 24.2186 15.9534 24.4387 17 24.4375C18.0466 24.4387 19.0816 24.2186 20.037 23.7915C20.9925 23.3645 21.8469 22.7403 22.5441 21.9597C22.729 21.7494 22.8233 21.4745 22.8066 21.1949C22.7898 20.9153 22.6634 20.6536 22.4547 20.4668C22.246 20.28 21.972 20.1831 21.6923 20.1973C21.4126 20.2114 21.1498 20.3354 20.961 20.5424C20.4632 21.1004 19.8528 21.5466 19.1701 21.8517C18.4874 22.1568 17.7478 22.3138 17 22.3125C15.4275 22.3125 14.0144 21.6304 13.039 20.5424ZM22.3125 14.875C22.3125 15.2977 22.1446 15.7031 21.8457 16.002C21.5468 16.3008 21.1414 16.4688 20.7188 16.4688C20.2961 16.4688 19.8907 16.3008 19.5918 16.002C19.2929 15.7031 19.125 15.2977 19.125 14.875C19.125 14.4523 19.2929 14.0469 19.5918 13.748C19.8907 13.4492 20.2961 13.2812 20.7188 13.2812C21.1414 13.2812 21.5468 13.4492 21.8457 13.748C22.1446 14.0469 22.3125 14.4523 22.3125 14.875ZM29.75 17C29.75 15.3256 29.4202 13.6677 28.7795 12.1208C28.1387 10.5739 27.1996 9.16834 26.0156 7.98439C24.8317 6.80044 23.4261 5.86128 21.8792 5.22054C20.3323 4.57979 18.6744 4.25 17 4.25C15.3256 4.25 13.6677 4.57979 12.1208 5.22054C10.5739 5.86128 9.16834 6.80044 7.98439 7.98439C6.80044 9.16834 5.86128 10.5739 5.22054 12.1208C4.57979 13.6677 4.25 15.3256 4.25 17C4.25 20.3815 5.5933 23.6245 7.98439 26.0156C10.3755 28.4067 13.6185 29.75 17 29.75C20.3815 29.75 23.6245 28.4067 26.0156 26.0156C28.4067 23.6245 29.75 20.3815 29.75 17ZM6.375 17C6.375 14.1821 7.49442 11.4796 9.48699 9.48699C11.4796 7.49442 14.1821 6.375 17 6.375C19.8179 6.375 22.5204 7.49442 24.513 9.48699C26.5056 11.4796 27.625 14.1821 27.625 17C27.625 19.8179 26.5056 22.5204 24.513 24.513C22.5204 26.5056 19.8179 27.625 17 27.625C14.1821 27.625 11.4796 26.5056 9.48699 24.513C7.49442 22.5204 6.375 19.8179 6.375 17Z" fill="#757575"/>
</g>
</svg>
