<svg width="30" height="29" viewBox="0 0 30 29" fill="none" xmlns="http://www.w3.org/2000/svg">
<g id="entypo-social:tumblr-with-circle" clip-path="url(#clip0_167_558)">
<circle id="Ellipse 1" cx="15.5091" cy="14.2918" r="11.9099" fill="white"/>
<path id="Vector" d="M15.3602 0.577637C7.70373 0.577637 1.49707 6.7843 1.49707 14.4408C1.49707 22.0973 7.70373 28.304 15.3602 28.304C23.0168 28.304 29.2234 22.0973 29.2234 14.4408C29.2234 6.7843 23.0168 0.577637 15.3602 0.577637ZM19.0816 20.4207C18.5896 20.6635 18.0737 20.8546 17.5422 20.9912C17.0538 21.1022 16.5543 21.157 16.0534 21.1543C15.4469 21.1543 14.9111 21.0749 14.4447 20.9204C14.0067 20.7817 13.601 20.5562 13.2519 20.2576C12.953 20.0128 12.7181 19.6991 12.5674 19.3435C12.4403 19.0185 12.3768 18.5507 12.3768 17.9384V13.2278H10.9096V11.3303C11.428 11.1584 11.8771 10.9129 12.2483 10.5909C12.6194 10.2717 12.9183 9.88907 13.1421 9.43996C13.3674 8.99229 13.5219 8.41899 13.6071 7.72872H15.4945V11.1223H18.6426V13.2278H15.4945V16.6719C15.4945 17.4503 15.535 17.9499 15.6173 18.1694C15.7011 18.3945 15.8624 18.5824 16.0722 18.6994C16.3668 18.877 16.7032 18.9666 17.0787 18.9666C17.7516 18.9666 18.4188 18.7442 19.0831 18.3008V20.4207H19.0816Z" fill="#FF3049"/>
</g>
<defs>
<clipPath id="clip0_167_558">
<rect width="28.8816" height="28.8816" fill="white" transform="translate(0.919434)"/>
</clipPath>
</defs>
</svg>
