<svg width="697" height="697" viewBox="0 0 697 697" fill="none" xmlns="http://www.w3.org/2000/svg">
<path d="M536.206 694.724C519.678 693.104 503.809 689.121 487.85 684.624C485.473 683.951 483.097 683.269 480.724 682.577C465.79 683.585 450.63 683.42 435.854 681.417C417.898 678.983 400.795 672.489 382.812 670.136C382.584 670.106 382.577 669.757 382.819 669.767C401.004 670.429 418.715 675.125 436.842 676.415C444.96 676.993 453.195 677.037 461.43 676.728C451.817 673.733 442.223 670.664 432.62 667.652C432.335 667.565 432.459 667.148 432.748 667.209C446.476 670.23 460.186 673.316 473.981 676.009C479.773 675.572 485.534 675.007 491.235 674.378C509.453 672.358 527.543 668.099 545.496 664.483C551.12 663.347 556.827 662.184 562.555 661.336C559.647 660.748 556.75 660.136 553.846 659.501C546.34 657.851 538.901 656.163 531.517 654.342C527.708 654.56 523.89 654.711 520.105 655.017C510.576 655.787 501.046 656.587 491.507 657.273C471.867 658.688 452.321 659.205 432.65 658.009C413.867 656.866 395.414 653.562 377.381 648.621C369.845 649.643 362.255 650.167 354.51 649.861C340.245 649.293 326.275 646.51 312.39 643.333C297.778 639.985 283.022 635.891 269.926 628.396C269.721 628.278 269.91 627.979 270.121 628.083C282.629 634.261 296.417 637.407 310.094 639.76C324.433 642.227 339.085 644.426 353.65 644.695C356.971 644.755 360.272 644.674 363.559 644.486C351.334 640.537 339.314 635.888 327.546 630.665C327.26 630.54 327.472 630.056 327.768 630.164C343.838 636.08 360.507 640.15 377.407 643.101C399.478 640.026 421.121 633.451 443.37 631.226C449.329 630.631 455.46 630.14 461.497 630.436C454.317 627.414 447.168 624.325 440.008 621.223C432.624 620.285 425.161 619.834 418.089 619.384C401.279 618.308 384.446 618.54 367.619 618.187C335.751 617.508 304.894 612.349 274.189 603.956C256.727 599.186 239.513 593.304 222.66 586.705C222.058 586.47 222.327 585.502 222.945 585.731C253.56 597.001 285.106 604.799 317.65 607.673C333.721 609.095 349.68 609.801 365.818 609.764C382.631 609.727 399.629 610.235 416.308 612.443C417.182 612.557 418.086 612.688 418.97 612.806C417.289 612.06 415.619 611.283 413.982 610.456C411.172 609.838 408.362 609.223 405.585 608.561C395.858 606.231 386.264 603.663 376.406 601.902C356.023 598.255 335.408 595.741 314.948 592.541C294.713 589.378 275.194 584.527 255.91 577.603C246.34 574.161 237.043 570.178 227.708 566.148C219.134 562.447 210.394 558.978 202.199 554.467C195.786 550.934 189.44 546.935 183.242 543.029C180.586 541.358 174.267 538.182 174.28 534.336C174.28 534.185 174.522 534.151 174.553 534.303C175.376 538.39 185.121 541.704 188.395 543.247C194.26 546.01 199.87 549.257 205.756 551.963C214.771 556.107 224.27 559.069 233.644 562.259C242.629 565.317 251.53 568.595 260.505 571.68C297.839 584.51 337.253 586.484 375.596 594.85C383.165 596.504 390.644 598.436 398.083 600.554C393.175 597.69 388.335 594.675 383.555 591.452C372.594 584.063 362.016 576.208 351.64 568.074C351.593 568.06 351.552 568.043 351.512 568.03C347.173 566.83 342.672 566.417 338.188 566.215C329.959 565.849 321.69 565.986 313.472 565.435C292.608 564.04 271.738 559.949 251.913 553.338C231.574 546.561 212.596 537.886 195.396 524.931C186.983 518.595 179.198 511.469 171.917 503.836C166.166 501.345 160.482 498.622 155.202 495.258C147.457 490.33 140.496 484.878 131.928 481.332C131.82 481.288 131.864 481.117 131.978 481.154C139.605 483.725 146.321 487.695 153.205 491.782C157.565 494.367 162.079 496.434 166.724 498.209C160.519 491.275 154.694 484.004 149.188 476.569C146.126 472.438 143.091 468.28 140.052 464.125C125.276 458.441 111.71 451.91 98.9906 442.257C98.7621 442.082 98.9705 441.709 99.2293 441.863C110.533 448.6 122.399 453.709 134.99 457.258C131.992 453.215 128.97 449.188 125.864 445.225C118.026 435.228 110.268 425.48 99.3536 418.66C99.0915 418.499 99.3268 418.143 99.5889 418.264C118.651 427.117 131.669 443.974 144.708 459.83C158.029 463.43 171.091 467.971 184.22 472.189C198.66 476.828 213.668 478.972 228.455 482.166C242.74 485.255 257.237 489.903 270.518 495.994C270.948 496.189 271.341 496.397 271.755 496.599C270.071 494.639 268.421 492.653 266.787 490.653C266.686 490.633 266.585 490.596 266.478 490.522C261.009 486.723 257.036 481.739 250.922 478.761C243.742 475.271 235.849 472.559 228.182 470.374C212.798 465.984 196.781 464.156 181.158 460.838C152.812 454.821 128.637 440.663 107.545 421.023C95.6697 409.958 84.6782 397.931 73.6397 386.039C73.5187 385.908 73.7136 385.723 73.838 385.847C94.1638 405.901 114.88 426.032 140.348 439.511C153.729 446.593 168.304 451.168 183.114 454.136C198.519 457.225 214.156 458.976 229.164 463.85C236.992 466.391 244.922 469.554 252.249 473.329C253.012 473.719 253.769 474.132 254.515 474.569C252.784 472.139 251.093 469.685 249.446 467.201C246.649 465.473 242.898 464.142 240.444 463.315C236.35 461.927 232.118 461.077 227.967 459.89C213.393 455.712 198.546 452.334 184.092 447.746C157.266 439.235 133.625 421.679 113.747 402.042C102.742 391.168 93.2462 378.839 86.937 364.648C86.7958 364.328 87.2462 364.059 87.421 364.375C101.327 390.204 125.827 407.447 149.39 423.793C174.17 440.99 203.954 446.26 232.562 453.984C235.043 454.657 239.016 455.517 242.868 456.858C241.544 454.67 240.256 452.465 238.992 450.243C234.807 447.184 229.16 445.262 224.908 443.974C217.47 441.712 209.762 440.425 202.216 438.586C180.311 433.235 158.338 422.502 140.022 409.484C122.637 397.118 109.34 381.437 102.49 361.031C94.631 337.616 93.0378 313.001 92.752 288.504C92.4731 264.534 94.194 237.315 82.0732 215.698C81.9522 215.486 82.2648 215.318 82.3925 215.513C93.663 232.666 95.7302 254.585 96.9335 274.558C98.4696 300.08 98.9873 326.275 106.796 350.836C113.629 372.328 125.41 389.878 144.123 402.708C159.188 413.04 176.438 422.287 194.132 428.264C188.354 425.733 182.707 422.892 177.238 419.844C158.539 409.413 140.946 395.82 128.489 378.221C114.637 358.648 110.567 335.038 110.994 311.499C111.464 285.63 112.483 259.704 113.965 233.873C114.846 218.505 114.957 203.13 115.74 187.776C116.113 180.488 116.567 173.299 116.026 166.005C115.478 158.606 114.039 151.427 112.859 144.126C112.728 143.316 113.938 142.976 114.106 143.8C116.463 155.309 120.701 166.509 121.397 178.304C122.2 191.756 122.14 205.298 121.481 218.747C120.19 245.133 119.118 271.499 118.288 297.899C117.542 321.737 117.269 345.643 129.417 367.021C140.57 386.651 158.734 401.38 178.126 412.392C189.84 419.04 202.136 424.099 214.875 428.411C219.624 430.018 225.04 431.013 229.863 432.855C229.534 432.163 229.218 431.464 228.892 430.768C223.298 425.322 214.468 423.457 207.494 420.741C196.542 416.482 184.919 412.055 174.879 405.914C154.029 393.158 139.676 371.047 128.953 349.609C118.049 327.821 121.202 302.766 126.812 279.956C130.116 266.521 133.471 253.086 136.274 239.533C139.424 224.286 141.333 208.939 143.535 193.54C145.78 177.833 145.531 162.596 145.585 146.808C145.622 135.195 147.8 121.145 140.624 111.074C140.442 110.822 140.856 110.516 141.064 110.748C147.511 118.002 148.392 128.513 149.481 137.736C150.946 150.136 152.56 162.586 152.681 175.087C152.829 189.836 150.156 204.683 147.582 219.16C144.913 234.175 142.53 249.291 138.63 264.05C132.826 286.057 125.834 309.791 130.795 332.601C130.782 332.265 130.768 331.935 130.765 331.599C130.392 304.531 134.16 277.919 144.452 252.867C144.792 245.523 146.281 238.155 147.753 231.046C150.886 215.9 151.679 200.384 156.697 185.668C161.944 170.28 168.476 154.973 176.193 140.657C183.275 127.521 192.67 115.76 200.136 102.839C208.835 87.787 216.149 71.4847 214.327 53.7068C214.307 53.5017 214.653 53.4614 214.693 53.6631C220.3 82.5736 205.534 108.92 192.532 133.585C185.013 147.854 176.922 161.642 171.054 176.717C170.27 178.734 169.504 180.761 168.744 182.791C170.19 180.465 171.672 178.156 173.208 175.87C194.23 144.472 219.251 115.756 237.634 82.6106C248.337 63.3201 261.775 44.043 260.111 20.9643C260.101 20.8097 260.36 20.7794 260.384 20.9307C263.392 39.0683 256.757 55.2059 250.034 71.6998C242.693 89.7164 232.29 106.116 221.372 122.166C200.811 152.408 176.257 179.5 161.773 213.55C160.55 216.434 159.373 219.355 158.22 222.283C158.634 221.513 159.044 220.74 159.471 219.98C164.771 210.623 170.536 201.372 176.983 192.754C178.596 190.593 180.28 188.488 182.015 186.431C185.501 179.557 190.069 173.356 194.529 167.08C204.885 152.512 215.651 138.331 227.026 124.546C233.224 117.037 239.486 109.548 245.372 101.783C250.538 94.9668 254.881 87.6761 259.432 80.4527C264.246 72.8124 270.259 65.8478 274.763 58.0361C279.264 50.2312 281.63 41.2834 285.015 32.9742C285.325 32.2213 286.538 32.5406 286.252 33.3339C283.351 41.4481 281.893 49.9589 279.288 58.1672C276.703 66.3116 272.451 74.1099 268.289 81.5451C259.52 97.202 247.923 111.155 236.71 125.094C225.103 139.524 212.868 153.433 201.265 167.863C200.966 168.233 200.663 168.6 200.361 168.969C205.944 164.818 211.951 161.309 218.404 158.66C219.419 157.709 220.488 156.912 221.594 156.227C230.478 142.546 242.344 130.358 253.362 118.973C264.518 107.454 274.975 95.871 284.272 82.7787C294.155 68.8629 304.144 55.8378 304.951 38.0364C304.971 37.6767 305.476 37.6969 305.506 38.0464C306.854 54.2177 301.677 70.2343 293.634 84.9501C304.803 70.8629 314.514 55.8042 319.428 38.1977C319.512 37.9086 319.932 38.0364 319.872 38.3254C313.761 66.4528 296.487 90.5702 279.893 113.444C271.661 124.792 263.093 136.19 256.979 148.855C255.493 151.934 254.253 155.107 253.248 158.348C257.369 160.334 261.227 162.653 264.542 164.912C264.568 164.455 264.602 164.001 264.639 163.547C265.412 155.053 267.651 146.687 271.674 139.134C275.879 131.242 280.014 123.171 284.877 115.662C284.945 115.551 285.056 115.558 285.133 115.615C288.656 104.893 293.657 94.7449 299.775 85.0644C304.124 78.1804 308.423 71.0948 313.506 64.7218C318.662 58.2681 325.314 53.2227 330.537 46.8194C330.669 46.6581 330.941 46.8766 330.823 47.048C326.248 53.5622 320.235 58.8832 315.657 65.3839C310.874 72.1704 307.284 79.9485 303.539 87.34C295.704 102.782 289.882 118.217 288.266 135.565C286.746 151.89 286.961 167.631 292.111 183.335C293.923 188.855 295.734 194.703 296.447 200.592C296.908 201.268 297.371 201.94 297.829 202.619C294.612 189.369 292.773 175.766 292.807 162.102C292.85 145.171 293.402 128.476 299.126 112.335C303.671 99.5079 310.501 86.8022 320.101 77.0611C330.823 66.1772 343.68 57.2899 358.702 53.7572C358.94 53.7034 359.018 54.0362 358.799 54.1168C332.326 63.3134 314.225 89.8811 306.86 116.022C302.326 132.129 302.007 149.312 303.899 165.837C304.225 168.667 304.588 171.494 304.955 174.317C306.8 148.126 311.499 120.163 330.339 100.731C340.857 89.8845 353.821 81.7737 367.532 75.5855C367.69 75.5149 367.821 75.7367 367.666 75.8275C344.863 89.471 325.304 109.588 318.917 136.065C312.41 163.02 307.519 192.761 317.543 219.459C318.178 221.143 318.823 222.801 319.465 224.448C318.272 208.629 318.336 193.315 321.603 177.554C325.122 160.563 332.665 145.733 342.494 131.548C347.68 124.062 353.364 116.664 360.49 110.916C367.787 105.031 376.123 100.58 383.407 94.6676C383.817 94.3348 384.392 94.9096 383.986 95.2626C377.962 100.506 371.118 104.667 365.041 109.834C358.305 115.565 353.028 122.613 348.45 130.139C339.136 145.45 332.467 161.86 330.295 179.722C328.178 197.171 328.144 215.372 330.104 232.821C332.211 251.577 335.64 270.114 333.559 289.065C333.327 291.176 333.062 293.317 332.753 295.462C333.952 291.98 335.085 288.474 336.067 284.921C338.49 276.131 339.166 267.18 340.342 258.178C342.473 241.836 343.115 225.372 345.193 209.043C346.964 195.161 351.078 181.48 356.779 168.707C363.391 153.907 372.826 140.321 384.328 128.906C384.543 128.694 384.846 129.017 384.648 129.239C374.318 140.778 366.695 153.793 361.972 168.563C357.582 182.293 356.046 196.468 354.51 210.73C352.746 227.177 352.722 243.768 350.752 260.198C348.732 277.032 344.097 293.075 338.01 308.85C334.689 317.448 331.169 325.979 326.524 333.959C326.168 334.571 325.798 335.172 325.432 335.777C324.611 338.544 323.717 341.263 322.756 343.912C330.947 334.416 338.457 324.349 344.628 313.398C355.546 294.037 362.429 272.575 366.224 250.726C370.944 223.527 371.868 196.209 368.06 168.838C368.046 168.727 368.214 168.673 368.238 168.794C377.67 213.268 377.007 261.899 358.366 304.043C345.962 332.087 324.88 354.829 302.85 376.089C300.834 378.365 298.773 380.584 296.706 382.748C292.118 387.551 287.237 391.793 282.138 395.719C281.22 396.59 280.299 397.464 279.382 398.335C271.705 405.645 263.775 412.822 256.592 420.633C252.952 424.596 249.574 428.865 247.073 433.652C245.382 436.882 243.58 440.727 242.263 444.472C247.006 452.952 252.222 461.188 257.822 469.144C257.795 468.979 257.762 468.821 257.732 468.656C257.029 464.697 255.241 461.235 255.473 457.137C255.685 453.383 256.458 449.487 257.406 445.857C261.92 428.596 271.91 413.669 284.188 401.003C296.8 387.999 311.213 376.879 323.801 363.868C338.09 349.095 352.725 334.766 363.838 317.32C370.144 307.418 374.369 296.464 379.374 285.889C384.819 274.383 390.372 262.212 388.385 249.16C388.352 248.931 388.681 248.834 388.742 249.069C390.97 257.835 389.592 266.82 387.633 275.509C385.451 285.166 382.644 294.917 379.76 304.383C373.596 324.601 359.492 341.122 346.278 357.098C335.875 369.673 322.695 379.538 310.232 390.022C311.519 391.666 312.921 393.202 314.366 394.698C321.267 388.462 328.84 382.957 336.205 377.286C349.062 367.38 361.394 357.411 370.534 343.794C370.695 343.549 371.081 343.777 370.927 344.033C357.619 365.821 336.171 380.856 320.763 400.973C322.487 402.644 324.191 404.338 325.785 406.136C332.81 395.639 342.178 387.246 350.967 378.133C351.216 377.874 351.687 378.231 351.468 378.533C343.509 389.457 335.361 399.202 330.158 411.615C334.319 417.323 337.922 423.581 340.937 429.88C342.117 432.348 343.216 434.852 344.255 437.383C344.672 436.411 345.092 435.437 345.509 434.462C352.009 419.296 357.945 403.79 362.705 387.978C368.362 369.165 371.928 349.818 372.856 330.177C372.863 330.117 372.95 330.12 372.954 330.177C373.209 361.693 366.819 393.313 356.191 422.902C353.475 430.465 350.416 438.032 347.391 445.642C351.72 457.954 354.856 470.744 358.056 483.325C359.653 477.292 361.367 471.302 363.229 465.339C368.063 449.86 371.794 434.284 372.695 418.032C372.708 417.793 373.065 417.797 373.065 418.035C373.239 432.509 370.984 446.835 369.008 461.13C368.046 468.098 367.001 475.026 365.821 481.957C364.608 489.11 364.214 496.142 363.643 503.325C366.913 514.125 370.493 524.847 373.976 535.573C379.139 551.506 386.08 566.847 396.466 580.107C403.888 589.576 412.772 597.495 421.807 605.293C424.543 606.618 427.296 607.915 430.099 609.152C441.373 614.144 452.728 619.045 464.149 623.754C451.975 615.717 440.412 606.614 430.022 596.463C416.782 583.522 405.488 568.726 395.851 552.931C385.33 535.677 380.57 516.716 379.28 496.659C378.547 485.248 379.804 473.877 380.224 462.472C380.648 450.979 381.108 439.49 380.792 427.988C380.775 427.383 381.656 427.427 381.713 428.001C383.656 447.487 383.327 467.063 385.851 486.495C387.058 495.762 387.911 504.945 390.204 514.044C392.661 523.802 396.402 532.8 401.041 541.708C417.115 572.575 443.642 597.26 470.848 618.372C479.141 624.806 487.302 630.046 496.734 634.654C499.846 636.177 502.868 637.848 505.876 639.532C520.76 644.416 535.829 648.523 551.173 652.18C551.278 652.204 551.385 652.224 551.493 652.251C548.266 650.335 545.083 648.348 541.9 646.466C537.685 643.965 533.513 641.35 529.123 639.169C524.693 636.974 519.977 635.33 515.597 633.041C507.359 628.742 499.631 623.149 491.998 617.878C484.216 612.507 475.9 607.535 468.795 601.294C454.795 589.005 441.887 575.482 430.674 560.605C419.646 545.977 412.536 529.473 410.284 511.211C408.826 499.382 409.474 487.46 407.894 475.614C406.375 464.23 404.678 452.999 405.121 441.474C405.128 441.232 405.484 441.238 405.491 441.474C405.723 452.166 407.568 462.727 409.894 473.144C412.002 482.586 413.437 491.903 414.812 501.48C417.39 519.459 425.696 535.667 435.205 550.955C444.738 566.272 458.694 578.47 472.892 589.374C480.058 594.88 486.774 600.978 494.072 606.305C501.161 611.485 508.461 616.356 515.631 621.418C524.397 627.606 531.718 635.344 540.679 641.317C547.644 645.955 555.123 649.895 562.192 654.389C562.871 654.49 563.543 654.594 564.215 654.715C558.545 651.451 553.147 647.199 548.101 643.522C532.666 632.265 518.421 619.925 506.085 605.293C494.135 591.119 482.926 575.647 475.608 558.524C468.559 542.024 464.008 524.461 462.035 506.632C459.759 486.098 461.114 465.14 465.393 444.963C465.437 444.761 465.786 444.808 465.756 445.016C460.452 480.986 464.805 519.241 479.712 552.534C487.154 569.146 496.754 584.433 508.676 598.198C520.602 611.969 534.138 625.209 548.757 636.103C556.79 642.09 565.331 648.5 574.474 652.695C581.294 655.821 588.333 657.034 594.443 661.111C601.338 662.352 608.238 663.558 615.058 665.249C617.552 665.867 620.026 666.526 622.5 667.202C620.45 666.311 618.416 665.35 616.393 664.284C602.585 657.004 589.62 647.989 577.751 637.861C565.775 627.643 554.891 615.841 545.113 603.515C535.695 591.64 528.602 579.116 524.649 564.407C520.088 547.429 517.886 529.6 517.991 512.031C517.994 511.614 518.609 511.631 518.636 512.041C520.491 542.366 528.559 575.287 549.079 598.517C558.901 609.636 569.94 620.214 580.86 630.255C592.151 640.641 604.642 649.394 618.184 656.587C625.734 660.6 633.337 664.913 641.162 668.348C647.317 671.047 653.297 673.635 658.362 677.988C659.989 678.54 661.612 679.104 663.233 679.679C667.021 679.911 670.762 680.637 673.938 682.546C674.362 682.798 674.053 683.387 673.606 683.299C673.411 683.259 673.212 683.232 673.017 683.195C677.155 684.681 681.31 686.133 685.518 687.447C685.807 687.538 685.673 687.938 685.39 687.887C677.182 686.533 668.984 684.489 660.866 682.345C651.555 682.63 642.12 684.657 633.082 685.988C625.045 687.175 617.331 689.857 609.378 691.434C601.395 693.017 593.264 694.065 585.183 695.02C568.888 696.956 552.518 696.324 536.206 694.724ZM246.38 149.42C247.977 145.326 249.883 141.366 252.027 137.534C247.11 142.761 242.189 147.978 237.365 153.292C239.718 153.585 242.098 154.136 244.458 154.858C245.056 152.966 245.705 151.144 246.38 149.42ZM281.049 131.894C281.933 126.782 283.167 121.8 284.706 116.936C277.439 132.879 275.153 149.924 278.787 167.154C279.133 168.784 279.472 170.418 279.819 172.041C278.706 158.663 278.763 145.06 281.049 131.894ZM243.426 424.889C245.251 422.079 247.298 419.433 249.469 416.889C243.597 420.415 237.712 424.701 235.634 430.294C235.792 431.006 235.903 431.753 235.967 432.536C236.626 433.86 237.285 435.185 237.967 436.495C238.962 432.358 241.123 428.432 243.426 424.889ZM193.702 514.357C210.146 528.131 230.606 538.491 250.895 545.271C270.918 551.966 292.968 556.847 314.104 557.718C322.749 558.074 331.321 557.711 339.905 558.709C338.242 557.355 336.574 556 334.917 554.635C328.695 549.526 322.417 544.474 316.198 539.341C314.558 538.716 312.907 538.114 311.281 537.392C307.674 535.802 304.003 534.313 300.235 533.146C292.05 530.615 283.641 529.711 275.126 529.16C258.316 528.074 240.717 528.017 224.364 523.597C212.845 520.478 201.621 516.172 190.532 511.621C191.574 512.545 192.63 513.459 193.702 514.357ZM228.619 493.695C214.082 490.172 199.201 486.908 184.906 482.522C173.649 479.073 163.104 473.893 152.358 469.174C161.709 480.703 170.996 492.364 181.396 502.932C197.689 507.577 214.072 511.708 230.693 514.982C248.185 518.421 266.037 518.131 283.543 521.345C288.239 522.205 293.022 523.18 297.657 524.511C294.225 522.622 291.059 520.226 287.899 517.933C282.612 514.095 276.995 512.074 271.2 509.261C257.295 502.508 243.671 497.342 228.619 493.695ZM313.815 395.195C312.491 393.578 311.213 391.921 310.047 390.173C309.075 390.99 308.111 391.814 307.149 392.637C294.138 403.84 281.133 416.865 272.699 431.968C268.279 439.88 265.52 448.277 264.498 457.275C263.91 462.472 261.6 466.522 262.441 471.9C262.713 473.641 263.14 475.446 263.718 477.221C270.713 486.475 278.229 495.298 286.158 503.604C287.654 505.167 289.17 506.71 290.699 508.249C285.846 502.283 281.204 496.196 278.387 488.697C273.036 474.465 277.449 457.705 282.726 444.052C288.252 429.743 295.029 416.079 304.965 404.314C307.714 401.061 310.689 398.052 313.815 395.195ZM324.618 407.941C323.109 405.948 321.485 404.049 319.838 402.166C315.889 407.467 312.585 413.087 309.58 418.963C306.245 425.477 302.35 431.669 299.22 438.297C295.976 445.168 293.583 452.455 291.983 459.88C290.481 466.841 290.605 473.796 290.178 480.858C289.684 489.154 289.647 496.817 293.489 504.37C295.899 509.11 298.743 513.557 301.129 518.269C305.926 522.689 310.844 526.992 315.845 531.183C314.901 529.812 313.953 528.444 313.005 527.073C308.306 520.256 305.795 513.005 304.218 504.915C301.166 489.278 300.874 472.939 305.096 457.524C309.388 441.857 314.669 425.85 322.487 411.541C323.163 410.308 323.882 409.114 324.618 407.941ZM341.717 443.279C341.599 442.912 341.492 442.539 341.378 442.169C338.289 432.516 334.016 423.403 328.964 414.644C323.616 429.111 318.961 443.638 315.734 458.744C312.484 473.967 311.257 488.663 314.991 503.92C316.78 511.231 318.608 518.558 320.457 525.852C321.563 530.215 323.274 534.266 324.685 538.43C326.393 539.795 328.107 541.14 329.825 542.481C326.658 537.167 324.47 531.281 323.573 524.861C321.391 509.315 323.69 493.722 328.158 478.774C331.791 466.619 336.702 454.922 341.717 443.279ZM351.616 508.932C352.332 504.35 353.512 499.964 354.746 495.567C351.532 481.275 348.48 466.935 344.547 452.862C337.233 471.695 330.823 490.912 330.887 511.163C330.914 519.294 332.094 527.661 334.803 535.355C336.867 541.214 339.633 546.726 342.403 552.255C346.83 555.684 351.28 559.089 355.744 562.481C358.157 563.519 359.774 564.867 361.182 566.605C361.408 566.77 361.626 566.941 361.848 567.109C361.075 565.701 360.268 564.302 359.32 562.938C357.152 559.818 355.357 556.205 354.12 552.618C349.246 538.457 349.341 523.52 351.616 508.932ZM369.959 549.271C367.186 542.138 364.829 534.878 362.715 527.54C362.913 534.222 363.592 540.861 365.065 547.203C366.685 554.195 367.589 561.344 369.418 568.282C370.144 571.038 371.539 573.341 373.192 575.482C375.065 576.847 376.934 578.218 378.819 579.563C382.09 581.895 385.387 584.137 388.705 586.332C380.799 574.921 374.991 562.205 369.959 549.271ZM490.667 650.096C498.391 649.891 506.129 649.626 513.863 649.636C506.898 647.626 499.971 645.417 493.073 642.917C488.055 641.098 483.08 639.192 478.132 637.236C475.178 636.54 472.22 635.861 469.228 635.333C461.561 633.975 453.689 634.379 445.965 635.098C430.422 636.544 415.152 640.943 399.962 644.369C397.985 644.812 396.016 645.243 394.043 645.659C407.525 647.461 421.084 648.685 434.546 649.673C453.225 651.044 471.958 650.597 490.667 650.096ZM583.734 684.711C599.993 683.814 616.144 680.735 632.413 680.422C638.786 680.298 645.125 680.086 651.481 679.844C651.276 679.79 651.071 679.733 650.863 679.679C639.078 676.55 627.452 672.872 615.7 669.629C615.136 669.471 614.564 669.33 613.996 669.175C613.875 669.323 613.69 669.414 613.475 669.36C605.956 667.431 598.279 666.553 590.598 665.686C588.118 666.143 585.637 666.58 583.102 666.765C578.81 667.088 574.504 667.199 570.215 667.609C561.278 668.459 552.373 670.23 543.59 672.032C529.15 674.99 514.999 678.365 500.488 680.503C511.786 682.113 523.13 683.39 534.485 684.58C550.955 686.301 567.24 685.622 583.734 684.711Z" fill="#135460"/>
<path d="M242.76 449.356C238.266 443.312 226.243 441.073 219.473 440.371C211.245 439.517 202.969 437.584 195.164 434.805C187.201 431.971 180.243 426.495 173.393 421.675C166.119 416.549 158.637 411.618 150.731 407.518C150.64 407.474 150.708 407.312 150.805 407.353C159.232 410.543 167.033 414.929 175.188 418.707C184.23 422.896 193.524 426.038 203.288 428.045C204.515 428.3 205.752 428.519 206.993 428.737C195.87 423.262 184.956 417.043 174.176 410.96C173.107 410.361 172.717 409.433 172.774 408.519C153.891 400.23 132.546 387.326 123.168 368.305C117.646 357.105 115.757 344.557 117.081 332.184C117.094 332.07 117.266 332.066 117.269 332.187C117.505 356.271 132.133 375.777 151.739 388.6C161.144 394.748 171.457 399.652 181.847 403.894C180.596 402.442 179.541 400.906 178.788 399.306C176.751 398.321 174.768 397.232 172.882 395.995C169.648 394.869 166.643 393.219 163.944 390.809C158.381 385.847 153.575 380.015 148.466 374.607C139.007 364.594 128.13 355.135 125.024 341.058C123.286 333.202 123.699 325.172 124.425 317.233C125.162 309.189 125.689 301.169 127.027 293.193C128.13 286.581 129.746 280.097 131.393 273.627C131.925 271.274 132.526 268.931 133.162 266.608C135.104 258.743 136.842 250.837 137.504 242.672C137.511 242.615 137.595 242.615 137.595 242.672C137.659 245.963 137.595 249.251 137.44 252.528C141.874 239.106 147.202 226.037 153.366 213.301C161.279 196.945 166.822 179.396 167.971 161.181C167.995 160.768 168.61 160.774 168.617 161.191C168.919 177.944 165.521 193.853 162.176 210.152C162.126 210.391 162.079 210.629 162.025 210.868C162.388 210.76 162.768 210.696 163.148 210.68C164.973 205.191 167.39 199.843 170.435 195.006C179.326 180.895 191.507 168.525 203.423 156.979C215.866 144.922 228.797 133.282 240.774 120.755C246.397 114.869 252.007 109.037 257.97 103.494C264.273 97.6322 270.773 91.0945 271.684 82.1164C271.698 81.9988 271.872 81.9954 271.869 82.1198C271.741 88.7819 268.535 94.5532 264.659 99.8036C261.251 104.425 257.765 108.94 254.394 113.572C255.735 112.133 257.096 110.728 258.474 109.373C265.54 102.429 274.4 97.7566 281.415 90.7214C281.499 90.6373 281.62 90.7651 281.543 90.8558C275.993 97.2053 269.237 102.385 263.775 108.825C258.131 115.477 254.303 123.38 250.303 131.064C246.747 137.887 242.908 144.516 240.481 151.867C239.664 154.347 238.985 156.798 238.108 159.218C239.238 159.826 240.048 160.831 240.491 161.998C241.953 162.455 243.396 162.963 244.824 163.51C245.012 161.467 245.244 159.436 245.51 157.43C247.409 143.161 252.404 127.793 262.589 117.252C262.73 117.104 263.005 117.313 262.874 117.481C256.226 126.106 252.965 136.486 251.846 147.151C254.017 140.284 257.409 133.817 260.891 127.511C266.192 117.924 273.029 109.091 280.538 101.135C280.703 100.957 280.935 101.219 280.793 101.397C268.37 116.973 260.478 135.054 259.577 155.117C259.301 161.285 259.863 167.567 260.931 173.688C260.975 173.715 261.022 173.729 261.063 173.752C262.541 174.512 263.99 175.329 265.425 176.172C264.673 164.267 266.414 152.085 267.909 140.412C268.071 139.144 270.061 139.124 269.936 140.442C269.13 149.178 268.333 157.944 270.383 166.583C271.956 173.198 275.039 178.683 278.336 184.334C278.558 184.492 278.77 184.66 278.972 184.835C277.553 181.44 276.215 178.008 275.029 174.542C273.012 168.653 273.254 163.06 274.044 156.959C275.513 145.571 276.209 133.03 280.124 122.176C280.225 121.897 280.642 122.015 280.568 122.304C278.985 128.56 278.679 134.825 278.914 141.245C279.15 147.611 278.42 154.358 279.459 160.643C280.444 166.569 283.735 172.263 286.336 177.628C289.052 183.221 291.926 188.744 294.76 194.28C295.623 195.971 296.504 197.671 297.388 199.386C297.388 199.369 297.385 199.355 297.378 199.342C293.687 186.808 291.476 175.201 293.237 162.112C294.981 149.164 299.025 136.583 301.781 123.83C301.822 123.629 302.168 123.679 302.141 123.884C300.393 136.922 297.304 149.86 298.074 163.104C298.85 176.371 304.867 188.808 310.027 200.834C313.556 209.07 317.082 217.54 319.243 226.293C319.788 214.515 319.939 201.56 324.954 190.969C325.089 190.687 325.579 190.898 325.458 191.187C319.737 204.878 323.492 222.639 325.942 236.743C328.988 254.292 332.957 272.084 332.181 290.033C331.808 298.679 330.675 307.657 328.665 316.409C334.537 305.122 338.944 293.119 342.702 280.951C347.364 265.849 349.609 249.839 348.006 234.074C347.989 233.92 348.251 233.889 348.278 234.041C352.813 259.294 352.826 285.405 343.478 309.599C338.769 321.787 332.675 333.522 325.062 344.157C318.232 353.7 309.092 361.024 300.168 368.486C289.086 377.746 277.866 389.726 263.688 394.045C259.466 398.146 255.789 402.812 252.622 407.763C252.478 407.995 252.333 408.217 252.195 408.445C261.61 400.919 271.486 394.187 281.929 387.965C295.207 380.059 308.356 372.294 319.482 361.414C330.315 350.812 339.693 338.55 346.087 324.782C346.456 323.989 347.865 324.591 347.509 325.411C342.083 337.851 335.694 349.915 326.826 360.254C317.337 371.32 306.067 380.066 293.765 387.777C281.025 395.76 267.019 403.249 256.293 413.954C251.937 418.307 248.552 423.783 245.59 429.171C241.9 435.877 237.967 442.67 242.861 449.497C242.827 449.446 242.794 449.403 242.76 449.356Z" fill="#00AD46"/>
<path d="M286.77 504.938C280.733 500.891 275.442 495.991 269.614 491.749C269.459 491.833 269.24 491.806 269.214 491.601C269.207 491.547 269.19 491.496 269.183 491.443C267.294 490.088 265.355 488.797 263.301 487.638C253.789 482.256 243.866 477.584 233.456 474.206C223.201 470.882 212.808 468.875 202.367 466.287C191.141 463.51 180.24 459.547 169.191 456.166C169.077 456.129 169.127 455.961 169.242 455.988C181.268 458.791 193.211 462.438 205.453 464.179C216.246 465.712 226.918 466.64 237.335 470.082C247.016 473.278 256.615 477.332 265.143 482.962C265.543 483.228 265.93 483.497 266.32 483.769C262.622 477.497 256.679 472.458 254.817 465.154C252.266 455.147 255.187 444.021 258.911 434.67C262.528 425.581 267.382 417.215 273.778 409.82C280.797 401.696 288.992 394.711 296.575 387.138C296.645 387.067 296.783 387.168 296.719 387.252C290.833 394.839 284.326 401.951 278.703 409.739C272.645 418.126 269.062 426.936 265.825 436.687C262.572 446.505 260.346 456.088 262.575 466.391C264.017 473.04 267.493 479.167 269.019 485.749C275.973 491.133 281.365 497.537 287.284 504.296C287.58 504.632 287.18 505.214 286.77 504.938Z" fill="#00AD46"/>
<path d="M288.679 510.337C281.408 506.078 273.758 502.821 266.252 499.049C258.723 495.265 251.177 491.675 243.415 488.371C227.604 481.645 211.16 477.641 193.977 476.801C193.742 476.788 193.745 476.431 193.984 476.428C211.372 476.209 229.042 478.495 245.718 483.483C253.869 485.92 262.094 489.487 269.422 493.816C276.649 498.078 283.042 504.024 289.136 509.762C289.445 510.054 289.035 510.545 288.679 510.337Z" fill="#00AD46"/>
<path d="M320.04 647.999C301.146 644.58 282.77 638.584 267.402 626.766C267.355 626.729 267.395 626.655 267.449 626.685C283.22 635.777 301.808 640.779 319.69 643.609C328.527 645.004 337.499 645.878 346.443 646.201C357.495 646.604 369.233 647.851 380.137 645.787C380.607 645.696 380.765 646.342 380.318 646.503C361.142 653.377 339.764 651.565 320.04 647.999Z" fill="#00AD46"/>
<path d="M481.006 681.844C470.798 679.279 460.781 676.086 450.61 673.4C440.69 670.779 430.079 666.197 419.753 666.153C419.45 666.153 419.471 665.72 419.763 665.693C428.654 664.886 438.563 666.752 447.366 668.113C458.048 669.767 468.556 672.937 479.04 675.495C489.019 677.928 498.952 680.792 509.063 682.614C520.054 684.594 531.261 685.864 542.37 687.044C542.901 687.098 542.891 687.834 542.356 687.874C521.708 689.367 501.09 686.893 481.006 681.844Z" fill="#00AD46"/>
<path d="M376.906 670.466C376.553 670.446 376.56 669.915 376.913 669.915C403.356 669.656 429.662 676.288 455.578 680.688C456.099 680.775 456.095 681.689 455.561 681.753C428.882 684.997 403.36 671.938 376.906 670.466Z" fill="#00AD46"/>
<path d="M549.889 602.174C538.635 588.48 528.068 572.891 522.585 555.909C519.9 547.587 518.162 538.962 517.214 530.273C516.753 526.061 516.427 521.879 517.106 517.674C517.957 512.434 520.135 507.587 520.41 502.233C520.421 502.034 520.74 501.974 520.774 502.189C521.426 506.39 520.878 510.437 520.723 514.649C520.562 519.123 521.14 523.597 521.977 527.983C523.563 536.326 524.938 544.693 527.513 552.803C533.002 570.077 540.928 586.396 550.256 601.902C550.39 602.12 550.057 602.383 549.889 602.174Z" fill="#00AD46"/>
<path d="M477.258 552.881C473.278 545.204 469.335 537.358 467.06 528.982C464.525 519.644 462.986 509.833 462.038 500.209C461.043 490.159 461.114 479.914 461.362 469.823C461.473 465.326 461.766 460.808 462.532 456.371C463.453 451.064 465.537 446.112 466.811 440.896C466.851 440.744 467.083 440.788 467.083 440.939C467.036 450.654 465.097 460.136 465.241 469.884C465.389 479.423 465.12 488.993 466.008 498.505C467.712 516.75 472.246 535.214 477.85 552.642C477.96 552.988 477.423 553.204 477.258 552.881Z" fill="#00AD46"/>
<path d="M204.125 556.743C196.593 552.343 188.922 547.6 182.072 542.192C174.623 536.31 167.615 529.762 158.657 526.276C158.005 526.021 158.274 524.999 158.966 525.214C175.218 530.233 188.889 540.895 203.184 549.738C219.436 559.799 234.901 570.034 254.017 573.728C254.222 573.768 254.172 574.118 253.967 574.091C236.622 571.802 219.201 565.54 204.125 556.743Z" fill="#00AD46"/>
<path d="M354.554 508.559C354.016 499.561 352.987 490.3 355.165 481.436C357.417 472.284 361.552 463.588 364.379 454.603C367.411 444.98 368.916 435.151 370.11 425.155C370.674 420.452 371.448 415.864 371.316 411.105C371.209 407.195 371.219 403.444 371.864 399.575C371.918 399.266 372.446 399.273 372.486 399.582C373.74 408.422 376.133 416.15 375.518 425.239C374.886 434.546 373.575 443.877 371.014 452.855C368.429 461.934 364.984 470.785 361.696 479.625C360.046 484.072 358.117 488.331 357.031 492.972C355.831 498.102 355.468 503.335 355.014 508.566C354.987 508.865 354.574 508.858 354.554 508.559Z" fill="#00AD46"/>
<path d="M421.521 537.315C407.104 525.039 408.866 506.592 408.936 489.282C408.98 478.361 407.43 467.968 405.548 457.238C404.715 452.489 403.995 447.47 404.204 442.637C404.436 437.306 405.723 432.065 406.002 426.731C406.012 426.533 406.328 426.476 406.365 426.691C407.098 430.815 407.252 434.946 407.615 439.111C408.086 444.519 409.229 449.722 410.338 455.016C412.345 464.596 414.21 473.917 414.378 483.739C414.677 501.177 410.93 522.004 421.958 536.982C422.156 537.254 421.736 537.499 421.521 537.315Z" fill="#00AD46"/>
<path d="M354.298 190.787C356.241 183.487 356.53 175.961 357.764 168.546C358.947 161.433 361.518 154.976 365.428 148.916C372.654 137.709 383.031 128.684 394.523 122.055C394.654 121.981 394.816 122.176 394.688 122.274C384.611 130.156 376.893 142.035 370.429 152.983C367.065 158.68 363.871 165.252 361.478 171.416C358.984 177.843 357.818 184.66 355.098 191.019C354.893 191.497 354.161 191.318 354.298 190.787Z" fill="#00AD46"/>
<path d="M247.607 101.091C256.562 87.0678 266.575 73.9789 273.381 58.6614C276.817 50.9237 279.082 42.7625 282.302 34.9508C285.139 28.0669 286.877 20.3695 290.4 13.8149C290.477 13.6704 290.685 13.778 290.652 13.9259C289.633 18.4401 289.916 23.0518 289.243 27.6097C288.662 31.529 287.805 35.4214 286.756 39.2365C284.568 47.1792 282.299 54.9338 278.723 62.3791C271.257 77.8982 259.361 88.8258 248.104 101.488C247.862 101.767 247.412 101.397 247.607 101.091Z" fill="#00AD46"/>
<path d="M228.37 105.807C230.512 98.0326 234.992 91.4108 238.723 84.3555C242.74 76.7656 246.168 68.6346 248.972 60.5272C254.464 44.6349 256.525 28.1746 260.417 11.916C260.447 11.7849 260.659 11.7883 260.683 11.9194C263.842 27.9292 260.844 45.4551 255.281 60.5978C252.407 68.4128 248.895 75.8043 244.31 82.7622C239.204 90.5167 232.572 97.3301 228.898 105.959C228.764 106.281 228.273 106.157 228.37 105.807Z" fill="#00AD46"/>
<path d="M179.601 143.911C184.757 127.83 194.919 114.435 202.569 99.5616C210.808 83.5349 216.364 66.8864 214.172 48.6479C214.159 48.5303 214.317 48.4832 214.354 48.6009C219.362 65.0141 215.809 81.4643 208.834 96.7314C205.234 104.614 200.636 112.032 196.041 119.37C190.831 127.692 184.613 135.38 180.099 144.129C179.957 144.408 179.507 144.206 179.601 143.911Z" fill="#00AD46"/>
<path d="M113.932 263.953C113.716 252.091 110.496 240.377 111.518 228.485C112.563 216.27 114.644 204.172 115.451 191.934C116.274 179.47 115.689 167.621 113.495 155.333C112.056 147.292 110.876 136.435 105.269 130.133C105.202 130.059 105.293 129.928 105.38 129.992C111.474 134.227 114.177 142.129 116.042 148.98C119.313 161.003 120.805 172.922 120.395 185.389C119.968 198.29 117.921 211.103 116.331 223.893C114.671 237.247 115.498 250.595 114.298 263.956C114.278 264.192 113.935 264.192 113.932 263.953Z" fill="#00AD46"/>
<path d="M331.737 166.398C335.226 149.827 339.888 134.264 350.281 120.55C355.495 113.676 361.827 107.572 368.557 102.217C371.69 99.7229 375.158 97.175 378.701 95.2725C382.17 93.407 385.864 92.3079 389.067 89.9314C389.293 89.76 389.488 90.1129 389.34 90.2978C387.212 92.9532 384.573 94.9936 381.925 97.1045C378.839 99.5548 376.489 102.214 373.817 105.064C368.046 111.222 361.817 116.795 356.328 123.262C351.055 129.481 345.606 135.259 341.381 142.307C336.934 149.729 334.729 158.331 332.181 166.529C332.093 166.811 331.68 166.687 331.737 166.398Z" fill="#00AD46"/>
<path d="M309.442 107.027C312.4 99.209 313.307 90.547 317.63 83.2899C321.684 76.49 327.354 70.285 333.105 64.8935C343.848 54.823 357.203 48.7659 372.086 50.1172C372.624 50.1676 372.601 50.897 372.07 50.9474C357.539 52.3323 345.045 60.2314 335.018 70.4833C329.899 75.727 325.351 81.5319 321.142 87.5251C316.769 93.757 313.838 100.722 310.03 107.286C309.848 107.595 309.311 107.377 309.442 107.027Z" fill="#00AD46"/>
<path d="M359.35 287.775C363.831 266.703 368.96 245.58 370.459 224.051C371.142 214.266 371.656 204.34 371.058 194.539C370.456 184.737 368.412 175.299 366.977 165.631C366.91 165.168 367.468 164.919 367.74 165.322C372.785 172.811 374.533 182.535 375.444 191.356C376.533 201.9 376.12 212.646 375.545 223.211C374.974 233.792 373.659 244.306 371.159 254.612C368.426 265.889 363.895 277.039 359.881 287.926C359.76 288.262 359.28 288.124 359.35 287.775Z" fill="#00AD46"/>
<path d="M351.717 339.626C379.091 308.877 388.977 265.177 385.962 224.818C385.948 224.606 386.271 224.582 386.325 224.774C392.069 245.439 392.61 266.417 386.866 287.156C380.947 308.514 369.633 326.339 352.167 340.09C351.841 340.342 351.438 339.939 351.717 339.626Z" fill="#00AD46"/>
<path d="M145.454 189.688C144.143 171.339 147.514 153.111 144.798 134.798C143.773 127.891 142.274 121.087 140.506 114.338C138.748 107.629 136.56 100.335 132.227 94.7752C132.039 94.5332 132.281 94.197 132.57 94.3483C138.509 97.3836 141.609 103.289 144.207 109.172C147.188 115.925 149.323 123.306 150.503 130.593C152.032 140.028 152.429 149.591 151.45 159.097C150.385 169.423 147.198 179.356 146.009 189.698C145.965 190.048 145.481 190.045 145.454 189.688Z" fill="#00AD46"/>
<path d="M95.5049 311.909C92.9637 303.254 93.3032 294.178 92.8663 285.254C92.3957 275.755 92.1369 266.182 91.2427 256.713C90.3318 247.093 88.2344 237.776 84.6546 228.804C81.2664 220.303 77.458 212.109 74.6245 203.386C74.5908 203.285 74.7421 203.231 74.7925 203.315C84.3655 219.477 94.1973 234.176 96.4931 253.311C97.6326 262.797 97.3838 272.121 96.6679 281.63C95.9015 291.778 93.7671 301.684 95.8612 311.815C95.9116 312.047 95.5721 312.138 95.5049 311.909Z" fill="#00AD46"/>
<path d="M179.06 507.069C172.738 498.686 164.27 492.37 156.896 484.979C149.084 477.147 142.476 468.176 136.019 459.218C130.052 450.942 124.096 442.744 117.642 434.842C111.232 426.993 103.646 419.339 93.5855 416.613C93.5385 416.6 93.5486 416.519 93.599 416.523C112.607 419.171 125.091 437.141 135.635 451.376C143.071 461.409 150.506 471.429 158.442 481.07C165.487 489.631 173.79 497.147 179.504 506.74C179.658 507.006 179.255 507.321 179.06 507.069Z" fill="#00AD46"/>
<path d="M289.257 83.5756C292.729 78.379 294.739 72.9236 296.165 66.8699C297.536 61.0515 299.358 55.3709 300.81 49.5625C303.778 37.6736 308.464 25.0116 305.644 12.679C305.613 12.5344 305.838 12.4269 305.902 12.5748C310.843 24.5612 308.477 38.04 307.035 50.5004C305.509 63.6901 298.901 74.5505 289.617 83.8613C289.435 84.0462 289.109 83.7974 289.257 83.5756Z" fill="#00AD46"/>
<path d="M291.469 97.3569C296.605 90.7116 298.49 82.436 302.652 75.2563C306.87 67.9824 312.816 61.4884 318.453 55.2868C327.475 45.3541 338.685 33.0618 352.658 30.8837C352.89 30.8467 352.987 31.1795 352.752 31.2367C338.473 34.84 328.598 49.6163 320.265 60.7388C315.458 67.1522 310.363 73.3807 305.374 79.6596C300.716 85.5318 297.327 92.4796 291.896 97.6964C291.68 97.9048 291.27 97.6123 291.469 97.3569Z" fill="#00AD46"/>
<path d="M534.471 653.111C525.853 652.842 517.18 652.58 508.552 652.654C500.034 652.728 491.54 652.55 483.03 652.537C478.71 652.53 474.401 652.96 470.082 653.031C466.065 653.098 462.126 652.95 458.179 653.898C457.948 653.958 457.864 653.619 458.089 653.545C465.262 651.172 473.689 651.084 481.147 650.271C489.944 649.31 498.821 648.261 507.661 647.77C516.253 647.293 524.733 647.162 533.251 648.5C542.239 649.911 550.709 653.021 559.469 655.37C559.714 655.437 559.661 655.857 559.398 655.824C551.066 654.758 542.888 653.38 534.471 653.111Z" fill="#271266"/>
<path d="M561.203 666.778C541.516 668.782 521.506 671.649 502.095 675.508C501.92 675.541 501.853 675.286 502.024 675.239C511.806 672.402 521.721 670.15 531.634 667.844C541.207 665.615 550.642 663.108 560.433 662.009C570.091 660.923 579.627 660.634 589.267 662.042C598.85 663.441 607.895 666.846 617.297 668.99C617.603 669.057 617.522 669.538 617.213 669.535C607.737 669.333 598.648 666.614 589.206 666.036C579.943 665.471 570.433 665.834 561.203 666.778Z" fill="#271266"/>
<path d="M673.427 684.449C665.384 681.847 657.606 678.472 649.875 675.067C633.606 667.904 617.969 659.252 602.373 650.752C602.285 650.701 602.349 650.543 602.447 650.584C618.204 657.306 634.15 663.558 649.955 670.157C665.518 676.651 680.832 684.035 696.654 689.824C696.98 689.945 696.94 690.469 696.56 690.455C688.725 690.163 680.819 686.845 673.427 684.449Z" fill="#271266"/>
<path d="M566.659 690.842C574.591 688.882 582.786 689.175 590.83 687.968C599.099 686.728 607.327 685.172 615.569 683.767C623.518 682.415 631.505 680.97 639.589 680.909C645.72 680.866 652.301 680.654 658.059 683.051C658.389 683.188 658.257 683.642 657.905 683.582C651.229 682.439 644.291 684.795 637.619 685.336C629.293 686.009 621.108 687.209 612.853 688.456C605.68 689.538 598.366 689.958 591.126 690.432C583.015 690.96 574.857 690.035 566.8 691.377C566.454 691.43 566.312 690.926 566.659 690.842Z" fill="#271266"/>
<path d="M551.203 649.723C538.098 643.266 524.75 637.269 512.592 629.132C500.804 621.243 489.934 611.835 479.073 602.735C478.872 602.571 479.144 602.225 479.356 602.379C491.08 610.809 503.228 618.483 515.409 626.221C527.449 633.875 539.338 641.767 551.395 649.407C551.597 649.538 551.415 649.831 551.203 649.723Z" fill="#271266"/>
<path d="M576.292 656.741C568.669 653.027 560.514 650.224 553.183 645.925C546.259 641.861 539.977 636.439 533.99 631.128C527.701 625.552 522.169 619.471 516.585 613.209C511.076 607.021 506.481 599.956 500.575 594.147C500.448 594.019 500.639 593.841 500.774 593.956C506.646 598.957 511.295 605.216 516.821 610.581C522.814 616.396 528.831 622.09 535.096 627.609C541.641 633.38 548.521 638.51 555.691 643.468C562.417 648.12 570.02 651.394 576.578 656.267C576.864 656.479 576.615 656.899 576.292 656.741Z" fill="#271266"/>
<path d="M465.268 633.122C457.779 633.455 450.405 633.734 442.936 634.503C427.232 636.127 411.901 639.66 396.385 642.426C396.21 642.456 396.14 642.201 396.315 642.157C412.772 638.167 429.081 631.64 445.924 629.539C453.517 628.594 460.976 628.12 468.536 629.462C474.542 630.527 481.285 631.727 486.347 635.347C486.492 635.448 486.364 635.666 486.203 635.582C480.048 632.322 472.038 632.823 465.268 633.122Z" fill="#271266"/>
<path d="M472.24 628.446C468.969 626.782 466.697 624.093 464.183 621.478C461.043 618.211 457.46 615.387 453.998 612.48C446.206 605.935 438.24 599.663 430.576 592.964C423.38 586.675 417.02 579.959 411.306 572.279C405.39 564.339 401.125 555.217 394.678 547.691C394.483 547.462 394.792 547.156 395.007 547.368C401.222 553.546 405.609 561.186 411.229 567.869C417.652 575.499 424.855 582.221 432.428 588.685C439.709 594.897 447.05 600.894 453.722 607.777C457 611.166 460.3 614.608 463.329 618.224C466.243 621.7 468.418 625.787 472.337 628.288C472.438 628.355 472.347 628.5 472.24 628.446Z" fill="#271266"/>
<path d="M434.314 618.9C424.778 617.021 415.034 616.638 405.34 616.231C386.298 615.438 367.317 613.885 348.278 612.94C347.982 612.93 347.989 612.487 348.285 612.483C368.288 612.107 388.278 611.414 408.277 610.887C417.521 610.641 426.869 611.35 435.877 613.552C444.653 615.697 450.754 621.491 458.707 625.3C458.993 625.438 458.778 625.888 458.485 625.801C450.421 623.461 442.576 620.527 434.314 618.9Z" fill="#271266"/>
<path d="M383.3 585.949C379.774 583.828 376.442 581.368 372.903 579.287C370.315 577.764 367.659 576.565 365.36 574.578C364.749 574.047 364.167 573.486 363.616 572.901C359.138 571.825 354.93 569.775 350.416 568.723C343.357 567.076 335.962 565.576 328.759 564.834C315.068 563.418 301.815 560.854 288.423 557.563C288.228 557.513 288.272 557.173 288.481 557.2C302.524 558.998 316.611 558.118 330.641 559.687C336.466 560.336 342.382 561.281 347.787 563.647C352.772 565.829 357.374 569.21 362.369 571.445C359.162 567.489 357.048 562.625 355.498 557.825C350.668 542.931 355.834 528 356.221 512.848C356.224 512.666 356.48 512.68 356.496 512.854C357.885 526.632 356.493 540.636 361.394 553.899C363.458 559.482 366.809 564.306 370.012 569.264C374.019 575.459 378.029 580.659 383.642 585.519C383.881 585.727 383.562 586.107 383.3 585.949Z" fill="#271266"/>
<path d="M419.313 609.152C404.899 602.07 387.464 601.146 371.848 598.941C355.404 596.611 339.203 591.956 323.048 588.205C322.897 588.168 322.931 587.912 323.092 587.932C332.477 589.035 341.858 590.117 351.277 590.944C359.939 591.7 368.688 591.932 377.306 593.082C384.271 594.016 392.073 595.132 399.444 597.314C397.515 595.28 395.753 593.042 393.881 591.068C387.189 584.01 382.281 576.023 378.07 567.284C373.861 558.565 369.915 549.445 367.172 540.155C363.925 529.157 362.09 517.89 359.283 506.787C359.139 506.209 360.006 505.991 360.177 506.559C366.181 526.226 372.228 546.061 381.027 564.706C384.997 573.116 389.918 580.843 396.419 587.522C399.71 590.9 402.745 594.477 406.392 597.489C409.794 600.295 413.632 602.581 416.772 605.69C416.869 605.784 416.859 605.892 416.812 605.983C417.824 606.82 418.805 607.697 419.709 608.655C419.972 608.93 419.632 609.314 419.313 609.152Z" fill="#271266"/>
<path d="M355.71 566.437C349.293 561.039 341.102 557.879 335.939 551.12C331.512 545.325 327.818 538.925 325.841 531.86C323.714 524.266 323.455 515.92 324.863 508.193C325.979 502.048 325.714 494.552 329.714 489.426C329.821 489.292 330.043 489.416 329.949 489.571C326.564 495.168 327.687 503.198 327.653 509.52C327.613 517.238 329.337 524.697 332.1 531.863C334.598 538.323 338.332 543.782 342.302 549.392C344.238 552.138 345.808 555.009 347.992 557.6C350.517 560.592 353.475 563.16 356.036 566.118C356.234 566.343 355.932 566.629 355.71 566.437Z" fill="#271266"/>
<path d="M308.81 534.404C301.455 531.348 294.292 528.703 286.541 526.8C278.739 524.884 270.803 523.886 262.881 522.612C254 521.18 245.244 519.049 236.296 518.044C236.121 518.027 236.118 517.765 236.3 517.769C245.019 518.011 253.63 519.406 262.326 519.997C270.471 520.548 278.676 520.555 286.763 521.809C294.302 522.979 301.684 525.822 308.628 528.905C315.946 532.145 321.196 538.548 328.456 541.661C328.783 541.802 328.658 542.259 328.302 542.195C321.556 540.948 315.102 537.015 308.81 534.404Z" fill="#271266"/>
<path d="M321.398 535.463C318.709 533.063 315.468 530.969 313.105 528.253C310.618 525.395 309.347 521.422 308.094 517.903C305.506 510.633 303.778 502.932 303.048 495.251C301.684 480.976 303.506 465.692 309.986 452.761C310.033 452.67 310.191 452.738 310.151 452.835C305.038 466.489 306.215 480.532 308.934 494.545C311.687 508.73 316.426 521.775 321.835 535.133C321.952 535.416 321.646 535.681 321.398 535.463Z" fill="#271266"/>
<path d="M314.679 530.932C307.526 528.216 301.327 525.311 296.682 519.019C291.812 512.424 288.232 504.777 285.876 496.935C283.358 488.562 282.403 480.176 283.496 471.51C284.625 462.576 287.455 453.961 290.612 445.568C290.716 445.292 291.139 445.41 291.055 445.699C288.699 453.578 286.561 461.531 286.363 469.806C286.175 477.705 288.195 485.672 290.622 493.137C295.237 507.335 302.884 521.069 314.974 530.259C315.277 530.491 315.102 531.09 314.679 530.932Z" fill="#271266"/>
<path d="M259.422 475.554C254.626 472.391 250.209 469.097 245.079 466.452C239.221 463.427 233.164 460.939 227.063 458.448C221.486 456.17 216.078 453.753 210.27 452.109C205.167 450.664 200.031 449.447 195.275 447.04C194.999 446.902 195.204 446.422 195.497 446.539C200.966 448.734 206.687 449.383 212.468 450.264C219.177 451.286 225.328 453.373 231.624 455.843C237.187 458.028 242.908 460.132 248.115 463.09C253.331 466.055 256.158 470.516 259.765 475.124C259.943 475.356 259.704 475.739 259.422 475.554Z" fill="#271266"/>
<path d="M317.781 592.53C308.766 591.109 299.607 590.178 290.649 588.49C273.267 585.22 257.768 576.531 242.011 568.924C241.869 568.857 241.974 568.618 242.118 568.675C258.427 574.931 274.81 581.536 292.265 583.784C300.632 584.857 309.129 585.583 317.405 587.29C325.801 589.015 333.378 593.677 342.006 594.265C342.43 594.292 342.406 594.87 341.996 594.91C333.966 595.67 325.687 593.784 317.781 592.53Z" fill="#E8007F"/>
<path d="M468.724 591.969C462.825 587.425 457.595 582.218 452.408 576.88C441.917 566.091 433.877 553.6 426.005 540.837C425.955 540.75 426.089 540.646 426.153 540.726C434.741 552.081 444.438 562.265 454.364 572.44C459.433 577.64 464.186 583.129 469.443 588.154C473.914 592.433 478.421 597.67 484.001 600.443C484.283 600.584 484.071 601.025 483.779 600.944C478.001 599.364 473.383 595.563 468.724 591.969Z" fill="#E8007F"/>
<path d="M443.006 654.032C435.272 653.747 427.891 653.108 420.291 651.602C411.645 649.891 403.121 648.046 394.304 647.407C394.009 647.387 394.012 646.953 394.311 646.95C410.536 646.728 426.845 648.261 443.094 648.399C451.541 648.469 459.92 649.303 468.307 650.224C476.727 651.152 485.127 651.014 493.574 651.454C493.809 651.468 493.802 651.814 493.567 651.824C476.653 652.419 459.971 654.658 443.006 654.032Z" fill="#E8007F"/>
<path d="M630.527 670.315C615.993 663.663 602.833 655.643 590.662 645.243C578.739 635.061 569.472 622.399 557.839 611.902C557.533 611.626 557.96 611.072 558.296 611.327C582.847 630.356 604.053 653.649 630.766 669.918C631.024 670.076 630.789 670.432 630.527 670.315Z" fill="#E8007F"/>
<path d="M248.014 524.686C240.659 524.326 233.439 522.612 226.327 520.797C211.92 517.133 198.751 509.829 184.304 506.148C184.072 506.088 184.179 505.755 184.408 505.795C198.717 508.232 212.549 513.029 226.777 515.936C234.071 517.425 241.476 518.215 248.75 519.805C255.849 521.362 262.851 523.251 270.037 524.383C270.353 524.434 270.259 524.925 269.96 524.925C262.662 524.928 255.301 525.042 248.014 524.686Z" fill="#E8007F"/>
<path d="M310.991 487.574C311.613 482.982 311.307 478.418 311.465 473.806C311.606 469.655 312.356 465.601 312.937 461.497C314.194 452.647 314.477 443.551 317.025 434.926C319.465 426.664 323.431 418.634 327.418 411.027C330.927 404.328 334.04 396.681 339.781 391.568C339.868 391.488 339.989 391.609 339.908 391.7C334.282 397.884 331.835 406.99 329.132 414.765C326.312 422.876 324.52 431.054 322.554 439.376C320.608 447.622 318.144 455.615 315.751 463.729C313.431 471.598 313.314 479.725 311.351 487.628C311.304 487.826 310.961 487.782 310.991 487.574Z" fill="#E8007F"/>
<path d="M326.578 497.644C326.067 489.016 328.584 480.619 331.828 472.71C335.448 463.887 338.853 454.926 342.725 446.216C346.493 437.746 351.619 430.075 355.085 421.437C358.46 413.01 361.152 404.324 364.56 395.904C364.624 395.743 364.883 395.81 364.822 395.982C362.023 404.597 359.955 413.427 357.182 422.052C354.557 430.213 350.503 437.383 347.008 445.154C343.199 453.618 340.325 462.458 336.564 470.939C332.648 479.766 330.325 488.586 327.573 497.796C327.401 498.364 326.611 498.202 326.578 497.644Z" fill="#E8007F"/>
<path d="M279.106 471.682C278.42 453.091 285.617 434.23 296.571 419.377C301.855 412.214 308.255 406.026 314.346 399.575C320.453 393.098 326.887 386.806 334.282 381.804C334.581 381.599 334.833 382.076 334.554 382.285C320.86 392.419 310.151 407.861 301.126 422.13C296.548 429.366 292.528 436.61 288.887 444.358C284.696 453.275 280.565 461.759 279.476 471.685C279.449 471.921 279.113 471.921 279.106 471.682Z" fill="#1DAAF6"/>
<path d="M262.175 556.114C255.103 554.746 247.94 552.655 241.355 549.701C227.453 543.466 214.445 534.609 202.687 525.002C202.606 524.935 202.714 524.804 202.801 524.857C216.048 533.113 229.426 540.087 243.994 545.704C250.864 548.356 257.755 550.864 264.83 552.931C272.024 555.035 279.657 555.744 286.551 558.77C286.817 558.887 286.719 559.28 286.423 559.217C278.494 557.499 270.182 557.667 262.175 556.114Z" fill="#1DAAF6"/>
<path d="M305.707 612.49C292.985 610.339 280.904 605.697 268.743 601.519C268.518 601.441 268.615 601.109 268.847 601.166C280.807 603.942 292.763 606.746 304.87 608.846C317.505 611.041 330.584 612.164 343.354 613.438C343.589 613.458 343.586 613.791 343.347 613.804C330.665 614.621 318.275 614.618 305.707 612.49Z" fill="#1DAAF6"/>
<path d="M405.471 551.425C394.557 541.455 383.091 528.753 381.148 513.604C379.138 497.93 378.402 481.285 381.528 465.661C381.558 465.51 381.814 465.547 381.797 465.702C380.399 480.858 382.799 496.703 385.41 511.573C386.742 519.167 389.965 525.318 393.545 532.054C397.152 538.844 400.936 545.126 405.733 551.173C405.881 551.354 405.646 551.59 405.471 551.425Z" fill="#1DAAF6"/>
<path d="M500.189 590.796C486.384 582.672 483.762 565.439 475.574 552.787C475.46 552.612 475.736 552.4 475.867 552.565C485.198 564.407 490.216 579.096 500.7 590.151C501.023 590.49 500.599 591.038 500.189 590.796Z" fill="#1DAAF6"/>
<path d="M514.612 689.091C514.512 689.074 514.535 688.899 514.639 688.913C530.878 690.533 547.11 691.447 563.425 691.703C579.59 691.958 596.312 691.804 612.268 688.953C612.561 688.903 612.668 689.306 612.383 689.4C597.448 694.419 579.963 695.037 564.34 694.758C547.661 694.456 531.032 691.844 514.612 689.091Z" fill="#1DAAF6"/>
<path d="M230.011 166.257C221.006 166.811 211.866 170.069 203.658 175.497C192.952 182.579 183.863 192.304 176.331 202.616C163.554 220.112 150.647 241.106 143.817 261.798C130.466 302.255 139.003 345.149 166.946 377.837C180.041 393.155 199.614 395.232 217.248 402.593C218.938 403.299 221.365 404.953 223.063 405.262C227.271 406.025 229.587 402.997 232.595 400.714C236.031 398.103 239.284 396.762 243.412 395.081C253.086 391.145 263.57 389.508 271.57 382.594C279.045 376.13 287.738 370.859 294.285 363.343C307.532 348.134 313.687 327.125 314.907 307.3C316.564 280.434 312.016 256.562 300.89 232.397C298.074 226.29 293.953 220.804 290.702 214.841C278.743 192.909 258.716 164.472 230.011 166.257Z" fill="#540000"/>
<path d="M232.488 172.149C226.102 171.554 219.429 172.442 212.576 175.262C201.547 179.796 192.3 191.258 185.336 200.267C176.263 211.998 169.541 224.589 161.699 236.905C153.904 249.15 147.477 262.118 144.176 276.202C139.205 297.371 144.25 320.662 151.464 340.924C156.889 356.15 165.117 370.231 178.549 379.925C184.532 384.244 190.848 388.442 198.025 390.053C206.835 392.026 214.855 394.829 223.066 398.674C223.073 398.674 236.105 391.081 237.759 390.227C244.108 386.953 250.108 383.058 256.407 379.696C268.901 373.021 279.002 367.942 288.104 356.527C306.716 333.193 312.027 302.504 305.62 274.071C301.512 255.836 295.549 238.031 287.808 220.989C278.124 199.675 257.516 174.495 232.488 172.149Z" fill="#E8007F"/>
<path d="M286.554 196.949C282.746 192.005 279.351 187.268 274.541 183.242C270.124 179.551 266.356 175.44 263.896 170.156C261.405 164.815 260.185 159.054 260.165 153.185C260.135 146.701 262.518 139.938 261.163 133.558C261.025 132.916 261.936 132.688 262.145 133.303C263.886 138.459 263.015 144.012 264.279 149.259C265.691 155.141 267.926 161.867 270.645 167.262C273.055 172.045 277.049 175.736 279.543 180.509C282.272 185.746 284.292 191.349 286.991 196.62C287.126 196.882 286.753 197.208 286.554 196.949Z" fill="#E8007F"/>
<path d="M315.193 250.924C311.452 243.456 309.68 235.22 306.05 227.694C302.427 220.179 297.217 213.698 293.015 206.538C288.934 199.584 285.002 191.739 282.965 183.924C280.807 175.641 282.161 166.089 278.084 158.499C277.798 157.964 278.548 157.574 278.887 158.045C283.721 164.747 283.082 173.389 287.25 180.347C291.781 187.907 296.753 195.231 301.247 202.844C305.284 209.681 308.81 217.164 310.89 224.851C313.19 233.348 313.065 242.262 315.7 250.719C315.795 251.015 315.331 251.207 315.193 250.924Z" fill="#E8007F"/>
<path d="M235.675 408.126C251.415 396.758 270.988 392.072 286.034 379.38C288.185 377.562 290.242 375.656 292.252 373.699C291.882 374.015 291.203 373.565 291.539 373.125C297.274 365.592 301.243 357.34 305.465 348.92C308.595 342.681 312.376 336.937 316.433 331.33C316.174 331.129 315.996 330.836 316.016 330.46C316.477 323.075 317.458 315.764 317.932 308.393C318.406 300.991 318.174 293.556 318.1 286.148C317.949 271.213 317.183 256.414 318.386 241.489C318.4 241.315 318.655 241.318 318.662 241.496C319.62 257.093 322.517 272.524 323.919 288.094C325.025 300.457 325.052 314.009 320.561 325.771C322.642 323.021 324.645 320.272 326.564 317.472C326.863 312.003 326.487 306.426 325.986 300.968C324.715 286.971 324.608 272.867 322.652 258.931C319.146 233.994 315.835 207.191 303.452 184.831C303.304 184.566 303.684 184.371 303.852 184.606C311.348 195.127 316.258 207.016 320.736 219.053C325.835 232.757 329.731 246.037 331.27 260.635C332.759 274.833 334.853 291.452 333.115 306.964C333.68 305.946 334.235 304.914 334.772 303.868C338.789 296.04 341.72 287.69 345.324 279.674C345.411 279.472 345.707 279.623 345.656 279.818C343.509 288.504 342.009 297.351 339.509 305.946C336.93 314.796 332.12 322.147 327.075 329.764C320.359 339.905 313.435 350.517 305.465 360.056C306.094 359.407 306.719 358.758 307.354 358.123C314.033 351.374 322.836 344.433 327.018 335.801C327.253 335.317 327.983 335.683 327.855 336.171C325.465 345.263 318.648 353.095 313.707 360.94C308.101 369.851 300.884 378.926 292.343 385.155C275.536 397.41 255.318 402.334 235.913 408.721C235.54 408.845 235.402 408.324 235.675 408.126Z" fill="#E8007F"/>
<path d="M178.398 393.269C159.138 386.211 144.96 369.441 135.757 351.74C130.775 342.157 127.609 332.215 124.617 321.875C123.128 316.736 121.841 311.754 121.091 306.45C120.365 301.301 119.689 296.171 116.977 291.63C116.869 291.452 117.132 291.244 117.269 291.408C122.573 297.835 123.226 306.316 126.291 313.798C127.666 317.156 129.384 320.342 131.138 323.512C127.498 311.391 124.641 299.035 123.192 286.444C121.461 271.405 121.938 256.3 124.12 241.332C126.429 225.52 129.74 209.87 130.731 193.89C130.745 193.652 131.094 193.655 131.101 193.894C131.716 223.577 124.506 253.002 127.605 282.679C128.012 286.582 128.58 290.457 129.269 294.313C129.336 290.595 129.626 286.891 130.039 283.281C131.205 273.005 132.852 262.834 133.814 252.532C134.768 242.283 138.385 231.577 132.748 222.065C132.617 221.843 132.946 221.584 133.111 221.792C138.23 228.206 139.125 235.786 139.441 243.742C139.494 245.026 139.538 246.303 139.578 247.574C141.393 240.424 143.511 233.345 146.751 226.707C151.437 217.093 154.503 207.403 157.844 197.309C161.138 187.366 163.403 176.862 162.576 166.344C162.556 166.079 162.96 166.052 163.03 166.291C167.134 180.381 166.338 195.225 162.496 209.214C164.291 205.46 166.311 201.776 168.482 198.173C175.749 180.65 188.59 165.988 202.277 153.03C209.45 146.237 217.083 140.082 225.275 134.55C234.72 128.167 243.94 121.545 250.273 111.881C250.599 111.384 251.359 111.841 251.059 112.358C241.036 129.988 223.107 140.503 209.181 154.61C208.512 155.286 207.833 155.961 207.157 156.637C213.772 151.961 220.592 147.736 227.587 143.565C236.31 138.361 245.49 132.597 250.414 123.377C250.468 123.289 250.619 123.353 250.582 123.451C247.654 131.367 241.48 137.629 235.47 143.34C228.404 150.055 221.043 156.778 213.188 162.549C197.104 174.358 180.381 186.546 168.099 202.495C167.528 203.625 166.973 204.764 166.455 205.927C166.284 206.314 165.665 206.025 165.786 205.635C165.79 205.631 165.79 205.628 165.79 205.621C164.607 207.292 163.454 208.982 162.368 210.737C162.281 210.878 162.146 210.888 162.035 210.835C160.714 215.339 159.094 219.752 157.212 224.011C152.839 233.903 146.435 242.71 142.261 252.669C141.373 254.79 140.513 256.952 139.703 259.15C139.629 264.827 139.333 270.488 138.657 276.279C137.451 286.669 136.876 297.089 137.494 307.529C137.8 312.733 138.029 318.09 139.283 323.166C140.58 328.44 142.735 333.552 144.671 338.611C144.765 338.857 144.375 338.998 144.247 338.783C142.321 335.411 140.224 331.963 138.244 328.44C141.518 338.638 144.718 348.705 149.326 358.352C151.709 361.949 154.291 365.411 157.155 368.651C164.18 376.617 170.052 386.113 178.801 392.352C179.238 392.664 178.969 393.481 178.398 393.269Z" fill="#E8007F"/>
<path d="M256.212 472.808C254.689 470.307 253.224 467.763 251.604 465.326C250.269 463.326 248.38 462.082 247.022 460.19C246.172 459 245.627 457.578 245.291 456.045C245.503 457.588 245.772 459.111 246.125 460.617C246.192 460.909 245.748 461.117 245.614 460.822C244.259 457.823 243.059 454.667 242.068 451.444C238.881 449.141 235.429 447.138 232.169 445.218C225.17 441.097 216.35 434.862 207.934 436.234C207.645 436.284 207.534 435.881 207.819 435.79C216.485 432.946 226.491 436.509 234.505 439.897C234.595 439.934 234.673 439.975 234.76 440.015C233.617 439.084 232.501 438.116 231.473 437.064C228.397 433.901 225.631 430.459 222.028 427.84C218.142 425.014 213.601 422.812 209.281 420.731C204.525 418.442 199.957 414.852 194.868 413.461C194.576 413.38 194.633 412.886 194.949 412.916C199.581 413.363 203.614 415.79 208.115 416.802C213.873 418.096 219.258 419.404 224.411 422.415C231.755 426.711 235.688 432.872 239.607 439.766C239.395 434.644 241.157 429.572 243.21 424.936C247.483 415.309 255.6 405.629 265.849 402.204C266.148 402.106 266.33 402.57 266.054 402.715C256.572 407.689 251.879 417.575 248.437 427.232C246.138 433.682 244.844 440.674 244.763 447.622C244.878 447.766 244.982 447.924 245.093 448.072C245.247 446.802 245.456 445.588 245.684 444.496C248.152 432.849 258.538 424.593 265.163 415.414C265.644 414.748 266.726 415.37 266.269 416.079C260.706 424.765 255.153 433.632 254.578 444.139C254.333 448.603 255.355 453.064 255.046 457.433C254.851 460.159 253.842 462.176 254.397 465.013C254.908 467.588 255.906 470.109 256.804 472.566C256.935 472.919 256.394 473.107 256.212 472.808Z" fill="#135460"/>
<path d="M273.217 188.088C267.119 180.721 258.239 176.213 254.017 167.329C250.232 159.369 251.614 152.331 254.468 145C252.636 147.595 250.552 149.991 248.3 152.102C240.885 159.06 233.029 162.462 222.972 163.82C222.448 163.89 222.031 163.164 222.596 162.885C226.35 161.023 229.56 158.6 232.73 155.88C236.074 153.013 239.809 150.707 243.234 147.948C250.192 142.348 257.325 136.334 260.847 127.901C261.052 127.403 261.728 127.602 261.644 128.133C260.972 132.257 259.52 136.298 257.516 140.069C256.565 149.121 256.562 159.087 261.886 166.811C266.353 173.295 271.113 180.105 274.094 187.43C274.306 187.954 273.657 188.62 273.217 188.088Z" fill="#91E500"/>
<path d="M228.962 424.18C220.169 412.17 203.211 410.556 189.638 407.817C181.601 406.19 173.917 403.145 166.613 399.43C158.818 395.467 153.04 388.489 144.694 385.474C144.587 385.434 144.63 385.266 144.748 385.296C153.168 387.444 159.78 393.568 168.012 396.247C177 399.168 185.867 400.543 195.107 402.2C202.014 403.444 209.312 405.938 215.638 409.803C214.777 409.057 213.917 408.328 213.019 407.682C208.717 404.573 204.028 402.795 198.976 401.272C198.572 401.151 198.754 400.58 199.157 400.654C199.91 400.788 200.724 400.923 201.581 401.061C185.998 397.003 170.986 392.086 158.086 381.639C151.36 376.2 145.239 368.889 142.093 360.762C140.251 355.999 139.447 350.917 137.168 346.322C134.99 341.928 132.247 337.831 130.163 333.387C129.79 332.591 130.92 331.929 131.367 332.708C133.807 336.974 137.161 340.258 140.22 344.043C142.714 347.125 144.459 350.513 146.395 353.952C147.615 356.127 148.906 358.16 150.267 360.096C148.331 356.523 146.58 352.799 145.03 348.873C138.94 333.438 135.182 317.189 133.941 300.648C133.323 292.433 133.202 284.356 134.109 276.158C135.111 267.126 137.659 259.059 140.177 250.363C142.045 243.906 143.484 237.331 144.892 230.76C146.257 224.39 147.78 216.37 144.153 210.485C143.961 210.169 144.415 209.839 144.664 210.101C149.013 214.565 150.271 221.365 150.365 228.115C154.287 220.965 159.007 214.29 164.065 207.849C178.116 189.964 195.487 173.416 206.082 153.121C206.203 152.892 206.586 153.06 206.498 153.305C203.618 161.665 199.833 169.352 195.194 176.72C206.845 169.453 217.322 160.092 227.907 151.393C238.031 143.074 249.103 134.334 254.189 121.931C254.32 121.612 254.817 121.739 254.716 122.089C250.847 135.632 243.325 146.122 232.475 154.929C220.818 164.405 208.724 172.465 194.714 178.095C194.562 178.156 194.441 178.122 194.347 178.048C193.393 179.527 192.411 180.993 191.386 182.445C184.724 191.88 176.862 200.438 169.769 209.55C162.734 218.592 156.102 228.179 151.397 238.669C150.442 240.79 149.642 242.978 148.923 245.2C146.267 260.699 139.397 275.17 138.412 291.028C136.651 319.428 147.04 349.142 162.371 373.531C162.879 373.989 163.383 374.449 163.907 374.903C170.536 380.647 178.27 384.973 186.196 388.657C195.588 393.02 204.717 397.286 213.725 402.435C214.24 402.734 214.206 403.316 213.897 403.672C219.56 405.514 224.444 408.593 225.278 414.405C225.369 415.054 224.878 415.659 224.186 415.467C223.507 415.286 222.868 415.03 222.246 414.734C225.144 417.373 227.621 420.412 229.443 423.907C229.614 424.23 229.167 424.459 228.962 424.18Z" fill="#91E500"/>
<path d="M227.332 439.42C218.67 430.361 207.594 426.559 196.21 422.055C185.927 417.988 175.894 412.731 166.428 407.02C166.254 406.916 166.375 406.603 166.576 406.684C178.116 411.306 190.67 412.166 202.102 417.057C212.724 421.605 221.359 429.507 227.695 439.148C227.843 439.369 227.51 439.608 227.332 439.42Z" fill="#91E500"/>
<path d="M215.12 435.376C209.13 432.496 202.915 431.696 196.512 430.301C190.438 428.973 184.23 427.38 178.442 425.104C167.642 420.862 157.817 413.417 149.198 405.743C149.044 405.609 149.255 405.336 149.427 405.457C159.753 412.92 171.184 418.809 183.551 422.069C189.336 423.595 195.43 424.133 201.016 426.361C206.233 428.449 211.016 431.434 215.409 434.906C215.685 435.121 215.449 435.534 215.12 435.376Z" fill="#91E500"/>
<path d="M236.948 438.163C230.817 427.729 237.913 416.496 245.785 409.259C250.289 405.114 255.079 401.377 260.41 398.378C265.62 395.451 270.888 392.156 276.827 391.02C277.234 390.94 277.385 391.521 276.988 391.642C266.427 394.839 259.062 404.496 251.849 412.321C248.622 415.82 245.745 419.786 243.52 423.998C241.271 428.254 237.654 432.963 237.812 437.941C237.829 438.415 237.174 438.539 236.948 438.163Z" fill="#91E500"/>
<path d="M231.358 420.503C224.495 412.906 234.528 404.012 240.185 399.525C249.943 391.784 260.958 386.789 272.03 381.28C284.027 375.31 294.225 368.349 302.033 357.434C305.119 350.43 307.394 343.115 310.957 336.336C311.156 335.959 311.364 335.589 311.566 335.216C312.04 334.02 312.46 332.826 312.705 331.626C314.097 324.786 314.85 317.791 315.973 310.904C317.169 303.553 317.441 296.205 316.9 288.783C316.339 281.126 314.366 273.765 313.058 266.229C311.882 259.456 310.584 252.636 308.715 246.014C306.85 239.396 303.872 233.147 302.006 226.542C298.645 214.616 296.665 201.641 286.191 193.504C285.966 193.326 286.171 192.952 286.43 193.107C295.657 198.663 301.657 209.688 305.976 219.211C307.552 222.693 309.173 226.152 310.746 229.634C310.517 227.863 310.235 226.095 309.835 224.317C308.084 216.508 303.623 209.574 301.919 201.746C299.986 192.882 300.413 183.514 299.119 174.532C298.978 173.551 300.457 173.134 300.635 174.136C302.235 183.067 302.847 192.085 305.768 200.744C308.305 208.263 313.334 214.468 316.225 221.803C318.971 228.777 318.793 236.565 318.702 243.947C318.672 246.337 318.628 248.73 318.584 251.116C319.425 254.518 320.137 257.957 320.813 261.405C323.69 276.125 323.431 292.272 321.139 307.072C320.235 312.911 319.065 318.766 317.872 324.581C324.399 314.282 331.461 304.286 335.673 292.82C335.798 292.481 336.258 292.629 336.201 292.975C333.492 310.396 326.49 326.376 318.235 341.814C316.03 345.939 313.176 349.458 310.436 353.223C307.788 356.863 305.674 360.87 302.894 364.419C298.181 370.426 292.269 375.488 286.047 379.868C285.835 380.019 285.583 379.676 285.775 379.501C286.148 379.169 286.497 378.829 286.86 378.496C286.655 378.638 286.457 378.785 286.252 378.927C276.158 385.831 264.615 390.053 254.121 396.247C249.267 399.115 244.693 402.53 240.336 406.11C235.735 409.894 232.081 413.891 232.226 420.156C232.236 420.59 231.647 420.822 231.358 420.503Z" fill="#91E500"/>
<path d="M243.916 76.994C245.009 70.4395 246.404 64.053 248.767 57.8413C250.995 51.9826 253.489 46.2448 255.462 40.2852C259.778 27.2804 261.745 13.8755 261.13 0.164717C261.126 0.0605169 261.288 0.0403491 261.311 0.141188C264.511 13.3948 264.834 26.8568 261.046 40.06C257.241 53.3137 250.649 65.0312 244.669 77.3235C244.447 77.784 243.846 77.4176 243.916 76.994Z" fill="#91E500"/>
<path d="M194.209 115.095C197.315 102.853 203.749 92.2007 208.7 80.6983C211.449 74.3051 213.258 67.28 213.712 60.3254C214.175 53.2465 213.154 46.3189 213.328 39.2669C213.332 39.1694 213.497 39.1358 213.51 39.2434C214.575 46.5239 218.824 53.018 219.107 60.4095C219.372 67.2531 217.769 74.1505 215.345 80.5168C210.475 93.3099 201.029 103.31 194.878 115.39C194.683 115.774 194.112 115.488 194.209 115.095Z" fill="#91E500"/>
<path d="M146.153 170.028C145.407 161.329 144.005 152.936 143.985 144.197C143.968 137.743 144.025 131.256 143.518 124.819C142.388 110.547 138.025 96.9233 127.031 87.2225C126.913 87.1183 127.071 86.9301 127.202 87.0108C139.709 94.5334 146.348 106.557 148.143 120.832C150.173 136.993 149.013 153.958 146.892 170.042C146.829 170.509 146.197 170.506 146.153 170.028Z" fill="#91E500"/>
<path d="M116.072 192.683C114.173 169.853 116.025 144.758 100.745 125.804C100.486 125.481 100.896 125.067 101.209 125.353C119.686 142.294 122.456 169.544 117.249 192.862C117.094 193.564 116.13 193.309 116.072 192.683Z" fill="#91E500"/>
<path d="M93.7265 259.513C90.7887 255.97 89.9215 251.97 89.0711 247.533C88.0392 242.172 87.0543 236.814 85.9518 231.459C83.5888 219.987 77.1317 209.812 69.7705 200.895C69.7066 200.821 69.794 200.683 69.8814 200.75C78.2073 207.224 85.6224 214.239 89.4307 224.29C91.5416 229.849 92.5433 236.128 93.3332 242.014C94.0962 247.691 92.8021 253.53 94.4256 259.119C94.5399 259.499 93.9954 259.835 93.7265 259.513Z" fill="#91E500"/>
<path d="M332.251 71.8914C336.467 68.1334 339.525 63.2427 343.508 59.2428C347.246 55.4916 351.858 52.742 356.732 50.7252C364.093 47.6866 373.596 45.6362 380.16 51.4109C380.459 51.6765 380.069 52.0462 379.764 51.9118C372.738 48.7858 362.345 54.4563 356.023 57.5487C347.908 61.515 339.653 66.594 332.574 72.2241C332.346 72.4023 332.03 72.093 332.251 71.8914Z" fill="#91E500"/>
<path d="M318.51 59.8582C328.457 45.2399 340.682 29.6064 360.107 29.6064C360.214 29.6064 360.214 29.7543 360.127 29.788C343.559 36.3122 332.934 49.8381 319.082 60.312C318.779 60.5439 318.252 60.238 318.51 59.8582Z" fill="#91E500"/>
<path d="M298.625 76.7892C304.054 69.1658 306.464 59.8314 310.585 51.482C315.156 42.2182 320.732 33.499 322.742 23.2033C322.763 23.0924 322.91 23.1395 322.921 23.2302C324.191 34.0738 320.265 43.1728 315.425 52.6349C310.83 61.6096 306.813 70.3456 299.126 77.1859C298.864 77.4212 298.403 77.1018 298.625 76.7892Z" fill="#91E500"/>
<path d="M302.669 51.4412C302.971 35.9994 306.346 20.776 305.307 5.26027C305.3 5.17288 305.442 5.1359 305.482 5.21657C312.067 19.8584 310.346 37.3843 303.697 51.7404C303.455 52.2547 302.658 51.9555 302.669 51.4412Z" fill="#91E500"/>
<path d="M272.111 66.1133C279.025 47.7 284.941 28.6515 290.803 9.88536C290.891 9.59965 291.391 9.64671 291.344 9.96603C288.322 30.1843 285.075 49.4412 272.864 66.4427C272.608 66.799 271.936 66.5838 272.111 66.1133Z" fill="#91E500"/>
<path d="M369.905 236.864C369.132 228.478 370.554 220.132 370.816 211.749C371.085 203.107 370.907 194.357 369.949 185.756C369.061 177.776 367.085 169.958 365.68 162.059C364.423 154.97 363.888 147.511 360.55 141.023C360.329 140.597 360.93 140.267 361.192 140.657C363.737 144.479 365.814 148.721 367.522 153.181C371.757 146.025 375.209 138.345 381.027 132.274C386.953 126.086 393.831 119.525 402.479 117.693C402.715 117.642 402.795 117.975 402.573 118.049C385.558 123.851 379.911 143.215 368.244 155.158C371.485 164.321 373.263 174.27 374.338 183.373C375.384 192.176 375.639 201.154 375.323 210.011C374.997 219.14 371.542 227.816 370.55 236.878C370.503 237.291 369.942 237.281 369.905 236.864Z" fill="#91E500"/>
<path d="M352.998 121.743C365.794 107.303 378.547 92.6878 396.543 84.6745C396.762 84.577 396.926 84.8661 396.725 84.9972C380.695 95.4878 368.876 111.081 353.492 122.402C353.092 122.694 352.708 122.069 352.998 121.743Z" fill="#91E500"/>
<path d="M320.524 121.948C329.058 96.1533 353.233 80.13 377.605 71.0477C377.854 70.957 378.002 71.3469 377.777 71.4713C366.617 77.7132 355.942 85.2593 346.087 93.4004C336.45 101.36 327.004 111.104 321.109 122.203C320.937 122.526 320.413 122.294 320.524 121.948Z" fill="#91E500"/>
<path d="M378.802 299.364C382.419 290.131 385.504 280.689 386.486 270.766C387.404 261.479 386.657 251.798 385.367 242.582C384.284 234.864 382.341 227.278 382.002 219.476C381.656 211.449 382.378 202.619 378.607 195.271C378.54 195.137 378.721 194.982 378.829 195.107C383.636 200.697 385.525 208.165 386.607 215.301C388.009 224.511 389.901 233.654 391.151 242.888C392.446 252.457 392.93 261.926 391.246 271.486C389.467 281.61 384.503 290.823 379.387 299.623C379.209 299.932 378.664 299.714 378.802 299.364Z" fill="#91E500"/>
<path d="M360.144 396.368C365.468 385.219 365.582 372.637 367.528 360.674C369.868 346.254 373.659 331.656 374.661 317.092C374.728 316.144 376.113 316.161 376.137 317.112C376.345 325.29 376.708 333.32 375.881 341.475C375.155 348.665 374.137 355.797 373.054 362.94C371.296 374.56 367.834 387.178 360.698 396.701C360.449 397.037 359.969 396.745 360.144 396.368Z" fill="#91E500"/>
<path d="M365.138 453.157C366.127 441.558 367.72 430.133 369.387 418.63C371.142 406.496 373.575 393.323 372.059 381.088C371.995 380.573 372.735 380.342 372.863 380.879C375.757 393.182 377.064 404.667 375.246 417.259C373.444 429.716 369.696 441.336 365.77 453.252C365.663 453.581 365.105 453.534 365.138 453.157Z" fill="#91E500"/>
<path d="M131.901 413.871C120.714 405.683 107.649 398.862 98.7516 387.968C94.5534 382.829 91.5114 376.624 89.4106 370.345C86.7047 362.258 85.3165 354.006 80.6544 346.688C80.4897 346.426 80.8997 346.107 81.0947 346.359C85.3568 351.871 88.5501 358.026 91.3904 364.365C94.4458 371.185 96.6844 378.301 101.044 384.453C109.367 396.197 121.424 404.23 132.129 413.585C132.287 413.719 132.072 413.995 131.901 413.871Z" fill="#91E500"/>
<path d="M141.242 469.067C126.156 444.092 106.472 418.059 76.9434 410.059C76.7653 410.009 76.8493 409.763 77.0207 409.79C92.2508 412.419 105.652 419.003 116.61 429.938C127.608 440.916 135.329 454.748 141.722 468.794C141.87 469.114 141.427 469.376 141.242 469.067Z" fill="#91E500"/>
<path d="M212.256 560.686C206.307 556.578 199.497 554.565 192.973 551.62C186.146 548.534 180.331 543.889 174.482 539.284C162.966 530.205 150.765 521.994 137.736 515.257C137.551 515.16 137.686 514.847 137.884 514.921C151.945 520.128 165.275 525.533 177.171 534.834C183.379 539.684 189.753 544.407 196.257 548.844C201.756 552.598 207.584 555.842 212.539 560.326C212.734 560.501 212.472 560.833 212.256 560.686Z" fill="#91E500"/>
<path d="M413.125 490.888C411.077 484.398 408.704 477.907 407.827 471.127C407.02 464.882 406.711 458.559 406.036 452.301C405.353 445.954 405.111 439.605 405.891 433.259C406.704 426.63 408.6 420.14 409.138 413.501C409.209 412.62 410.489 412.63 410.523 413.525C410.762 419.857 411.541 426.113 411.699 432.462C411.871 439.171 411.928 445.776 412.761 452.448C413.504 458.371 414.388 464.334 414.782 470.29C415.229 477.114 414.187 483.961 414.029 490.781C414.022 491.312 413.279 491.376 413.125 490.888Z" fill="#91E500"/>
<path d="M308.521 646.261C301.223 643.562 293.576 641.733 286.423 638.681C272.76 632.856 261.674 622.043 247.859 616.772C247.637 616.688 247.725 616.362 247.963 616.416C254.461 617.952 260.992 619.888 266.921 622.994C273.287 626.325 279.445 630.15 285.963 633.176C292.817 636.359 299.963 638.883 306.826 642.053C313.643 645.202 320.134 648.762 327.64 649.948C328.006 650.009 327.902 650.59 327.546 650.584C320.863 650.449 314.742 648.56 308.521 646.261Z" fill="#91E500"/>
<path d="M237.211 593.23C226.165 588.628 215.197 584.305 204.461 579.001C203.947 578.746 204.324 577.885 204.868 578.08C215.971 582.07 227.55 584.255 238.518 588.749C249.026 593.055 258.854 598.877 269.829 601.952C270.071 602.023 270.027 602.443 269.761 602.406C258.474 600.809 247.708 597.603 237.211 593.23Z" fill="#91E500"/>
<path d="M406.95 674.9C400.886 673.609 394.553 672.98 388.412 672.059C381.098 670.96 373.932 670.194 366.611 671.686C366.375 671.733 366.295 671.404 366.52 671.327C378.026 667.475 391.767 667.972 403.686 669.468C416.331 671.054 427.981 677.575 440.714 678.167C441.111 678.187 441.228 678.822 440.801 678.893C429.121 680.809 418.244 677.303 406.95 674.9Z" fill="#91E500"/>
<path d="M469.618 678.839C449.662 672.254 428.388 667.135 407.481 664.893C407.303 664.873 407.303 664.627 407.484 664.617C418.445 663.898 429.091 664.543 439.891 666.557C450.627 668.557 460.368 672.99 469.91 678.17C470.28 678.368 470.015 678.97 469.618 678.839Z" fill="#91E500"/>
<path d="M463.759 496.945C463.006 490.26 461.5 483.604 460.973 476.905C460.458 470.435 460.788 463.927 461.171 457.46C461.763 447.511 464.152 436.889 469.883 428.573C470.021 428.371 470.408 428.503 470.3 428.758C466.166 438.637 467.295 449.524 467.339 459.984C467.366 465.944 467.736 471.988 467.204 477.937C466.64 484.283 465.366 490.65 464.492 496.955C464.428 497.429 463.81 497.419 463.759 496.945Z" fill="#91E500"/>
<path d="M525.547 549.745C517.997 541.94 516.558 530.888 517.305 520.525C518.38 505.5 522.948 490.744 524.656 475.742C524.693 475.393 525.18 475.393 525.207 475.752C526.259 489.863 525.671 503.557 523.906 517.574C523.268 522.663 523.365 527.715 523.449 532.824C523.54 538.569 523.284 544.128 526.058 549.362C526.226 549.681 525.802 550.014 525.547 549.745Z" fill="#91E500"/>
<path d="M221.399 385.73C220.838 384.331 219.204 383.37 217.362 382.563C203.564 384.913 189.097 376.486 178.976 367.243C167.158 356.449 153.931 342.211 149.464 326.477C149.437 326.376 149.585 326.309 149.632 326.406C156.082 339.885 169.8 351.192 181.678 359.851C188.273 364.658 195.309 368.883 202.7 372.342C203.09 372.526 203.493 372.708 203.9 372.886C203.006 371.942 202.119 371.011 201.221 370.116C183.083 360.923 166.61 344.591 156.741 327.475C151.286 318.009 147.662 307.236 147.934 296.222C148.257 283.129 153.316 270.978 155.417 258.165C155.437 258.057 155.598 258.091 155.598 258.192C155.632 269.923 153.087 281.896 154.691 293.603C155.652 300.615 158.196 307.657 161.39 314.228C159.01 305.112 157.911 295.603 158.304 286.201C158.754 275.267 160.99 264.871 163.951 254.37C165.41 249.197 166.808 244.068 168.754 239.049C170.862 233.627 173.117 228.306 174.112 222.542C174.139 222.387 174.391 222.427 174.384 222.582C173.729 232.205 169.917 241.338 168.314 250.824C166.828 259.59 165.581 268.161 165.097 276.938C166.126 272.35 167.564 267.805 169.474 263.287C170.321 261.281 171.265 259.274 172.257 257.264C172.425 252.229 172.468 247.19 173.329 242.202C174.902 233.073 179.359 224.434 184.146 216.606C188.851 208.905 194.26 200.982 200.66 194.579C207.581 187.645 214.633 180.882 221.053 173.463C221.224 173.265 221.543 173.531 221.406 173.749C216.209 182.025 210.29 189.836 204.505 197.729C204.7 197.648 204.969 197.796 204.878 198.041C201.735 206.612 200.233 215.738 197.789 224.525C197.651 225.029 197.527 225.537 197.396 226.041C200.539 218.74 204.273 211.574 208.754 205.214C215.265 195.961 222.875 186.532 227.385 176.132C227.48 175.917 227.796 175.998 227.742 176.236C225.537 185.779 221.564 194.592 217.302 203.308C222.202 195.06 227.51 187.06 232.125 178.529C232.327 178.162 232.945 178.428 232.797 178.821C226.905 194.767 218.327 209.554 215.9 226.602C216.538 225.244 217.184 223.896 217.826 222.565C219.533 219.022 221.177 215.426 222.962 211.92C223.708 210.458 224.508 208.982 225.285 207.493C225.221 207.211 225.17 206.928 225.09 206.646C225.073 206.586 225.157 206.572 225.18 206.623C225.264 206.834 225.332 207.046 225.409 207.258C227.036 204.098 228.522 200.844 229.026 197.352C229.053 197.164 229.345 197.083 229.389 197.308C230.417 202.727 230.071 207.964 229.009 213.103C229.822 217.93 230.814 222.743 231.859 227.51C231.89 227.291 231.927 227.066 231.957 226.848C233.816 214.179 233.311 201.782 232.948 189.05C232.938 188.683 233.493 188.626 233.584 188.976C235.372 196.048 239.439 202.129 241.147 209.278C241.295 209.896 241.412 210.522 241.55 211.144C241.56 210.935 241.567 210.73 241.573 210.522C241.977 199.9 242.706 189.581 239.14 179.359C239.066 179.154 239.375 179.053 239.479 179.221C247.076 191.382 249.782 206.676 250.498 221.443C251.083 219.564 251.594 217.654 251.926 215.685C252.941 209.661 251.856 204.112 250.787 198.189C250.777 198.125 250.857 198.108 250.881 198.162C252.437 202.32 254.424 206.421 255.355 210.784C255.627 212.038 255.815 213.308 255.957 214.582C255.93 214.122 255.913 213.654 255.883 213.191C255.425 206.344 254.427 199.638 251.227 193.5C249.173 189.561 246.941 185.907 246.572 181.389C246.562 181.285 246.73 181.268 246.753 181.369C248.084 187.645 253.14 191.819 255.728 197.5C258.38 203.318 259.56 209.775 260.538 216.054C261.859 224.542 262.175 233.046 261.782 241.543C262.017 241.473 262.249 241.402 262.481 241.338C263.002 239.221 263.499 237.096 263.859 234.945C264.763 229.51 264.387 224.024 264.645 218.545C264.652 218.394 264.891 218.354 264.918 218.512C265.61 222.434 266.81 226.256 267.519 230.169C267.351 227.342 267.052 224.528 266.572 221.681C265.136 213.17 263.254 201.419 257.177 194.925C257.052 194.794 257.241 194.623 257.378 194.734C264.837 200.804 267.543 211.342 271.338 219.759C273.704 225.006 276.339 230.199 278.514 235.53C279.818 238.73 280.521 242.111 280.924 245.543C283.543 248.094 285.754 251.136 287.576 254.41C284.386 243.755 280.218 233.368 276.46 222.922C272 210.518 265.55 198.055 255.825 188.976C255.735 188.892 255.869 188.771 255.957 188.845C266.679 197.752 272.578 209.856 279.176 221.826C286.86 235.762 293.687 249.365 297.364 264.971C300.608 278.746 301.452 292.817 299.828 306.87C299.401 310.591 298.743 314.594 297.627 318.463C300.531 309.835 302.595 300.931 305.858 292.417C305.902 292.306 306.067 292.353 306.037 292.467C303.59 302.447 303.556 312.776 300.544 322.638C297.754 331.784 292.591 339.76 286.44 347.007C280.487 354.016 273.392 360.211 265.298 364.627C262.935 365.922 260.548 367.021 258.138 367.985C256.158 369.39 254.125 370.738 252.051 372.009C254.441 371.058 256.814 370.046 259.15 368.89C265.089 365.945 271.143 362.967 276.397 358.886C281.163 355.182 287.361 351.821 289.358 345.777C289.378 345.72 289.455 345.744 289.445 345.801C288.474 351.054 284.225 355.522 280.686 359.32C275.939 364.422 270.219 368.849 264.161 372.278C257.23 376.2 250.034 379.269 242.575 382.019C236.421 384.291 230.612 387.43 223.923 387.716C222.649 387.77 221.819 386.788 221.399 385.73ZM190.542 225.298C194.777 216.296 198.878 206.747 204.108 198.27C198.969 205.292 193.957 212.387 189.672 219.947C187.87 223.12 186.3 226.31 184.919 229.553C185.383 232.242 185.534 234.945 185.446 237.647C186.915 233.449 188.643 229.335 190.542 225.298ZM253.466 259.819C253.563 259.775 253.661 259.735 253.758 259.691C253.943 258.259 254.128 256.827 254.309 255.392C254.007 256.867 253.718 258.343 253.466 259.819ZM226.364 381.847C226.206 381.82 226.044 381.784 225.883 381.726C225.52 381.736 225.147 381.763 224.791 381.753C224.912 381.884 225.043 382.012 225.16 382.153C225.564 382.062 225.964 381.952 226.364 381.847Z" fill="#FF9700"/>
<path d="M206.535 367.599C198.848 366.379 191.289 364.003 185.282 358.877C179.299 353.771 175.396 346.722 172.334 339.586C168.939 331.684 165.894 323.724 165.84 315.001C165.79 306.114 168.408 297.368 172.455 289.519C177.403 279.913 184.842 271.183 193.053 264.219C193.386 263.94 193.715 263.668 194.045 263.392C198.65 255.846 207.134 249.863 215.039 246.717C227.423 241.792 241.389 247.56 251.997 254.189C272.393 266.925 291.852 291.133 285.281 316.561C283.741 322.514 281.123 328.853 277.163 333.879C276.491 336.544 275.624 339.085 274.578 341.337C271.284 348.456 263.627 353.835 257.456 358.315C243.466 368.48 223.211 370.258 206.535 367.599Z" fill="#00AD46"/>
<path d="M220.818 352.436C218.166 353.213 216.045 354.786 213.554 356.298C204.919 361.535 196.162 362.403 187.514 356.514C182.327 352.981 179.403 348.167 177.729 342.702C173.588 334.571 172.069 324.827 173.262 316.154C173.685 313.072 174.418 310.101 175.379 307.217C175.827 302.615 176.633 298.054 177.951 293.59C179.615 287.946 182.425 282.098 186.418 277.456C191.534 270.636 198.616 264.743 205.467 260.753C208.566 258.948 211.924 257.604 215.382 257.164C219.187 255.352 226.394 257.563 229.406 258.303C238.444 260.528 246.797 265.315 253.832 271.355C262.266 278.588 269.062 284.074 272.155 295.385C274.703 304.709 275.496 316.38 271.234 325.354C264.474 339.586 250.41 354.288 234.246 356.729C231.231 357.182 228.199 356.887 225.423 355.576C223.786 354.799 222.344 353.31 220.818 352.436Z" fill="#135460"/>
<path d="M218.28 348.904C216.418 348.786 214.32 348.557 212.29 348.067C210.683 348.309 209.06 348.443 207.436 348.45C198.566 348.51 188.499 342.033 186.791 333.179C185.309 330.947 184.139 328.514 183.342 326.053C180.922 318.564 181.124 309.855 184.149 302.602C187.887 293.66 195.356 286.279 196.509 276.373C196.569 275.849 197.389 275.647 197.504 276.252C198.011 278.951 198.088 281.627 197.907 284.293C199.453 282.158 201.204 280.172 203.174 278.286C208.414 273.264 214.324 269.684 218.199 263.335C218.303 263.157 218.603 263.281 218.532 263.479C217.51 266.444 216.078 269.19 214.488 271.846C214.787 271.718 215.077 271.57 215.382 271.456C219.833 269.735 223.789 270.081 227.749 271.274C225.913 268.941 224.357 266.619 223.177 264.531C223.127 264.444 223.258 264.336 223.325 264.421C226.041 267.987 229.184 270.817 232.639 273.079C233.154 273.291 233.671 273.513 234.189 273.731C235.399 273.785 236.35 274.518 236.928 275.533C240.471 277.278 244.273 278.531 248.239 279.429C245.268 274.538 240.505 271.032 235.923 267.748C235.775 267.644 235.903 267.432 236.064 267.513C242.649 270.814 249.933 273.183 255.802 277.725C262.252 282.706 263.99 291.479 263.748 299.281C263.493 307.472 260.202 315.996 255.399 322.591C253.57 325.099 251.483 326.803 249.207 328.077C248.656 329.015 248.024 329.902 247.348 330.712C253.701 326.258 258.622 319.99 262.602 313.136C262.757 312.867 263.194 313.055 263.103 313.354C258.918 326.739 251.429 337.522 238.912 344.403C232.68 347.828 225.352 349.351 218.28 348.904Z" fill="#1DAAF6"/>
<path d="M200.942 284.447C202.152 283.139 203.389 281.896 204.636 280.719C215.362 270.618 237.869 274.363 247.553 284.669C257.728 295.502 254.76 311.623 248.323 323.556C245.274 329.209 240.41 335.703 233.957 337.69C230.417 338.782 225.416 339.384 222.149 337.179C218.616 334.796 218.145 329.233 215.423 326.077C209.093 318.736 210.092 330.201 206.253 334.292C200.882 340.026 195.315 335.398 191.598 330.292C180.475 315.028 189.379 296.941 200.942 284.447Z" fill="#001433"/>
<path d="M220.942 324.91C219.738 324.668 218.572 324.218 217.483 323.539C216.105 322.679 215.063 321.388 213.728 320.484C213.433 320.285 213.13 320.114 212.821 319.969C210.498 319.657 208.212 319.085 205.863 319.106C205.681 319.109 205.52 319.082 205.352 319.062C205.325 319.112 205.302 319.159 205.275 319.206C204.001 321.435 202.7 323.324 200.401 324.453C199.46 325.542 198.203 325.721 197.07 325.334C194.061 325.452 191.396 323.731 190.495 320.4C189.47 316.618 190.142 312.81 191.796 309.267C191.776 309.102 191.749 308.948 191.745 308.773C191.628 300.534 199.046 290.659 205.934 286.612C209.365 284.592 213.228 283.785 216.985 284.04C221.604 282.948 226.125 282.571 231.029 284.333C235.926 286.094 239.829 289.822 241.473 294.8C244.498 303.97 241.866 315.885 235.016 322.739C230.501 327.26 224.948 327.67 220.942 324.91ZM214.841 311.677C214.458 311.264 214.011 311.122 213.53 311.136C214.081 311.435 214.616 311.771 215.14 312.138C215.049 311.956 214.955 311.801 214.841 311.677Z" fill="#0039AA"/>
<path d="M206.666 316.531C205.644 318.201 203.893 318.611 202.095 318.309C196.492 317.378 195.302 312.107 197.029 307.959C196.633 301.899 202.465 295.68 206.27 291.341C207.574 289.845 209.614 289.983 211.107 290.944C211.88 290.396 212.744 289.963 213.759 289.721C216.542 289.052 218.367 289.741 219.584 291.129C220.999 290.326 222.878 290.82 223.765 292.185C224.942 291.032 226.727 290.544 228.263 291.677C230.579 293.388 232.108 295.539 233.059 297.929C233.325 298.373 233.574 298.833 233.779 299.331C234.152 300.225 234.259 301.106 234.118 301.906C234.545 304.682 234.444 307.62 234.058 310.497C233.842 312.077 232.814 313.63 231.348 314.127C230.854 315.721 229.399 317.132 227.617 317.223C223.816 317.421 220.36 316.094 216.854 314.8C212.515 313.203 209.463 311.963 206.666 316.531Z" fill="#124BFF"/>
<path d="M172.324 275.486C177.137 263.039 184.552 250.935 192.498 240.253C199.181 231.268 210.912 224.475 211.449 212.327C211.47 211.91 212.075 211.927 212.091 212.337C212.649 223.974 204.149 231.285 197.954 239.991C196.519 242.004 195.171 244.088 193.86 246.209C195.685 243.88 197.682 241.661 199.678 239.577C206.878 232.065 217.833 227.913 221.043 217.258C221.201 216.727 222.088 216.818 222.034 217.406C221.194 226.777 215.47 234.461 209.103 241.019C205.076 245.174 201.675 249.473 198.206 254.105C194.831 258.606 190.623 262.36 186.525 266.202C185.867 266.814 184.714 266.175 184.999 265.278C185.978 262.172 186.895 258.938 188.129 255.869C183.863 263.14 179.43 270.293 173.393 276.131C172.956 276.552 172.085 276.108 172.324 275.486Z" fill="#FFE000"/>
<path d="M163.221 303.67C160.757 296.961 159.81 289.859 161.084 282.78C162.411 275.385 166.236 268.572 169.678 261.993C173.268 255.126 177.47 248.881 182.703 243.167C187.927 237.466 191.91 230.851 196.992 225.059C197.339 224.663 197.984 225.191 197.708 225.628C193.913 231.57 191.681 238.269 188.223 244.39C184.73 250.565 180.408 256.236 177.268 262.602C171.124 275.059 163.732 289.365 164.129 303.559C164.146 304.114 163.389 304.131 163.221 303.67Z" fill="#FFE000"/>
<path d="M245.389 249.137C240.733 248.091 236.925 246.737 233.775 244.199C233.661 244.239 233.54 244.266 233.412 244.256C229.517 243.991 226.69 242.881 224.313 239.678C222.155 236.767 220.646 233.342 219.913 229.789C219.813 229.305 220.539 228.945 220.76 229.446C222.29 232.881 224.733 234.807 227.97 236.542C226.609 233.497 226.454 230.767 226.451 227.308C226.441 223.685 225.849 220.119 226.122 216.485C226.202 215.423 227.755 215.436 227.782 216.509C227.886 220.596 228.868 224.045 231.796 226.979C233.705 228.898 235.389 230.767 237.016 232.965C238.774 235.335 240.75 237.567 242.118 240.189C243.439 242.727 244.39 245.409 246.31 247.611C246.925 248.32 246.293 249.342 245.389 249.137Z" fill="#FFE000"/>
<path d="M279.422 274.968C275.576 269.153 271.059 264.275 265.61 259.943C260.797 256.118 255.553 252.78 251.012 248.615C241.93 240.286 237.076 229.059 238.074 216.666C238.094 216.424 238.417 216.437 238.444 216.673C240.017 230.81 250.474 240.988 261.17 249.187C269.805 255.802 275.943 264.709 279.929 274.763C280.054 275.069 279.583 275.21 279.422 274.968Z" fill="#FFE000"/>
<path d="M264.85 352.09C269.533 345.794 272.965 338.937 277.035 332.275C281.166 325.515 284.776 318.514 287.664 311.129C288.649 308.611 289.509 306.07 290.269 303.512C288.928 289.56 284.144 274.551 276.286 263.019C272.057 256.81 266.222 251.937 261.822 245.863C257.55 239.964 255.856 232.908 254.393 225.886C254.269 225.298 255.083 225.107 255.288 225.658C258.373 234.088 262.619 241.19 269.032 247.513C274.497 252.901 280.114 257.718 284.104 264.37C289.183 272.84 292.39 282.622 292.773 292.507C294.296 282.884 294.101 273.079 291.778 263.315C291.664 262.851 292.356 262.673 292.49 263.126C297.23 279.237 299.001 295.973 294.544 312.373C292.437 320.124 288.763 327.361 284.366 334.043C279.472 341.475 272.4 347.102 265.496 352.601C265.16 352.873 264.548 352.5 264.85 352.09Z" fill="#FFE000"/>
<path d="M177.82 344.89C161.622 334.446 159.054 315.667 152.186 299.092C152.055 298.773 152.479 298.507 152.667 298.82C157.507 306.753 161.746 314.934 165.971 323.183C169.675 330.416 174.989 336.655 179.097 343.646C179.561 344.433 178.593 345.387 177.82 344.89Z" fill="#FFE000"/>
<path d="M169.44 291.62C170.747 285.102 171.507 278.141 174.589 272.148C177.692 266.111 182.539 261.25 187.914 257.207C192.377 253.849 196.952 250.662 201.554 247.493C206.878 243.829 212.693 240.346 213.732 233.456C213.765 233.237 214.075 233.325 214.091 233.513C215.221 245.288 206.058 252.487 198.236 259.576C192.875 264.437 187.013 269.207 182.848 275.19C178.831 280.961 175.315 287.038 170.815 292.45C170.233 293.149 169.299 292.339 169.44 291.62Z" fill="#91E500"/>
<path d="M163.696 329.028C160.919 323.166 160.68 316.746 161.591 310.42C162.684 302.796 166.415 295.61 166.398 287.859C166.395 287.301 167.127 287.297 167.306 287.751C169.595 293.583 169.766 299.479 168.99 305.627C168.2 311.919 166.801 317.895 168.875 324.124C172.59 335.287 179.302 345.838 189.604 351.942C189.82 352.07 189.665 352.463 189.42 352.359C179.359 348.157 168.411 339.001 163.696 329.028Z" fill="#91E500"/>
<path d="M273.839 337.562C276.393 330.977 281.234 325.623 283.812 319.052C286.665 311.768 288.39 303.455 286.541 295.721C284.985 289.217 281.355 283.489 277.913 277.798C277.876 278.017 277.536 278.118 277.412 277.886C274.128 271.866 267.533 269.281 262.192 265.472C257.039 261.802 251.936 258.474 246.249 255.681C236.447 250.868 226.975 246.555 221.385 236.572C220.774 235.479 222.434 234.548 223.07 235.617C229.658 246.693 245.17 246.575 255.042 253.476C260.084 256.999 263.886 261.916 268.403 266.034C270.555 267.997 272.756 269.946 274.598 272.161C271.318 266.511 267.987 260.861 265.012 255.056C264.874 254.79 265.254 254.585 265.415 254.827C274.296 268.4 289.617 280.034 292.722 296.722C294.07 303.969 293.075 311.186 289.906 317.831C286.141 325.724 279.751 330.991 274.672 337.929C274.39 338.319 273.637 338.087 273.839 337.562Z" fill="#91E500"/>
<path d="M212.992 367.038C216.865 359.202 230.622 361.286 237.526 361.175C243.086 361.088 248.565 358.775 253.681 356.752C260.494 354.049 267.365 350.698 271.519 344.419C271.657 344.211 272.037 344.345 271.939 344.601C267.647 355.905 255.711 362.557 244.565 365.565C239.896 366.826 234.807 366.473 230.041 366.012C225.197 365.548 217.328 363.357 213.634 367.548C213.305 367.925 212.797 367.434 212.992 367.038Z" fill="#91E500"/>
</svg>
