<svg width="159" height="54" viewBox="0 0 159 54" fill="none" xmlns="http://www.w3.org/2000/svg">
<g clip-path="url(#clip0_167_467)">
<path d="M158.774 46.1644C158.776 47.0934 158.596 48.0137 158.244 48.8726C157.892 49.7315 157.376 50.5123 156.724 51.1704C156.073 51.8284 155.298 52.3509 154.446 52.7079C153.594 53.065 152.68 53.2496 151.757 53.2512H7.01772C6.09451 53.2496 5.18066 53.065 4.32835 52.7079C3.47604 52.3509 2.70196 51.8284 2.05031 51.1704C1.39865 50.5123 0.882187 49.7315 0.530396 48.8726C0.178606 48.0137 -0.00161942 47.0934 1.09636e-05 46.1644V7.90937C-0.00245859 6.03368 0.735419 4.23379 2.05141 2.90543C3.36739 1.57707 5.15375 0.828992 7.01772 0.825684L151.757 0.825684C153.621 0.828992 155.407 1.57707 156.723 2.90543C158.039 4.23379 158.777 6.03368 158.774 7.90937V46.1644Z" fill="#010101"/>
<mask id="mask0_167_467" style="mask-type:luminance" maskUnits="userSpaceOnUse" x="12" y="10" width="30" height="34">
<path d="M34.3349 22.317L27.3296 18.2447L13.8152 10.3933C13.0647 9.95647 12.3174 10.2217 12.3174 11.1329V43.125C12.3174 43.8084 12.8508 44.1017 13.5051 43.7241L27.3296 35.6887L34.3349 31.6319L41.0704 27.7187C41.8612 27.26 41.7837 26.6297 41.117 26.2677C40.4502 25.9057 34.3349 22.317 34.3349 22.317Z" fill="white"/>
</mask>
<g mask="url(#mask0_167_467)">
<path d="M12.3174 9.64746V26.9666V44.2858L29.674 26.9666L12.3174 9.64746Z" fill="url(#paint0_linear_167_467)"/>
<path d="M34.3349 22.317L27.3296 18.2447L12.3174 9.52271V9.64753L29.674 26.9667L34.3349 22.317Z" fill="url(#paint1_linear_167_467)"/>
<path d="M12.3174 44.2859V44.4108L27.3296 35.6888L34.3349 31.6196L29.674 26.9668L12.3174 44.2859Z" fill="url(#paint2_linear_167_467)"/>
<path d="M34.3347 22.3171L29.6738 26.9668L34.3347 31.6195L42.3417 26.9668L34.3347 22.3171Z" fill="url(#paint3_linear_167_467)"/>
</g>
<path d="M53.1892 20.1514H51.7658L51.0619 18.148H47.9887L47.3127 20.1514H45.8955L48.8229 12.2844H50.2835L53.1892 20.1514ZM50.7084 17.0839L49.623 13.9477C49.5763 13.785 49.5411 13.6192 49.5175 13.4515H49.4958C49.4735 13.6197 49.4372 13.7856 49.3873 13.9477L48.3267 17.0839H50.7084Z" fill="white"/>
<path d="M59.0941 20.1513H57.8288V16.984C57.8288 15.9438 57.4598 15.4237 56.7217 15.4237C56.5401 15.4192 56.3598 15.4562 56.1944 15.5318C56.0289 15.6075 55.8827 15.7199 55.7666 15.8606C55.5114 16.1677 55.3778 16.5588 55.3914 16.959V20.1513H54.123V14.5343H55.3914V15.4705H55.4131C55.5867 15.1411 55.8481 14.867 56.1681 14.679C56.488 14.491 56.8537 14.3966 57.2241 14.4064C57.4848 14.39 57.7456 14.4348 57.9862 14.5371C58.2267 14.6394 58.4404 14.7966 58.6103 14.9962C58.9616 15.4969 59.1313 16.104 59.091 16.7156L59.0941 20.1513Z" fill="white"/>
<path d="M65.7115 20.1513H64.4463V19.1964H64.4246C64.2512 19.4991 64.0082 19.7555 63.716 19.9442C63.4238 20.1329 63.0908 20.2483 62.7451 20.2807C62.3994 20.3131 62.0511 20.2615 61.7292 20.1304C61.4074 19.9993 61.1215 19.7924 60.8956 19.5272C60.4541 18.938 60.2344 18.2105 60.2754 17.4738C60.2369 16.6713 60.4794 15.8806 60.9607 15.2395C61.179 14.9668 61.4575 14.7489 61.774 14.6032C62.0904 14.4575 62.4363 14.388 62.7841 14.4001C63.1153 14.3797 63.4454 14.4546 63.7358 14.616C64.0263 14.7773 64.2652 15.0185 64.4246 15.3113H64.4463V11.835H65.7115V20.1513ZM64.4711 17.583V16.8466C64.4803 16.4702 64.3409 16.1056 64.0835 15.8324C63.9582 15.6962 63.8054 15.5886 63.6352 15.517C63.4651 15.4454 63.2817 15.4114 63.0973 15.4174C62.8829 15.4081 62.6695 15.4516 62.4755 15.5441C62.2815 15.6365 62.1128 15.7751 61.9841 15.9479C61.6893 16.3807 61.5463 16.9001 61.5778 17.4239C61.5516 17.9054 61.6883 18.3817 61.9654 18.7751C62.0889 18.9359 62.2487 19.0647 62.4315 19.151C62.6143 19.2373 62.8149 19.2785 63.0167 19.2713C63.2164 19.2771 63.4149 19.2371 63.597 19.1544C63.7791 19.0717 63.9402 18.9484 64.068 18.7938C64.3407 18.4516 64.4807 18.0213 64.4618 17.583H64.4711Z" fill="white"/>
<path d="M70.5988 15.745C70.4061 15.612 70.1745 15.5483 69.9414 15.564C69.7566 15.5667 69.5753 15.6147 69.4132 15.7039C69.2511 15.7931 69.113 15.9207 69.0111 16.0758C68.742 16.4854 68.6105 16.971 68.6358 17.4613V20.1513H67.3706V14.5343H68.6358V15.692H68.6575C68.755 15.3315 68.953 15.0067 69.2281 14.7558C69.4645 14.5464 69.7692 14.432 70.084 14.4344C70.2635 14.424 70.4428 14.4594 70.605 14.5374L70.5988 15.745Z" fill="white"/>
<path d="M73.8702 20.2824C73.4913 20.3006 73.1126 20.2402 72.7579 20.105C72.4031 19.9697 72.0798 19.7624 71.808 19.496C71.5467 19.218 71.3437 18.8898 71.211 18.5312C71.0784 18.1725 71.0188 17.7907 71.0358 17.4084C71.0001 17.0059 71.0522 16.6005 71.1886 16.2204C71.325 15.8404 71.5423 15.495 71.8254 15.2084C72.1084 14.9218 72.4503 14.7009 72.8271 14.5613C73.2039 14.4217 73.6065 14.3667 74.0067 14.4001C74.3816 14.3792 74.7568 14.4379 75.1078 14.5723C75.4588 14.7067 75.7777 14.9138 76.0441 15.1803C76.5581 15.7718 76.8209 16.5427 76.7759 17.3272C76.7942 17.7209 76.734 18.1143 76.5987 18.4841C76.4634 18.8539 76.2558 19.1927 75.9882 19.4804C75.7088 19.7532 75.3765 19.9651 75.0121 20.1031C74.6477 20.2411 74.259 20.3021 73.8702 20.2824ZM73.9291 15.4174C73.707 15.4075 73.4857 15.4494 73.2823 15.5398C73.079 15.6302 72.8992 15.7667 72.7569 15.9386C72.4505 16.3513 72.2989 16.8597 72.329 17.374C72.3013 17.8756 72.4555 18.3702 72.7631 18.7658C72.9074 18.9326 73.0871 19.0646 73.289 19.1521C73.4908 19.2396 73.7096 19.2804 73.9291 19.2713C74.1459 19.2846 74.3627 19.2463 74.5621 19.1596C74.7614 19.0728 74.9377 18.9401 75.0765 18.7721C75.3678 18.3636 75.5102 17.8665 75.4797 17.3647C75.5122 16.8549 75.3699 16.3493 75.0765 15.9323C74.9391 15.7617 74.7635 15.6261 74.5641 15.5366C74.3647 15.4471 74.1472 15.4063 73.9291 15.4174Z" fill="white"/>
<path d="M78.702 13.3547C78.505 13.358 78.3142 13.2854 78.1686 13.1518C78.0973 13.0863 78.0407 13.0062 78.0027 12.9168C77.9647 12.8275 77.9462 12.731 77.9484 12.6338C77.9468 12.5363 77.9655 12.4395 78.0034 12.3497C78.0414 12.2599 78.0976 12.1792 78.1686 12.1127C78.313 11.9768 78.5043 11.9029 78.702 11.9067C78.9026 11.9018 79.0972 11.9757 79.2447 12.1127C79.3166 12.1785 79.3738 12.2591 79.4123 12.3489C79.4508 12.4388 79.4698 12.536 79.4679 12.6338C79.469 12.7297 79.4496 12.8248 79.4111 12.9125C79.3726 13.0003 79.3158 13.0787 79.2447 13.1425C79.0988 13.2826 78.9036 13.3589 78.702 13.3547ZM79.3222 20.1513H78.057V14.5342H79.3222V20.1513Z" fill="white"/>
<path d="M86.0548 20.1513H84.7895V19.1964H84.7678C84.5941 19.4973 84.3514 19.7521 84.0601 19.9396C83.7687 20.127 83.437 20.2417 83.0926 20.2741C82.7483 20.3065 82.4012 20.2556 82.0804 20.1256C81.7596 19.9957 81.4742 19.7905 81.2481 19.5272C80.8066 18.938 80.5869 18.2105 80.6279 17.4738C80.5894 16.6713 80.832 15.8806 81.3132 15.2395C81.5316 14.9668 81.81 14.7489 82.1265 14.6032C82.443 14.4575 82.7888 14.388 83.1367 14.4001C83.4678 14.3797 83.7979 14.4546 84.0884 14.616C84.3789 14.7773 84.6177 15.0185 84.7771 15.3113H84.7988V11.835H86.0641L86.0548 20.1513ZM84.8143 17.583V16.8466C84.8235 16.4702 84.6841 16.1056 84.4267 15.8324C84.2991 15.6933 84.1427 15.584 83.9686 15.5123C83.7944 15.4406 83.6068 15.4082 83.4189 15.4174C83.2044 15.4081 82.991 15.4516 82.797 15.5441C82.603 15.6365 82.4344 15.7751 82.3056 15.9479C82.0108 16.3807 81.8679 16.9001 81.8993 17.4239C81.8732 17.9054 82.0098 18.3817 82.287 18.7751C82.4105 18.9359 82.5702 19.0647 82.753 19.151C82.9358 19.2373 83.1364 19.2785 83.3382 19.2713C83.538 19.2771 83.7364 19.2371 83.9185 19.1544C84.1006 19.0717 84.2617 18.9484 84.3895 18.7938C84.67 18.4547 84.8178 18.0241 84.805 17.583H84.8143Z" fill="white"/>
<path d="M97.336 20.1514H95.9157L95.2025 18.148H92.1294L91.4533 20.1514H90.0361L92.9604 12.2844H94.4241L97.336 20.1514ZM94.8552 17.0839L93.7698 13.9477C93.726 13.7845 93.6919 13.6188 93.6675 13.4515H93.652C93.6281 13.6194 93.5918 13.7852 93.5434 13.9477L92.4767 17.0839H94.8552Z" fill="white"/>
<path d="M99.544 19.3213V22.7352H98.2788V14.5343H99.544V15.5204C99.7239 15.1732 99.9973 14.8839 100.333 14.6858C100.669 14.4876 101.053 14.3886 101.442 14.4001C101.757 14.3853 102.072 14.4457 102.359 14.5764C102.647 14.7071 102.9 14.9044 103.098 15.1522C103.521 15.7365 103.731 16.4494 103.693 17.1712C103.734 17.9769 103.496 18.7719 103.02 19.4211C102.803 19.6972 102.524 19.9177 102.206 20.0647C101.888 20.2116 101.54 20.2809 101.191 20.2668C100.857 20.2759 100.526 20.1926 100.236 20.0259C99.9456 19.8591 99.7062 19.6154 99.544 19.3213ZM99.5099 17.1057V17.8016C99.5002 18.187 99.6404 18.5609 99.9007 18.8438C100.025 18.9832 100.177 19.0937 100.348 19.1676C100.519 19.2414 100.704 19.2768 100.89 19.2714C101.105 19.2791 101.318 19.233 101.511 19.1371C101.704 19.0412 101.87 18.8986 101.994 18.7221C102.286 18.2648 102.426 17.7262 102.394 17.1837C102.421 16.7209 102.29 16.2627 102.022 15.8855C101.901 15.7337 101.747 15.6123 101.571 15.531C101.396 15.4497 101.204 15.4109 101.011 15.4175C100.805 15.4097 100.6 15.449 100.412 15.5322C100.223 15.6154 100.056 15.7405 99.9224 15.898C99.6471 16.238 99.5048 16.6675 99.5223 17.1057H99.5099Z" fill="white"/>
<path d="M106.283 19.3213H106.261V22.7352H104.996V14.5343H106.261V15.5204H106.283C106.462 15.1732 106.736 14.8839 107.071 14.6858C107.407 14.4876 107.791 14.3886 108.18 14.4001C108.496 14.3853 108.81 14.4457 109.098 14.5764C109.386 14.7071 109.639 14.9044 109.836 15.1522C110.259 15.7365 110.469 16.4494 110.432 17.1712C110.477 17.9745 110.246 18.7689 109.777 19.4211C109.557 19.7012 109.273 19.9241 108.949 20.0712C108.625 20.2183 108.271 20.2854 107.917 20.2668C107.585 20.2736 107.257 20.1892 106.969 20.0226C106.681 19.856 106.444 19.6135 106.283 19.3213ZM106.248 17.1057V17.8016C106.239 18.187 106.379 18.5609 106.639 18.8438C106.763 18.9832 106.916 19.0937 107.087 19.1676C107.258 19.2414 107.443 19.2768 107.628 19.2714C107.843 19.2791 108.057 19.233 108.249 19.1371C108.442 19.0412 108.608 18.8986 108.732 18.7221C109.024 18.2648 109.164 17.7262 109.132 17.1837C109.159 16.7209 109.028 16.2627 108.76 15.8855C108.64 15.7337 108.485 15.6123 108.31 15.531C108.134 15.4497 107.942 15.4109 107.749 15.4175C107.546 15.4123 107.345 15.4528 107.159 15.5359C106.973 15.6191 106.809 15.7427 106.676 15.898C106.391 16.2339 106.239 16.6639 106.248 17.1057Z" fill="white"/>
<path d="M118.151 20.2823C117.647 20.3048 117.144 20.2178 116.677 20.0271C116.21 19.8365 115.789 19.5468 115.443 19.1776C114.746 18.3916 114.382 17.3623 114.429 16.3098C114.429 15.0471 114.775 14.0381 115.465 13.2829C115.826 12.9022 116.264 12.6042 116.749 12.4092C117.234 12.2143 117.756 12.127 118.278 12.1532C118.774 12.1312 119.269 12.2177 119.729 12.4068C120.189 12.5959 120.603 12.8831 120.942 13.2486C121.634 14.038 121.994 15.0676 121.946 16.1195C121.946 17.401 121.603 18.4152 120.917 19.162C120.563 19.5384 120.133 19.8334 119.656 20.0268C119.178 20.2201 118.665 20.3073 118.151 20.2823ZM118.216 13.3079C117.883 13.2987 117.552 13.3668 117.249 13.507C116.946 13.6471 116.68 13.8555 116.47 14.1161C115.998 14.7183 115.758 15.4719 115.794 16.2381C115.759 16.9977 115.99 17.7456 116.448 18.3507C116.652 18.6053 116.912 18.809 117.208 18.946C117.503 19.0829 117.826 19.1494 118.151 19.1402C118.484 19.1563 118.817 19.0962 119.124 18.9643C119.432 18.8325 119.705 18.6323 119.924 18.3788C120.389 17.7691 120.619 17.0111 120.573 16.2443C120.573 15.304 120.366 14.5759 119.952 14.0599C119.74 13.8085 119.473 13.6099 119.171 13.4794C118.87 13.349 118.543 13.2903 118.216 13.3079Z" fill="white"/>
<path d="M128.201 20.1515H126.936V16.9841C126.936 15.9439 126.568 15.4238 125.832 15.4238C125.65 15.4191 125.47 15.456 125.304 15.5316C125.139 15.6073 124.993 15.7198 124.877 15.8607C124.62 16.1671 124.486 16.5587 124.501 16.9591V20.1515H123.23V14.5344H124.501V15.4706H124.523C124.696 15.1415 124.957 14.8675 125.277 14.6795C125.596 14.4915 125.961 14.3969 126.331 14.4065C126.593 14.3904 126.855 14.4358 127.097 14.5393C127.339 14.6427 127.553 14.8013 127.723 15.0025C128.074 15.5037 128.242 16.1107 128.201 16.722V20.1515Z" fill="white"/>
<path d="M59.0195 32.4401C59.0195 34.1876 58.5026 35.5794 57.4689 36.6154C56.3112 37.8512 54.7886 38.469 52.9011 38.469C52.0477 38.4762 51.2015 38.3117 50.4121 37.9852C49.6227 37.6587 48.9062 37.1769 48.3044 36.5679C47.7027 35.9588 47.228 35.235 46.9081 34.4388C46.5881 33.6426 46.4295 32.7902 46.4416 31.9315C46.43 31.0727 46.589 30.2203 46.9092 29.4243C47.2295 28.6283 47.7046 27.9047 48.3066 27.296C48.9087 26.6873 49.6255 26.2057 50.415 25.8796C51.2045 25.5535 52.0508 25.3894 52.9042 25.397C53.7958 25.3892 54.6804 25.5556 55.5091 25.8869C56.2739 26.1811 56.9583 26.6539 57.5062 27.2662L56.3588 28.4208C55.9604 27.9408 55.4515 27.5658 54.8764 27.3286C54.2577 27.0645 53.5918 26.9307 52.9197 26.9354C52.2814 26.9226 51.6473 27.0414 51.0563 27.2845C50.4654 27.5276 49.9302 27.8899 49.4837 28.349C48.5869 29.3262 48.0888 30.6075 48.0888 31.9377C48.0888 33.2679 48.5869 34.5492 49.4837 35.5264C50.345 36.3633 51.4764 36.8609 52.6718 36.9285C53.8672 36.9961 55.0469 36.6291 55.9959 35.8946C56.4108 35.5323 56.7504 35.091 56.9952 34.5962C57.24 34.1013 57.3852 33.5627 57.4224 33.0112H52.9042V31.4946H58.9202C58.9798 31.8064 59.013 32.1227 59.0195 32.4401Z" fill="white" stroke="white" stroke-miterlimit="10"/>
<path d="M60.1111 33.9037C60.0923 33.3035 60.1922 32.7056 60.4052 32.1447C60.6182 31.5838 60.9398 31.0711 61.3516 30.6365C61.7585 30.2124 62.249 29.8785 62.7915 29.6561C63.334 29.4336 63.9167 29.3275 64.5022 29.3445C65.0803 29.3311 65.6547 29.4393 66.1888 29.6623C66.7228 29.8853 67.2046 30.2182 67.6033 30.6396C68.4074 31.5354 68.8526 32.6996 68.8526 33.9068C68.8526 35.114 68.4074 36.2782 67.6033 37.174C67.205 37.5959 66.7232 37.9291 66.1891 38.1521C65.655 38.3752 65.0804 38.4831 64.5022 38.4691C63.9174 38.4856 63.3355 38.3789 62.794 38.1559C62.2525 37.9329 61.7633 37.5985 61.3578 37.174C60.9446 36.7396 60.6215 36.2266 60.4075 35.6651C60.1934 35.1036 60.0927 34.5048 60.1111 33.9037ZM61.7113 33.9037C61.6759 34.7257 61.962 35.5289 62.5083 36.1411C62.7635 36.4113 63.0706 36.6264 63.411 36.7733C63.7514 36.9203 64.1179 36.9961 64.4883 36.9961C64.8587 36.9961 65.2252 36.9203 65.5656 36.7733C65.906 36.6264 66.2131 36.4113 66.4683 36.1411C66.9853 35.5152 67.2684 34.727 67.2684 33.9131C67.2684 33.0991 66.9853 32.3109 66.4683 31.685C66.2162 31.4095 65.9101 31.1896 65.5693 31.0392C65.2285 30.8889 64.8604 30.8112 64.4883 30.8112C64.1162 30.8112 63.7481 30.8889 63.4073 31.0392C63.0665 31.1896 62.7603 31.4095 62.5083 31.685C61.9643 32.2911 61.6782 33.0877 61.7113 33.9037Z" fill="white" stroke="white" stroke-miterlimit="10"/>
<path d="M69.8392 33.9036C69.8202 33.3035 69.9201 32.7055 70.133 32.1445C70.346 31.5836 70.6678 31.0709 71.0796 30.6364C71.4856 30.2126 71.9749 29.8786 72.5163 29.6556C73.0577 29.4326 73.6393 29.3256 74.2241 29.3414C74.8063 29.3244 75.3855 29.4309 75.924 29.654C76.4626 29.8771 76.9484 30.2119 77.35 30.6364C78.1541 31.5322 78.5992 32.6965 78.5992 33.9036C78.5992 35.1108 78.1541 36.275 77.35 37.1709C76.9488 37.5959 76.463 37.9309 75.9244 38.1541C75.3857 38.3772 74.8064 38.4835 74.2241 38.4659C73.6392 38.4824 73.0574 38.3757 72.5159 38.1527C71.9744 37.9297 71.4852 37.5953 71.0796 37.1709C70.6678 36.7363 70.346 36.2237 70.133 35.6627C69.9201 35.1018 69.8202 34.5038 69.8392 33.9036ZM71.4362 33.9036C71.4009 34.7256 71.687 35.5288 72.2332 36.1411C72.4884 36.4112 72.7956 36.6263 73.1359 36.7733C73.4763 36.9202 73.8429 36.996 74.2132 36.996C74.5836 36.996 74.9502 36.9202 75.2906 36.7733C75.6309 36.6263 75.9381 36.4112 76.1933 36.1411C76.7103 35.5151 76.9933 34.7269 76.9933 33.913C76.9933 33.0991 76.7103 32.3108 76.1933 31.6849C75.9412 31.4094 75.6351 31.1896 75.2943 31.0392C74.9535 30.8888 74.5854 30.8111 74.2132 30.8111C73.8411 30.8111 73.473 30.8888 73.1322 31.0392C72.7914 31.1896 72.4853 31.4094 72.2332 31.6849C71.6893 32.291 71.4031 33.0876 71.4362 33.9036Z" fill="white" stroke="white" stroke-miterlimit="10"/>
<path d="M83.8187 42.2418C83.3657 42.246 82.9144 42.184 82.4791 42.0577C82.077 41.9421 81.6937 41.7687 81.341 41.5428C81.0093 41.3297 80.714 41.0642 80.4665 40.7564C80.2217 40.4546 80.0326 40.1111 79.9083 39.7422L81.4216 39.1181C81.5867 39.6064 81.903 40.0285 82.324 40.3226C82.7622 40.6289 83.2853 40.7883 83.8187 40.7782C84.1933 40.7994 84.5681 40.7403 84.9183 40.6047C85.2685 40.4691 85.586 40.2602 85.8499 39.9918C86.3657 39.3867 86.6271 38.6032 86.5787 37.8075V36.9867H86.5197C86.2136 37.4475 85.7922 37.8188 85.2979 38.0633C84.7776 38.3265 84.2026 38.4613 83.6202 38.4565C83.0769 38.4591 82.5395 38.3432 82.0449 38.117C81.5503 37.8908 81.1102 37.5595 80.7549 37.1459C79.9657 36.2548 79.5393 35.097 79.561 33.9036C79.5321 32.714 79.9546 31.5581 80.7425 30.6707C81.0951 30.2526 81.5342 29.917 82.0292 29.6874C82.5241 29.4577 83.0629 29.3397 83.6078 29.3414C84.1883 29.3385 84.7612 29.4744 85.2793 29.7377C85.7804 29.9794 86.2085 30.351 86.5197 30.8143H86.5911V29.6253H88.1199V37.8199C88.1199 39.1951 87.7323 40.2727 86.957 41.0528C86.5421 41.4558 86.0496 41.7692 85.5099 41.9736C84.9703 42.1781 84.3947 42.2693 83.8187 42.2418ZM83.8683 36.9992C84.2328 37.0101 84.5951 36.939 84.9288 36.7911C85.2625 36.6432 85.5592 36.4222 85.7972 36.1442C86.3032 35.5132 86.5791 34.7269 86.5791 33.9161C86.5791 33.1053 86.3032 32.319 85.7972 31.688C85.5607 31.407 85.2648 31.1826 84.931 31.0315C84.5973 30.8803 84.2342 30.8061 83.8683 30.8143C83.5032 30.8083 83.1413 30.8835 82.8084 31.0346C82.4755 31.1856 82.1799 31.4087 81.9426 31.688C81.411 32.3006 81.1315 33.094 81.1611 33.9067C81.1271 34.7201 81.4071 35.5152 81.9426 36.1255C82.1799 36.4048 82.4755 36.6279 82.8084 36.7789C83.1413 36.93 83.5032 37.0052 83.8683 36.9992Z" fill="white" stroke="white" stroke-miterlimit="10"/>
<path d="M91.6488 25.6748V38.1883H90.0518V25.6748H91.6488Z" fill="white" stroke="white" stroke-miterlimit="10"/>
<path d="M97.3268 38.469C96.7481 38.4877 96.1721 38.3818 95.6373 38.1584C95.1025 37.9351 94.6213 37.5995 94.2257 37.174C93.4141 36.2854 92.9849 35.1097 93.0318 33.9037C92.9931 32.705 93.4164 31.5376 94.2133 30.6458C94.6031 30.2393 95.0692 29.9147 95.5846 29.6909C96.1 29.467 96.6544 29.3483 97.2158 29.3416C97.7771 29.3349 98.3341 29.4404 98.8546 29.652C99.3751 29.8635 99.8487 30.1769 100.248 30.574C100.994 31.3937 101.367 32.5441 101.367 34.0254V34.2001H94.6537C94.6486 34.5775 94.72 34.9519 94.8634 35.3006C95.0068 35.6494 95.2193 35.9651 95.4879 36.2285C95.7398 36.4775 96.0384 36.6735 96.3664 36.8053C96.6943 36.9371 97.045 37.002 97.3981 36.9961C98.4152 36.9961 99.2133 36.4833 99.7921 35.4577L101.219 36.1567C100.855 36.8599 100.304 37.4476 99.6278 37.8543C98.9314 38.2679 98.1353 38.4806 97.3268 38.469ZM94.7746 32.877H99.6557C99.6358 32.5956 99.5609 32.3209 99.4353 32.0687C99.3097 31.8165 99.1359 31.5917 98.9238 31.4072C98.4357 30.9983 97.8122 30.7899 97.1779 30.8237C96.6106 30.813 96.0591 31.0117 95.6274 31.3822C95.1872 31.7723 94.8874 32.2978 94.7746 32.877Z" fill="white" stroke="white" stroke-miterlimit="10"/>
<path d="M108.512 33.1203V38.1881H106.912V25.6747H111.151C111.657 25.664 112.161 25.7545 112.632 25.9409C113.103 26.1273 113.532 26.406 113.896 26.7606C114.259 27.0992 114.548 27.5095 114.746 27.966C114.944 28.4224 115.047 28.9151 115.047 29.4131C115.047 29.9111 114.944 30.4038 114.746 30.8602C114.548 31.3167 114.259 31.727 113.896 32.0656C113.531 32.417 113.101 32.6923 112.63 32.8755C112.159 33.0587 111.656 33.1461 111.151 33.1328L108.512 33.1203ZM108.512 27.2131V31.5819H111.185C111.479 31.5903 111.771 31.5373 112.044 31.4261C112.316 31.3149 112.562 31.148 112.767 30.9359C113.071 30.6273 113.277 30.2343 113.358 29.8072C113.44 29.3801 113.392 28.9383 113.222 28.5385C113.052 28.1386 112.768 27.7989 112.405 27.5628C112.042 27.3267 111.617 27.2049 111.185 27.2131H108.512Z" fill="white" stroke="white" stroke-miterlimit="10"/>
<path d="M118.113 25.6748V38.1883H116.516V25.6748H118.113Z" fill="white" stroke="white" stroke-miterlimit="10"/>
<path d="M123.202 29.3445C124.383 29.3445 125.313 29.6628 125.993 30.2994C126.34 30.6355 126.611 31.0427 126.787 31.4933C126.964 31.944 127.042 32.4276 127.017 32.9113V38.1882H125.488V36.9992H125.42C125.144 37.4535 124.756 37.8279 124.293 38.0856C123.831 38.3433 123.309 38.4754 122.781 38.469C121.919 38.4968 121.079 38.1971 120.427 37.6296C120.124 37.3732 119.882 37.0518 119.718 36.6889C119.554 36.3261 119.473 35.931 119.481 35.5326C119.467 35.1252 119.55 34.7203 119.724 34.3521C119.898 33.9839 120.157 33.6631 120.48 33.4168C121.253 32.8586 122.193 32.5813 123.143 32.6304C123.957 32.5989 124.764 32.7795 125.488 33.1547V32.7896C125.49 32.5174 125.432 32.2481 125.318 32.0014C125.203 31.7547 125.036 31.5367 124.827 31.3635C124.402 30.979 123.848 30.7705 123.277 30.7799C122.856 30.7702 122.441 30.8696 122.07 31.0686C121.699 31.2676 121.385 31.5593 121.159 31.9158L119.751 31.0233C120.545 29.9062 121.695 29.3466 123.202 29.3445ZM121.137 35.5669C121.136 35.7712 121.184 35.9727 121.275 36.155C121.367 36.3372 121.5 36.495 121.664 36.6154C122.017 36.8945 122.456 37.0423 122.905 37.0336C123.578 37.0323 124.223 36.7631 124.7 36.2846C124.949 36.0634 125.148 35.7916 125.284 35.4871C125.421 35.1826 125.491 34.8524 125.491 34.5184C124.883 34.0886 124.148 33.8796 123.407 33.9255C122.83 33.9039 122.262 34.0691 121.785 34.3967C121.589 34.5218 121.426 34.6944 121.313 34.8988C121.2 35.1032 121.139 35.3329 121.137 35.5669Z" fill="white" stroke="white" stroke-miterlimit="10"/>
<path d="M136.261 29.6255L130.93 41.9642H129.28L131.259 37.6485L127.764 29.6255H129.5L132.025 35.7761H132.059L134.524 29.6255H136.261Z" fill="white" stroke="white" stroke-miterlimit="10"/>
</g>
<defs>
<linearGradient id="paint0_linear_167_467" x1="20.9973" y1="9.64746" x2="20.9973" y2="44.2858" gradientUnits="userSpaceOnUse">
<stop stop-color="#287DB0"/>
<stop offset="0.19" stop-color="#3D8FB3"/>
<stop offset="0.74" stop-color="#74BCB9"/>
<stop offset="1" stop-color="#8ACEBC"/>
</linearGradient>
<linearGradient id="paint1_linear_167_467" x1="12.3174" y1="18.2447" x2="34.3349" y2="18.2447" gradientUnits="userSpaceOnUse">
<stop stop-color="#53C0AC"/>
<stop offset="1" stop-color="#DEE89A"/>
</linearGradient>
<linearGradient id="paint2_linear_167_467" x1="23.3262" y1="26.9668" x2="23.3262" y2="44.4108" gradientUnits="userSpaceOnUse">
<stop stop-color="#EB413D"/>
<stop offset="0.19" stop-color="#D64352"/>
<stop offset="0.74" stop-color="#9F4A89"/>
<stop offset="1" stop-color="#894C9E"/>
</linearGradient>
<linearGradient id="paint3_linear_167_467" x1="36.0093" y1="22.3171" x2="36.0093" y2="31.6195" gradientUnits="userSpaceOnUse">
<stop stop-color="#F58879"/>
<stop offset="0.61" stop-color="#FBB176"/>
<stop offset="1" stop-color="#FEC774"/>
</linearGradient>
<clipPath id="clip0_167_467">
<rect width="158.774" height="52.4255" fill="white" transform="translate(0 0.825684)"/>
</clipPath>
</defs>
</svg>
