<svg width="106" height="106" viewBox="0 0 106 106" fill="none" xmlns="http://www.w3.org/2000/svg">
<g id="Group 110">
<path id="Vector" d="M30.8318 36.9201C29.7918 38.7458 28.9174 40.6609 28.2188 42.6424C27.5689 44.6825 27.217 46.8058 27.174 48.9464C27.1401 53.1688 27.9834 57.3522 29.6503 61.2317C31.3172 65.1112 33.7714 68.6024 36.8577 71.4841C40.0098 74.4201 43.9794 76.3293 48.2408 76.9589C48.773 77.042 49.3099 77.0902 49.8484 77.1031C50.1224 77.1214 50.3865 77.1408 50.6581 77.1393L51.4608 77.1159L52.2723 77.0814L53.1761 76.9756L54.8606 79.3259L56.6571 81.7738C57.5385 82.9393 58.3976 84.0872 59.4291 85.2452C59.5066 85.2841 59.5878 85.3151 59.6715 85.3377L59.9478 85.3759C59.9072 85.3986 59.8699 85.4267 59.8368 85.4594C59.0983 86.2277 58.6907 87.255 58.7015 88.3206C58.7072 88.5845 58.738 88.8472 58.7933 89.1053C58.8415 89.3675 58.9254 89.6219 59.0428 89.8614C59.16 90.0893 59.2773 90.3172 59.4045 90.544C59.5646 90.7617 59.7369 90.9701 59.9205 91.1683C60.1499 91.3795 60.3979 91.5696 60.6615 91.736C60.9414 91.8706 61.2307 91.9848 61.5271 92.0778L61.7017 92.1077C61.6646 92.1646 61.6411 92.2294 61.6332 92.297C61.491 92.8515 61.5597 93.439 61.826 93.9457C62.0919 94.5954 62.4479 95.2045 62.8834 95.7551C63.0349 95.9386 63.203 96.1076 63.3855 96.2602C63.5526 96.4343 63.7395 96.5882 63.9425 96.7186L64.5895 97.0859C64.8127 97.1826 65.041 97.2668 65.2735 97.3382C65.6652 97.4539 66.0686 97.5249 66.4762 97.5499C66.8547 97.5625 67.2336 97.5551 67.6114 97.5279C67.9689 97.4861 68.3265 97.4443 68.6741 97.4036L69.3777 97.2206C69.3777 97.2206 69.3858 97.2902 69.3904 97.3299C69.3751 97.4103 69.3848 97.4935 69.4183 97.5683C69.7841 98.5081 70.4543 99.2982 71.3218 99.8123C72.0913 100.268 72.9442 100.566 73.8304 100.687C75.6561 100.911 77.509 100.695 79.2336 100.055C79.9543 99.7964 80.6512 99.4757 81.3163 99.0965C81.6735 98.8616 82.0168 98.6063 82.3445 98.3318C83.0729 97.7294 83.7029 97.0171 84.2119 96.2206C84.7047 95.4193 85.0351 94.5288 85.1841 93.6C85.2628 93.2348 85.27 92.8579 85.2052 92.49C85.1808 91.5269 84.8718 90.5927 84.3173 89.8049C84.5659 89.5619 84.8015 89.3058 85.023 89.0378C85.6422 88.3295 86.1075 87.5002 86.3893 86.6026C86.5245 86.2257 86.5805 85.825 86.5537 85.4255C86.5479 84.6445 86.2971 83.885 85.8366 83.2541C85.6467 82.959 85.3826 82.7191 85.0706 82.5584C85.1947 82.2418 85.2322 82.0461 85.1983 82.1004C85.4059 81.3261 85.3095 80.5017 84.9288 79.7961C84.7599 79.4345 84.465 79.1468 84.0992 78.987C83.9303 79.0068 83.9068 79.1505 84.0064 79.5718C84.2041 80.2453 84.1489 80.9678 83.8514 81.6035C83.1385 82.7093 82.1729 83.6298 81.0343 84.289C79.977 84.9764 79.1524 85.4152 79.1524 85.4152C78.5054 85.8231 77.8473 86.2223 77.1671 86.6039C75.2747 87.6407 73.3672 88.5485 71.4609 89.4661C70.9741 89.6942 70.5072 89.92 69.9643 90.1849L69.2431 90.5612L68.5395 90.9153C67.6055 91.3718 66.6427 91.7669 65.6574 92.0981C65.3577 92.2048 65.0522 92.2943 64.7423 92.3662L64.3053 92.4174L64.1961 92.4301C64.131 92.4105 64.0697 92.3802 64.0144 92.3406C63.969 92.2741 63.9272 92.205 63.8895 92.1337L63.8826 92.0741C64.5488 91.9113 65.1966 91.6803 65.8156 91.3849C66.5684 91.0382 67.303 90.6532 68.0165 90.2314C68.7231 89.8165 69.3262 89.4641 70.0463 89.0779C72.8147 87.5257 75.5353 85.9088 78.1929 84.0978L79.9142 82.8896C79.9142 82.8896 81.3673 81.7128 82.6476 80.4355C83.2691 79.8401 83.8368 79.1909 84.3437 78.4953C84.5776 78.1996 84.7632 77.8686 84.8935 77.5148C84.9891 77.3022 85.0644 77.081 85.1183 76.8542C85.1717 76.6046 85.1858 76.3482 85.1603 76.0942C85.1336 75.8819 85.0641 75.6772 84.956 75.4925C84.8479 75.3079 84.7034 75.1471 84.5312 75.02C84.368 74.8773 84.1722 74.777 83.961 74.7279C83.7498 74.6789 83.5298 74.6826 83.3204 74.7387C83.1585 74.8181 83.2565 74.9677 83.573 75.2629C83.7604 75.4146 83.8968 75.62 83.964 75.8515C84.0008 75.992 83.9935 76.1405 83.9433 76.2768C83.8783 76.4524 83.7852 76.6163 83.6678 76.7621C82.7473 77.771 81.6909 78.6468 80.5288 79.3643C79.4651 80.0828 78.6585 80.5899 78.6585 80.5899C78.0273 81.0463 77.3738 81.4852 76.7204 81.9241C74.1516 83.6341 71.4696 85.2365 68.7474 86.753C68.0846 87.1124 67.3295 87.5431 66.6802 87.9311C66.0309 88.3192 65.367 88.6686 64.7172 88.9661C64.1286 89.2545 63.5004 89.4535 62.8532 89.5567L62.4658 89.602C62.3565 89.6148 62.259 89.5557 62.1585 89.5574L61.9261 89.4638C61.918 89.3942 61.7953 89.3784 61.7375 89.3146C61.6879 89.2406 61.6293 89.1731 61.563 89.1136C61.5253 89.017 61.4773 88.9247 61.42 88.8383C61.3372 88.667 61.2978 88.478 61.3053 88.2879C61.2965 88.0932 61.3285 87.8988 61.3991 87.7172C61.4697 87.5356 61.5775 87.3707 61.7156 87.2331C61.7141 87.1797 61.7079 87.1265 61.697 87.0742C61.7169 86.5759 61.6175 86.0801 61.407 85.6281L62.4688 85.1515C63.7346 84.6108 65.2738 83.9978 66.508 83.5313L68.6555 82.6962L71.9848 81.1187C72.9397 80.6748 73.8116 80.2104 74.711 79.7226C75.6105 79.2348 76.4654 78.8831 77.366 78.4053C78.2666 77.9274 79.2116 77.4846 80.1326 76.9238C80.6125 76.6325 81.0725 76.3096 81.5097 75.9573C81.7581 75.7599 81.9885 75.5409 82.1983 75.3029C82.3645 75.1337 82.5048 74.9409 82.6146 74.7307C82.741 74.5246 82.8403 74.3032 82.9101 74.0719C82.9932 73.5823 82.9344 73.079 82.7405 72.6218C82.6295 72.3353 82.4961 72.058 82.3415 71.7925C82.0713 71.2905 81.7883 70.8504 81.4953 70.4114C80.9205 69.5423 80.2907 68.72 79.7415 67.8982C79.4532 67.499 79.1736 67.0887 78.9063 66.6971L78.5597 66.1436L78.5492 66.0542L78.6336 65.7423C78.686 65.5493 78.7514 65.36 78.8291 65.1758C79.0067 64.7803 79.2145 64.3992 79.4509 64.0358C81.6548 60.403 82.9875 56.3092 83.3447 52.0752C83.7019 47.8413 83.0739 43.5821 81.5098 39.6314C79.9848 35.6689 77.5524 32.1189 74.4076 29.2662C71.2442 26.4265 67.425 24.4169 63.293 23.4178C62.7831 23.2761 62.2603 23.1963 61.7462 23.1054L60.2041 22.8327L58.6462 22.6826C58.1269 22.6326 57.6262 22.5704 57.0829 22.5735L55.519 22.545C54.9932 22.5259 54.4668 22.5875 53.9457 22.6082C53.4245 22.6288 52.942 22.6349 52.3782 22.721L50.8188 22.9034C46.6403 23.5422 42.664 25.1309 39.1956 27.5473C35.7273 29.9637 32.8594 33.1434 30.8125 36.8418L30.8318 36.9201ZM71.7979 96.565C71.7535 96.5279 71.7023 96.4997 71.6472 96.482L71.5409 96.434C71.6177 96.4322 71.6942 96.4233 71.7693 96.4073L71.8964 96.8052C71.8566 96.7427 71.8251 96.6754 71.8025 96.6048L71.7979 96.565ZM83.8048 90.9321C83.8196 91.1162 83.821 91.3011 83.8091 91.4854L83.3821 91.3641L83.1111 91.2851L82.8944 91.2399L82.638 91.1995L83.0711 90.8568C83.2909 90.67 83.548 90.4587 83.8018 90.2176C83.7987 90.4496 83.8155 90.6791 83.8095 90.9718L83.8048 90.9321ZM66.4812 94.5792C67.5557 94.2035 68.6071 93.7645 69.6298 93.2646L70.3819 92.8947L71.1019 92.5084L72.5226 91.8288C74.4885 90.9042 76.4818 89.9562 78.4192 88.8738C79.0334 88.5301 79.6453 88.1666 80.2462 87.7942C80.2462 87.7942 80.6366 87.517 81.1697 87.0822C81.866 86.5542 82.5254 85.9792 83.1432 85.3613C83.8053 84.7165 84.3702 83.9789 84.8202 83.1716L84.9108 82.9999C84.9098 83.0334 84.9137 83.0669 84.9224 83.0992C85.1503 83.775 85.2172 84.4946 85.1179 85.2008C84.7084 86.4016 83.9012 87.4266 82.8299 88.1062C82.3384 88.4658 81.8971 88.7389 81.5482 88.9408L81.0111 89.2553C80.3851 89.6708 79.7247 90.0501 79.052 90.4107C77.9995 90.9667 76.9003 91.4678 75.7865 91.9303C74.6727 92.3929 73.4507 92.8781 72.3369 93.3406C71.2415 93.8201 70.1211 94.2402 68.9804 94.599C68.0436 94.9485 67.0277 95.029 66.0475 94.8313C65.9444 94.8115 65.845 94.7755 65.7531 94.7248C65.9647 94.6396 66.2329 94.6083 66.4812 94.5792ZM70.7694 78.905L69.5877 79.4761L69.025 79.7433L68.2992 80.0799C68.2887 79.9905 68.2782 79.9011 68.269 79.8216C68.277 79.7936 68.2794 79.7642 68.2761 79.7352C68.2727 79.7062 68.2635 79.6782 68.2492 79.6528C67.4946 78.4523 66.7675 77.2285 66.0182 75.9871C64.6339 73.5959 63.1132 71.2861 61.4638 69.0694C59.7714 66.705 57.5978 64.7255 55.0859 63.2609L54.0218 62.7712L53.0587 62.3704L51.1647 61.5851C50.0117 61.1384 48.907 60.5761 47.8674 59.9068C47.4514 59.6472 47.0928 59.3055 46.8136 58.9024C46.7317 58.7739 46.6802 58.6284 46.6631 58.477C46.6471 58.3182 46.6662 58.1579 46.719 58.0073C47.1941 57.037 47.9169 56.2093 48.8144 55.6077C49.1114 55.3978 49.4271 55.216 49.7577 55.0644C49.718 55.4301 49.7072 55.7983 49.7254 56.1656C49.746 56.5555 49.7914 56.9436 49.8613 57.3277L49.895 57.6157L49.9356 57.9634C49.998 58.2075 50.0765 58.4472 50.1706 58.6809C50.4111 59.2439 50.8181 59.7197 51.3369 60.0447C51.877 60.3811 52.5145 60.5264 53.1471 60.4572C54.1786 60.3215 55.1168 59.7893 55.7624 58.9733C56.0997 58.5678 56.3482 58.096 56.4917 57.5884C56.6353 57.0808 56.6707 56.5487 56.5957 56.0266C56.409 55.0677 55.9147 54.1959 55.1877 53.5433C54.8798 53.2459 54.5385 52.9852 54.1706 52.7662C54.5414 52.6229 54.9327 52.5397 55.3298 52.5199C55.8713 52.4932 56.4139 52.5346 56.945 52.6431C56.9535 53.3488 57.0761 54.0484 57.3082 54.7149C57.3849 54.9432 57.4816 55.1644 57.5969 55.3759C57.7626 55.6734 57.9674 55.9474 58.2057 56.1907C58.4388 56.4246 58.7209 56.6039 59.0317 56.7156C59.3425 56.8272 59.6741 56.8685 60.0028 56.8363C60.3207 56.7991 60.61 56.6042 60.9693 56.4917C61.1297 56.4276 61.279 56.3388 61.4118 56.2285L61.7625 55.9559C62.2675 55.4962 62.5723 54.857 62.6114 54.1752C62.5879 53.5154 62.3475 52.8817 61.9274 52.3725C61.625 52.0291 61.2747 51.7309 60.8874 51.4873C60.5436 51.258 60.1833 51.0545 59.8094 50.8784C59.8871 50.646 59.993 50.424 60.1248 50.2173C60.3226 49.8685 60.6335 49.5977 61.0062 49.4498C61.3789 49.3018 61.7909 49.2856 62.1741 49.4037C62.6791 49.5814 63.1367 49.8723 63.5119 50.2541L63.4013 50.5992C63.3008 51.0469 63.2563 51.5053 63.2689 51.9639C63.2746 52.1006 63.2905 52.2367 63.3165 52.3711C63.3416 52.524 63.3794 52.6745 63.4296 52.821C63.4838 53.004 63.5652 53.1777 63.6711 53.3364C63.7916 53.5287 63.9408 53.7014 64.1136 53.8485C64.3051 53.9981 64.5194 54.1158 64.7484 54.1971C64.9552 54.2566 65.1688 54.2891 65.3839 54.2939C65.5571 54.2837 65.7296 54.2636 65.9004 54.2335L66.3194 54.1141L66.4187 54.1025C66.5114 54.0668 66.6006 54.0227 66.6852 53.9706C66.8641 53.869 67.0194 53.7307 67.1412 53.5649C67.3312 53.3184 67.4532 53.0264 67.4952 52.718C67.5189 52.3826 67.4795 52.0457 67.379 51.7248C67.1891 51.022 66.8728 50.3596 66.4456 49.77C66.5379 49.5954 66.639 49.4256 66.7486 49.2613C67.0034 48.8659 67.3476 48.5359 67.7534 48.2981C67.882 48.2267 68.0266 48.189 68.1736 48.1885C68.3137 48.1872 68.452 48.2194 68.5772 48.2823C68.9825 48.5174 69.3324 48.837 69.603 49.2195C69.873 49.5914 70.048 50.0237 70.1128 50.4788C70.1784 51.6082 69.9646 52.7363 69.4901 53.7634C68.9529 54.937 68.3504 56.0798 67.6855 57.1862C66.9539 58.4186 66.3167 59.7048 65.7795 61.0336C65.7073 61.2316 65.6468 61.4336 65.5986 61.6387C65.5527 61.8648 65.5223 62.0937 65.5076 62.324C65.463 62.7455 65.4655 63.1707 65.5149 63.5917C65.6018 64.3478 65.7566 65.0946 65.9772 65.8231C66.0202 66.1906 66.1988 66.512 66.309 66.8515C66.4192 67.191 66.5492 67.5282 66.6735 67.8157L66.9971 68.6034L67.0146 68.7524L67.2753 69.3461C67.4421 69.7394 67.6177 70.1216 67.7933 70.5038C67.7933 70.5038 68.6785 72.132 69.5742 73.6784C70.4699 75.2248 71.3288 76.7152 71.2915 76.5685L72.2346 78.0892L70.7694 78.905ZM52.3778 56.8924C52.2867 56.2219 52.2987 55.5414 52.4136 54.8746C52.6232 54.953 52.8217 55.0584 53.004 55.1881C53.3714 55.4643 53.6792 55.8118 53.9088 56.2099C53.9787 56.3465 54.0162 56.4973 54.0184 56.6507C54.0206 56.8041 53.9875 56.9559 53.9217 57.0944C53.7632 57.4291 53.4973 57.7012 53.1663 57.8674C53.0422 57.9113 52.9099 57.9268 52.779 57.9127C52.6995 57.922 52.6995 57.922 52.6697 57.9255C52.5921 57.8385 52.5352 57.735 52.5034 57.6228C52.4857 57.5243 52.4741 57.4247 52.4686 57.3248L52.3778 56.8924ZM59.7436 54.0173L59.8347 54.1073L59.8948 54.1909L59.8352 54.1979C59.8685 54.2242 59.8014 54.081 59.732 53.918L59.7436 54.0173ZM39.7797 30.5274C42.7534 28.1963 46.222 26.5782 49.9189 25.7975C53.63 25.0238 57.4571 24.9867 61.1825 25.6883C64.8936 26.3113 68.393 27.8424 71.3692 30.1452C74.3423 32.46 76.732 35.439 78.3468 38.8435C79.9728 42.2567 80.8251 45.9868 80.8428 49.7675C80.8578 53.5417 80.0205 57.2705 78.3934 60.6759C78.177 61.0636 77.9996 61.5274 77.7675 61.8667C77.5353 62.2059 77.2388 62.6836 76.9125 63.1648C76.6137 63.6694 76.3692 64.2043 76.1829 64.7603C76.0863 65.0535 76.0248 65.3024 75.9504 65.6131C75.8144 66.0817 75.841 66.5825 76.026 67.0339L76.1858 67.3676L76.3118 67.5845L76.5249 67.9421L76.9637 68.5956L77.8333 69.8329C78.41 70.6314 79.0263 71.4251 79.4815 72.2176C79.728 72.5882 79.9544 72.9717 80.1596 73.3666L80.2693 73.6156C80.2199 73.6824 80.1628 73.7431 80.0991 73.7966C79.9555 73.9356 79.8023 74.0645 79.6409 74.1824C79.2861 74.4453 78.9181 74.69 78.5385 74.9154C77.7372 75.3817 76.8817 75.814 76.0127 76.2177C75.1437 76.6213 74.235 77.0297 73.2882 77.5431L73.1047 77.6955C73.0547 77.2684 72.8693 76.7162 72.6647 76.0857C72.245 74.7353 71.6309 73.1862 71.1696 71.9111L70.3345 69.7636L69.82 68.6357L69.5727 68.0706L69.4485 67.7831L69.3813 67.6399L69.0664 66.8411C68.5798 65.6834 68.2511 64.4655 68.0892 63.2201L68.0416 62.8129C68.0288 62.7036 68.0657 62.5886 68.0728 62.477C68.1013 62.2228 68.1672 61.9742 68.2684 61.7393C68.5056 61.1532 68.7747 60.5806 69.0746 60.024C69.7116 58.842 70.4158 57.632 71.061 56.3484C71.7721 55.0289 72.2848 53.612 72.5828 52.1431C72.7418 51.2949 72.7289 50.4234 72.5449 49.5802C72.3197 48.7002 71.8789 47.8902 71.2624 47.2232C70.6576 46.4807 69.8433 45.9375 68.9254 45.6641C68.3788 45.5387 67.8103 45.5431 67.2657 45.677C66.7787 45.8143 66.3206 46.0384 65.9134 46.3386C65.3695 46.742 64.9025 47.24 64.5348 47.8087L64.3585 47.6783C63.604 47.1408 62.717 46.8198 61.7933 46.75C60.8017 46.6917 59.8208 46.9808 59.0195 47.5677C58.2757 48.1348 57.7058 48.8991 57.3746 49.7738C57.3278 49.89 57.2997 49.994 57.2628 50.109C56.9333 50.0469 56.5963 50.0058 56.2405 49.9769C55.4175 49.9177 54.5902 49.9805 53.7856 50.1633C52.9023 50.3881 52.0889 50.8292 51.4187 51.447C51.1966 51.6595 50.9947 51.8921 50.8153 52.1418C50.5769 52.1696 50.3485 52.1964 50.12 52.2231C49.3138 52.4167 48.5426 52.7345 47.834 53.165C47.1622 53.579 46.5438 54.074 45.9927 54.6389C45.3874 55.2148 44.8809 55.8863 44.4935 56.6265C44.2662 57.0698 44.1211 57.5507 44.0655 58.0458C43.998 58.5895 44.0626 59.1414 44.2537 59.6549C44.617 60.5187 45.2132 61.2646 45.9756 61.8094C47.2012 62.661 48.5271 63.3581 49.9234 63.8849C51.2153 64.4285 52.5575 64.8857 53.6519 65.4624C55.8971 66.7268 57.8368 68.4695 59.3334 70.567C60.958 72.7374 62.4502 75.0038 63.802 77.3538C64.539 78.5765 65.2784 79.819 66.0574 81.0569C66.1159 81.1062 66.1817 81.1461 66.2525 81.175L64.6862 82.0731C63.681 82.6273 62.7179 83.2548 61.8048 83.9505L61.3244 84.3188C61.371 84.1096 61.3798 83.8938 61.3505 83.6814C61.3389 83.5821 61.3389 83.5821 61.3331 83.5325C60.4527 82.5481 59.5737 81.4024 58.7268 80.2732C57.5349 78.6909 56.426 77.1292 55.2447 75.4651C54.9564 75.0659 54.6756 74.6457 54.3697 74.2687L52.8998 74.4406C52.4373 74.5086 51.9708 74.5464 51.5034 74.5536C50.5888 74.605 49.6713 74.5707 48.763 74.4512C45.0778 73.9556 41.6293 72.3545 38.8726 69.8591C36.0449 67.3412 33.7882 64.2479 32.2539 60.7865C30.6672 57.3455 29.8155 53.6115 29.7533 49.8228C29.7286 47.9591 29.9548 46.1005 30.426 44.2972C30.5349 43.8515 30.6848 43.4111 30.8358 42.9807C30.9848 42.536 31.1627 42.1015 31.3683 41.68C31.7253 40.798 32.1322 39.9369 32.587 39.101C34.3354 35.7314 36.7838 32.7744 39.7681 30.4281L39.7797 30.5274Z" fill="#202020"/>
<path id="Vector_2" d="M10.7952 52.8357L12.2552 52.665C12.7226 52.6515 13.1879 52.5971 13.6457 52.5024C14.8569 52.2701 15.66 51.7332 13.7612 51.0793C12.8737 50.7405 11.9603 50.4736 11.03 50.2812C7.83574 50.0938 4.6305 50.256 1.47145 50.7648L1.24302 50.7915L1.07354 50.8919L0.838014 51.0302L0.758538 51.0395L0.684874 51.0985L0.520039 51.2386C0.408999 51.3626 0.316778 51.5023 0.246342 51.6532L0.1726 51.8833C0.127099 52.1449 0.158578 52.414 0.26321 52.658C0.36148 52.9012 0.525638 53.1121 0.737193 53.267L0.92991 53.3654C1.04822 53.4273 1.17554 53.4701 1.3072 53.4924L1.5158 53.468L1.69458 53.4471L1.80382 53.4343C1.80382 53.4343 1.84417 53.349 1.84185 53.3291C1.84471 53.1253 1.88238 52.9234 1.95325 52.7322L2.14356 52.9817L2.20599 53.0852L1.91501 53.1797C4.85468 52.7525 7.83126 52.6372 10.7952 52.8357Z" fill="#FFDD55"/>
<path id="Vector_3" d="M98.6103 14.3633C98.5468 14.3485 98.48 14.3563 98.4216 14.3854C97.1589 15.1885 95.9543 16.0796 94.817 17.0522C93.9676 17.7959 93.1306 18.5583 92.3478 19.3546C91.8427 19.8567 91.3808 20.3839 90.909 20.9123C90.909 20.9123 89.7413 22.3779 88.7273 23.8657C87.7133 25.3536 86.7565 26.8146 86.8653 26.7113C85.3557 29.2136 84.6762 31.0651 87.9816 27.6479C88.9743 26.666 90.1201 25.4446 91.0368 24.5018C91.9535 23.5589 92.6486 22.8735 92.6486 22.8735C93.1543 22.2908 93.6845 21.7455 94.2212 21.1693C94.9567 20.3986 95.74 19.6928 96.5257 19.0069C97.5718 18.1289 98.6791 17.3265 99.8392 16.6057C99.8866 16.5482 99.9233 16.4825 99.9474 16.4119C100.458 14.7513 99.3225 14.3404 98.6103 14.3633Z" fill="#FFDD55"/>
<path id="Vector_4" d="M21.6849 28.6957C22.7691 28.8407 23.5282 28.5304 22.3092 27.4044C21.7628 26.8371 21.1794 26.3067 20.5629 25.8165L19.3978 25.238C18.7022 24.8864 17.752 24.4236 16.7633 23.9754C15.8317 23.5578 14.8721 23.2057 13.8914 22.9219C13.3987 22.7785 12.8951 22.6757 12.3856 22.6148C12.3856 22.6148 12.3031 22.6848 12.2955 22.7059C12.0834 23.0657 11.9488 23.4658 11.9002 23.8806C11.8516 24.2955 11.8902 24.7159 12.0135 25.1149C12.0216 25.1844 12.0216 25.1845 12.0228 25.1944L12.3499 25.2367C12.5467 25.2841 12.8231 25.3223 13.1572 25.4242C14.0088 25.6708 14.8419 25.9771 15.6505 26.3407C16.5517 26.7287 17.4551 27.1365 18.1331 27.5102L19.2772 28.0812L20.4863 28.4331C20.8752 28.5637 21.2771 28.6518 21.6849 28.6957Z" fill="#FFDD55"/>
<path id="Vector_5" d="M67.6158 11.998C68.1986 11.3892 68.7349 10.7375 69.2202 10.0484L69.8017 8.82259C70.2179 7.93843 70.682 7.07753 71.1916 6.24368C71.6595 5.44587 72.2181 4.70484 72.8563 4.03534C73.0448 3.84012 73.2495 3.66125 73.4683 3.50063C73.5432 3.44085 73.6253 3.39067 73.7126 3.35125C73.7128 3.3111 73.7082 3.27104 73.6987 3.23203C73.6221 2.72442 73.4626 2.23285 73.2264 1.77704C73.067 1.48894 72.8259 1.25442 72.5335 1.10298C72.4739 1.10995 72.4639 1.11111 72.4341 1.1146C71.915 1.40641 71.4422 1.7739 71.0313 2.20495C70.2588 3.00774 69.5824 3.89776 69.0158 4.85704C68.4075 5.85445 67.881 6.86244 67.5166 7.61991L66.9186 8.87788L66.5771 10.1763C66.4444 10.578 66.3579 10.9935 66.3193 11.4147C66.1696 12.4591 66.3945 13.349 67.6158 11.998Z" fill="#FFDD55"/>
<path id="Vector_6" d="M24.6566 72.014C24.0266 72.5241 23.4389 73.0844 22.8994 73.6894C22.8994 73.6894 21.8331 75.5056 20.747 77.3241C20.2089 78.2327 19.6598 79.1326 19.234 79.7966C19.0217 80.1335 18.8434 80.4161 18.7229 80.5913L18.5673 80.8109L18.517 80.8973C18.5171 80.9341 18.5214 80.9708 18.5298 81.0066C18.8032 81.4394 19.162 81.8119 19.5842 82.1015C19.8544 82.2825 20.1648 82.3948 20.4883 82.4287C20.5578 82.4206 20.5677 82.4194 20.5876 82.4171C20.6074 82.4147 21.8368 80.5292 22.9042 78.723L25.0302 75.1216C25.0302 75.1216 25.9373 72.72 25.8339 72.7824C26.0963 71.755 25.9941 70.8809 24.6566 72.014Z" fill="#FFDD55"/>
<path id="Vector_7" d="M91.37 46.6323C90.1313 46.8879 89.3072 47.4172 91.2668 48.074C92.1811 48.4014 93.1169 48.6654 94.0675 48.864L104.448 49.3817C104.485 49.3554 104.516 49.3208 104.537 49.2807C104.765 48.9202 104.894 48.5061 104.911 48.0799C104.929 47.6538 104.834 47.2305 104.635 46.8528C104.627 46.7832 104.627 46.7833 104.567 46.7803L94.3398 46.2849C94.3398 46.2849 91.2427 46.5767 91.37 46.6323Z" fill="#FFDD55"/>
<path id="Vector_8" d="M37.1531 1.27332C36.5954 0.895547 36.1657 0.492715 35.734 0.502937C35.621 0.50428 35.5094 0.528152 35.4058 0.573121C35.3021 0.61809 35.2084 0.683255 35.1303 0.764839C34.9617 0.932853 34.8245 1.1296 34.7251 1.34584C34.7032 1.377 34.6879 1.41231 34.6802 1.44957C34.6724 1.48683 34.6723 1.52528 34.6799 1.56258C34.7523 2.37744 34.9106 3.18234 35.1521 3.96396C35.3683 4.69378 35.6121 5.40026 35.8745 6.09447L35.8803 6.14412C36.1233 6.78691 36.3795 7.42816 36.649 8.06785C36.649 8.06785 37.457 9.72521 38.3065 11.3072C39.156 12.8893 39.9799 14.424 39.9426 14.2773C40.3714 15.1695 40.957 15.9774 41.6714 16.6626C41.9903 16.8066 42.0101 16.029 41.3322 13.7624C40.9323 12.4097 40.3877 10.8524 39.9551 9.56394C39.5225 8.27547 39.2159 7.37499 39.2159 7.37499C38.9102 6.65563 38.6233 5.92401 38.3463 5.19123L38.3405 5.14155C38.1026 4.48474 37.8757 3.83671 37.681 3.20505C37.503 2.61096 37.378 2.00228 37.3072 1.38615C37.2663 1.33602 37.2132 1.2972 37.1531 1.27332Z" fill="#FFDD55"/>
</g>
</svg>
