<svg width="407" height="155" viewBox="0 0 407 155" fill="none" xmlns="http://www.w3.org/2000/svg">
<path d="M0 30C0 13.4315 13.4315 0 30 0H377C393.569 0 407 13.4315 407 30V147C300.457 115.386 119.705 174.298 0 147V30Z" fill="url(#paint0_linear_1107_7)"/>
<path d="M149.276 88V61.8182H154.811V72.6207H166.048V61.8182H171.571V88H166.048V77.1847H154.811V88H149.276ZM176.033 88V68.3636H181.479V88H176.033ZM178.768 65.8324C177.959 65.8324 177.264 65.5639 176.685 65.027C176.114 64.4815 175.828 63.8295 175.828 63.071C175.828 62.321 176.114 61.6776 176.685 61.1406C177.264 60.5952 177.959 60.3224 178.768 60.3224C179.578 60.3224 180.268 60.5952 180.839 61.1406C181.419 61.6776 181.709 62.321 181.709 63.071C181.709 63.8295 181.419 64.4815 180.839 65.027C180.268 65.5639 179.578 65.8324 178.768 65.8324ZM204.618 68.3636V72.4545H192.793V68.3636H204.618ZM195.477 63.6591H200.923V81.9659C200.923 82.4687 201 82.8608 201.153 83.142C201.307 83.4148 201.52 83.6065 201.793 83.7173C202.074 83.8281 202.398 83.8835 202.764 83.8835C203.02 83.8835 203.276 83.8622 203.531 83.8196C203.787 83.7685 203.983 83.7301 204.119 83.7045L204.976 87.7571C204.703 87.8423 204.32 87.9403 203.825 88.0511C203.331 88.1705 202.73 88.2429 202.023 88.2685C200.71 88.3196 199.56 88.1449 198.571 87.7443C197.591 87.3437 196.828 86.7216 196.283 85.8778C195.737 85.0341 195.469 83.9687 195.477 82.6818V63.6591ZM214.033 76.6477V88H208.587V61.8182H213.88V71.8281H214.11C214.553 70.669 215.269 69.7614 216.258 69.1051C217.246 68.4403 218.487 68.108 219.978 68.108C221.342 68.108 222.531 68.4062 223.545 69.0028C224.567 69.5909 225.36 70.4389 225.923 71.5469C226.494 72.6463 226.775 73.9631 226.766 75.4972V88H221.32V76.4688C221.329 75.2585 221.022 74.3168 220.4 73.6435C219.786 72.9702 218.925 72.6335 217.817 72.6335C217.076 72.6335 216.42 72.7912 215.849 73.1065C215.286 73.4219 214.843 73.8821 214.519 74.4872C214.204 75.0838 214.042 75.804 214.033 76.6477ZM240.001 88.3835C237.981 88.3835 236.243 87.9744 234.785 87.1562C233.336 86.3295 232.22 85.1619 231.436 83.6534C230.652 82.1364 230.26 80.3423 230.26 78.2713C230.26 76.2514 230.652 74.4787 231.436 72.9531C232.22 71.4276 233.324 70.2386 234.747 69.3864C236.179 68.5341 237.858 68.108 239.784 68.108C241.079 68.108 242.285 68.3168 243.402 68.7344C244.527 69.1435 245.507 69.7614 246.342 70.5881C247.186 71.4148 247.842 72.4545 248.311 73.7074C248.779 74.9517 249.014 76.4091 249.014 78.0795V79.5753H232.433V76.2003H243.887C243.887 75.4162 243.717 74.7216 243.376 74.1165C243.035 73.5114 242.562 73.0384 241.957 72.6974C241.36 72.348 240.666 72.1733 239.873 72.1733C239.047 72.1733 238.314 72.3651 237.674 72.7486C237.044 73.1236 236.549 73.6307 236.191 74.2699C235.833 74.9006 235.65 75.6037 235.642 76.3793V79.5881C235.642 80.5597 235.821 81.3991 236.179 82.1065C236.545 82.8139 237.061 83.3594 237.725 83.7429C238.39 84.1264 239.179 84.3182 240.091 84.3182C240.696 84.3182 241.25 84.233 241.752 84.0625C242.255 83.892 242.686 83.6364 243.044 83.2955C243.402 82.9545 243.674 82.5369 243.862 82.0426L248.899 82.375C248.643 83.5852 248.119 84.642 247.326 85.5455C246.542 86.4403 245.528 87.1392 244.284 87.642C243.048 88.1364 241.62 88.3835 240.001 88.3835ZM252.568 88V68.3636H257.848V71.7898H258.052C258.41 70.571 259.011 69.6506 259.855 69.0284C260.699 68.3977 261.67 68.0824 262.77 68.0824C263.042 68.0824 263.336 68.0994 263.652 68.1335C263.967 68.1676 264.244 68.2145 264.483 68.2741V73.1065C264.227 73.0298 263.873 72.9616 263.422 72.902C262.97 72.8423 262.556 72.8125 262.181 72.8125C261.38 72.8125 260.664 72.9872 260.034 73.3366C259.412 73.6776 258.917 74.1548 258.551 74.7685C258.193 75.3821 258.014 76.0895 258.014 76.8906V88H252.568ZM275.333 88.3835C273.313 88.3835 271.575 87.9744 270.117 87.1562C268.668 86.3295 267.552 85.1619 266.768 83.6534C265.984 82.1364 265.592 80.3423 265.592 78.2713C265.592 76.2514 265.984 74.4787 266.768 72.9531C267.552 71.4276 268.656 70.2386 270.079 69.3864C271.511 68.5341 273.19 68.108 275.116 68.108C276.411 68.108 277.617 68.3168 278.734 68.7344C279.859 69.1435 280.839 69.7614 281.674 70.5881C282.518 71.4148 283.174 72.4545 283.643 73.7074C284.112 74.9517 284.346 76.4091 284.346 78.0795V79.5753H267.765V76.2003H279.219C279.219 75.4162 279.049 74.7216 278.708 74.1165C278.367 73.5114 277.894 73.0384 277.289 72.6974C276.692 72.348 275.998 72.1733 275.205 72.1733C274.379 72.1733 273.646 72.3651 273.006 72.7486C272.376 73.1236 271.881 73.6307 271.523 74.2699C271.165 74.9006 270.982 75.6037 270.974 76.3793V79.5881C270.974 80.5597 271.153 81.3991 271.511 82.1065C271.877 82.8139 272.393 83.3594 273.058 83.7429C273.722 84.1264 274.511 84.3182 275.423 84.3182C276.028 84.3182 276.582 84.233 277.085 84.0625C277.587 83.892 278.018 83.6364 278.376 83.2955C278.734 82.9545 279.006 82.5369 279.194 82.0426L284.231 82.375C283.975 83.5852 283.451 84.642 282.658 85.5455C281.874 86.4403 280.86 87.1392 279.616 87.642C278.38 88.1364 276.952 88.3835 275.333 88.3835Z" fill="#FCFCFC"/>
<circle cx="115" cy="30" r="8" fill="#6DDC30"/>
<circle cx="72" cy="76" r="45" fill="#FCFCFC"/>
<path d="M100.541 94.367C97.8859 97.0478 94.7257 99.1735 91.2439 100.621C87.7622 102.068 84.0281 102.808 80.2586 102.798C72.7471 102.657 65.5773 99.6275 60.2326 94.3377C54.8879 89.0479 51.7773 81.9021 51.5444 74.3787C51.3725 68.4724 53.0435 62.6595 56.3246 57.7495C52.278 62.9898 50.1248 69.45 50.2166 76.0749C50.2166 91.9724 63.611 104.344 79.4785 104.344C83.4525 104.176 87.3539 103.221 90.9576 101.534C94.5613 99.8475 97.7958 97.4624 100.475 94.5166C100.49 94.4639 100.512 94.4136 100.541 94.367Z" fill="#EF6036"/>
<path d="M86.0013 48.0713C89.1826 48.8784 92.2219 50.1682 95.0139 51.896C92.2513 50.112 89.2025 48.8181 86.0013 48.0713Z" fill="#EF6036"/>
<path d="M100.309 94.9157C100.34 94.7805 100.379 94.6472 100.425 94.5166C97.7499 97.4682 94.5164 99.8584 90.9122 101.548C87.3079 103.238 83.4047 104.194 79.4287 104.361C63.5613 104.361 50.1668 91.9723 50.1668 76.0914C50.1668 60.2106 61.2708 47.3063 79.4785 47.3063C86.6988 47.3054 93.6529 50.0376 98.9478 54.9557L99.6781 55.4879L100.558 56.0699C94.2506 48.6699 85.0388 43.9805 77.271 43.9805C57.918 43.9805 44.3078 57.5665 44.3078 75.1934C44.2991 79.3897 45.1165 83.5465 46.7133 87.4258C48.31 91.3052 50.6548 94.8309 53.6133 97.8012C56.5718 100.772 60.086 103.128 63.9547 104.736C67.8234 106.344 71.9706 107.171 76.159 107.171C84.7898 107.171 94.0514 102.415 100.342 95.0154L100.309 94.9157Z" fill="#EE3138"/>
<path d="M55.196 74.878C55.196 67.9317 57.9502 61.2699 62.8527 56.3581C67.7552 51.4464 74.4044 48.687 81.3376 48.687C87.1233 48.6437 92.7648 50.4947 97.4042 53.9584L98.2175 54.4906L98.5661 54.7234L98.7321 54.8564C93.4147 49.7211 86.2996 46.8792 78.9143 46.9409C61.0883 46.9409 51.3951 59.2798 51.3951 74.4955C51.3951 89.7112 64.2916 102.998 82.0513 102.998C87.4869 103.062 92.7728 101.214 96.9893 97.7764C91.7761 100.83 85.7931 102.308 79.7608 102.033C67.2626 102.033 55.196 89.944 55.196 74.878Z" fill="#D13236"/>
<path d="M91.5617 82.128C91.5617 86.0691 88.8895 92.1055 82.1839 92.1055C80.9612 92.1772 79.737 91.9939 78.5887 91.567C77.4404 91.1401 76.3931 90.4789 75.5131 89.6254C74.6332 88.7719 73.9396 87.7446 73.4765 86.6086C73.0134 85.4726 72.7908 84.2526 72.8228 83.0259C72.7044 80.9134 73.3693 78.8316 74.6897 77.1803C76.0101 75.529 77.8929 74.4247 79.9764 74.0795V67.9766C76.3472 68.5113 73.0308 70.3357 70.6327 73.1169C68.2347 75.8981 66.9148 79.4505 66.914 83.1257C66.8666 85.1449 67.2337 87.1522 67.9924 89.0234C68.7511 90.8946 69.8853 92.5898 71.3247 94.0038C72.7641 95.4179 74.478 96.5207 76.3603 97.2439C78.2425 97.9672 80.2529 98.2954 82.2669 98.2084C84.3109 98.1956 86.3319 97.7754 88.2122 96.9723C90.0925 96.1691 91.7944 94.999 93.2187 93.5302C94.6431 92.0614 95.7613 90.3232 96.5084 88.417C97.2555 86.5108 97.6164 84.4747 97.5701 82.4273C97.5701 82.3275 97.5701 82.2277 97.5701 82.128H91.5617Z" fill="#00AFF0"/>
<path d="M97.5701 67.9766H82.2338V74.0961H97.5701V67.9766Z" fill="#EE3138"/>
<path d="M91.4456 67.9929V79.8994H97.5535V67.9929H91.4456Z" fill="#EE3138"/>
<path d="M95.0141 66.7293C96.6916 66.7293 98.0515 65.3669 98.0515 63.6862C98.0515 62.0055 96.6916 60.6431 95.0141 60.6431C93.3366 60.6431 91.9767 62.0055 91.9767 63.6862C91.9767 65.3669 93.3366 66.7293 95.0141 66.7293Z" fill="#00AFF0"/>
<path d="M93.6697 93.0039C91.5535 95.0875 88.8779 96.509 85.9691 97.0951C83.0604 97.6813 80.0442 97.4067 77.2886 96.3048C74.5329 95.2029 72.1569 93.3214 70.4503 90.8898C68.7437 88.4581 67.7803 85.5815 67.6775 82.6106C67.5506 79.5234 68.4113 76.4763 70.134 73.9136C67.9488 76.6222 66.7749 80.0095 66.8144 83.492C66.8144 91.8066 73.9349 98.1922 82.35 98.1922C86.589 98.0136 90.5884 96.1743 93.4871 93.0704L93.6697 93.0039Z" fill="#0071BC"/>
<mask id="mask0_1107_7" style="mask-type:luminance" maskUnits="userSpaceOnUse" x="304" y="55" width="38" height="37">
<path d="M304.893 55.2471H342V91.902H304.893V55.2471Z" fill="white"/>
</mask>
<g mask="url(#mask0_1107_7)">
<path d="M341.455 65.2202C339.867 67.8938 339.269 71.0295 339.769 74.05C339.936 75.0531 340.143 76.3012 340.245 77.5545C340.358 78.9391 340.332 80.1761 340.166 81.3357C339.739 84.3073 338.361 86.9237 335.951 89.3345C334.247 91.0389 332.153 91.9022 329.726 91.9022C329.669 91.9022 329.612 91.9016 329.555 91.9007C327.609 91.8686 325.434 91.2859 323.091 90.1688C321.229 89.2815 319.255 88.0559 317.224 86.5266C313.882 84.0106 311.467 81.4755 311.294 81.2928L306.649 77.1226C306.135 76.6616 305.832 76.0281 305.795 75.3388C305.757 74.6497 305.991 73.987 306.452 73.4733C306.913 72.9595 307.546 72.6561 308.235 72.619C308.92 72.5818 309.58 72.8126 310.092 73.2693L315.141 77.2713C315.173 77.2966 315.206 77.2922 315.223 77.2872C315.24 77.2823 315.27 77.2684 315.283 77.2298C315.295 77.1948 315.285 77.1566 315.258 77.1323C315.06 76.9581 314.608 76.5515 313.515 75.5698C312.14 74.3341 309.839 72.2666 305.778 68.6238C305.265 68.1626 304.961 67.5291 304.924 66.8398C304.887 66.1505 305.12 65.488 305.581 64.9743C306.042 64.4607 306.675 64.1571 307.364 64.1197C308.054 64.0824 308.716 64.3159 309.229 64.7769L316.764 71.5408C316.478 71.2549 316.103 70.8787 315.605 70.3792C314.224 68.9929 311.913 66.6731 307.955 62.7256C306.948 61.7176 306.948 60.0779 307.955 59.0705C308.443 58.5824 309.092 58.3134 309.782 58.3134C310.472 58.3134 311.121 58.5824 311.609 59.0703C315.708 63.1721 318.012 65.4763 319.389 66.8531C320.218 67.6819 320.675 68.1385 320.918 68.3822C320.954 68.4181 320.996 68.4237 321.017 68.4237C321.018 68.4237 321.018 68.4237 321.018 68.4237C321.039 68.4237 321.081 68.4181 321.117 68.3824C321.167 68.3322 321.172 68.2522 321.129 68.1962L314.355 59.4129C313.934 58.8663 313.75 58.1882 313.838 57.5036C313.927 56.8191 314.276 56.2099 314.823 55.7883C315.369 55.3665 316.047 55.183 316.731 55.2711C317.416 55.3596 318.025 55.7093 318.446 56.2557L325.629 65.5699C326.553 66.7678 327.725 67.898 328.844 68.6702C330.121 69.5524 331.235 69.9192 332.066 69.7318C332.888 69.5462 333.447 68.7924 333.728 67.4913C334.094 65.8013 334.878 64.3837 336.058 63.2776C337.052 62.3463 338.123 61.8333 338.846 61.5672C339.707 61.2502 340.657 61.4281 341.326 62.0315C341.711 62.3787 341.934 62.7994 341.99 63.2818C342.057 63.858 341.877 64.51 341.455 65.2202Z" fill="#F7CD3C"/>
<path d="M340.916 64.8999C339.252 67.7006 338.626 70.9865 339.15 74.1529C339.505 76.2929 339.907 78.7183 339.545 81.2463C339.138 84.079 337.818 86.5794 335.507 88.8908C334.666 89.7319 333.717 90.3579 332.686 90.7519C331.732 91.116 330.683 91.2915 329.566 91.2732C327.712 91.243 325.626 90.6814 323.366 89.6047C321.543 88.7367 319.607 87.5342 317.609 86.0314C314.199 83.465 311.767 80.8791 311.742 80.8534L311.733 80.8434L307.068 76.6556C306.679 76.3064 306.45 75.827 306.421 75.3048C306.393 74.7831 306.57 74.2814 306.919 73.8924C307.268 73.5034 307.747 73.2736 308.269 73.2456C308.305 73.2433 308.341 73.2425 308.377 73.2425C308.86 73.2425 309.319 73.4182 309.681 73.7431L309.688 73.7495L314.751 77.7632C314.934 77.9077 315.176 77.955 315.399 77.8896C315.622 77.8245 315.801 77.6541 315.876 77.4343C315.972 77.1578 315.892 76.8545 315.672 76.6614C315.477 76.4891 315.025 76.0833 313.934 75.1028C312.56 73.8673 310.258 71.7996 306.197 68.1566C305.808 67.8074 305.579 67.3277 305.55 66.806C305.523 66.284 305.699 65.7824 306.048 65.3934C306.397 65.0044 306.877 64.7746 307.398 64.7464C307.92 64.7184 308.422 64.8951 308.81 65.2439L317.29 72.8558C317.422 72.9746 317.599 73.0285 317.775 73.004C317.951 72.9794 318.107 72.8788 318.201 72.728C318.359 72.4769 318.308 72.1424 318.083 71.95C317.903 71.7957 317.473 71.3646 316.05 69.936C314.668 68.5498 312.357 66.2293 308.399 62.2814C307.636 61.5185 307.636 60.2772 308.399 59.5143C308.768 59.1445 309.259 58.9411 309.782 58.9411C310.304 58.9411 310.796 59.1445 311.165 59.5143C315.264 63.6156 317.569 65.9201 318.946 67.2968C319.774 68.1257 320.231 68.5821 320.473 68.8251C320.619 68.9707 320.812 69.051 321.017 69.0512H321.018C321.223 69.0512 321.416 68.9711 321.561 68.826C321.833 68.5537 321.861 68.118 321.626 67.813L314.852 59.0295C314.533 58.6158 314.394 58.1023 314.461 57.5841C314.527 57.0657 314.792 56.6043 315.206 56.2849C315.619 55.9658 316.133 55.8268 316.651 55.8936C317.169 55.9604 317.63 56.2252 317.949 56.6391L325.133 65.9531C326.095 67.2004 327.317 68.3791 328.487 69.1868C329.333 69.771 330.51 70.4063 331.625 70.4061C331.821 70.4061 332.014 70.3866 332.204 70.3439C332.729 70.2253 333.176 69.9406 333.532 69.4976C333.899 69.0418 334.171 68.4114 334.341 67.6241C334.679 66.0611 335.401 64.753 336.487 63.7357C337.404 62.8761 338.394 62.4023 339.063 62.156C339.274 62.0782 339.492 62.0402 339.707 62.0402C340.146 62.0402 340.573 62.1978 340.906 62.4977C341.174 62.7397 341.329 63.0277 341.367 63.3541C341.417 63.7904 341.266 64.3105 340.916 64.8999ZM341.99 63.2818C341.934 62.7994 341.711 62.3787 341.326 62.0315C340.657 61.4281 339.707 61.2502 338.846 61.5672C338.123 61.8333 337.052 62.3463 336.058 63.2776C334.878 64.3837 334.094 65.8013 333.728 67.4913C333.447 68.7924 332.888 69.5462 332.066 69.7318C331.235 69.9192 330.121 69.5524 328.844 68.6702C327.725 67.898 326.553 66.7678 325.629 65.5699L318.446 56.2557C318.025 55.7093 317.416 55.3596 316.731 55.2711C316.047 55.183 315.369 55.3665 314.823 55.7883C314.276 56.2099 313.927 56.8191 313.838 57.5036C313.75 58.1882 313.934 58.8663 314.355 59.4129L321.129 68.1962C321.172 68.2522 321.167 68.3322 321.117 68.3824C321.081 68.4181 321.039 68.4237 321.018 68.4237C321.018 68.4237 321.018 68.4237 321.017 68.4237C320.996 68.4237 320.954 68.4181 320.918 68.3822C320.675 68.1385 320.218 67.6819 319.389 66.8531C318.012 65.4763 315.708 63.1721 311.609 59.0703C311.121 58.5824 310.472 58.3134 309.782 58.3134C309.092 58.3134 308.443 58.5824 307.955 59.0705C306.948 60.0779 306.948 61.7176 307.955 62.7256C311.913 66.6731 314.224 68.9929 315.605 70.3792C316.103 70.8787 316.478 71.2549 316.764 71.5408L309.229 64.7769C308.716 64.3159 308.054 64.0824 307.364 64.1197C306.675 64.1571 306.042 64.4607 305.581 64.9743C305.12 65.488 304.887 66.1505 304.924 66.8398C304.961 67.5291 305.265 68.1626 305.778 68.6238C309.839 72.2666 312.14 74.3341 313.515 75.5698C314.608 76.5515 315.06 76.9581 315.258 77.1323C315.285 77.1566 315.295 77.1948 315.283 77.2298C315.27 77.2684 315.24 77.2823 315.223 77.2872C315.206 77.2922 315.173 77.2966 315.141 77.2713L310.092 73.2693C309.58 72.8126 308.92 72.5818 308.235 72.619C307.546 72.6561 306.913 72.9595 306.452 73.4733C305.991 73.987 305.757 74.6497 305.795 75.3388C305.832 76.0281 306.135 76.6616 306.649 77.1226L311.294 81.2928C311.467 81.4755 313.882 84.0106 317.224 86.5266C319.255 88.0559 321.229 89.2815 323.091 90.1688C325.434 91.2859 327.609 91.8686 329.555 91.9007C329.612 91.9016 329.669 91.9022 329.726 91.9022C332.153 91.9022 334.247 91.0389 335.951 89.3345C338.361 86.9237 339.739 84.3073 340.166 81.3357C340.332 80.1761 340.358 78.9391 340.245 77.5545C340.143 76.3012 339.936 75.0531 339.769 74.05C339.269 71.0295 339.867 67.8938 341.455 65.2202C341.877 64.51 342.057 63.858 341.99 63.2818Z" fill="#D19119"/>
</g>
<path d="M331.148 61.5387C330.95 61.5387 330.78 61.3888 330.759 61.1874C330.659 60.2404 330.401 59.3298 329.993 58.4811C329.596 57.6545 329.065 56.9067 328.417 56.2581C327.769 55.6096 327.021 55.0792 326.195 54.6812C325.346 54.2731 324.436 54.0156 323.489 53.9156C323.274 53.893 323.118 53.7 323.14 53.4843C323.163 53.2691 323.356 53.1127 323.572 53.1355C324.608 53.2448 325.605 53.527 326.535 53.9745C327.441 54.4104 328.261 54.9923 328.972 55.7034C329.683 56.4146 330.264 57.2348 330.7 58.1412C331.147 59.071 331.429 60.0683 331.539 61.1051C331.561 61.3206 331.405 61.5136 331.19 61.5364C331.176 61.5379 331.162 61.5387 331.148 61.5387Z" fill="#FCFCFC"/>
<path d="M327.959 61.8321C327.763 61.8321 327.593 61.6842 327.57 61.4841C327.439 60.3368 326.951 59.3109 326.158 58.5177C325.365 57.7245 324.34 57.2362 323.193 57.1053C322.978 57.0806 322.823 56.8863 322.848 56.6711C322.872 56.4561 323.066 56.3011 323.281 56.3258C323.945 56.4015 324.579 56.5836 325.168 56.8671C325.743 57.1445 326.263 57.5134 326.713 57.963C327.162 58.4128 327.531 58.9329 327.808 59.5085C328.092 60.0972 328.274 60.732 328.349 61.3954C328.374 61.6104 328.219 61.8049 328.004 61.8294C327.989 61.8311 327.974 61.8321 327.959 61.8321Z" fill="#FCFCFC"/>
<path d="M307.033 85.6622C307.02 85.6622 307.006 85.6614 306.992 85.6599C305.955 85.5506 304.958 85.2684 304.029 84.8209C303.123 84.385 302.303 83.8031 301.592 83.0921C300.881 82.3808 300.299 81.5606 299.863 80.6542C299.416 79.7244 299.134 78.7271 299.025 77.6903C299.002 77.4748 299.158 77.2818 299.373 77.259C299.589 77.2366 299.782 77.3925 299.805 77.608C299.905 78.555 300.162 79.4656 300.57 80.3141C300.967 81.1407 301.498 81.8887 302.146 82.5373C302.795 83.1858 303.542 83.7164 304.369 84.114C305.217 84.5223 306.127 84.7798 307.074 84.8798C307.29 84.9026 307.446 85.0954 307.423 85.3109C307.402 85.5125 307.231 85.6622 307.033 85.6622Z" fill="#FCFCFC"/>
<path d="M307.327 82.472C307.312 82.472 307.297 82.4712 307.282 82.4693C306.619 82.3938 305.984 82.2117 305.396 81.9283C304.82 81.6506 304.3 81.2819 303.851 80.8323C303.401 80.3825 303.033 79.8627 302.755 79.2868C302.472 78.6981 302.29 78.0633 302.214 77.4C302.19 77.1847 302.344 76.9904 302.559 76.9659C302.775 76.9415 302.969 77.0959 302.994 77.3112C303.124 78.4586 303.612 79.4844 304.405 80.2776C305.198 81.0708 306.224 81.5591 307.371 81.69C307.586 81.7147 307.741 81.909 307.716 82.1242C307.693 82.3243 307.523 82.472 307.327 82.472Z" fill="#FCFCFC"/>
<path d="M382.5 21.3076L375.5 28.6922L368.5 21.3076" stroke="#FCFCFC" stroke-width="2" stroke-linecap="round" stroke-linejoin="round"/>
<defs>
<linearGradient id="paint0_linear_1107_7" x1="203.5" y1="7.62762e-05" x2="-139.76" y2="393.904" gradientUnits="userSpaceOnUse">
<stop stop-color="#000F1E"/>
<stop offset="1" stop-color="#BC4749" stop-opacity="0"/>
</linearGradient>
</defs>
</svg>
