<svg width="1176" height="321" viewBox="0 0 1176 321" fill="none" xmlns="http://www.w3.org/2000/svg">
<g clip-path="url(#clip0_674_5)">
<mask id="mask0_674_5" style="mask-type:luminance" maskUnits="userSpaceOnUse" x="-312" y="-177" width="1568" height="561">
<path d="M1255.53 -176.312H-311.446V383.409H1255.53V-176.312Z" fill="white"/>
</mask>
<g mask="url(#mask0_674_5)">
<path d="M777.447 252.62L782.173 253.615C782.919 253.771 783.727 253.926 784.629 254.175L787.489 255.077L790.754 256.134C791.873 256.569 792.992 257.098 794.205 257.595C795.417 258.093 796.692 258.622 797.936 259.275L801.791 261.327C803.128 262.011 804.434 262.819 805.74 263.659C807.046 264.499 808.445 265.338 809.75 266.302C812.362 268.23 815.129 270.158 817.679 272.521C820.228 274.885 822.809 277.061 825.358 279.362C827.907 281.663 830.239 284.213 832.54 286.701C834.841 289.189 837.048 291.676 839.193 294.071C843.391 298.921 847.184 303.586 850.448 307.504C853.713 311.422 856.387 314.811 858.345 317.081L861.454 320.688L860.957 321.155L857.661 317.765C856.604 316.708 855.361 315.371 853.93 313.847C852.5 312.324 850.821 310.738 849.205 308.686L837.483 295.688C835.307 293.324 833.068 290.899 830.768 288.473C828.467 286.048 826.011 283.685 823.617 281.29C821.223 278.896 818.673 276.595 816.093 274.48C814.787 273.423 813.606 272.273 812.269 271.371L808.413 268.417C807.17 267.453 805.802 266.644 804.558 265.742C803.348 264.869 802.092 264.059 800.796 263.317L797.096 261.171C795.915 260.456 794.671 259.959 793.521 259.368L790.194 257.782L787.085 256.6L784.349 255.512C783.51 255.201 782.67 255.014 781.924 254.797L777.354 253.429L777.447 252.62Z" fill="url(#paint0_linear_674_5)"/>
<path d="M949.535 62.2839L948.54 63.8698C947.856 64.9271 947.016 66.4818 945.99 68.4719C944.791 70.9097 943.752 73.4235 942.881 75.9971C941.831 79.3116 941.031 82.7002 940.487 86.1343C939.833 90.1656 939.48 94.24 939.43 98.3237C939.43 102.646 939.586 107.217 939.959 111.913C940.705 121.241 942.384 131.223 944.001 141.174C944.778 146.149 945.493 151.186 946.021 156.13C946.55 161.075 947.42 165.863 948.104 170.559C948.84 175.087 949.297 179.656 949.472 184.241C949.643 188.411 949.32 192.586 948.509 196.679C947.776 200.253 946.407 203.665 944.467 206.754C942.931 209.147 941.057 211.305 938.902 213.16C937.513 214.31 936.037 215.35 934.487 216.269L932.839 217.233L932.528 216.674L934.083 215.647C935.527 214.703 936.909 213.664 938.218 212.538C940.205 210.719 941.922 208.624 943.317 206.319C945.001 203.309 946.177 200.041 946.799 196.648C947.475 192.654 947.673 188.593 947.389 184.552C947.141 180.261 946.488 175.783 945.773 171.119C945.058 166.454 944.187 161.634 943.565 156.659C942.943 151.684 942.228 146.802 941.42 141.826C939.896 131.845 938.311 121.863 937.596 112.317C936.833 103.545 937.219 94.712 938.746 86.041C939.388 82.5241 940.334 79.0698 941.575 75.7172C942.544 73.1143 943.708 70.5884 945.058 68.161C945.555 67.1348 946.146 66.2642 946.612 65.4868C947.004 64.8328 947.429 64.1996 947.887 63.5899C948.571 62.5638 948.975 62.0352 948.975 62.0352L949.535 62.2839Z" fill="url(#paint1_linear_674_5)"/>
<path d="M917.729 223.764L925.875 224.728L935.202 225.847C938.808 226.314 942.881 226.811 947.296 227.557C951.711 228.304 956.468 229.236 961.442 230.449C962.686 230.76 963.899 231.133 965.173 231.475L967.101 232.035L968.096 232.315L969.029 232.657L972.791 234.056C974.065 234.523 975.34 234.989 976.615 235.58L984.325 238.938L988.212 240.649C989.517 241.239 990.854 241.675 992.191 242.203L996.202 243.696L1000.4 245.033C1003.2 245.904 1006.03 246.681 1008.82 247.521C1011.62 248.36 1014.48 249.107 1017.34 249.76L1021.6 250.786L1025.89 251.719C1028.72 252.372 1031.58 252.776 1034.38 253.305C1037.18 253.833 1039.98 254.144 1042.71 254.486C1045.45 254.828 1048.19 255.108 1050.89 255.201C1053.6 255.295 1056.18 255.574 1058.73 255.543H1062.52L1066.19 255.388C1067.37 255.388 1068.58 255.388 1069.73 255.388L1073.15 255.046L1076.45 254.704L1079.56 254.175L1082.51 253.709L1085.28 253.087C1087.08 252.651 1088.76 252.341 1090.28 251.843L1094.48 250.506C1095.62 250.18 1096.73 249.775 1097.81 249.293L1100.23 248.298L1102.28 247.49L1102.53 248.08L1100.54 249.013L1098.12 250.102C1097.04 250.637 1095.93 251.104 1094.79 251.501L1090.59 252.994C1089.04 253.522 1087.33 253.895 1085.53 254.424C1084.62 254.642 1083.72 254.953 1082.73 255.139L1079.62 255.73L1076.51 256.352L1073.18 256.787L1069.73 257.191C1068.55 257.191 1067.34 257.347 1066.09 257.44L1062.36 257.689H1058.51C1053.08 257.708 1047.65 257.428 1042.25 256.849C1039.48 256.538 1036.65 256.134 1033.79 255.73C1030.93 255.326 1028.04 254.797 1025.18 254.175L1020.86 253.273L1016.54 252.278C1013.64 251.625 1010.81 250.786 1007.92 250.039C1005.03 249.293 1002.2 248.391 999.435 247.49L995.238 246.121C993.839 245.624 992.502 245.095 991.134 244.567C989.766 244.038 988.367 243.54 987.061 242.95L983.144 241.208L975.558 237.819C974.331 237.237 973.075 236.718 971.796 236.264L968.065 234.834L967.132 234.461L966.23 234.181L964.365 233.59L960.727 232.502C955.846 231.196 951.182 230.138 946.799 229.392C942.415 228.646 938.435 227.899 934.86 227.309L925.533 225.847C922.952 225.474 920.962 225.101 919.563 224.852L917.48 224.51L917.729 223.764Z" fill="url(#paint2_linear_674_5)"/>
<path d="M914.837 221.742L916.889 221.524L919.377 221.276C920.371 221.276 921.429 220.871 922.672 220.654L924.6 220.28C925.284 220.28 925.968 219.876 926.683 219.659L928.953 218.943C929.73 218.695 930.507 218.29 931.315 217.948C932.124 217.606 932.932 217.264 933.772 216.829L936.259 215.367C936.697 215.131 937.123 214.872 937.534 214.59L938.777 213.688C939.586 213.035 940.487 212.507 941.264 211.76C944.774 208.723 947.72 205.092 949.97 201.032C952.447 196.573 954.15 191.726 955.007 186.697C955.885 181.394 956.032 175.995 955.442 170.652C954.851 165.148 954.043 159.613 953.297 154.016C951.535 142.924 950.931 131.68 951.493 120.464C951.851 115.198 952.768 109.986 954.229 104.916L954.478 104.014V103.796V103.516L954.634 103.081C954.82 102.49 955.038 101.931 955.224 101.371C955.66 100.22 955.97 99.1009 956.468 97.9814C957.399 95.8572 958.436 93.7815 959.577 91.7623C960.105 90.7672 960.603 89.8033 961.163 88.9015L962.842 86.2895C963.899 84.5481 965.111 83.1799 966.168 81.594C967.225 80.0082 968.345 78.8576 969.277 77.6449C970.21 76.4322 971.205 75.3438 972.075 74.3799C973.754 72.4208 975.185 70.9904 976.148 69.9954L977.641 68.4717L978.107 68.907C978.107 68.907 977.61 69.4356 976.708 70.4929C975.806 71.5501 974.469 73.0427 972.853 75.0329C972.044 76.0279 971.112 77.0852 970.21 78.329C969.308 79.5728 968.189 80.8477 967.101 82.3403C966.013 83.8329 964.987 85.4499 963.992 87.0669L962.406 89.6789C961.909 90.5807 961.442 91.5135 960.945 92.4775C959.888 94.3743 959.111 96.4577 958.178 98.6966C957.712 99.7539 957.432 100.936 957.028 102.055L956.468 103.796L956.312 104.232V104.418V104.636L956.095 105.538C954.807 110.465 953.995 115.505 953.67 120.588C953.223 131.596 953.911 142.62 955.722 153.487C956.437 159.053 957.214 164.682 957.774 170.217C958.333 175.795 958.124 181.424 957.152 186.946C956.232 192.241 954.345 197.322 951.587 201.934C949.164 206.161 946.005 209.921 942.259 213.035C939.077 215.641 935.512 217.739 931.688 219.254C930.818 219.565 930.041 219.938 929.232 220.187L926.869 220.809C926.123 221.027 925.408 221.244 924.693 221.4L922.703 221.711C921.429 221.897 920.278 222.177 919.314 222.208H916.827H914.744L914.837 221.742Z" fill="url(#paint3_linear_674_5)"/>
<path d="M884.12 236.264H885.767C886.824 236.264 888.41 236.264 890.431 236.699C891.426 236.854 892.545 236.948 893.727 237.165L897.582 237.974L901.872 239.124C903.365 239.653 904.981 240.151 906.536 240.773C909.952 242.105 913.294 243.621 916.547 245.312C919.998 247.085 923.574 249.075 927.149 251.314L938.218 258.031C940.083 259.15 942.011 260.269 943.938 261.358L946.861 262.975L949.97 264.436C950.467 264.685 950.965 264.965 951.493 265.183L953.017 265.805C954.012 266.209 955.007 266.675 956.126 267.048C958.209 267.764 960.292 268.541 962.344 269.07C964.396 269.598 966.603 270.096 968.562 270.531C969.619 270.749 970.707 270.873 971.671 271.029C972.699 271.222 973.737 271.357 974.78 271.433L977.889 271.713L980.999 271.868C983.051 272.024 985.071 271.868 987.03 271.868C988.989 271.868 990.916 271.713 992.751 271.588C994.585 271.464 996.388 271.308 998.098 271.06C1001.55 270.624 1004.69 270.127 1007.43 269.598L1011.31 268.821L1014.61 268.012C1016.6 267.577 1018.12 267.111 1019.21 266.831L1020.83 266.395L1020.98 267.048L1019.4 267.577C1018.34 267.888 1016.82 268.479 1014.83 269.007L1011.56 269.971L1007.64 270.935C1004.88 271.588 1001.71 272.272 998.316 272.77C996.575 273.081 994.741 273.236 992.875 273.485C991.01 273.734 989.051 273.796 987.03 273.92C985.009 274.045 982.957 274.107 980.812 273.92H977.703L974.594 273.641C973.5 273.578 972.41 273.453 971.329 273.267C970.241 273.267 969.122 272.988 968.034 272.801C965.857 272.366 963.619 271.993 961.442 271.34C959.266 270.687 957.059 270.065 954.882 269.318C953.794 268.945 952.737 268.479 951.773 268.043L950.156 267.39L948.633 266.675L945.524 265.12L942.415 263.472L936.663 260.052L925.657 253.211C922.113 251.003 918.661 248.888 915.304 246.992C912.17 245.24 908.942 243.662 905.634 242.265C904.08 241.581 902.525 241.083 901.126 240.524L896.991 239.187L893.26 238.223C892.11 237.943 891.053 237.787 890.151 237.601C888.224 237.165 886.638 237.072 885.581 236.917L883.964 236.699L884.12 236.264Z" fill="url(#paint4_linear_674_5)"/>
<path d="M865.279 241.892L866.18 240.897C866.771 240.213 867.641 239.249 868.667 237.974C869.693 236.699 870.968 235.114 872.243 233.248C872.896 232.315 873.58 231.289 874.202 230.138C874.823 228.988 875.507 227.868 876.16 226.655C877.419 223.987 878.458 221.221 879.269 218.384C880.156 215.225 880.801 212.002 881.197 208.744C881.643 205.267 881.913 201.77 882.005 198.265C882.161 194.627 882.316 190.958 882.441 187.288C882.565 183.619 882.783 179.95 883.094 176.312C883.405 172.674 883.653 169.129 883.933 165.677C884.213 162.225 884.679 158.898 885.021 155.726C885.363 152.555 885.798 149.507 886.14 146.833C886.482 144.159 886.98 141.547 887.353 139.339C887.726 137.131 888.068 135.172 888.348 133.555C888.939 130.446 889.25 128.549 889.25 128.549H889.934C889.934 128.549 889.716 130.383 889.374 133.586C889.187 135.203 888.97 137.131 888.721 139.37C888.503 141.609 888.161 144.128 887.882 146.864C887.602 149.601 887.384 152.586 887.104 155.757C887.104 157.312 886.825 158.867 886.669 160.577C886.669 161.417 886.669 162.256 886.451 163.096C886.234 163.936 886.451 164.806 886.451 165.646C886.234 169.098 886.016 172.642 885.767 176.25C885.519 179.857 885.363 183.526 885.208 187.195C885.052 190.864 884.866 194.534 884.71 198.141C884.587 201.733 884.254 205.315 883.715 208.869C883.242 212.247 882.472 215.576 881.415 218.819C880.423 221.748 879.185 224.588 877.715 227.309C876.435 229.604 874.98 231.798 873.362 233.87C871.932 235.735 870.595 237.259 869.445 238.503C868.294 239.747 867.362 240.649 866.74 241.27L865.745 242.234L865.279 241.892Z" fill="url(#paint5_linear_674_5)"/>
<path d="M896.183 231.599L897.52 230.697C897.955 230.387 898.452 230.013 899.043 229.516C899.713 228.999 900.356 228.449 900.971 227.868C902.685 226.312 904.209 224.559 905.51 222.644C907.159 220.195 908.476 217.54 909.427 214.745C910.52 211.471 911.219 208.079 911.511 204.639C911.824 200.802 911.887 196.948 911.697 193.103C911.697 189.123 911.169 184.987 910.733 180.665C910.298 176.342 909.956 172.144 909.614 167.853C909.272 163.562 909.148 159.24 908.992 154.949C908.837 150.657 908.992 146.491 908.992 142.51C908.992 140.489 909.241 138.468 909.396 136.478C909.552 134.488 909.832 132.591 910.08 130.725C910.603 127.193 911.33 123.694 912.257 120.246C913.004 117.3 913.96 114.411 915.117 111.601C915.677 110.357 916.143 109.176 916.641 108.119C917.138 107.061 917.667 106.097 918.133 105.227L918.755 103.983L919.408 102.957L920.465 101.309C920.993 100.407 921.304 99.9404 921.304 99.9404L921.864 100.251L921.118 101.651L920.216 103.33L919.625 104.387L919.066 105.631C918.661 106.502 918.226 107.497 917.729 108.523L916.423 112.037C915.925 113.249 915.584 114.649 915.148 116.048C914.713 117.447 914.34 119.158 913.967 120.557C913.173 123.962 912.571 127.408 912.163 130.881C911.759 134.55 911.48 138.437 911.355 142.448C911.231 146.459 911.355 150.657 911.355 154.886C911.355 159.115 911.79 163.407 912.101 167.667C912.412 171.927 912.692 176.218 913.096 180.447C913.5 184.676 913.78 188.843 913.936 192.885C914.081 196.84 913.925 200.801 913.469 204.733C913.053 208.324 912.208 211.853 910.951 215.243C909.865 218.167 908.368 220.92 906.505 223.421C905.046 225.332 903.377 227.074 901.53 228.614C900.753 229.236 900.069 229.796 899.416 230.231C898.889 230.627 898.339 230.99 897.768 231.319L896.4 232.159L896.183 231.599Z" fill="url(#paint6_linear_674_5)"/>
<path d="M928.362 217.109H930.196C931.962 216.918 933.737 216.835 935.513 216.86C936.632 216.86 937.876 216.86 939.212 216.86L943.565 217.202L948.446 217.886C950.156 218.228 951.929 218.57 953.794 219.005C957.463 219.907 961.411 220.996 965.484 222.426C969.557 223.856 973.785 225.536 978.107 227.308C986.688 230.977 995.642 235.268 1004.75 239.155C1009.29 241.114 1013.86 242.98 1018.46 244.566C1022.98 246.109 1027.59 247.355 1032.27 248.297C1033.39 248.546 1034.54 248.671 1035.66 248.857L1037.37 249.106L1039.04 249.293L1042.34 249.572H1045.61C1046.64 249.631 1047.68 249.631 1048.71 249.572C1049.74 249.572 1050.77 249.572 1051.82 249.386L1054.93 248.982L1056.36 248.795L1057.76 248.484C1059.56 248.138 1061.33 247.691 1063.08 247.147C1064.67 246.712 1066.24 246.183 1067.77 245.561C1069.2 244.97 1070.6 244.504 1071.81 243.882L1075.17 242.234C1076.08 241.795 1076.96 241.307 1077.82 240.772L1079.74 239.653L1081.36 238.72L1081.7 239.249L1080.15 240.275L1078.25 241.55C1077.5 242.016 1076.66 242.607 1075.64 243.136L1072.31 244.97C1071.1 245.623 1069.67 246.152 1068.24 246.836C1066.69 247.527 1065.1 248.129 1063.48 248.64C1061.7 249.266 1059.89 249.775 1058.04 250.163L1056.61 250.536L1055.12 250.785L1052.01 251.252C1050.98 251.407 1049.9 251.438 1048.9 251.563C1047.91 251.687 1046.69 251.749 1045.61 251.718C1040.97 251.799 1036.33 251.424 1031.77 250.599C1026.98 249.672 1022.25 248.426 1017.62 246.867C1012.93 245.312 1008.3 243.447 1003.66 241.519C994.554 237.538 985.631 233.154 977.143 229.422C972.884 227.619 968.78 225.815 964.707 224.354C960.634 222.892 956.872 221.68 953.297 220.685C951.493 220.218 949.752 219.845 948.104 219.441L943.316 218.57L939.088 218.041C937.782 218.041 936.57 218.041 935.482 217.824C933.274 217.637 931.502 217.824 930.32 217.824H928.486L928.362 217.109Z" fill="url(#paint7_linear_674_5)"/>
<path d="M837.235 247.956L838.323 248.547C839.007 248.951 840.064 249.48 841.432 250.288C842.8 251.097 844.261 252.03 846.033 253.18C847.806 254.331 849.733 255.668 851.816 257.191C856.013 260.301 860.801 263.815 865.931 267.671C868.512 269.567 871.186 271.527 873.922 273.454C876.658 275.382 879.487 277.31 882.41 279.052C885.275 280.844 888.244 282.463 891.302 283.903C894.239 285.349 897.298 286.536 900.442 287.447C903.387 288.354 906.42 288.949 909.49 289.22C910.916 289.358 912.348 289.42 913.78 289.407C915.179 289.407 916.547 289.407 917.853 289.158C920.225 288.825 922.572 288.337 924.88 287.696L927.74 286.763L930.134 285.768C931.595 285.209 932.652 284.587 933.43 284.245L934.611 283.654L934.922 284.214L933.772 284.898L932.435 285.706C931.823 286.076 931.19 286.408 930.538 286.701L928.144 287.852L925.222 289.002C922.869 289.844 920.444 290.469 917.977 290.868C916.641 291.055 915.21 291.21 913.749 291.303C912.237 291.396 910.722 291.396 909.21 291.303C905.979 291.158 902.775 290.636 899.665 289.749C893.079 287.822 886.799 284.975 881.01 281.291C878.057 279.487 875.228 277.528 872.461 275.569C869.693 273.61 867.051 271.558 864.501 269.567C859.433 265.618 854.863 261.762 850.79 258.622C846.717 255.481 843.391 252.869 840.903 251.19C839.691 250.319 838.696 249.666 838.043 249.231L837.017 248.547L837.235 247.956Z" fill="url(#paint8_linear_674_5)"/>
<path d="M810.279 249.261L811.305 248.702C812.298 248.193 813.263 247.633 814.196 247.022C814.865 246.615 815.508 246.169 816.124 245.685C816.777 245.126 817.523 244.597 818.238 243.913C819.02 243.225 819.767 242.499 820.477 241.736L821.503 240.43C821.814 239.933 822.125 239.435 822.467 238.938C823.81 236.743 824.855 234.38 825.576 231.91C826.351 229.135 826.984 226.323 827.472 223.483C828.001 220.374 828.467 217.264 829.12 214.154L829.369 212.973V212.32L829.524 211.729L830.115 209.397C830.519 207.811 830.892 206.287 831.358 204.67C831.825 203.053 832.384 201.561 832.913 199.944C833.162 199.166 833.41 198.358 833.69 197.612L834.623 195.31C835.214 193.818 835.804 192.201 836.426 190.833L838.416 186.542C839.691 183.712 841.214 181.1 842.551 178.612C843.235 177.337 843.95 176.156 844.634 175.005L846.655 171.678C847.93 169.532 849.298 167.698 850.417 166.018C851.536 164.339 852.594 162.909 853.526 161.758L856.293 158.12L856.822 158.493L854.397 162.318C853.62 163.531 852.625 164.961 851.63 166.703L850.013 169.47C849.422 170.434 848.8 171.429 848.21 172.58L846.375 175.907C845.722 177.088 845.038 178.27 844.448 179.545C843.235 182.064 841.836 184.676 840.655 187.505C840.033 188.874 839.38 190.304 838.758 191.734C838.136 193.165 837.608 194.657 837.048 196.15C836.737 196.896 836.457 197.643 836.178 198.389C835.898 199.135 835.68 199.913 835.4 200.659C834.934 202.183 834.436 203.768 833.939 205.23C833.442 206.691 833.1 208.34 832.664 209.925L832.074 212.289L831.918 212.879V213.408L831.669 214.559C831.079 217.668 830.457 220.778 829.866 223.887C829.301 226.813 828.553 229.7 827.628 232.532C826.758 235.132 825.557 237.609 824.052 239.902C823.679 240.43 823.337 240.959 822.964 241.456C822.591 241.954 822.187 242.389 821.783 242.825C821.032 243.639 820.232 244.408 819.389 245.126C818.58 245.81 817.741 246.307 817.026 246.836C816.355 247.315 815.648 247.741 814.911 248.111C813.916 248.69 812.877 249.189 811.802 249.603L810.714 250.07L810.279 249.261Z" fill="url(#paint9_linear_674_5)"/>
<path d="M836.457 246.121L839.908 243.012C842.147 241.084 845.318 238.285 849.049 234.896C850.915 233.185 852.904 231.351 854.894 229.267C856.96 227.112 858.911 224.849 860.739 222.488C862.68 219.985 864.407 217.322 865.9 214.528C866.316 213.836 866.69 213.119 867.02 212.382C867.399 211.664 867.741 210.927 868.046 210.175C868.688 208.723 869.31 207.2 869.911 205.604C871.186 202.494 872.492 199.384 873.922 196.43C875.352 193.476 876.875 190.522 878.461 187.755C879.981 185.093 881.663 182.528 883.498 180.074C884.368 178.892 885.27 177.773 886.14 176.685C887.011 175.596 887.882 174.632 888.783 173.575C890.398 171.878 892.122 170.289 893.944 168.817L896.245 167.045L898.328 165.677C899.541 164.806 900.629 164.34 901.437 163.904L902.494 163.313L902.805 163.904L901.81 164.557C901.157 165.024 900.162 165.583 899.012 166.485L897.084 167.947L894.939 169.844C893.447 171.212 891.83 172.953 890.182 174.694C889.343 175.627 888.597 176.654 887.726 177.804C886.856 178.955 886.078 179.981 885.301 181.162C883.715 183.526 882.192 186.075 880.637 188.781C879.083 191.486 877.715 194.378 876.347 197.332C874.979 200.286 873.704 203.334 872.461 206.412C871.87 207.936 871.217 209.522 870.533 211.045C870.222 211.854 869.787 212.6 869.445 213.346C869.103 214.093 868.699 214.87 868.263 215.616C866.651 218.51 864.789 221.257 862.698 223.826C860.794 226.244 858.716 228.52 856.48 230.635C854.366 232.688 852.283 234.491 850.262 236.139C848.241 237.787 846.5 239.249 844.883 240.493L840.655 243.602L836.955 246.432L836.457 246.121Z" fill="url(#paint10_linear_674_5)"/>
<path d="M871.248 239.155L872.554 238.502L874.077 237.725L875.041 237.227L876.067 236.574L878.461 235.082L881.073 232.998L883.747 230.324L885.021 228.769L885.674 227.93L886.234 227.028C887.956 224.453 889.307 221.647 890.244 218.694C891.271 215.397 892.061 212.03 892.607 208.619C893.229 205.075 893.664 201.374 894.131 197.581C894.597 193.787 895.157 189.931 895.748 186.075C896.338 182.219 897.053 178.395 897.924 174.601C898.755 170.853 899.867 167.173 901.251 163.593C901.92 161.856 902.698 160.163 903.582 158.524C904.018 157.747 904.515 156.97 904.981 156.192L905.697 155.073C905.945 154.7 906.225 154.358 906.505 154.016L908.091 151.932C908.65 151.31 909.241 150.688 909.832 150.098C910.939 148.979 912.123 147.94 913.376 146.988C915.558 145.26 917.925 143.779 920.434 142.572L922.019 141.764L923.543 141.173L926.248 140.054L930.103 138.872L931.471 138.468L931.626 139.09L926.59 141.018L924.009 142.23L922.517 142.914C922.019 143.163 921.553 143.474 921.024 143.785C918.695 145.084 916.488 146.593 914.433 148.294C913.278 149.258 912.187 150.296 911.169 151.404C910.671 151.994 910.112 152.585 909.614 153.207C909.117 153.829 908.65 154.513 908.184 155.166L907.438 156.192C907.251 156.565 907.033 156.939 906.816 157.312C906.598 157.685 905.945 158.773 905.572 159.551C904.857 161.136 904.018 162.66 903.427 164.402C902.113 167.87 901.073 171.436 900.318 175.067C899.51 178.768 898.888 182.561 898.297 186.386C897.706 190.211 897.084 194.036 896.556 197.798C896.027 201.561 895.561 205.323 894.877 208.962C894.3 212.49 893.394 215.956 892.172 219.316C891.081 222.414 889.564 225.344 887.664 228.023L887.011 228.956L886.265 229.796L884.866 231.444C883.84 232.408 882.845 233.278 881.757 234.087L878.927 236.108C878.026 236.668 877.124 237.103 876.378 237.569L875.259 238.16L874.264 238.596L872.678 239.249L871.372 239.808L871.248 239.155Z" fill="url(#paint11_linear_674_5)"/>
<path d="M844.79 244.846L846.22 244.598C847.561 244.316 848.923 244.149 850.293 244.1C851.327 244.014 852.367 244.014 853.402 244.1C854.546 244.111 855.688 244.194 856.822 244.349C858.109 244.483 859.387 244.701 860.646 245.002L862.698 245.468L864.781 246.09C867.817 247.057 870.787 248.221 873.673 249.573C876.782 250.941 879.891 252.682 883 254.268C886.109 255.854 889.529 257.689 892.949 259.244C894.659 260.052 896.432 260.767 898.204 261.42C899.976 262.073 901.872 262.789 903.707 263.286C905.541 263.784 907.375 264.468 909.241 264.934L912.039 265.649L914.837 266.271L917.635 266.831L920.434 267.235C922.299 267.577 924.165 267.702 925.968 267.857C929.487 268.105 933.019 268.105 936.539 267.857H937.813H939.026L941.451 267.546C943.037 267.266 944.56 267.049 945.99 266.675C948.944 266.054 951.618 265.369 954.012 264.841C956.406 264.312 958.489 263.784 960.23 263.442C961.971 263.099 963.339 262.913 964.272 262.789L965.702 262.602V263.255L964.303 263.535C963.37 263.721 962.033 264.001 960.323 264.468C958.613 264.934 956.561 265.463 954.105 266.147C951.649 266.831 949.099 267.671 946.115 268.386C944.653 268.79 943.006 269.07 941.42 269.412L938.995 269.816L937.689 270.003H936.414C932.773 270.316 929.112 270.316 925.47 270.003C923.605 270.003 921.677 269.754 919.781 269.443L916.92 269.039C915.957 269.039 914.993 268.697 914.029 268.51L911.138 267.919L908.277 267.204C906.349 266.769 904.453 266.147 902.556 265.587C900.66 265.027 898.857 264.281 897.022 263.628C895.188 262.975 893.354 262.167 891.612 261.327C888.099 259.679 884.804 257.907 881.601 256.165C878.399 254.424 875.383 252.745 872.274 251.283C869.506 249.868 866.65 248.632 863.724 247.583L861.734 246.899L859.776 246.37C858.582 246.022 857.367 245.752 856.138 245.562C855.049 245.348 853.949 245.203 852.842 245.126C851.911 245.053 850.975 245.053 850.044 245.126C848.704 245.099 847.363 245.172 846.033 245.344L844.603 245.499L844.79 244.846Z" fill="url(#paint12_linear_674_5)"/>
<path d="M806.579 251.438L807.947 251.936C809.258 252.376 810.545 252.885 811.802 253.46C813.764 254.324 815.674 255.3 817.523 256.383C819.929 257.762 822.254 259.278 824.487 260.923C829.4 264.468 834.779 269.039 840.717 273.547C843.746 275.846 846.935 277.925 850.262 279.767C851.941 280.762 853.713 281.57 855.516 282.41L858.314 283.467L859.713 283.996L861.143 284.4L863.973 285.239L866.926 285.861C867.89 286.079 868.885 286.203 869.88 286.328C870.875 286.452 871.839 286.639 872.834 286.701C874.823 286.701 876.813 287.012 878.772 286.981C879.767 286.981 880.731 286.981 881.726 286.981L884.617 286.825C886.545 286.825 888.441 286.483 890.276 286.328C892.11 286.172 893.944 285.892 895.716 285.581C899.23 285.022 902.556 284.369 905.603 283.685C908.65 283.001 911.48 282.348 913.967 281.757L920.403 280.109L925.999 278.678L926.154 279.331L920.62 281.104L914.402 283.063C911.946 283.809 909.148 284.617 906.07 285.395C902.992 286.172 899.665 286.95 896.09 287.634C894.317 287.976 892.483 288.225 890.586 288.567C888.69 288.909 886.762 289.033 884.804 289.157L881.695 289.344C880.669 289.344 879.674 289.344 878.585 289.344C876.565 289.344 874.513 289.344 872.367 289.126L869.258 288.784C868.213 288.683 867.174 288.517 866.149 288.287L863.04 287.696L859.931 286.825L858.408 286.39L857.008 285.83L854.117 284.68C852.254 283.847 850.437 282.913 848.676 281.881C845.278 279.909 842.026 277.695 838.945 275.258C832.975 270.593 827.876 265.929 823.119 262.167C819.363 259.142 815.323 256.486 811.056 254.237C809.533 253.429 808.227 252.869 807.388 252.496L806.051 251.905L806.579 251.438Z" fill="url(#paint13_linear_674_5)"/>
<path d="M824.674 247.178L825.669 246.525C826.291 246.09 827.317 245.53 828.436 244.659C828.965 244.224 829.617 243.789 830.27 243.229C830.923 242.669 831.607 242.047 832.322 241.363C833.852 239.814 835.237 238.128 836.457 236.326C837.895 234.193 839.094 231.91 840.033 229.516C841.091 226.847 841.984 224.116 842.707 221.338C843.515 218.446 844.199 215.429 844.976 212.32C845.754 209.21 846.562 206.101 847.122 202.991C847.681 199.882 848.272 196.772 848.832 193.662C849.391 190.553 850.013 187.443 850.666 184.334C851.842 178.816 853.756 173.482 856.356 168.475C858.251 164.828 860.926 161.643 864.19 159.146C864.695 158.725 865.236 158.351 865.807 158.027C866.203 157.757 866.619 157.518 867.051 157.312L868.139 156.752L868.419 157.343L867.424 157.965L866.274 158.742C865.838 159.084 865.341 159.457 864.812 159.924C863.516 161.011 862.348 162.242 861.33 163.593C860.022 165.329 858.877 167.182 857.91 169.128C855.627 174.084 853.977 179.308 852.998 184.676C851.785 190.522 850.915 196.865 849.702 203.333C849.111 206.443 848.21 209.552 847.433 212.662C846.655 215.771 845.847 218.881 844.976 221.711C843.554 227.273 841.154 232.538 837.888 237.258C836.526 239.125 834.962 240.835 833.224 242.358C832.447 243.011 831.669 243.602 830.985 244.131C830.301 244.659 829.555 245.095 828.965 245.499C828.023 246.114 827.047 246.675 826.042 247.178L824.985 247.738L824.674 247.178Z" fill="url(#paint14_linear_674_5)"/>
<path d="M858.563 243.167L859.838 243.012L861.392 242.825H862.387H866.18L869.289 243.074C871.731 243.357 874.144 243.845 876.502 244.535C877.808 244.909 879.114 245.375 880.482 245.81C881.85 246.246 883.249 246.837 884.617 247.427C887.446 248.578 890.338 249.884 893.322 251.221C896.307 252.558 899.541 253.802 902.65 254.859C905.907 255.941 909.276 256.65 912.692 256.974C913.532 256.974 914.402 256.974 915.304 257.191H917.977C919.719 257.191 921.46 257.191 923.232 257.191C926.714 257.191 930.165 256.974 933.492 256.569C936.819 256.165 940.021 255.761 943.037 255.139C946.053 254.517 948.913 253.802 951.524 253.056C952.799 252.682 954.043 252.247 955.224 251.874L958.52 250.661C960.572 249.822 962.344 249.075 963.774 248.36C965.204 247.645 966.293 247.085 967.07 246.681L968.22 246.059L968.562 246.619L967.443 247.334C966.697 247.8 965.64 248.516 964.334 249.262C963.028 250.008 961.225 250.941 959.111 251.936L955.815 253.335C954.634 253.802 953.39 254.268 952.084 254.704C949.441 255.574 946.581 256.445 943.503 257.16C940.287 257.936 937.027 258.517 933.74 258.902C930.255 259.364 926.747 259.633 923.232 259.71C921.46 259.71 919.656 259.71 917.822 259.71C916.92 259.71 916.019 259.71 915.148 259.71C914.278 259.71 913.345 259.71 912.412 259.524C908.815 259.147 905.27 258.376 901.841 257.222C898.484 256.103 895.343 254.673 892.328 253.335C889.312 251.998 886.514 250.537 883.809 249.293C882.441 248.64 881.104 248.111 879.798 247.552C878.492 246.992 877.217 246.557 876.005 246.152C873.743 245.426 871.438 244.844 869.103 244.411L865.994 243.976H863.475H862.387H861.392H859.838H858.532L858.563 243.167Z" fill="url(#paint15_linear_674_5)"/>
<path d="M917.822 220.342L918.102 219.472C918.257 218.881 918.63 218.041 918.879 216.984C919.035 216.424 919.159 215.865 919.345 215.212C919.532 214.559 919.594 213.843 919.719 213.097C919.982 211.409 920.138 209.706 920.185 207.997C920.291 205.998 920.291 203.995 920.185 201.996C920.185 199.85 919.781 197.611 919.532 195.279C918.863 190.332 918.52 185.346 918.506 180.353C918.506 178.985 918.506 177.804 918.755 176.498L918.941 174.539L919.221 172.611C919.604 170.093 920.219 167.615 921.055 165.21C921.826 162.933 922.815 160.735 924.009 158.649C925.086 156.76 926.313 154.961 927.678 153.269C928.836 151.855 930.082 150.516 931.409 149.258L933.088 147.734L934.58 146.49C935.451 145.744 936.259 145.278 936.725 144.873L937.503 144.345L937.907 144.842L937.192 145.464C936.756 145.9 936.072 146.459 935.233 147.268L933.896 148.574L932.372 150.191C931.315 151.372 930.196 152.741 929.077 154.264C927.921 155.943 926.882 157.698 925.968 159.519C924.937 161.514 924.084 163.595 923.418 165.738C922.69 168.031 922.159 170.383 921.833 172.766L921.584 174.601L921.397 176.404C921.397 177.617 921.242 178.985 921.211 180.167C921.211 182.655 921.211 185.111 921.397 187.568C921.584 190.024 921.802 192.45 921.988 194.813C922.175 197.176 922.361 199.477 922.392 201.685C922.447 203.761 922.375 205.838 922.175 207.904C922.006 209.674 921.715 211.43 921.304 213.159L920.713 215.336L920.092 217.14C919.791 217.97 919.438 218.78 919.035 219.565L918.661 220.436L917.822 220.342Z" fill="url(#paint16_linear_674_5)"/>
<path d="M1041.87 230.635L1020.98 234.709L1010.85 236.606C1007.24 237.228 1003.45 238.005 999.498 238.565L993.466 239.466L987.248 240.244C983.113 240.835 978.853 241.146 974.625 241.519C972.511 241.736 970.365 241.705 968.407 241.799H965.298H962.189C960.137 241.799 957.991 241.581 955.97 241.363L952.861 240.928L949.908 240.368C942.97 238.779 936.195 236.552 929.668 233.714C923.947 231.35 919.283 229.205 915.957 227.837L910.733 225.66L910.982 225.038L912.412 225.505C913.345 225.815 914.682 226.251 916.392 226.873C919.781 228.085 924.631 229.982 930.383 232.097C933.274 233.154 936.414 234.305 939.71 235.362C943.006 236.419 946.674 237.321 950.436 238.098L953.297 238.627L956.219 239C958.178 239.187 960.105 239.342 962.22 239.342H963.743H965.298H968.407C970.49 239.342 972.604 239.342 974.625 239C978.822 238.689 983.019 238.44 987.061 237.881L993.279 237.165L999.28 236.326L1010.6 234.647L1020.76 233.061C1033.36 231.071 1041.78 229.951 1041.78 229.951L1041.87 230.635Z" fill="url(#paint17_linear_674_5)"/>
<path d="M899.976 228.77L901.375 229.454C902.277 229.92 903.645 230.511 905.324 231.444C907.002 232.377 909.054 233.465 911.355 234.802C913.656 236.139 916.236 237.632 919.003 239.342L928.02 244.753C931.129 246.65 934.673 248.577 938.249 250.505C940.052 251.407 941.855 252.402 943.752 253.273C944.684 253.708 945.648 254.175 946.612 254.579L949.535 255.823C953.548 257.47 957.713 258.72 961.971 259.554C964.085 259.999 966.224 260.321 968.376 260.518H971.64C972.759 260.518 973.785 260.518 974.749 260.518C979.004 260.211 983.22 259.503 987.341 258.404C991.414 257.315 995.3 256.134 999 254.828C1002.7 253.522 1006.12 252.216 1009.29 250.972L1018.03 247.645C1020.64 246.681 1022.91 245.841 1024.81 245.219C1026.7 244.597 1028.23 244.131 1029.25 243.82L1030.81 243.353L1030.99 243.975L1029.44 244.535L1025.12 246.183C1021.42 247.613 1016.19 249.915 1009.88 252.589C1002.71 255.748 995.332 258.439 987.807 260.643C983.526 261.819 979.144 262.59 974.718 262.944C973.599 262.944 972.386 263.13 971.298 263.099H967.909C965.653 262.93 963.41 262.618 961.194 262.166C956.836 261.254 952.577 259.921 948.478 258.186L945.368 256.911L942.477 255.512C940.518 254.61 938.715 253.615 936.881 252.651C935.046 251.687 933.336 250.661 931.657 249.541L926.745 246.432L917.884 240.741L910.64 235.984C908.401 234.553 906.474 233.341 904.826 232.377C903.178 231.413 901.904 230.635 901.033 230.138L899.696 229.329L899.976 228.77Z" fill="url(#paint18_linear_674_5)"/>
<path d="M879.549 235.518L883.125 231.413C884.275 230.138 885.643 228.552 887.198 226.718C888.752 224.883 890.307 222.737 892.11 220.498C892.949 219.317 893.789 218.042 894.659 216.736L895.841 214.652L896.432 213.595C896.618 213.253 896.774 212.88 896.96 212.507C897.147 212.134 897.675 211.014 898.017 210.237C898.359 209.459 898.608 208.651 898.919 207.843C899.23 207.034 899.572 206.163 899.758 205.355C899.945 204.546 900.256 203.676 900.473 202.805C900.971 201.126 901.282 199.322 901.686 197.519C902.09 195.715 902.339 193.881 902.588 192.015C903.147 188.283 903.614 184.459 904.173 180.634C904.484 178.706 904.795 176.809 905.137 174.881C905.479 172.953 905.883 171.087 906.35 169.191C907.203 165.479 908.346 161.84 909.77 158.307C911.112 154.825 912.866 151.516 914.993 148.45C915.459 147.704 916.05 147.082 916.547 146.398C917.063 145.737 917.613 145.104 918.195 144.501L919.874 142.759L921.646 141.205C922.202 140.705 922.794 140.248 923.418 139.836L925.16 138.593C926.341 137.908 927.491 137.224 928.548 136.665L931.657 135.203L934.362 134.208L935.513 133.773L936.57 133.493L938.218 133.026L939.586 132.653L939.741 133.275L938.404 133.773L936.819 134.332C936.091 134.552 935.384 134.833 934.704 135.172C933.896 135.514 933.025 135.856 932.093 136.292L929.17 137.846C928.155 138.468 927.118 139.152 926.061 139.899L924.444 141.142C923.863 141.546 923.322 142.004 922.828 142.511L921.211 144.003L919.656 145.713C919.127 146.298 918.629 146.911 918.164 147.548C917.663 148.186 917.196 148.85 916.765 149.538C914.888 152.471 913.334 155.599 912.132 158.867C910.859 162.328 909.821 165.87 909.023 169.471C908.588 171.274 908.215 173.171 907.873 175.068C907.531 176.965 907.22 178.799 906.94 180.696C906.381 184.49 905.883 188.314 905.292 192.077C905.013 193.974 904.64 195.84 904.298 197.705C903.956 199.571 903.52 201.375 902.961 203.178C902.473 204.943 901.882 206.677 901.188 208.371C900.846 209.211 900.567 209.957 900.194 210.828L898.981 213.191L898.39 214.342L897.737 215.399L896.432 217.513C895.499 218.85 894.597 220.125 893.696 221.338C892.794 222.551 891.892 223.639 890.991 224.665L888.41 227.557L884.057 232.066C881.632 234.554 880.202 235.922 880.202 235.922L879.549 235.518Z" fill="url(#paint19_linear_674_5)"/>
<path d="M794.702 250.133L795.511 249.448L796.506 248.64C796.848 248.329 797.221 247.894 797.687 247.458L798.371 246.774L799.055 245.935C799.592 245.324 800.09 244.68 800.548 244.007L801.325 242.887C801.574 242.514 801.822 242.079 802.071 241.675C802.32 241.27 803.066 239.933 803.563 239C804.061 238.067 804.496 237.041 804.993 235.891C805.491 234.74 805.895 233.745 806.268 232.595C807.108 230.294 807.792 227.806 808.476 225.225C809.16 222.644 809.688 219.97 810.186 217.233C810.683 214.497 811.087 211.667 811.678 208.807C812.269 205.946 812.891 203.147 813.637 200.38C814.383 197.612 815.253 194.938 816.124 192.357C816.995 189.776 818.052 187.319 819.233 185.018C820.415 182.717 821.378 180.603 822.342 178.799C823.292 177.038 824.329 175.325 825.451 173.668L826.913 171.647L828.249 169.937C829.027 168.911 829.804 168.227 830.239 167.698L830.954 166.89L831.452 167.325L830.83 168.165C830.426 168.724 829.773 169.471 829.089 170.528L827.907 172.269C827.472 172.922 827.068 173.637 826.602 174.384C826.135 175.13 825.7 175.938 825.234 176.809C824.767 177.68 824.239 178.582 823.772 179.546C822.713 181.568 821.759 183.644 820.912 185.765C819.979 188.035 819.109 190.491 818.238 193.01C816.542 198.314 815.162 203.713 814.103 209.18C813.512 211.947 813.108 214.777 812.58 217.576C812.051 220.374 811.398 223.111 810.652 225.754C809.938 228.296 809.087 230.798 808.103 233.248C807.636 234.429 807.077 235.518 806.61 236.606C806.144 237.694 805.553 238.721 804.993 239.716C804.434 240.711 803.874 241.612 803.284 242.452L802.413 243.665C802.102 244.038 801.822 244.411 801.511 244.753C801.2 245.095 800.361 246.09 799.801 246.681L799.024 247.489L798.247 248.174C797.811 248.57 797.354 248.944 796.879 249.293L795.853 250.039L794.982 250.63L794.702 250.133Z" fill="url(#paint20_linear_674_5)"/>
<path d="M828.187 248.608L829.338 247.955L830.706 247.209C831.322 246.889 831.914 246.526 832.478 246.121L834.592 244.659C835.369 244.13 836.053 243.384 836.893 242.669C837.759 241.92 838.56 241.098 839.287 240.212C840.145 239.287 840.935 238.299 841.65 237.258C842.477 236.156 843.235 235.003 843.919 233.807C844.634 232.594 845.256 231.257 845.94 229.92C847.184 227.163 848.334 224.208 849.391 221.057C850.448 217.948 851.443 214.621 852.5 211.262C853.557 207.904 854.677 204.515 855.982 201.125C857.297 197.719 858.92 194.44 860.833 191.33C862.644 188.298 864.725 185.436 867.051 182.779C869.216 180.266 871.554 177.908 874.046 175.72C876.409 173.637 878.741 171.771 880.948 170.154C883.156 168.537 885.239 167.044 887.167 165.925C889.094 164.805 890.711 163.779 892.079 163.002C893.447 162.225 894.597 161.634 895.343 161.229L896.494 160.639L896.805 161.198L895.685 161.883L892.576 163.873C888.917 166.232 885.378 168.775 881.974 171.491C877.166 175.279 872.759 179.551 868.823 184.24C866.61 186.84 864.614 189.617 862.853 192.543C861.062 195.513 859.532 198.635 858.283 201.871C857.008 205.168 855.858 208.495 854.801 211.822C853.744 215.149 852.656 218.445 851.505 221.617C850.404 224.704 849.127 227.725 847.681 230.666C846.935 232.034 846.22 233.402 845.411 234.646C844.658 235.879 843.827 237.063 842.924 238.191C842.13 239.29 841.257 240.329 840.313 241.301C839.476 242.167 838.583 242.977 837.639 243.726C836.834 244.403 835.993 245.036 835.12 245.623L832.851 247.053C832.252 247.436 831.616 247.759 830.954 248.017L829.524 248.67L828.343 249.23L828.187 248.608Z" fill="url(#paint21_linear_674_5)"/>
<path d="M1059.88 21.2688H1056.95C1055.03 21.2688 1052.2 21.2688 1048.62 21.642C1046.85 21.642 1044.86 21.8596 1042.71 22.1084C1040.57 22.3572 1038.24 22.4505 1035.78 22.8858L1031.93 23.4144C1030.62 23.601 1029.28 23.9431 1027.91 24.1918C1026.55 24.4406 1025.12 24.7204 1023.69 25.0625L1019.33 26.2752L1017.06 26.8971L1014.83 27.7056L1010.22 29.3848L1005.59 31.5304C1004.85 31.9035 1003.97 32.2456 1003.29 32.6187L1000.96 33.9558C999.435 34.8887 997.85 35.7283 996.264 36.7544L991.725 39.864C990.948 40.3615 990.232 40.9834 989.486 41.5743L987.279 43.3467C986.533 43.9375 985.755 44.5283 985.04 45.1502L982.926 47.1404C977.065 52.5393 971.914 58.6625 967.598 65.3624C958.827 79.0959 953.043 94.5219 950.623 110.638C950.467 111.602 950.25 112.597 950.156 113.561L949.846 116.67C949.628 118.629 949.41 120.557 949.348 122.485C949.286 124.413 949.13 126.372 949.13 128.269C949.13 130.166 949.13 132.094 949.13 133.99C949.286 141.484 949.752 148.792 949.97 155.757C950.26 162.328 950.187 168.909 949.752 175.472C949.752 176.996 949.472 178.582 949.317 179.919C949.162 181.256 948.882 182.811 948.664 184.21C948.447 185.609 948.136 186.946 947.887 188.252C947.638 189.558 947.327 190.833 947.016 192.046C945.866 196.928 944.498 201.126 943.41 204.484C942.322 207.842 941.296 210.703 940.612 212.414C939.928 214.124 939.586 215.212 939.586 215.212L938.964 215.026C938.964 215.026 939.275 214.031 939.897 212.196C940.518 210.361 941.358 207.687 942.415 204.235C943.472 200.784 944.653 196.617 945.524 191.797C945.835 190.584 946.052 189.31 946.27 188.035C946.488 186.76 946.799 185.391 946.954 184.023C947.11 182.655 947.327 181.256 947.514 179.825C947.7 178.395 947.763 176.902 947.887 175.379C948.242 168.905 948.242 162.417 947.887 155.944C947.545 149.041 946.923 141.764 946.768 134.177C946.768 132.249 946.768 130.352 946.768 128.424C946.768 126.496 946.923 124.506 946.985 122.547C947.047 120.588 947.234 118.598 947.452 116.608L947.731 113.498C947.731 112.503 948.042 111.508 948.198 110.389C949.409 102.198 951.494 94.1608 954.416 86.4141C957.341 78.5776 961.126 71.0896 965.702 64.0875C970.168 57.2158 975.497 50.9456 981.558 45.4301C982.273 44.746 982.988 44.0619 983.735 43.4089C984.481 42.7559 985.258 42.1651 986.035 41.5432C987.59 40.3615 989.144 39.0866 990.637 37.9983L995.394 34.8887C996.979 33.8315 998.503 33.0541 1000.18 32.1523L1002.51 30.8463C1003.38 30.4109 1004.16 30.1 1004.97 29.7268L1009.73 27.6123L1014.48 25.9643L1016.78 25.1558L1019.08 24.565L1023.56 23.4144C1025.02 23.1035 1026.45 22.8547 1027.85 22.6059C1029.25 22.3572 1030.62 22.0773 1031.96 21.9218L1035.84 21.4865C1038.33 21.1444 1040.69 21.0512 1042.84 20.8646C1044.98 20.678 1047 20.6469 1048.81 20.5847C1052.41 20.4292 1055.21 20.5847 1057.14 20.5847H1059.88V21.2688Z" fill="url(#paint22_linear_674_5)"/>
<path d="M943.161 212.568L946.084 212.91C947.98 213.128 950.778 213.563 954.354 214.185C957.929 214.807 962.126 215.709 966.977 216.922C971.827 218.134 977.237 219.596 983.113 221.275C994.834 224.696 1008.39 229.049 1023.19 232.656C1030.79 234.539 1038.52 235.88 1046.32 236.667C1054.43 237.537 1062.62 237.317 1070.66 236.014C1078.79 234.674 1086.62 231.95 1093.83 227.961C1100.85 223.981 1107.25 218.994 1112.82 213.159C1113.54 212.504 1114.21 211.808 1114.84 211.076L1116.77 208.868L1120.6 204.515C1123.02 201.592 1125.23 198.606 1127.47 195.777L1133.53 187.163L1138.85 178.861C1141.96 173.481 1145.06 168.506 1147.61 164.028C1150.16 159.55 1152.31 155.663 1154.11 152.461L1159.77 142.354L1160.36 142.634L1155.04 152.896C1153.3 156.005 1151.28 160.141 1148.83 164.65C1146.37 169.159 1143.54 174.227 1140.34 179.7L1135.12 188.127L1129.15 196.927C1126.91 199.819 1124.7 202.898 1122.28 205.883L1118.51 210.298L1116.59 212.537C1115.9 213.346 1115.19 213.968 1114.47 214.714C1108.76 220.769 1102.18 225.945 1094.95 230.075C1087.49 234.252 1079.37 237.123 1070.94 238.564C1062.71 239.839 1054.35 240.028 1046.07 239.124C1038.17 238.268 1030.34 236.865 1022.63 234.926C1015.17 233.091 1008.08 230.946 1001.39 228.862L982.74 222.954C976.926 221.182 971.578 219.534 966.79 218.259C962.002 216.984 957.805 215.958 954.354 215.149C950.903 214.341 948.136 213.905 946.208 213.657L943.285 213.19L943.161 212.568Z" fill="url(#paint23_linear_674_5)"/>
<path d="M927.305 221.338L938.062 224.448C941.482 225.411 945.648 226.593 950.498 228.117C955.349 229.64 960.572 231.226 966.324 233.185C972.075 235.144 978.356 237.228 984.978 239.56C991.6 241.892 998.472 244.411 1005.59 246.899C1012.94 249.472 1020.51 251.386 1028.19 252.62C1036.2 253.864 1044.35 253.864 1052.35 252.62C1056.42 252.01 1060.42 251.042 1064.32 249.728L1067.43 248.795L1068.92 248.298L1070.35 247.738L1076.11 245.499C1083.52 242.287 1090.71 238.578 1097.62 234.398C1104.4 230.325 1110.68 225.971 1116.59 221.742C1122.49 217.513 1127.87 213.222 1132.75 209.304C1137.63 205.386 1142.08 201.53 1146.06 198.172L1156.2 189.465L1165.03 181.815L1165.46 182.313L1156.88 190.211L1146.96 199.198C1143.11 202.649 1138.72 206.505 1133.84 210.61C1128.96 214.715 1123.58 219.037 1117.77 223.484C1111.95 227.93 1105.61 232.346 1098.77 236.481C1091.78 240.763 1084.51 244.575 1077.01 247.894L1071.13 250.226L1069.64 250.785L1068.15 251.283L1065.04 252.247C1060.99 253.648 1056.83 254.689 1052.6 255.357C1044.35 256.568 1035.96 256.494 1027.73 255.139C1019.92 253.837 1012.24 251.85 1004.78 249.2C997.57 246.681 990.761 244.038 984.232 241.612C977.703 239.187 971.516 237.01 965.826 234.927C962.966 233.869 960.199 232.968 957.587 232.066L950.156 229.516C945.493 227.868 941.389 226.593 938 225.536L927.367 222.115L927.305 221.338Z" fill="url(#paint24_linear_674_5)"/>
<path d="M923.792 221.898L925.066 219.566C925.502 218.788 926.03 217.855 926.559 216.705C927.087 215.554 927.771 214.31 928.393 212.818C929.956 209.284 931.275 205.648 932.341 201.934C933.662 197.166 934.598 192.3 935.14 187.382C935.761 181.589 935.979 175.76 935.793 169.937C935.793 163.718 935.077 157.281 934.704 150.502C934.331 143.723 934.051 136.727 934.083 129.575C934.067 122.304 934.451 115.037 935.233 107.808C936.873 93.2544 941.183 79.1285 947.949 66.1398C948.695 64.5539 949.628 63.0302 950.498 61.5687C950.965 60.8225 951.4 60.0762 951.835 59.3299C952.271 58.5836 952.24 58.6147 952.519 58.2104L953.266 57.1843C955.193 54.4168 956.965 51.6493 959.048 49.0994L962.002 45.3058C962.997 44.0619 964.054 42.9425 965.111 41.7609L968.22 38.3714L971.174 35.2619L974.034 32.1523C975.008 31.2194 975.941 30.2866 976.832 29.3537C978.667 27.5501 980.408 25.8399 982.087 24.2851C985.413 21.1756 988.305 18.4391 990.792 16.2314C993.279 14.0236 995.176 12.3133 996.513 11.1317L998.534 9.32812L998.969 9.79456L991.507 16.9466C989.144 19.2165 986.253 21.9841 983.019 25.218C981.403 26.835 979.724 28.5763 977.952 30.4421L975.216 33.2717L972.449 36.3813L969.557 39.4909L966.728 42.9114C965.764 44.0619 964.738 45.2125 963.805 46.4563L960.976 50.1878C958.986 52.6754 957.245 55.5051 955.349 58.3037L954.665 59.361C954.433 59.6982 954.225 60.0515 954.043 60.4182L952.737 62.5949C951.898 64.0564 950.996 65.5179 950.25 67.0727C943.626 79.842 939.42 93.7265 937.845 108.026C937.02 115.159 936.594 122.332 936.57 129.513C936.57 136.602 936.725 143.599 937.067 150.347C937.409 157.094 937.845 163.625 937.876 169.875C937.955 175.788 937.622 181.701 936.881 187.568C935.77 196.493 933.218 205.177 929.326 213.284C928.673 214.777 927.927 216.052 927.336 217.202C926.745 218.353 926.185 219.255 925.75 220.001L924.351 222.302L923.792 221.898Z" fill="url(#paint25_linear_674_5)"/>
<path d="M761.093 251.936C761.093 251.936 766.659 251.936 776.359 251.345C781.209 251.065 787.116 250.692 793.832 250.008C800.548 249.324 808.196 248.422 816.435 247.209C824.674 245.996 833.628 244.411 843.018 242.514C852.407 240.617 862.263 238.098 872.398 235.424C882.534 232.75 892.825 229.205 903.209 225.567C905.821 224.696 908.433 223.701 911.013 222.706L918.817 219.596L926.559 216.487L930.445 214.839L934.269 213.066L941.949 209.583L949.504 205.852C954.54 203.458 959.422 200.721 964.303 198.078C966.759 196.803 969.122 195.373 971.485 193.973L978.604 189.838C983.237 187.008 987.745 184.085 992.222 181.255L1005.06 172.393L1017.06 163.5L1028.07 154.606C1031.61 151.746 1034.91 148.76 1038.11 145.993C1039.7 144.594 1041.22 143.288 1042.81 141.857L1047.13 137.784C1049.96 135.141 1052.69 132.684 1055.15 130.227L1061.93 123.355C1064.01 121.21 1066 119.313 1067.65 117.447C1070.94 113.747 1073.62 110.917 1075.42 108.927L1078.19 105.817L1079.49 106.812L1076.91 109.922C1075.2 111.974 1072.78 115.053 1069.58 118.878C1068.02 120.837 1066.13 122.858 1064.14 125.097L1057.61 132.373C1055.27 134.954 1052.6 137.535 1049.9 140.365C1047.19 143.194 1044.27 146.086 1041.1 148.978C1037.93 151.87 1034.69 155.011 1031.21 158.058L1020.27 167.387L1008.3 176.715C1004.13 179.825 999.777 182.934 995.394 186.044C991.01 189.154 986.346 192.014 981.651 194.969L974.501 199.291C972.107 200.721 969.713 202.183 967.225 203.52C962.251 206.194 957.307 209.024 952.177 211.511L944.498 215.336L936.694 218.912L932.808 220.685L928.859 222.333L920.962 225.629L913.003 228.738C910.36 229.733 907.717 230.76 905.075 231.63L897.147 234.367L889.25 236.792C883.995 238.471 878.772 239.902 873.704 241.239C863.382 243.851 853.371 246.09 843.826 247.769C834.281 249.448 825.171 250.878 816.839 251.718C812.642 252.216 808.631 252.526 804.807 252.869C800.983 253.211 797.345 253.397 793.956 253.553C787.147 253.895 781.209 253.988 776.328 254.019C771.446 254.05 767.654 254.019 765.042 253.833L761.062 253.677L761.093 251.936Z" fill="url(#paint26_linear_674_5)"/>
<path d="M1138.13 161.043L1137.07 161.448L1135.61 162.007L1134.62 162.349H1134.06L1127.84 164.308C1126.47 164.774 1125.08 165.168 1123.67 165.49L1121.72 165.988L1119.54 166.516C1118.23 166.858 1116.9 167.2 1115.56 167.449H1114.88C1110.96 168.226 1107.26 169.004 1103.56 169.47L1101.54 169.781L1097.81 170.341L1095.57 170.59L1092.46 170.994C1089.6 171.336 1086.89 171.585 1084.28 171.802L1082.35 171.989C1078.25 172.362 1074.52 172.611 1071.53 172.798L1067.24 173.108C1063.64 173.357 1061.55 173.451 1061.52 173.451V173.326L1067.21 172.455L1082.26 170.341L1086.12 169.781C1088.11 169.533 1090.16 169.222 1092.33 168.911C1096.22 168.32 1099.73 167.76 1103.47 167.076C1106.23 166.641 1108.97 166.05 1111.89 165.459L1115.31 164.744C1116.62 164.495 1117.89 164.153 1119.17 163.811L1121.34 163.251L1124.45 162.474C1125.5 162.247 1126.54 161.956 1127.56 161.603L1133.56 159.737H1134.06L1134.99 159.426L1136.48 158.867L1137.51 158.462L1139.38 157.747L1140.21 157.374L1140.62 157.188C1146.95 145.343 1152.18 132.947 1156.26 120.153L1155.64 120.712C1155.11 121.179 1154.58 121.676 1154.02 122.112L1151.35 124.195C1150.15 125.172 1148.9 126.085 1147.61 126.932L1145.84 128.175C1144.63 128.984 1143.35 129.761 1142.14 130.508L1140.12 131.751L1138.16 132.84C1136.89 133.555 1135.55 134.301 1134.21 134.954C1129.95 137.131 1126.1 138.934 1122.43 140.427L1121.25 140.893C1119.69 141.546 1118.14 142.137 1116.68 142.666C1115.22 143.195 1112.92 144.003 1111.08 144.532C1109.25 145.06 1107.38 145.713 1105.73 146.149C1104.09 146.584 1102.35 147.113 1100.73 147.486C1097.62 148.294 1094.51 148.854 1091.84 149.351L1088.11 149.973L1085.99 150.222H1084.94C1083.54 150.44 1082.35 150.502 1081.42 150.564H1080.49H1078.75V149.6L1080.46 149.383H1081.3C1082.23 149.383 1083.44 149.103 1084.84 148.854L1085.87 148.667L1087.86 148.45L1091.53 147.672C1094.04 147.081 1097 146.366 1100.23 145.464C1101.82 145.06 1103.34 144.532 1105.11 144.003C1106.76 143.505 1108.38 142.946 1110.34 142.262C1112.29 141.578 1113.94 140.956 1115.81 140.24C1117.67 139.525 1119.35 138.841 1121.44 137.939C1125.01 136.447 1128.77 134.83 1132.94 132.498L1136.76 130.383L1138.66 129.295L1140.65 128.051C1141.83 127.305 1143.04 126.558 1144.23 125.75L1146 124.537C1147.21 123.729 1148.45 122.889 1149.6 121.956L1152.22 119.935L1153.8 118.598L1154.67 117.821C1155.73 116.919 1156.79 115.986 1157.78 115.084C1159.46 109.705 1160.89 104.138 1162.41 98.479L1160.14 99.443L1159.18 99.8783C1158.09 100.376 1156.97 100.873 1155.88 101.495L1153.68 102.646L1152.34 103.454L1151.53 103.921C1148.54 105.697 1145.66 107.638 1142.89 109.736L1138.69 113.063L1132.94 117.945L1126.19 123.666C1123.49 125.905 1120.72 128.206 1117.95 130.165L1115.9 131.658L1113.79 133.057C1112.67 133.804 1111.52 134.457 1110.43 135.11C1110.16 135.236 1109.9 135.381 1109.65 135.545C1107.23 136.913 1104.65 138.219 1101.76 139.525C1098.86 140.831 1096.94 141.609 1094.88 142.386C1092.83 143.163 1091.78 143.474 1090.56 143.91L1089.47 144.283L1086.89 145.122L1085.99 145.402L1084.62 145.838L1084.44 145.247L1085.81 144.78L1086.77 144.438L1089.26 143.537L1090.31 143.132C1091.59 142.666 1092.99 142.137 1094.54 141.484C1096.1 140.831 1098.43 139.836 1101.29 138.375C1104.15 136.913 1106.67 135.669 1109.03 134.27L1109.78 133.835C1110.86 133.182 1111.98 132.529 1113.04 131.751L1115.09 130.383L1117.11 128.891C1119.82 126.932 1122.37 124.786 1125.1 122.671H1125.29L1133.53 115.582L1137.6 111.943L1141.89 108.616C1144.71 106.494 1147.65 104.532 1150.69 102.739L1151.47 102.273L1152.93 101.433L1155.14 100.314C1156.29 99.6917 1157.47 99.1942 1158.62 98.6967L1159.52 98.2925C1160.36 97.9504 1161.23 97.5772 1162.26 97.2041H1160.89C1159.62 97.1256 1158.34 97.1256 1157.07 97.2041C1155.41 97.2697 1153.76 97.4359 1152.12 97.7016C1147.98 98.4288 1143.96 99.7046 1140.15 101.495C1135.73 103.563 1131.47 105.964 1127.41 108.678C1123.61 111.135 1119.97 113.716 1116.43 116.204L1115.25 117.043C1113.38 118.38 1111.49 119.686 1109.65 120.93C1107.82 122.174 1105.98 123.324 1104.49 124.226C1101.16 126.216 1098.27 127.585 1096.38 128.486L1093.08 129.979L1092.8 129.326L1095.91 127.709L1098.02 126.589L1099.39 125.843L1103.78 123.231C1105.3 122.236 1106.89 121.117 1108.81 119.842L1115.84 114.618C1119.32 112.13 1122.93 109.518 1126.72 107.061C1130.86 104.326 1135.21 101.914 1139.72 99.8472C1143.67 98.0616 1147.86 96.8371 1152.15 96.209C1155.14 95.7682 1158.18 95.7682 1161.17 96.209L1162.97 96.52C1168.3 73.8968 1172 50.9204 1174.04 27.7676L1173.42 28.3273L1173.2 28.7627L1172.67 29.7888L1169.75 35.3549C1168.69 37.4383 1167.67 39.3352 1166.64 41.1076L1159.8 53.0483L1158.56 55.225C1157.84 56.531 1157.07 57.8682 1156.26 59.1742L1152.43 65.1756L1144.72 77.1163L1140.59 82.8068C1139.69 84.0196 1138.72 85.1701 1137.79 86.2896L1136.27 88.1242C1135.18 89.4924 1134 90.7362 1132.85 91.949L1131.79 93.0684L1129.58 95.3695L1127.28 97.5462C1124.82 99.9405 1122.4 102.024 1120.01 104.014L1118.58 105.258L1117.46 106.129C1115.09 107.994 1112.85 109.767 1110.77 111.259L1108.32 113.063L1104.65 115.675L1099.08 119.5L1098.68 118.909L1104.15 114.991C1105.24 114.213 1106.42 113.312 1107.79 112.254L1110.18 110.451C1111.24 109.673 1112.29 108.803 1113.29 107.901L1113.69 107.59C1114.19 107.155 1114.72 106.75 1115.28 106.315L1117.67 104.356L1119.1 103.112C1121.44 101.091 1123.83 99.0077 1126.22 96.5822L1128.46 94.4366L1130.64 92.1044L1131.94 90.674C1133 89.5857 1134.06 88.4351 1135.05 87.2224L1136.55 85.3878C1137.48 84.2994 1138.44 83.1489 1139.31 81.9673L1143.35 76.3389L1145.34 73.2294L1150.91 64.4915L1154.8 58.2724C1155.6 56.9975 1156.38 55.6604 1157.1 54.3544C1157.53 53.6392 1157.94 52.924 1158.34 52.2088L1165.21 40.3613L1166.86 37.4694L1170.43 30.7839L1169.47 31.6546L1167.36 33.5203C1165.86 34.8263 1164.25 36.1634 1162.79 37.5938C1160.55 39.6461 1158.28 41.8228 1155.92 44.1239L1155.57 44.4659L1154.27 45.772C1153.49 46.5494 1152.68 47.3578 1151.94 48.1663L1148.27 52.0533L1144.69 56.1268L1141.27 60.3869L1138.16 64.6781L1136.14 67.6011L1135.08 69.187C1133.13 72.1411 1131.2 75.1884 1129.39 78.0803C1126.11 83.5495 1122.4 88.7485 1118.3 93.6281C1116.58 95.6486 1114.72 97.5402 1112.73 99.2875C1111.77 100.127 1110.99 100.78 1110.24 101.34C1109.5 101.9 1108.75 102.49 1108 102.988C1107.01 103.695 1105.97 104.339 1104.9 104.916L1103.74 105.6L1103.06 104.543L1105.52 102.708L1107.16 101.371C1107.85 100.842 1108.53 100.189 1109.12 99.6296C1109.91 98.9579 1110.66 98.2415 1111.36 97.484C1112.94 95.7334 1114.44 93.907 1115.84 92.0111C1117.55 89.8034 1119.26 87.2224 1120.81 84.797C1122.37 82.3715 1123.43 80.5679 1124.79 78.2358L1125.94 76.3389L1127.28 74.0379C1128.62 71.799 1129.99 69.4979 1131.51 67.1657L1132.6 65.5488C1133.22 64.5848 1133.87 63.5897 1134.56 62.4392L1137.94 57.8682L1141.52 53.5148L1145.22 49.348C1147.55 46.8603 1150.07 44.3727 1152.9 41.6984C1155.73 39.0242 1158.03 37.0341 1160.52 35.0129C1162.35 33.3959 1164.19 31.9033 1165.96 30.5973L1167.54 29.3846C1169.41 27.9231 1171.34 26.275 1173.76 24.7202L1174.38 23.5386C1175.07 15.858 1175.66 7.9908 1176.09 -0.15625L1171.9 1.18086C1166.12 15.2312 1158.46 28.4325 1149.14 40.4235C1137.6 54.7897 1118.95 71.0838 1101.07 74.1001H1100.92L1100.73 72.5453H1100.88C1118.14 69.4357 1136.45 53.6081 1147.8 39.615C1156.79 28.1073 1164.2 15.4414 1169.81 1.95825C1165.3 3.38865 1160.73 5.06782 1156.32 6.37384L1155.36 6.71588C1155.08 7.33779 1154.8 8.08408 1154.42 8.83038C1154.05 9.57667 1153.8 10.2608 1153.49 11.0071L1152.37 13.2771C1151.84 14.3654 1151.25 15.4848 1150.63 16.6354L1149.85 18.0969C1148.98 19.6517 1148.02 21.4241 1146.99 23.1655L1146.4 24.1294C1145.59 25.4976 1144.72 26.8969 1143.82 28.2962C1142.92 29.6955 1141.61 31.6857 1140.53 33.3026C1139.81 34.3599 1139.06 35.386 1138.35 36.4122L1137.14 38.0603L1136.05 39.4595C1135.27 40.4857 1134.56 41.4497 1133.81 42.3514L1132.78 43.5953C1132.04 44.497 1131.32 45.3366 1130.61 46.0829C1130.42 46.3317 1130.2 46.5494 1130.02 46.767C1129.24 47.6066 1128.49 48.4462 1127.78 49.0992L1126.88 49.9699C1126.42 50.4509 1125.95 50.9076 1125.45 51.3381L1123.3 53.1416C1123.24 53.1719 1123.17 53.1877 1123.1 53.1877C1123.03 53.1877 1122.96 53.1719 1122.9 53.1416C1122.82 53.1443 1122.75 53.1286 1122.69 53.096C1122.62 53.0634 1122.57 53.0149 1122.52 52.9551C1122.43 52.856 1122.37 52.7218 1122.37 52.5819C1122.37 52.442 1122.43 52.3079 1122.52 52.2088L1124.54 50.3119C1125.02 49.898 1125.47 49.4512 1125.88 48.9748L1126.72 48.073C1127.37 47.3889 1128.06 46.5494 1128.77 45.6787C1128.96 45.461 1129.15 45.2123 1129.36 44.9946C1130.02 44.2172 1130.67 43.3465 1131.35 42.4447L1132.32 41.1698C1133 40.268 1133.65 39.3041 1134.37 38.2779L1135.4 36.7853L1136.48 35.1373C1137.17 34.1111 1137.85 33.0539 1138.5 32.0277C1139.53 30.3485 1140.56 28.6694 1141.61 26.9591C1142.67 25.2489 1143.17 24.1605 1143.91 22.7923L1144.44 21.7973C1145.34 20.1181 1146.15 18.47 1146.96 16.8531C1147.21 16.3244 1147.43 15.8269 1147.68 15.3294C1148.2 14.1788 1148.73 13.0905 1149.17 12.0332L1150.13 9.79435L1150.72 8.27066C1146.12 9.79434 1140.12 11.7534 1134.12 13.5569L1131.54 20.6467C1131.26 21.4241 1130.95 22.1704 1130.61 22.9789L1130.05 24.316C1128.99 26.8658 1127.84 29.6022 1126.6 32.4941V32.7429L1125.76 34.733C1125.54 35.2306 1125.32 35.7281 1125.07 36.1945L1124.7 37.003C1124.55 37.3438 1124.39 37.676 1124.2 37.9981C1123.64 39.1797 1123.05 40.3924 1122.4 41.5741C1120.72 44.6836 1118.92 47.7932 1116.96 50.9027L1115.87 52.4886C1115.19 53.4837 1114.5 54.5098 1113.79 55.5982C1113.38 56.0646 1113.01 56.5621 1112.61 57.0597L1110.27 60.1692L1106.51 64.0562L1102.35 67.9431C1101.35 68.7827 1100.33 69.5601 1099.24 70.3375L1097.96 71.3015C1096.94 72.0478 1095.94 72.7008 1094.85 73.3227L1093.27 74.3177C1092.15 75.0019 1091.03 75.6237 1089.91 76.2146L1088.7 76.8676C1087.73 77.3651 1086.74 77.8004 1085.77 78.2358L1084.19 78.951C1083.26 79.4174 1082.29 79.7595 1081.36 80.1326L1079.84 80.6923C1078.53 81.2521 1077.22 81.6874 1075.98 82.0917H1075.73C1073.68 82.8069 1071.69 83.3666 1069.95 83.8952L1068.49 84.2994L1062.86 85.792L1057.79 87.0047L1057.58 86.0719L1062.43 84.5482L1067.93 82.7447L1069.95 82.0294C1071.57 81.4697 1073.21 80.8789 1075.02 80.1948H1075.3C1076.48 79.7284 1077.72 79.2619 1079 78.7022L1080.43 78.0803C1081.33 77.7072 1082.26 77.334 1083.16 76.8676L1084.66 76.1213C1085.59 75.6548 1086.55 75.1884 1087.48 74.6598L1089.26 73.6647L1091.81 72.141L1093.36 71.1149C1094.26 70.493 1095.23 69.8711 1096.07 69.218L1100.29 65.8286L1103.84 62.4703L1104.18 62.1594L1107.85 58.1169L1111.24 53.8568C1111.95 52.924 1112.61 51.96 1113.26 50.996L1114.38 49.4102C1114.97 48.5395 1115.53 47.6066 1116.09 46.7048L1117.21 44.9013C1117.83 43.9684 1118.36 42.9734 1118.89 42.0405L1119.82 40.3924C1120.35 39.4907 1120.81 38.5578 1121.28 37.656L1122.18 35.9458L1122.59 35.1684C1122.83 34.7019 1123.08 34.2355 1123.27 33.8002L1128.03 23.5386L1128.49 22.5746C1116.06 43.191 1093.64 59.3919 1073.8 73.758C1065.29 79.9771 1057.23 85.7609 1050.08 91.7624L1049.06 90.5496C1056.24 84.5482 1064.29 78.7022 1072.84 72.5142C1094.98 56.4689 1120.04 38.309 1131.01 14.3654C1121.58 17.186 1111.97 19.3881 1102.25 20.9577C1098.62 21.5174 1095.04 22.1082 1091.28 22.7612C1090.75 23.7874 1090.16 25.0001 1089.54 26.2439C1088.01 29.1047 1086.43 32.121 1084.81 35.2305C1083.75 37.2518 1082.63 39.2419 1081.42 41.4497C1080.8 42.538 1080.12 43.6886 1079.49 44.8391L1079.09 45.5232L1076.73 49.7211L1073.62 54.5409L1072 57.1219C1070.54 59.4229 1069.05 61.8173 1067.4 63.994L1065.1 67.1035C1063.73 69.0626 1062.39 70.9283 1061 72.763C1056.95 77.8695 1052.43 82.5855 1047.5 86.8493L1046.88 87.409L1044.39 89.5235L1041.47 91.8246L1038.21 94.3433L1036.71 95.4628L1032.36 98.5723L1031.99 98.1059L1036.25 94.8097L1037.68 93.6592C1038.64 92.9129 1039.73 92.0422 1040.79 91.0472L1043.58 88.6839L1046.69 85.9786C1048.47 84.3616 1050.83 82.1538 1053.22 79.7595C1055.62 77.3651 1057.61 74.8464 1059.81 72.0167C1061.18 70.2442 1062.49 68.3474 1063.86 66.3884L1066.16 63.2788C1067.77 61.1021 1069.27 58.7388 1070.63 56.4378L1072.25 53.8568L1075.42 48.9437L1078.19 44.1239L1080.15 40.7034C1081.36 38.62 1082.51 36.661 1083.54 34.6708L1085 31.9655L1084.59 32.5563L1083.97 33.3959L1082.7 35.2305L1080.24 38.6511L1077.82 41.7606C1075.89 44.2172 1073.9 46.767 1071.6 49.1614L1070.01 50.9649C1069.05 52.0844 1068.02 53.2349 1066.9 54.3233L1062.08 59.3607C1061 60.5424 1059.81 61.6929 1058.69 62.7813L1057.14 64.305L1055.52 65.8908C1054.43 66.9792 1053.32 68.0986 1052.17 69.0004L1047.44 73.8202L1044.33 76.681L1042.56 78.2669L1041.31 79.3552C1040.13 80.4125 1038.92 81.5008 1037.8 82.4648L1035.56 84.5482C1035.1 84.9835 1034.63 85.45 1034.19 85.9164L1033.45 86.6627L1031.58 88.5906L1031.43 88.7772L1029.56 90.8606C1028.44 92.0733 1027.45 93.3172 1026.45 94.5299L1026.08 94.9652C1025.21 96.0225 1024.43 97.1108 1023.69 98.0748L1023.19 98.8211C1022.26 100.096 1021.45 101.34 1020.73 102.49C1019.58 104.232 1018.68 105.849 1017.87 107.279C1017.59 107.777 1017.34 108.243 1017.06 108.678L1015.6 111.477L1014.92 112.814L1014.08 114.4L1012.31 113.623L1013.05 111.975C1013.05 111.695 1013.33 111.384 1013.49 111.042C1013.89 110.14 1014.42 109.052 1015.07 107.746L1015.82 106.346C1016.6 104.823 1017.5 103.237 1018.62 101.278C1019.3 100.127 1020.11 98.79 1021.04 97.4529L1021.54 96.7066C1022.29 95.6182 1023.06 94.4677 1023.97 93.3171L1024.31 92.9129C1025.27 91.638 1026.27 90.3009 1027.42 89.026L1029.31 86.8493L1031.4 84.6726L1032.17 83.8952C1032.61 83.4287 1033.08 82.9312 1033.54 82.4959C1034.01 82.0605 1034.79 81.3143 1035.44 80.7545L1035.84 80.3503C1037.02 79.2308 1038.17 78.2047 1039.42 77.2407L1040.6 76.1524C1043.34 73.7269 1046.04 71.2082 1048.9 68.565L1050.49 67.1347C1051.64 66.1085 1052.76 65.0201 1053.84 64.0251L1055.46 62.4392L1057.05 60.9155C1058.17 59.8583 1059.32 58.7388 1060.4 57.5883L1065.22 52.6441C1066.28 51.5558 1067.28 50.4363 1068.33 49.5345C1069.39 48.6328 1069.39 48.3218 1069.95 47.731L1072.22 45.2123L1073.56 43.6264C1073.81 43.281 1074.08 42.9489 1074.36 42.6313L1076.07 40.5479L1078.56 37.4384C1079.4 36.3189 1080.24 35.1995 1081.02 34.1111L1082.32 32.3387L1082.91 31.5613C1083.97 30.1309 1084.97 28.7938 1085.81 27.3945C1086.33 26.5549 1086.86 25.7153 1087.39 24.9379L1088.29 23.5075L1080.05 25.0623C1079.21 26.4927 1078.22 27.9853 1077.16 29.5711L1076.26 30.9083C1075.58 31.9655 1074.83 32.9917 1073.99 34.0178L1073.34 34.8885L1072.22 36.35C1071.55 37.2992 1070.84 38.2127 1070.07 39.0864L1066.09 43.2843C1065.25 44.2172 1064.32 45.119 1063.42 45.9896L1061.9 47.4511C1060.47 48.9126 1058.79 50.343 1057.39 51.5557L1056.89 52.0222C1055.52 53.2349 1054.12 54.4476 1052.66 55.6293L1042.9 63.7141L1038.11 67.8188C1037.09 68.6894 1036.12 69.6223 1035.16 70.5241L1033.51 72.0789C1032.48 73.0588 1031.5 74.097 1030.59 75.1884C1030.15 75.686 1029.69 76.1835 1029.22 76.6499L1027.17 78.8888L1023.59 83.5531L1022.54 85.2012L1020.58 88.3108L1019.3 90.7051C1018.9 91.5136 1018.46 92.291 1018.06 93.0684L1016.69 96.178C1016.1 97.484 1015.54 98.7278 1015.07 99.9716C1013.49 103.921 1012.15 107.528 1011.06 110.42L1009.7 114.12L1007.52 119.624L1006.83 119.406L1008.89 113.871L1011.03 107.652C1011.75 105.538 1012.77 102.615 1013.95 99.5674C1014.42 98.3235 1014.98 97.0486 1015.54 95.6804L1016.88 92.5709L1019.36 87.7199L1022.47 82.8068L1026.14 77.987L1028.23 75.717L1029.56 74.2555C1030.5 73.2294 1031.46 72.1721 1032.52 71.146L1034.13 69.6223L1037.24 66.7926L1042.09 62.6258L1043.74 61.2887L1051.92 54.6031C1053.38 53.4215 1054.78 52.2088 1056.14 50.996L1056.61 50.5918C1058.26 49.1925 1059.72 47.8865 1061.09 46.5494L1062.61 45.0568C1063.54 44.1861 1064.42 43.3465 1065.22 42.4758L1068.95 38.309C1069.73 37.4694 1070.45 36.5366 1071.13 35.6348L1072.25 34.2044L1072.9 33.3648C1073.74 32.2765 1074.52 31.2814 1075.17 30.2553C1075.83 29.2291 1076.11 28.887 1076.57 28.234L1078.53 25.3732C1065.11 28.0001 1051.87 31.4795 1038.89 35.7903L1036.22 38.0292C1035.81 38.4023 1035.41 38.7754 1034.97 39.1175L1033.23 40.6101C1032.05 41.6052 1030.84 42.6624 1029.69 43.7197C1029.03 44.3105 1028.41 44.9324 1027.73 45.5232C1026.55 46.6427 1025.3 47.7621 1024.12 48.9748L1022.13 50.996C1020.92 52.2399 1019.64 53.5148 1018.43 54.8519C1017.9 55.5049 1017.31 56.1268 1016.75 56.7798C1015.45 58.2413 1014.08 59.8894 1012.84 61.382L1010.13 64.8025L1007.49 68.4718C1006.09 70.5241 1004.69 72.7319 1003.32 75.0329C1002.76 76.2146 1002.11 77.6139 1001.55 79.1376L1000.99 80.6612L1000.62 81.874V82.1849L1000.34 83.2111C1000.1 83.9131 999.916 84.6299 999.777 85.3567C999.777 85.7609 999.777 86.1652 999.56 86.5694C999.342 86.9736 999.28 87.9376 999.156 88.6528L998.813 91.98C998.767 92.6945 998.767 93.4112 998.813 94.1256C998.813 94.4988 998.813 94.903 998.813 95.3073V95.7426C998.813 96.6755 998.813 97.6395 998.813 98.6034L999 101.713C999 102.397 999 103.081 999.218 103.765C999.435 104.449 999.218 104.48 999.373 104.854V105.631C999.373 106.377 999.591 107.155 999.684 107.901L1000.24 110.762C1000.43 111.695 1000.59 112.596 1000.77 113.498C1000.96 114.307 1001.18 115.115 1001.36 115.893C1001.55 116.67 1001.74 117.23 1001.89 117.883C1002.05 118.536 1002.3 119.531 1002.51 120.277C1002.92 121.552 1003.26 122.671 1003.54 123.604C1004.1 125.47 1004.44 126.527 1004.44 126.527L1003.85 126.745L1002.3 122.547L1001.55 120.495C1001.21 119.562 1000.93 118.536 1000.62 117.385C1000.62 116.95 1000.34 116.514 1000.21 116.048C1000.09 115.582 999.746 114.431 999.497 113.56C999.249 112.69 999.093 111.757 998.876 110.824V110.233C998.689 109.487 998.534 108.709 998.347 107.932C998.161 107.155 998.129 106.595 998.036 105.942C997.943 105.289 998.036 105.196 997.881 104.854C997.725 104.512 997.881 104.076 997.725 103.703C997.57 103.33 997.508 102.335 997.477 101.651L996.886 98.6967C996.886 97.7327 996.886 96.7066 996.886 95.5871V93.9702C996.839 93.2246 996.839 92.4769 996.886 91.7313L997.259 88.3108L997.694 86.2585C997.694 85.8853 997.694 85.5121 997.912 85.1079C995.512 90.8095 993.649 96.7225 992.347 102.77C990.979 108.709 990.015 114.804 989.082 120.681V121.521C988.212 127.118 987.155 133.648 985.787 139.836C984.542 145.571 982.9 151.213 980.874 156.721L980.408 158.027L979.568 160.235L979.382 161.759L978.822 165.894C978.79 166.2 978.727 166.502 978.636 166.796V167.263L977.61 171.896L977.237 173.108C977.019 173.793 976.801 174.446 976.615 175.13C976.179 176.591 975.62 177.991 975.06 179.359L974.78 180.043C974.283 181.349 973.692 182.593 973.101 183.805L972.697 184.645C972.013 186.106 971.267 187.475 970.459 188.874C969.65 190.273 968.904 191.673 968.22 192.73C966.883 195 965.515 197.052 964.272 198.949L963.992 199.384C963.121 200.659 962.282 201.81 961.567 202.836L960.51 204.297L958.427 207.127L963.152 208.682C963.712 208.278 964.365 207.811 965.111 207.376C966.462 206.56 967.876 205.853 969.339 205.261C971.073 204.61 972.863 204.121 974.687 203.8C979.011 203.17 983.394 203.055 987.745 203.458C992.842 203.759 997.9 204.529 1002.86 205.759C1006.52 206.661 1010.22 207.749 1014.17 208.868L1019.05 210.299C1024.82 211.941 1030.69 213.229 1036.62 214.155C1042.8 215.11 1049.03 215.66 1055.27 215.803C1061.55 215.993 1067.84 215.743 1074.08 215.056L1077.66 214.621C1095.66 208.022 1111.58 196.741 1123.77 181.94C1122.24 183.059 1120.66 184.085 1119.29 185.049C1116.2 187.145 1112.97 189.026 1109.62 190.678C1106.04 192.504 1102.3 194.012 1098.46 195.186C1094.47 196.418 1090.37 197.211 1086.21 197.55C1084.14 197.699 1082.06 197.699 1079.99 197.55C1077.96 197.429 1075.93 197.18 1073.93 196.803L1072.44 196.492H1072.25C1071.38 197.052 1070.29 197.612 1069.14 198.296L1068.43 198.669L1067.09 199.384L1064.73 200.41C1063.52 200.975 1062.29 201.463 1061.03 201.872L1059.32 202.463C1058.66 202.68 1058.01 202.836 1057.33 203.022L1056.27 203.302H1055.77C1055.4 203.302 1055.03 203.52 1054.65 203.582L1050.52 204.235L1046.16 204.484H1043.93H1042.71H1041.38L1039.2 204.173L1037.99 203.986C1037.23 203.886 1036.49 203.741 1035.75 203.551L1032.42 202.712C1031.71 202.541 1031.02 202.323 1030.34 202.059L1029.22 201.685L1028.41 201.405C1027.63 201.126 1026.86 200.877 1026.14 200.535L1023.25 199.26L1021.45 198.358L1020.55 197.892C1018.87 197.052 1017.44 196.181 1015.76 195.186C1014.08 194.191 1013.52 193.787 1012.65 193.165L1011.96 192.699C1010.91 192.015 1009.94 191.331 1009.01 190.678L1006.49 188.874L1006.87 188.376L1009.48 190.025C1010.44 190.646 1011.47 191.299 1012.59 191.89L1013.61 192.512C1014.51 193.072 1015.48 193.632 1016.54 194.191C1018.12 195.093 1019.64 195.933 1021.35 196.741C1023.06 197.55 1024.31 198.109 1025.92 198.793L1026.92 199.198C1027.63 199.515 1028.36 199.795 1029.1 200.037L1029.94 200.286L1031.02 200.659C1031.68 200.913 1032.36 201.121 1033.04 201.281L1036.34 202.09C1037.04 202.259 1037.74 202.384 1038.45 202.463H1039.67L1041.78 202.805H1043.02H1044.33H1046.44L1050.58 202.587L1053 202.245L1054.5 202.027L1055.4 201.841H1056.02L1057.14 201.592L1059.01 201.126L1060.72 200.566C1061.95 200.202 1063.17 199.766 1064.35 199.26L1066.68 198.296L1068.08 197.643L1068.77 197.332L1071.38 196.057C1068.46 195.342 1065.69 194.471 1063.14 193.663L1060.4 192.73C1057.95 191.89 1055.62 191.113 1053.32 190.46C1050.4 189.639 1047.41 189.097 1044.39 188.843C1039.77 188.36 1035.11 188.36 1030.5 188.843C1028.91 189.029 1027.57 189.216 1026.61 189.434L1025.18 189.714L1024.84 188.19L1026.3 187.661C1027.67 187.226 1028.97 186.853 1030.34 186.542C1035.14 185.485 1040.04 185.004 1044.95 185.111C1048.23 185.167 1051.5 185.532 1054.71 186.2C1057.82 186.915 1061.31 187.848 1064.57 188.781H1064.97C1068.46 189.822 1072 190.663 1075.58 191.299C1077.38 191.593 1079.19 191.791 1081.02 191.89C1082.88 192.012 1084.75 192.012 1086.61 191.89C1088.45 191.704 1090.38 191.455 1092.15 191.144C1093.92 190.833 1095.91 190.304 1097.65 189.807C1101.21 188.761 1104.69 187.463 1108.07 185.92C1111.18 184.552 1114.13 182.81 1117.39 181.007C1119.94 179.514 1122.49 177.897 1125.51 175.876C1127.75 174.321 1129.95 172.766 1132.26 171.025C1134.49 167.916 1136.64 164.371 1138.66 160.888L1138.13 161.043Z" fill="url(#paint27_linear_674_5)"/>
<path d="M963.743 186.884L965.204 184.645C965.702 183.868 966.137 183.028 966.635 182.157C968.687 178.768 970.77 174.819 972.853 170.465L974.407 167.107C974.656 166.516 974.936 165.956 975.185 165.366L975.931 163.562C976.397 162.349 976.895 161.137 977.392 159.893L978.294 157.374C978.294 156.037 978.294 154.731 978.294 153.394C978.294 151.559 978.294 149.725 978.294 147.921C978.294 146.117 978.014 144.314 977.827 142.51C977.641 140.707 977.361 138.997 977.112 137.255C976.863 135.514 976.49 133.804 976.179 132.124C975.495 128.797 974.843 125.594 973.972 122.578C973.101 119.562 972.449 116.701 971.733 114.058C971.018 111.415 970.334 109.02 969.713 106.906C969.091 104.791 968.562 102.926 968.096 101.402L966.728 96.6133L968.345 101.309C968.873 102.832 969.495 104.636 970.179 106.75C970.863 108.865 971.733 111.197 972.449 113.809C973.164 116.421 974.034 119.282 974.905 122.267C975.775 125.252 976.584 128.486 977.299 131.845C977.61 133.524 977.952 135.265 978.263 136.975C978.573 138.686 978.791 140.52 979.04 142.324C979.289 144.127 979.382 145.931 979.537 147.766C979.693 149.6 979.537 151.342 979.724 153.114C981.092 148.761 982.335 144.158 983.33 139.37C984.574 133.524 985.538 127.429 986.439 121.21C987.341 114.991 988.336 108.772 989.735 102.273C991.156 95.8781 993.175 89.6314 995.767 83.6153C998.4 77.805 1001.57 72.2558 1005.25 67.0413L1007.99 63.3099C1008.92 62.0972 1009.88 60.9466 1010.85 59.7961C1012.71 57.4639 1014.76 55.3805 1016.69 53.266C1018.62 51.1515 1020.67 49.3169 1022.57 47.42C1024.46 45.5232 1026.45 43.8751 1028.29 42.196C1030.12 40.5168 1031.99 39.0864 1033.73 37.6249L1034.72 36.8164C933.585 73.0117 971.702 139.712 961.691 189.9L963.743 186.884Z" fill="url(#paint28_linear_674_5)"/>
<path d="M1055.06 217.109C1048.81 216.934 1042.58 216.353 1036.4 215.367C1030.43 214.401 1024.53 213.083 1018.71 211.418C1013.08 209.801 1007.77 207.998 1002.58 206.661C997.713 205.357 992.736 204.523 987.714 204.173C983.436 203.704 979.12 203.704 974.843 204.173C973.039 204.434 971.268 204.882 969.557 205.51C968.106 206.045 966.702 206.7 965.36 207.469C964.645 207.873 964.023 208.278 963.432 208.682C1002.3 221.12 1039.76 226.189 1072.25 216.394C1066.54 216.997 1060.8 217.235 1055.06 217.109Z" fill="url(#paint29_linear_674_5)"/>
<path d="M960.137 203.924C961.038 202.556 962.158 200.815 963.401 198.918C964.645 197.021 966.013 194.72 967.412 192.264C968.158 191.051 968.842 189.745 969.557 188.377C970.272 187.008 971.018 185.64 971.64 184.148C972.262 182.655 973.039 181.038 973.599 179.608C974.252 178.021 974.823 176.402 975.309 174.757C975.589 173.917 975.837 173.078 976.086 172.238L976.273 171.585L976.428 170.963L976.708 169.657L977.268 166.983L977.547 165.646L977.703 164.309L976.957 166.05L976.117 167.791L974.501 171.181C973.412 173.389 972.2 175.441 971.143 177.4C970.086 179.359 968.873 181.131 967.816 182.842L966.293 185.298L964.738 187.537C963.774 188.967 962.842 190.273 962.033 191.486L961.194 192.575C960.11 197.374 958.44 202.022 956.219 206.412L958.054 207.034L960.137 203.924Z" fill="url(#paint30_linear_674_5)"/>
<path d="M989.766 181.194C989.766 181.194 968.189 90.3323 1117.61 68.752C1104.27 143.133 1046.2 217.544 989.766 181.194Z" fill="url(#paint31_radial_674_5)"/>
<path d="M991.942 179.546C991.942 179.546 973.101 100.19 1103.4 81.3457C1091.84 146.242 1041.22 211.17 991.942 179.546Z" fill="url(#paint32_linear_674_5)"/>
<path d="M997.259 175.627C997.259 175.627 980.967 119.997 1072.87 111.477C1067.03 156.099 1033.42 199.353 997.259 175.627Z" fill="url(#paint33_radial_674_5)"/>
<path d="M1013.24 164.34C1010.13 161.23 994.958 161.634 1001.98 151.373C1008.2 142.044 1029.97 138.935 1037.06 146.118C1044.14 153.301 1041.16 174.104 1023.75 179.235C1014.55 181.94 1016.35 167.356 1013.24 164.34Z" fill="url(#paint34_radial_674_5)"/>
</g>
</g>
<line x1="-8.74228e-08" y1="253" x2="766" y2="253" stroke="#457000" stroke-width="2"/>
<defs>
<linearGradient id="paint0_linear_674_5" x1="785.443" y1="245.965" x2="852.816" y2="327.595" gradientUnits="userSpaceOnUse">
<stop stop-color="#457000"/>
<stop offset="0.2" stop-color="#497401"/>
<stop offset="0.38" stop-color="#537F06"/>
<stop offset="0.57" stop-color="#65930D"/>
<stop offset="0.75" stop-color="#7EAE18"/>
<stop offset="0.93" stop-color="#9ED025"/>
<stop offset="1" stop-color="#ADE02B"/>
</linearGradient>
<linearGradient id="paint1_linear_674_5" x1="906.056" y1="97.3527" x2="976.279" y2="182.436" gradientUnits="userSpaceOnUse">
<stop stop-color="#ADE02B"/>
<stop offset="0.07" stop-color="#9ED025"/>
<stop offset="0.25" stop-color="#7EAE18"/>
<stop offset="0.43" stop-color="#65930D"/>
<stop offset="0.62" stop-color="#537F06"/>
<stop offset="0.8" stop-color="#497401"/>
<stop offset="1" stop-color="#457000"/>
</linearGradient>
<linearGradient id="paint2_linear_674_5" x1="966.545" y1="183.416" x2="1053.33" y2="288.572" gradientUnits="userSpaceOnUse">
<stop stop-color="#ADE02B"/>
<stop offset="0.07" stop-color="#9ED025"/>
<stop offset="0.25" stop-color="#7EAE18"/>
<stop offset="0.43" stop-color="#65930D"/>
<stop offset="0.62" stop-color="#537F06"/>
<stop offset="0.8" stop-color="#497401"/>
<stop offset="1" stop-color="#457000"/>
</linearGradient>
<linearGradient id="paint3_linear_674_5" x1="921.241" y1="115.218" x2="977.807" y2="183.756" gradientUnits="userSpaceOnUse">
<stop stop-color="#ADE02B"/>
<stop offset="0.07" stop-color="#9ED025"/>
<stop offset="0.25" stop-color="#7EAE18"/>
<stop offset="0.43" stop-color="#65930D"/>
<stop offset="0.62" stop-color="#537F06"/>
<stop offset="0.8" stop-color="#497401"/>
<stop offset="1" stop-color="#457000"/>
</linearGradient>
<linearGradient id="paint4_linear_674_5" x1="917.167" y1="208.97" x2="987.925" y2="294.701" gradientUnits="userSpaceOnUse">
<stop stop-color="#ADE02B"/>
<stop offset="0.07" stop-color="#9ED025"/>
<stop offset="0.25" stop-color="#7EAE18"/>
<stop offset="0.43" stop-color="#65930D"/>
<stop offset="0.62" stop-color="#537F06"/>
<stop offset="0.8" stop-color="#497401"/>
<stop offset="1" stop-color="#457000"/>
</linearGradient>
<linearGradient id="paint5_linear_674_5" x1="926.094" y1="113.431" x2="825.815" y2="265.789" gradientUnits="userSpaceOnUse">
<stop stop-color="#ADE02B"/>
<stop offset="0.07" stop-color="#9ED025"/>
<stop offset="0.25" stop-color="#7EAE18"/>
<stop offset="0.43" stop-color="#65930D"/>
<stop offset="0.62" stop-color="#537F06"/>
<stop offset="0.8" stop-color="#497401"/>
<stop offset="1" stop-color="#457000"/>
</linearGradient>
<linearGradient id="paint6_linear_674_5" x1="940.089" y1="122.038" x2="839.814" y2="274.352" gradientUnits="userSpaceOnUse">
<stop stop-color="#ADE02B"/>
<stop offset="0.07" stop-color="#9ED025"/>
<stop offset="0.25" stop-color="#7EAE18"/>
<stop offset="0.43" stop-color="#65930D"/>
<stop offset="0.62" stop-color="#537F06"/>
<stop offset="0.8" stop-color="#497401"/>
<stop offset="1" stop-color="#457000"/>
</linearGradient>
<linearGradient id="paint7_linear_674_5" x1="1034.27" y1="252.899" x2="943.042" y2="176.894" gradientUnits="userSpaceOnUse">
<stop stop-color="#ADE02B"/>
<stop offset="0.07" stop-color="#9ED025"/>
<stop offset="0.25" stop-color="#7EAE18"/>
<stop offset="0.43" stop-color="#65930D"/>
<stop offset="0.62" stop-color="#537F06"/>
<stop offset="0.8" stop-color="#497401"/>
<stop offset="1" stop-color="#457000"/>
</linearGradient>
<linearGradient id="paint8_linear_674_5" x1="857.08" y1="231.511" x2="914.458" y2="301.031" gradientUnits="userSpaceOnUse">
<stop stop-color="#457000"/>
<stop offset="0.2" stop-color="#497401"/>
<stop offset="0.38" stop-color="#537F06"/>
<stop offset="0.57" stop-color="#65930D"/>
<stop offset="0.75" stop-color="#7EAE18"/>
<stop offset="0.93" stop-color="#9ED025"/>
<stop offset="1" stop-color="#ADE02B"/>
</linearGradient>
<linearGradient id="paint9_linear_674_5" x1="820.093" y1="187.855" x2="847.684" y2="221.284" gradientUnits="userSpaceOnUse">
<stop stop-color="#ADE02B"/>
<stop offset="0.07" stop-color="#9ED025"/>
<stop offset="0.25" stop-color="#7EAE18"/>
<stop offset="0.43" stop-color="#65930D"/>
<stop offset="0.62" stop-color="#537F06"/>
<stop offset="0.8" stop-color="#497401"/>
<stop offset="1" stop-color="#457000"/>
</linearGradient>
<linearGradient id="paint10_linear_674_5" x1="929.154" y1="114.452" x2="828.001" y2="268.097" gradientUnits="userSpaceOnUse">
<stop stop-color="#ADE02B"/>
<stop offset="0.07" stop-color="#9ED025"/>
<stop offset="0.25" stop-color="#7EAE18"/>
<stop offset="0.43" stop-color="#65930D"/>
<stop offset="0.62" stop-color="#537F06"/>
<stop offset="0.8" stop-color="#497401"/>
<stop offset="1" stop-color="#457000"/>
</linearGradient>
<linearGradient id="paint11_linear_674_5" x1="941.921" y1="122.743" x2="841.02" y2="276.058" gradientUnits="userSpaceOnUse">
<stop stop-color="#ADE02B"/>
<stop offset="0.07" stop-color="#9ED025"/>
<stop offset="0.25" stop-color="#7EAE18"/>
<stop offset="0.43" stop-color="#65930D"/>
<stop offset="0.62" stop-color="#537F06"/>
<stop offset="0.8" stop-color="#497401"/>
<stop offset="1" stop-color="#457000"/>
</linearGradient>
<linearGradient id="paint12_linear_674_5" x1="876.209" y1="218.786" x2="934.181" y2="289.026" gradientUnits="userSpaceOnUse">
<stop stop-color="#ADE02B"/>
<stop offset="0.07" stop-color="#9ED025"/>
<stop offset="0.25" stop-color="#7EAE18"/>
<stop offset="0.43" stop-color="#65930D"/>
<stop offset="0.62" stop-color="#537F06"/>
<stop offset="0.8" stop-color="#497401"/>
<stop offset="1" stop-color="#457000"/>
</linearGradient>
<linearGradient id="paint13_linear_674_5" x1="835.099" y1="227.881" x2="897.267" y2="303.205" gradientUnits="userSpaceOnUse">
<stop stop-color="#457000"/>
<stop offset="0.2" stop-color="#497401"/>
<stop offset="0.38" stop-color="#537F06"/>
<stop offset="0.57" stop-color="#65930D"/>
<stop offset="0.75" stop-color="#7EAE18"/>
<stop offset="0.93" stop-color="#9ED025"/>
<stop offset="1" stop-color="#ADE02B"/>
</linearGradient>
<linearGradient id="paint14_linear_674_5" x1="912.03" y1="104.153" x2="811.286" y2="257.218" gradientUnits="userSpaceOnUse">
<stop stop-color="#ADE02B"/>
<stop offset="0.07" stop-color="#9ED025"/>
<stop offset="0.25" stop-color="#7EAE18"/>
<stop offset="0.43" stop-color="#65930D"/>
<stop offset="0.62" stop-color="#537F06"/>
<stop offset="0.8" stop-color="#497401"/>
<stop offset="1" stop-color="#457000"/>
</linearGradient>
<linearGradient id="paint15_linear_674_5" x1="890.25" y1="216.994" x2="936.505" y2="273.038" gradientUnits="userSpaceOnUse">
<stop stop-color="#ADE02B"/>
<stop offset="0.07" stop-color="#9ED025"/>
<stop offset="0.25" stop-color="#7EAE18"/>
<stop offset="0.43" stop-color="#65930D"/>
<stop offset="0.62" stop-color="#537F06"/>
<stop offset="0.8" stop-color="#497401"/>
<stop offset="1" stop-color="#457000"/>
</linearGradient>
<linearGradient id="paint16_linear_674_5" x1="912.732" y1="164.412" x2="942.579" y2="200.575" gradientUnits="userSpaceOnUse">
<stop stop-color="#ADE02B"/>
<stop offset="0.07" stop-color="#9ED025"/>
<stop offset="0.25" stop-color="#7EAE18"/>
<stop offset="0.43" stop-color="#65930D"/>
<stop offset="0.62" stop-color="#537F06"/>
<stop offset="0.8" stop-color="#497401"/>
<stop offset="1" stop-color="#457000"/>
</linearGradient>
<linearGradient id="paint17_linear_674_5" x1="948.308" y1="194.193" x2="1004.08" y2="261.771" gradientUnits="userSpaceOnUse">
<stop stop-color="#ADE02B"/>
<stop offset="0.07" stop-color="#9ED025"/>
<stop offset="0.25" stop-color="#7EAE18"/>
<stop offset="0.43" stop-color="#65930D"/>
<stop offset="0.62" stop-color="#537F06"/>
<stop offset="0.8" stop-color="#497401"/>
<stop offset="1" stop-color="#457000"/>
</linearGradient>
<linearGradient id="paint18_linear_674_5" x1="935.005" y1="199.81" x2="995.57" y2="273.192" gradientUnits="userSpaceOnUse">
<stop stop-color="#ADE02B"/>
<stop offset="0.07" stop-color="#9ED025"/>
<stop offset="0.25" stop-color="#7EAE18"/>
<stop offset="0.43" stop-color="#65930D"/>
<stop offset="0.62" stop-color="#537F06"/>
<stop offset="0.8" stop-color="#497401"/>
<stop offset="1" stop-color="#457000"/>
</linearGradient>
<linearGradient id="paint19_linear_674_5" x1="944.298" y1="124.208" x2="843.421" y2="277.503" gradientUnits="userSpaceOnUse">
<stop stop-color="#ADE02B"/>
<stop offset="0.07" stop-color="#9ED025"/>
<stop offset="0.25" stop-color="#7EAE18"/>
<stop offset="0.43" stop-color="#65930D"/>
<stop offset="0.62" stop-color="#537F06"/>
<stop offset="0.8" stop-color="#497401"/>
<stop offset="1" stop-color="#457000"/>
</linearGradient>
<linearGradient id="paint20_linear_674_5" x1="799.78" y1="192.647" x2="826.48" y2="224.997" gradientUnits="userSpaceOnUse">
<stop stop-color="#ADE02B"/>
<stop offset="0.07" stop-color="#9ED025"/>
<stop offset="0.25" stop-color="#7EAE18"/>
<stop offset="0.43" stop-color="#65930D"/>
<stop offset="0.62" stop-color="#537F06"/>
<stop offset="0.8" stop-color="#497401"/>
<stop offset="1" stop-color="#457000"/>
</linearGradient>
<linearGradient id="paint21_linear_674_5" x1="922.328" y1="110.087" x2="821.199" y2="263.712" gradientUnits="userSpaceOnUse">
<stop stop-color="#ADE02B"/>
<stop offset="0.07" stop-color="#9ED025"/>
<stop offset="0.25" stop-color="#7EAE18"/>
<stop offset="0.43" stop-color="#65930D"/>
<stop offset="0.62" stop-color="#537F06"/>
<stop offset="0.8" stop-color="#497401"/>
<stop offset="1" stop-color="#457000"/>
</linearGradient>
<linearGradient id="paint22_linear_674_5" x1="1007.43" y1="40.6192" x2="982.968" y2="211.097" gradientUnits="userSpaceOnUse">
<stop stop-color="#ADE02B"/>
<stop offset="0.07" stop-color="#9ED025"/>
<stop offset="0.25" stop-color="#7EAE18"/>
<stop offset="0.43" stop-color="#65930D"/>
<stop offset="0.62" stop-color="#537F06"/>
<stop offset="0.8" stop-color="#497401"/>
<stop offset="1" stop-color="#457000"/>
</linearGradient>
<linearGradient id="paint23_linear_674_5" x1="1078.53" y1="200.369" x2="987.009" y2="124.116" gradientUnits="userSpaceOnUse">
<stop stop-color="#ADE02B"/>
<stop offset="0.07" stop-color="#9ED025"/>
<stop offset="0.25" stop-color="#7EAE18"/>
<stop offset="0.43" stop-color="#65930D"/>
<stop offset="0.62" stop-color="#537F06"/>
<stop offset="0.8" stop-color="#497401"/>
<stop offset="1" stop-color="#457000"/>
</linearGradient>
<linearGradient id="paint24_linear_674_5" x1="1007.34" y1="155.228" x2="1085.6" y2="250.048" gradientUnits="userSpaceOnUse">
<stop stop-color="#ADE02B"/>
<stop offset="0.07" stop-color="#9ED025"/>
<stop offset="0.25" stop-color="#7EAE18"/>
<stop offset="0.43" stop-color="#65930D"/>
<stop offset="0.62" stop-color="#537F06"/>
<stop offset="0.8" stop-color="#497401"/>
<stop offset="1" stop-color="#457000"/>
</linearGradient>
<linearGradient id="paint25_linear_674_5" x1="969.984" y1="37.0111" x2="945.735" y2="206.228" gradientUnits="userSpaceOnUse">
<stop stop-color="#ADE02B"/>
<stop offset="0.07" stop-color="#9ED025"/>
<stop offset="0.25" stop-color="#7EAE18"/>
<stop offset="0.43" stop-color="#65930D"/>
<stop offset="0.62" stop-color="#537F06"/>
<stop offset="0.8" stop-color="#497401"/>
<stop offset="1" stop-color="#457000"/>
</linearGradient>
<linearGradient id="paint26_linear_674_5" x1="897.631" y1="385.794" x2="923.39" y2="150.744" gradientUnits="userSpaceOnUse">
<stop stop-color="#ADE02B"/>
<stop offset="0.07" stop-color="#9ED025"/>
<stop offset="0.25" stop-color="#7EAE18"/>
<stop offset="0.43" stop-color="#65930D"/>
<stop offset="0.62" stop-color="#537F06"/>
<stop offset="0.8" stop-color="#497401"/>
<stop offset="1" stop-color="#457000"/>
</linearGradient>
<linearGradient id="paint27_linear_674_5" x1="1138.73" y1="-54.7051" x2="1050.49" y2="152.423" gradientUnits="userSpaceOnUse">
<stop stop-color="#ADE02B"/>
<stop offset="0.07" stop-color="#9ED025"/>
<stop offset="0.25" stop-color="#7EAE18"/>
<stop offset="0.43" stop-color="#65930D"/>
<stop offset="0.62" stop-color="#537F06"/>
<stop offset="0.8" stop-color="#497401"/>
<stop offset="1" stop-color="#457000"/>
</linearGradient>
<linearGradient id="paint28_linear_674_5" x1="1023.28" y1="16.934" x2="926.138" y2="227.336" gradientUnits="userSpaceOnUse">
<stop stop-color="#ADE02B"/>
<stop offset="0.07" stop-color="#9ED025"/>
<stop offset="0.25" stop-color="#7EAE18"/>
<stop offset="0.43" stop-color="#65930D"/>
<stop offset="0.62" stop-color="#537F06"/>
<stop offset="0.8" stop-color="#497401"/>
<stop offset="1" stop-color="#457000"/>
</linearGradient>
<linearGradient id="paint29_linear_674_5" x1="1089.63" y1="220.075" x2="942.183" y2="207.195" gradientUnits="userSpaceOnUse">
<stop stop-color="#ADE02B"/>
<stop offset="0.07" stop-color="#9ED025"/>
<stop offset="0.25" stop-color="#7EAE18"/>
<stop offset="0.43" stop-color="#65930D"/>
<stop offset="0.62" stop-color="#537F06"/>
<stop offset="0.8" stop-color="#497401"/>
<stop offset="1" stop-color="#457000"/>
</linearGradient>
<linearGradient id="paint30_linear_674_5" x1="980.135" y1="157.04" x2="958.515" y2="206.324" gradientUnits="userSpaceOnUse">
<stop stop-color="#ADE02B"/>
<stop offset="0.07" stop-color="#9ED025"/>
<stop offset="0.25" stop-color="#7EAE18"/>
<stop offset="0.43" stop-color="#65930D"/>
<stop offset="0.62" stop-color="#537F06"/>
<stop offset="0.8" stop-color="#497401"/>
<stop offset="1" stop-color="#457000"/>
</linearGradient>
<radialGradient id="paint31_radial_674_5" cx="0" cy="0" r="1" gradientUnits="userSpaceOnUse" gradientTransform="translate(1117.44 59.7933) rotate(34.0116) scale(271.308 271.324)">
<stop offset="0.01" stop-color="#F58438"/>
<stop offset="0.33" stop-color="#BD6427"/>
<stop offset="0.99" stop-color="#401E00"/>
</radialGradient>
<linearGradient id="paint32_linear_674_5" x1="1100.14" y1="75.9145" x2="971.474" y2="181.491" gradientUnits="userSpaceOnUse">
<stop stop-color="#ADE02B"/>
<stop offset="0.07" stop-color="#9ED025"/>
<stop offset="0.25" stop-color="#7EAE18"/>
<stop offset="0.43" stop-color="#65930D"/>
<stop offset="0.62" stop-color="#537F06"/>
<stop offset="0.8" stop-color="#497401"/>
<stop offset="1" stop-color="#457000"/>
</linearGradient>
<radialGradient id="paint33_radial_674_5" cx="0" cy="0" r="1" gradientUnits="userSpaceOnUse" gradientTransform="translate(1080.64 56.1087) rotate(34.0116) scale(124.96 124.968)">
<stop offset="0.01" stop-color="#43F7FF"/>
<stop offset="0.18" stop-color="#3CEDF4"/>
<stop offset="0.48" stop-color="#29D1D8"/>
<stop offset="0.86" stop-color="#0BA4AB"/>
<stop offset="0.99" stop-color="#00939A"/>
</radialGradient>
<radialGradient id="paint34_radial_674_5" cx="0" cy="0" r="1" gradientUnits="userSpaceOnUse" gradientTransform="translate(1066.39 119.051) rotate(34.0116) scale(81.0655 81.0702)">
<stop stop-color="#282DED"/>
<stop offset="1" stop-color="#000257"/>
</radialGradient>
<clipPath id="clip0_674_5">
<rect width="415" height="321" fill="white" transform="translate(761)"/>
</clipPath>
</defs>
</svg>
