<svg width="722" height="681" viewBox="0 0 722 681" fill="none" xmlns="http://www.w3.org/2000/svg">
<g opacity="0.5" filter="url(#filter0_f_262_5)">
<path d="M444.88 205.005C443.094 201.908 439.792 200 436.217 200H285.772C282.197 200 278.894 201.908 277.109 205.006L201.879 335.5C200.097 338.591 200.097 342.397 201.879 345.489L277.109 475.994C278.894 479.091 282.197 481 285.772 481H436.217C439.791 481 443.094 479.092 444.88 475.995L520.12 345.489C521.903 342.398 521.903 338.591 520.12 335.499L444.88 205.005Z" fill="#A7C957"/>
</g>
<g filter="url(#filter1_di_262_5)">
<path d="M444.88 205.005C443.094 201.908 439.792 200 436.217 200H285.772C282.197 200 278.894 201.908 277.109 205.006L201.879 335.5C200.097 338.591 200.097 342.397 201.879 345.489L277.109 475.994C278.894 479.091 282.197 481 285.772 481H436.217C439.791 481 443.094 479.092 444.88 475.995L520.12 345.489C521.903 342.398 521.903 338.591 520.12 335.499L444.88 205.005Z" fill="#A7C957"/>
</g>
<g filter="url(#filter2_di_262_5)">
<path d="M364.2 382.45C368.65 382.45 372.625 381.7 376.125 380.2C379.625 378.7 382.575 376.6 384.975 373.9C387.425 371.2 389.275 367.975 390.525 364.225C391.825 360.475 392.475 356.35 392.475 351.85V286.525H406.95V351.85C406.95 358.05 405.95 363.8 403.95 369.1C402 374.4 399.175 379 395.475 382.9C391.825 386.75 387.35 389.775 382.05 391.975C376.75 394.175 370.8 395.275 364.2 395.275C357.6 395.275 351.65 394.175 346.35 391.975C341.05 389.775 336.55 386.75 332.85 382.9C329.15 379 326.3 374.4 324.3 369.1C322.35 363.8 321.375 358.05 321.375 351.85V286.525H335.85V351.775C335.85 356.275 336.475 360.4 337.725 364.15C339.025 367.9 340.875 371.125 343.275 373.825C345.725 376.525 348.7 378.65 352.2 380.2C355.75 381.7 359.75 382.45 364.2 382.45Z" fill="white" shape-rendering="crispEdges"/>
<path d="M384.975 373.9L383.494 372.556L383.487 372.564L383.48 372.571L384.975 373.9ZM390.525 364.225L388.635 363.57L388.631 363.581L388.628 363.593L390.525 364.225ZM392.475 286.525V284.525H390.475V286.525H392.475ZM406.95 286.525H408.95V284.525H406.95V286.525ZM403.95 369.1L402.079 368.394L402.076 368.402L402.073 368.409L403.95 369.1ZM395.475 382.9L394.024 381.523L394.024 381.524L395.475 382.9ZM332.85 382.9L331.399 384.277L331.408 384.286L332.85 382.9ZM324.3 369.1L322.423 369.791L322.426 369.798L322.429 369.806L324.3 369.1ZM321.375 286.525V284.525H319.375V286.525H321.375ZM335.85 286.525H337.85V284.525H335.85V286.525ZM337.725 364.15L335.828 364.782L335.831 364.794L335.835 364.805L337.725 364.15ZM343.275 373.825L341.78 375.154L341.787 375.161L341.794 375.169L343.275 373.825ZM352.2 380.2L351.39 382.029L351.406 382.036L351.422 382.042L352.2 380.2ZM364.2 384.45C368.876 384.45 373.126 383.661 376.913 382.038L375.337 378.362C372.124 379.739 368.424 380.45 364.2 380.45V384.45ZM376.913 382.038C380.668 380.429 383.864 378.16 386.47 375.229L383.48 372.571C381.286 375.04 378.582 376.971 375.337 378.362L376.913 382.038ZM386.456 375.244C389.108 372.321 391.092 368.849 392.422 364.857L388.628 363.593C387.458 367.101 385.742 370.079 383.494 372.556L386.456 375.244ZM392.415 364.88C393.797 360.893 394.475 356.544 394.475 351.85H390.475C390.475 356.156 389.853 360.057 388.635 363.57L392.415 364.88ZM394.475 351.85V286.525H390.475V351.85H394.475ZM392.475 288.525H406.95V284.525H392.475V288.525ZM404.95 286.525V351.85H408.95V286.525H404.95ZM404.95 351.85C404.95 357.832 403.986 363.34 402.079 368.394L405.821 369.806C407.914 364.26 408.95 358.268 408.95 351.85H404.95ZM402.073 368.409C400.212 373.467 397.528 377.831 394.024 381.523L396.926 384.277C400.823 380.169 403.788 375.333 405.827 369.791L402.073 368.409ZM394.024 381.524C390.582 385.155 386.346 388.026 381.283 390.128L382.817 393.822C388.354 391.524 393.068 388.345 396.926 384.276L394.024 381.524ZM381.283 390.128C376.26 392.213 370.576 393.275 364.2 393.275V397.275C371.024 397.275 377.24 396.137 382.817 393.822L381.283 390.128ZM364.2 393.275C357.824 393.275 352.14 392.213 347.117 390.128L345.583 393.822C351.16 396.137 357.376 397.275 364.2 397.275V393.275ZM347.117 390.128C342.052 388.025 337.787 385.151 334.292 381.514L331.408 384.286C335.313 388.349 340.048 391.525 345.583 393.822L347.117 390.128ZM334.301 381.523C330.794 377.827 328.082 373.458 326.171 368.394L322.429 369.806C324.518 375.342 327.506 380.173 331.399 384.277L334.301 381.523ZM326.177 368.409C324.316 363.351 323.375 357.837 323.375 351.85H319.375C319.375 358.263 320.384 364.249 322.423 369.791L326.177 368.409ZM323.375 351.85V286.525H319.375V351.85H323.375ZM321.375 288.525H335.85V284.525H321.375V288.525ZM333.85 286.525V351.775H337.85V286.525H333.85ZM333.85 351.775C333.85 356.461 334.501 360.802 335.828 364.782L339.622 363.518C338.449 359.998 337.85 356.089 337.85 351.775H333.85ZM335.835 364.805C337.213 368.779 339.189 372.239 341.78 375.154L344.77 372.496C342.561 370.011 340.837 367.021 339.615 363.495L335.835 364.805ZM341.794 375.169C344.441 378.086 347.648 380.371 351.39 382.029L353.01 378.371C349.752 376.929 347.009 374.964 344.756 372.481L341.794 375.169ZM351.422 382.042C355.253 383.661 359.524 384.45 364.2 384.45V380.45C359.976 380.45 356.247 379.739 352.978 378.358L351.422 382.042Z" fill="black" fill-opacity="0.1"/>
</g>
<defs>
<filter id="filter0_f_262_5" x="0.54248" y="0" width="720.915" height="681" filterUnits="userSpaceOnUse" color-interpolation-filters="sRGB">
<feFlood flood-opacity="0" result="BackgroundImageFix"/>
<feBlend mode="normal" in="SourceGraphic" in2="BackgroundImageFix" result="shape"/>
<feGaussianBlur stdDeviation="100" result="effect1_foregroundBlur_262_5"/>
</filter>
<filter id="filter1_di_262_5" x="175.542" y="190" width="360.915" height="321" filterUnits="userSpaceOnUse" color-interpolation-filters="sRGB">
<feFlood flood-opacity="0" result="BackgroundImageFix"/>
<feColorMatrix in="SourceAlpha" type="matrix" values="0 0 0 0 0 0 0 0 0 0 0 0 0 0 0 0 0 0 127 0" result="hardAlpha"/>
<feOffset dx="-5" dy="10"/>
<feGaussianBlur stdDeviation="10"/>
<feComposite in2="hardAlpha" operator="out"/>
<feColorMatrix type="matrix" values="0 0 0 0 0 0 0 0 0 0 0 0 0 0 0 0 0 0 0.25 0"/>
<feBlend mode="normal" in2="BackgroundImageFix" result="effect1_dropShadow_262_5"/>
<feBlend mode="normal" in="SourceGraphic" in2="effect1_dropShadow_262_5" result="shape"/>
<feColorMatrix in="SourceAlpha" type="matrix" values="0 0 0 0 0 0 0 0 0 0 0 0 0 0 0 0 0 0 127 0" result="hardAlpha"/>
<feOffset dx="5" dy="-5"/>
<feGaussianBlur stdDeviation="5"/>
<feComposite in2="hardAlpha" operator="arithmetic" k2="-1" k3="1"/>
<feColorMatrix type="matrix" values="0 0 0 0 0 0 0 0 0 0 0 0 0 0 0 0 0 0 0.25 0"/>
<feBlend mode="normal" in2="shape" result="effect2_innerShadow_262_5"/>
</filter>
<filter id="filter2_di_262_5" x="251.375" y="220.525" width="225.575" height="248.75" filterUnits="userSpaceOnUse" color-interpolation-filters="sRGB">
<feFlood flood-opacity="0" result="BackgroundImageFix"/>
<feColorMatrix in="SourceAlpha" type="matrix" values="0 0 0 0 0 0 0 0 0 0 0 0 0 0 0 0 0 0 127 0" result="hardAlpha"/>
<feOffset dy="4"/>
<feGaussianBlur stdDeviation="35"/>
<feComposite in2="hardAlpha" operator="out"/>
<feColorMatrix type="matrix" values="0 0 0 0 0 0 0 0 0 0 0 0 0 0 0 0 0 0 0.25 0"/>
<feBlend mode="normal" in2="BackgroundImageFix" result="effect1_dropShadow_262_5"/>
<feBlend mode="normal" in="SourceGraphic" in2="effect1_dropShadow_262_5" result="shape"/>
<feColorMatrix in="SourceAlpha" type="matrix" values="0 0 0 0 0 0 0 0 0 0 0 0 0 0 0 0 0 0 127 0" result="hardAlpha"/>
<feOffset dy="4"/>
<feGaussianBlur stdDeviation="5"/>
<feComposite in2="hardAlpha" operator="arithmetic" k2="-1" k3="1"/>
<feColorMatrix type="matrix" values="0 0 0 0 0 0 0 0 0 0 0 0 0 0 0 0 0 0 0.25 0"/>
<feBlend mode="normal" in2="shape" result="effect2_innerShadow_262_5"/>
</filter>
</defs>
</svg>
