<svg width="722" height="680" viewBox="0 0 722 680" fill="none" xmlns="http://www.w3.org/2000/svg">
<g opacity="0.5" filter="url(#filter0_f_262_6)">
<path d="M444.883 204.992C443.095 201.902 439.796 200 436.227 200H285.762C282.192 200 278.893 201.903 277.106 204.992L201.897 334.987C200.105 338.085 200.105 341.904 201.897 345.002L277.106 475.008C278.893 478.097 282.192 480 285.762 480H436.227C439.796 480 443.095 478.098 444.882 475.008L520.102 345.002C521.895 341.904 521.895 338.084 520.102 334.986L444.883 204.992Z" fill="#1D79C2"/>
</g>
<g filter="url(#filter1_di_262_6)">
<path d="M444.883 204.992C443.095 201.902 439.796 200 436.227 200H285.762C282.192 200 278.893 201.903 277.106 204.992L201.897 334.987C200.105 338.085 200.105 341.904 201.897 345.002L277.106 475.008C278.893 478.097 282.192 480 285.762 480H436.227C439.796 480 443.095 478.098 444.882 475.008L520.102 345.002C521.895 341.904 521.895 338.084 520.102 334.986L444.883 204.992Z" fill="#1D79C2"/>
</g>
<g filter="url(#filter2_di_262_6)">
<path d="M368.45 344.25C372.6 344.25 376.25 343.7 379.4 342.6C382.6 341.5 385.275 339.975 387.425 338.025C389.625 336.025 391.275 333.65 392.375 330.9C393.475 328.15 394.025 325.125 394.025 321.825C394.025 314.975 391.9 309.625 387.65 305.775C383.45 301.925 377.05 300 368.45 300H351.2V344.25H368.45ZM368.45 288.525C375.25 288.525 381.15 289.325 386.15 290.925C391.2 292.475 395.375 294.7 398.675 297.6C401.975 300.5 404.425 304 406.025 308.1C407.675 312.2 408.5 316.775 408.5 321.825C408.5 326.825 407.625 331.4 405.875 335.55C404.125 339.7 401.55 343.275 398.15 346.275C394.8 349.275 390.625 351.625 385.625 353.325C380.675 354.975 374.95 355.8 368.45 355.8H351.2V396H336.725V288.525H368.45Z" fill="white" shape-rendering="crispEdges"/>
<path d="M379.4 342.6L378.75 340.709L378.741 340.712L379.4 342.6ZM387.425 338.025L388.769 339.506L388.77 339.505L387.425 338.025ZM392.375 330.9L394.232 331.643L392.375 330.9ZM387.65 305.775L386.299 307.249L386.307 307.257L387.65 305.775ZM351.2 300V298H349.2V300H351.2ZM351.2 344.25H349.2V346.25H351.2V344.25ZM386.15 290.925L385.54 292.83L385.552 292.833L385.563 292.837L386.15 290.925ZM398.675 297.6L397.355 299.102L398.675 297.6ZM406.025 308.1L404.162 308.827L404.166 308.837L404.17 308.847L406.025 308.1ZM405.875 335.55L404.032 334.773L405.875 335.55ZM398.15 346.275L396.827 344.775L396.821 344.78L396.816 344.785L398.15 346.275ZM385.625 353.325L386.257 355.222L386.269 355.219L385.625 353.325ZM351.2 355.8V353.8H349.2V355.8H351.2ZM351.2 396V398H353.2V396H351.2ZM336.725 396H334.725V398H336.725V396ZM336.725 288.525V286.525H334.725V288.525H336.725ZM368.45 346.25C372.772 346.25 376.653 345.678 380.059 344.488L378.741 340.712C375.847 341.722 372.428 342.25 368.45 342.25V346.25ZM380.05 344.491C383.465 343.318 386.387 341.666 388.769 339.506L386.081 336.544C384.163 338.284 381.735 339.682 378.75 340.709L380.05 344.491ZM388.77 339.505C391.194 337.302 393.019 334.675 394.232 331.643L390.518 330.157C389.531 332.625 388.056 334.748 386.08 336.545L388.77 339.505ZM394.232 331.643C395.437 328.631 396.025 325.35 396.025 321.825H392.025C392.025 324.9 391.513 327.669 390.518 330.157L394.232 331.643ZM396.025 321.825C396.025 314.53 393.742 308.595 388.993 304.293L386.307 307.257C390.058 310.655 392.025 315.42 392.025 321.825H396.025ZM389.001 304.301C384.283 299.976 377.302 298 368.45 298V302C376.798 302 382.617 303.874 386.299 307.249L389.001 304.301ZM368.45 298H351.2V302H368.45V298ZM349.2 300V344.25H353.2V300H349.2ZM351.2 346.25H368.45V342.25H351.2V346.25ZM368.45 290.525C375.101 290.525 380.786 291.308 385.54 292.83L386.76 289.02C381.514 287.342 375.399 286.525 368.45 286.525V290.525ZM385.563 292.837C390.396 294.32 394.306 296.423 397.355 299.102L399.995 296.098C396.444 292.977 392.004 290.63 386.737 289.013L385.563 292.837ZM397.355 299.102C400.414 301.791 402.678 305.025 404.162 308.827L407.888 307.373C406.172 302.975 403.536 299.209 399.995 296.098L397.355 299.102ZM404.17 308.847C405.711 312.678 406.5 316.995 406.5 321.825H410.5C410.5 316.555 409.639 311.722 407.88 307.353L404.17 308.847ZM406.5 321.825C406.5 326.588 405.668 330.895 404.032 334.773L407.718 336.327C409.582 331.905 410.5 327.062 410.5 321.825H406.5ZM404.032 334.773C402.4 338.644 400.003 341.973 396.827 344.775L399.473 347.775C403.097 344.577 405.85 340.756 407.718 336.327L404.032 334.773ZM396.816 344.785C393.698 347.577 389.77 349.803 384.981 351.431L386.269 355.219C391.48 353.447 395.902 350.973 399.484 347.765L396.816 344.785ZM384.993 351.428C380.289 352.995 374.786 353.8 368.45 353.8V357.8C375.114 357.8 381.061 356.955 386.257 355.222L384.993 351.428ZM368.45 353.8H351.2V357.8H368.45V353.8ZM349.2 355.8V396H353.2V355.8H349.2ZM351.2 394H336.725V398H351.2V394ZM338.725 396V288.525H334.725V396H338.725ZM336.725 290.525H368.45V286.525H336.725V290.525Z" fill="black" fill-opacity="0.1"/>
</g>
<defs>
<filter id="filter0_f_262_6" x="0.552734" y="0" width="720.894" height="680" filterUnits="userSpaceOnUse" color-interpolation-filters="sRGB">
<feFlood flood-opacity="0" result="BackgroundImageFix"/>
<feBlend mode="normal" in="SourceGraphic" in2="BackgroundImageFix" result="shape"/>
<feGaussianBlur stdDeviation="100" result="effect1_foregroundBlur_262_6"/>
</filter>
<filter id="filter1_di_262_6" x="185.553" y="190" width="360.894" height="320" filterUnits="userSpaceOnUse" color-interpolation-filters="sRGB">
<feFlood flood-opacity="0" result="BackgroundImageFix"/>
<feColorMatrix in="SourceAlpha" type="matrix" values="0 0 0 0 0 0 0 0 0 0 0 0 0 0 0 0 0 0 127 0" result="hardAlpha"/>
<feOffset dx="5" dy="10"/>
<feGaussianBlur stdDeviation="10"/>
<feComposite in2="hardAlpha" operator="out"/>
<feColorMatrix type="matrix" values="0 0 0 0 0 0 0 0 0 0 0 0 0 0 0 0 0 0 0.25 0"/>
<feBlend mode="normal" in2="BackgroundImageFix" result="effect1_dropShadow_262_6"/>
<feBlend mode="normal" in="SourceGraphic" in2="effect1_dropShadow_262_6" result="shape"/>
<feColorMatrix in="SourceAlpha" type="matrix" values="0 0 0 0 0 0 0 0 0 0 0 0 0 0 0 0 0 0 127 0" result="hardAlpha"/>
<feOffset dx="-5" dy="-5"/>
<feGaussianBlur stdDeviation="5"/>
<feComposite in2="hardAlpha" operator="arithmetic" k2="-1" k3="1"/>
<feColorMatrix type="matrix" values="0 0 0 0 0 0 0 0 0 0 0 0 0 0 0 0 0 0 0.25 0"/>
<feBlend mode="normal" in2="shape" result="effect2_innerShadow_262_6"/>
</filter>
<filter id="filter2_di_262_6" x="266.725" y="222.525" width="211.775" height="247.475" filterUnits="userSpaceOnUse" color-interpolation-filters="sRGB">
<feFlood flood-opacity="0" result="BackgroundImageFix"/>
<feColorMatrix in="SourceAlpha" type="matrix" values="0 0 0 0 0 0 0 0 0 0 0 0 0 0 0 0 0 0 127 0" result="hardAlpha"/>
<feOffset dy="4"/>
<feGaussianBlur stdDeviation="35"/>
<feComposite in2="hardAlpha" operator="out"/>
<feColorMatrix type="matrix" values="0 0 0 0 0 0 0 0 0 0 0 0 0 0 0 0 0 0 0.25 0"/>
<feBlend mode="normal" in2="BackgroundImageFix" result="effect1_dropShadow_262_6"/>
<feBlend mode="normal" in="SourceGraphic" in2="effect1_dropShadow_262_6" result="shape"/>
<feColorMatrix in="SourceAlpha" type="matrix" values="0 0 0 0 0 0 0 0 0 0 0 0 0 0 0 0 0 0 127 0" result="hardAlpha"/>
<feOffset dy="4"/>
<feGaussianBlur stdDeviation="5"/>
<feComposite in2="hardAlpha" operator="arithmetic" k2="-1" k3="1"/>
<feColorMatrix type="matrix" values="0 0 0 0 0 0 0 0 0 0 0 0 0 0 0 0 0 0 0.25 0"/>
<feBlend mode="normal" in2="shape" result="effect2_innerShadow_262_6"/>
</filter>
</defs>
</svg>
