<svg width="722" height="680" viewBox="0 0 722 680" fill="none" xmlns="http://www.w3.org/2000/svg">
<g opacity="0.5" filter="url(#filter0_f_262_2)">
<path d="M444.883 204.992C443.095 201.902 439.796 200 436.227 200H285.762C282.192 200 278.893 201.903 277.106 204.992L201.897 334.987C200.105 338.085 200.105 341.904 201.897 345.002L277.106 475.008C278.893 478.097 282.192 480 285.762 480H436.227C439.796 480 443.095 478.098 444.882 475.008L520.102 345.002C521.895 341.904 521.895 338.084 520.102 334.986L444.883 204.992Z" fill="#FF3049"/>
</g>
<g filter="url(#filter1_di_262_2)">
<path d="M444.883 204.992C443.095 201.902 439.796 200 436.227 200H285.762C282.192 200 278.893 201.903 277.106 204.992L201.897 334.987C200.105 338.085 200.105 341.904 201.897 345.002L277.106 475.008C278.893 478.097 282.192 480 285.762 480H436.227C439.796 480 443.095 478.098 444.882 475.008L520.102 345.002C521.895 341.904 521.895 338.084 520.102 334.986L444.883 204.992Z" fill="#FF3049"/>
</g>
<g filter="url(#filter2_di_262_2)">
<path d="M380.219 346.939L363.344 303.214C362.844 301.914 362.319 300.414 361.769 298.714C361.219 296.964 360.694 295.114 360.194 293.164C359.144 297.214 358.069 300.589 356.969 303.289L340.094 346.939H380.219ZM410.519 386.839H399.269C397.969 386.839 396.919 386.514 396.119 385.864C395.319 385.214 394.719 384.389 394.319 383.389L384.269 357.439H336.044L325.994 383.389C325.694 384.289 325.119 385.089 324.269 385.789C323.419 386.489 322.369 386.839 321.119 386.839H309.869L352.844 279.364H367.544L410.519 386.839Z" fill="white" shape-rendering="crispEdges"/>
<path d="M380.219 346.939V348.939H383.135L382.085 346.219L380.219 346.939ZM363.344 303.214L361.477 303.932L361.478 303.934L363.344 303.214ZM361.769 298.714L359.861 299.314L359.863 299.322L359.866 299.33L361.769 298.714ZM360.194 293.164L362.131 292.667L358.258 292.662L360.194 293.164ZM356.969 303.289L355.117 302.534L355.11 302.551L355.103 302.568L356.969 303.289ZM340.094 346.939L338.228 346.218L337.176 348.939H340.094V346.939ZM410.519 386.839V388.839H413.473L412.376 386.096L410.519 386.839ZM396.119 385.864L394.858 387.416H394.858L396.119 385.864ZM394.319 383.389L392.454 384.111L392.458 384.121L392.462 384.132L394.319 383.389ZM384.269 357.439L386.134 356.717L385.639 355.439H384.269V357.439ZM336.044 357.439V355.439H334.674L334.179 356.717L336.044 357.439ZM325.994 383.389L324.129 382.667L324.112 382.711L324.097 382.756L325.994 383.389ZM324.269 385.789L325.54 387.333L324.269 385.789ZM309.869 386.839L308.012 386.096L306.915 388.839H309.869V386.839ZM352.844 279.364V277.364H351.49L350.987 278.621L352.844 279.364ZM367.544 279.364L369.401 278.621L368.898 277.364H367.544V279.364ZM382.085 346.219L365.21 302.494L361.478 303.934L378.353 347.659L382.085 346.219ZM365.211 302.496C364.727 301.238 364.214 299.773 363.672 298.098L359.866 299.33C360.424 301.055 360.961 302.59 361.477 303.932L365.211 302.496ZM363.677 298.114C363.139 296.401 362.623 294.586 362.131 292.667L358.257 293.661C358.765 295.642 359.299 297.526 359.861 299.314L363.677 298.114ZM358.258 292.662C357.222 296.66 356.172 299.943 355.117 302.534L358.821 304.043C359.966 301.234 361.066 297.768 362.13 293.666L358.258 292.662ZM355.103 302.568L338.228 346.218L341.959 347.66L358.834 304.01L355.103 302.568ZM340.094 348.939H380.219V344.939H340.094V348.939ZM410.519 384.839H399.269V388.839H410.519V384.839ZM399.269 384.839C398.306 384.839 397.739 384.603 397.38 384.312L394.858 387.416C396.099 388.425 397.632 388.839 399.269 388.839V384.839ZM397.38 384.312C396.856 383.886 396.455 383.345 396.176 382.646L392.462 384.132C392.983 385.433 393.781 386.542 394.858 387.416L397.38 384.312ZM396.184 382.667L386.134 356.717L382.404 358.161L392.454 384.111L396.184 382.667ZM384.269 355.439H336.044V359.439H384.269V355.439ZM334.179 356.717L324.129 382.667L327.859 384.111L337.909 358.161L334.179 356.717ZM324.097 382.756C323.934 383.246 323.605 383.745 322.998 384.245L325.54 387.333C326.633 386.433 327.454 385.332 327.891 384.021L324.097 382.756ZM322.998 384.245C322.554 384.611 321.971 384.839 321.119 384.839V388.839C322.766 388.839 324.284 388.367 325.54 387.333L322.998 384.245ZM321.119 384.839H309.869V388.839H321.119V384.839ZM311.726 387.581L354.701 280.106L350.987 278.621L308.012 386.096L311.726 387.581ZM352.844 281.364H367.544V277.364H352.844V281.364ZM365.687 280.106L408.662 387.581L412.376 386.096L369.401 278.621L365.687 280.106Z" fill="black" fill-opacity="0.1"/>
</g>
<defs>
<filter id="filter0_f_262_2" x="0.552734" y="0" width="720.894" height="680" filterUnits="userSpaceOnUse" color-interpolation-filters="sRGB">
<feFlood flood-opacity="0" result="BackgroundImageFix"/>
<feBlend mode="normal" in="SourceGraphic" in2="BackgroundImageFix" result="shape"/>
<feGaussianBlur stdDeviation="100" result="effect1_foregroundBlur_262_2"/>
</filter>
<filter id="filter1_di_262_2" x="170.553" y="175" width="360.894" height="320" filterUnits="userSpaceOnUse" color-interpolation-filters="sRGB">
<feFlood flood-opacity="0" result="BackgroundImageFix"/>
<feColorMatrix in="SourceAlpha" type="matrix" values="0 0 0 0 0 0 0 0 0 0 0 0 0 0 0 0 0 0 127 0" result="hardAlpha"/>
<feOffset dx="-10" dy="-5"/>
<feGaussianBlur stdDeviation="10"/>
<feComposite in2="hardAlpha" operator="out"/>
<feColorMatrix type="matrix" values="0 0 0 0 0 0 0 0 0 0 0 0 0 0 0 0 0 0 0.25 0"/>
<feBlend mode="normal" in2="BackgroundImageFix" result="effect1_dropShadow_262_2"/>
<feBlend mode="normal" in="SourceGraphic" in2="effect1_dropShadow_262_2" result="shape"/>
<feColorMatrix in="SourceAlpha" type="matrix" values="0 0 0 0 0 0 0 0 0 0 0 0 0 0 0 0 0 0 127 0" result="hardAlpha"/>
<feOffset dy="5"/>
<feGaussianBlur stdDeviation="5"/>
<feComposite in2="hardAlpha" operator="arithmetic" k2="-1" k3="1"/>
<feColorMatrix type="matrix" values="0 0 0 0 0 0 0 0 0 0 0 0 0 0 0 0 0 0 0.25 0"/>
<feBlend mode="normal" in2="shape" result="effect2_innerShadow_262_2"/>
</filter>
<filter id="filter2_di_262_2" x="239.869" y="213.364" width="240.65" height="247.475" filterUnits="userSpaceOnUse" color-interpolation-filters="sRGB">
<feFlood flood-opacity="0" result="BackgroundImageFix"/>
<feColorMatrix in="SourceAlpha" type="matrix" values="0 0 0 0 0 0 0 0 0 0 0 0 0 0 0 0 0 0 127 0" result="hardAlpha"/>
<feOffset dy="4"/>
<feGaussianBlur stdDeviation="35"/>
<feComposite in2="hardAlpha" operator="out"/>
<feColorMatrix type="matrix" values="0 0 0 0 0 0 0 0 0 0 0 0 0 0 0 0 0 0 0.25 0"/>
<feBlend mode="normal" in2="BackgroundImageFix" result="effect1_dropShadow_262_2"/>
<feBlend mode="normal" in="SourceGraphic" in2="effect1_dropShadow_262_2" result="shape"/>
<feColorMatrix in="SourceAlpha" type="matrix" values="0 0 0 0 0 0 0 0 0 0 0 0 0 0 0 0 0 0 127 0" result="hardAlpha"/>
<feOffset dy="4"/>
<feGaussianBlur stdDeviation="5"/>
<feComposite in2="hardAlpha" operator="arithmetic" k2="-1" k3="1"/>
<feColorMatrix type="matrix" values="0 0 0 0 0 0 0 0 0 0 0 0 0 0 0 0 0 0 0.25 0"/>
<feBlend mode="normal" in2="shape" result="effect2_innerShadow_262_2"/>
</filter>
</defs>
</svg>
