<svg width="722" height="680" viewBox="0 0 722 680" fill="none" xmlns="http://www.w3.org/2000/svg">
<g opacity="0.5" filter="url(#filter0_f_262_3)">
<path d="M444.883 204.992C443.095 201.902 439.796 200 436.227 200H285.762C282.192 200 278.893 201.903 277.106 204.992L201.897 334.987C200.105 338.085 200.105 341.904 201.897 345.002L277.106 475.008C278.893 478.097 282.192 480 285.762 480H436.227C439.796 480 443.095 478.098 444.882 475.008L520.102 345.002C521.895 341.904 521.895 338.084 520.102 334.986L444.883 204.992Z" fill="#FF8B13"/>
</g>
<g filter="url(#filter1_di_262_3)">
<path d="M444.883 204.992C443.095 201.902 439.796 200 436.227 200H285.762C282.192 200 278.893 201.903 277.106 204.992L201.897 334.987C200.105 338.085 200.105 341.904 201.897 345.002L277.106 475.008C278.893 478.097 282.192 480 285.762 480H436.227C439.796 480 443.095 478.098 444.882 475.008L520.102 345.002C521.895 341.904 521.895 338.084 520.102 334.986L444.883 204.992Z" fill="#FF8B13"/>
</g>
<g filter="url(#filter2_di_262_3)">
<path d="M401.175 364.8C401.975 364.8 402.675 365.125 403.275 365.775L409.05 372C404.65 377.1 399.3 381.075 393 383.925C386.75 386.775 379.175 388.2 370.275 388.2C362.575 388.2 355.575 386.875 349.275 384.225C342.975 381.525 337.6 377.775 333.15 372.975C328.7 368.125 325.25 362.325 322.8 355.575C320.35 348.825 319.125 341.4 319.125 333.3C319.125 325.2 320.4 317.775 322.95 311.025C325.5 304.275 329.075 298.475 333.675 293.625C338.325 288.775 343.875 285.025 350.325 282.375C356.775 279.675 363.9 278.325 371.7 278.325C379.35 278.325 386.1 279.55 391.95 282C397.8 284.45 402.95 287.775 407.4 291.975L402.6 298.65C402.3 299.15 401.9 299.575 401.4 299.925C400.95 300.225 400.325 300.375 399.525 300.375C398.625 300.375 397.525 299.9 396.225 298.95C394.925 297.95 393.225 296.85 391.125 295.65C389.025 294.45 386.4 293.375 383.25 292.425C380.1 291.425 376.225 290.925 371.625 290.925C366.075 290.925 361 291.9 356.4 293.85C351.8 295.75 347.825 298.525 344.475 302.175C341.175 305.825 338.6 310.275 336.75 315.525C334.9 320.775 333.975 326.7 333.975 333.3C333.975 340 334.925 345.975 336.825 351.225C338.775 356.475 341.4 360.925 344.7 364.575C348.05 368.175 351.975 370.925 356.475 372.825C361.025 374.725 365.925 375.675 371.175 375.675C374.375 375.675 377.25 375.5 379.8 375.15C382.4 374.75 384.775 374.15 386.925 373.35C389.125 372.55 391.15 371.55 393 370.35C394.9 369.1 396.775 367.625 398.625 365.925C399.475 365.175 400.325 364.8 401.175 364.8Z" fill="white" shape-rendering="crispEdges"/>
<path d="M403.275 365.775L401.805 367.132L401.809 367.135L403.275 365.775ZM409.05 372L410.564 373.306L411.733 371.952L410.516 370.64L409.05 372ZM393 383.925L392.176 382.103L392.17 382.105L393 383.925ZM349.275 384.225L348.487 386.063L348.5 386.069L349.275 384.225ZM333.15 372.975L331.676 374.327L331.683 374.335L333.15 372.975ZM322.8 355.575L324.68 354.893L322.8 355.575ZM322.95 311.025L324.821 311.732L322.95 311.025ZM333.675 293.625L332.231 292.241L332.224 292.249L333.675 293.625ZM350.325 282.375L351.085 284.225L351.097 284.22L350.325 282.375ZM391.95 282L392.723 280.155L391.95 282ZM407.4 291.975L409.024 293.143L410.046 291.722L408.773 290.521L407.4 291.975ZM402.6 298.65L400.976 297.482L400.928 297.55L400.885 297.621L402.6 298.65ZM401.4 299.925L402.509 301.589L402.528 301.576L402.547 301.563L401.4 299.925ZM396.225 298.95L395.006 300.535L395.025 300.55L395.045 300.565L396.225 298.95ZM391.125 295.65L392.117 293.914L391.125 295.65ZM383.25 292.425L382.645 294.331L382.659 294.336L382.673 294.34L383.25 292.425ZM356.4 293.85L357.164 295.699L357.172 295.695L357.181 295.691L356.4 293.85ZM344.475 302.175L343.002 300.823L342.996 300.828L342.991 300.834L344.475 302.175ZM336.825 351.225L334.944 351.906L334.947 351.913L334.95 351.921L336.825 351.225ZM344.7 364.575L343.216 365.916L343.226 365.927L343.236 365.937L344.7 364.575ZM356.475 372.825L355.697 374.668L355.704 374.671L356.475 372.825ZM379.8 375.15L380.072 377.131L380.088 377.129L380.104 377.127L379.8 375.15ZM386.925 373.35L386.242 371.47L386.235 371.473L386.228 371.476L386.925 373.35ZM393 370.35L394.088 372.028L394.099 372.021L393 370.35ZM398.625 365.925L397.302 364.425L397.287 364.439L397.272 364.452L398.625 365.925ZM401.175 366.8C401.354 366.8 401.54 366.844 401.805 367.132L404.745 364.418C403.81 363.406 402.596 362.8 401.175 362.8V366.8ZM401.809 367.135L407.584 373.36L410.516 370.64L404.741 364.415L401.809 367.135ZM407.536 370.694C403.331 375.568 398.218 379.369 392.176 382.103L393.824 385.747C400.382 382.781 405.969 378.632 410.564 373.306L407.536 370.694ZM392.17 382.105C386.246 384.807 378.97 386.2 370.275 386.2V390.2C379.38 390.2 387.254 388.743 393.83 385.745L392.17 382.105ZM370.275 386.2C362.808 386.2 356.076 384.916 350.05 382.381L348.5 386.069C355.074 388.834 362.342 390.2 370.275 390.2V386.2ZM350.063 382.387C344.008 379.792 338.867 376.2 334.617 371.615L331.683 374.335C336.333 379.35 341.942 383.258 348.487 386.063L350.063 382.387ZM334.624 371.623C330.368 366.984 327.048 361.417 324.68 354.893L320.92 356.257C323.452 363.233 327.032 369.266 331.676 374.327L334.624 371.623ZM324.68 354.893C322.319 348.387 321.125 341.197 321.125 333.3H317.125C317.125 341.603 318.381 349.263 320.92 356.257L324.68 354.893ZM321.125 333.3C321.125 325.412 322.366 318.23 324.821 311.732L321.079 310.318C318.434 317.32 317.125 324.988 317.125 333.3H321.125ZM324.821 311.732C327.284 305.211 330.723 299.643 335.126 295.001L332.224 292.249C327.427 297.307 323.716 303.339 321.079 310.318L324.821 311.732ZM335.119 295.009C339.568 290.368 344.883 286.773 351.085 284.225L349.565 280.525C342.867 283.277 337.082 287.182 332.231 292.241L335.119 295.009ZM351.097 284.22C357.276 281.633 364.135 280.325 371.7 280.325V276.325C363.665 276.325 356.274 277.717 349.553 280.53L351.097 284.22ZM371.7 280.325C379.138 280.325 385.617 281.516 391.177 283.845L392.723 280.155C386.583 277.584 379.562 276.325 371.7 276.325V280.325ZM391.177 283.845C396.814 286.205 401.759 289.401 406.027 293.429L408.773 290.521C404.141 286.149 398.786 282.695 392.723 280.155L391.177 283.845ZM405.776 290.807L400.976 297.482L404.224 299.818L409.024 293.143L405.776 290.807ZM400.885 297.621C400.736 297.869 400.534 298.09 400.253 298.287L402.547 301.563C403.266 301.06 403.864 300.431 404.315 299.679L400.885 297.621ZM400.291 298.261C400.292 298.26 400.109 298.375 399.525 298.375V302.375C400.541 302.375 401.609 302.19 402.509 301.589L400.291 298.261ZM399.525 298.375C399.271 298.375 398.6 298.209 397.405 297.335L395.045 300.565C396.45 301.591 397.979 302.375 399.525 302.375V298.375ZM397.444 297.365C396.047 296.29 394.263 295.14 392.117 293.914L390.133 297.386C392.187 298.56 393.803 299.61 395.006 300.535L397.444 297.365ZM392.117 293.914C389.849 292.617 387.074 291.489 383.827 290.51L382.673 294.34C385.726 295.261 388.201 296.283 390.133 297.386L392.117 293.914ZM383.855 290.519C380.45 289.438 376.356 288.925 371.625 288.925V292.925C376.094 292.925 379.75 293.412 382.645 294.331L383.855 290.519ZM371.625 288.925C365.837 288.925 360.492 289.943 355.619 292.009L357.181 295.691C361.508 293.857 366.313 292.925 371.625 292.925V288.925ZM355.636 292.001C350.768 294.012 346.55 296.956 343.002 300.823L345.948 303.527C349.1 300.094 352.832 297.487 357.164 295.699L355.636 292.001ZM342.991 300.834C339.492 304.704 336.79 309.393 334.864 314.86L338.636 316.19C340.41 311.157 342.858 306.946 345.959 303.516L342.991 300.834ZM334.864 314.86C332.926 320.359 331.975 326.515 331.975 333.3H335.975C335.975 326.885 336.874 321.191 338.636 316.19L334.864 314.86ZM331.975 333.3C331.975 340.187 332.951 346.399 334.944 351.906L338.706 350.544C336.899 345.551 335.975 339.813 335.975 333.3H331.975ZM334.95 351.921C336.976 357.377 339.724 362.054 343.216 365.916L346.184 363.234C343.076 359.796 340.574 355.573 338.7 350.529L334.95 351.921ZM343.236 365.937C346.777 369.743 350.935 372.657 355.697 374.667L357.253 370.982C353.015 369.193 349.323 366.607 346.164 363.213L343.236 365.937ZM355.704 374.671C360.514 376.679 365.678 377.675 371.175 377.675V373.675C366.172 373.675 361.536 372.771 357.246 370.979L355.704 374.671ZM371.175 377.675C374.445 377.675 377.413 377.496 380.072 377.131L379.528 373.169C377.087 373.504 374.305 373.675 371.175 373.675V377.675ZM380.104 377.127C382.819 376.709 385.328 376.078 387.622 375.224L386.228 371.476C384.222 372.222 381.981 372.791 379.496 373.173L380.104 377.127ZM387.608 375.23C389.942 374.381 392.104 373.315 394.088 372.028L391.912 368.672C390.196 369.785 388.308 370.719 386.242 371.47L387.608 375.23ZM394.099 372.021C396.098 370.706 398.057 369.163 399.978 367.398L397.272 364.452C395.493 366.087 393.702 367.494 391.901 368.679L394.099 372.021ZM399.948 367.425C400.556 366.888 400.955 366.8 401.175 366.8V362.8C399.695 362.8 398.394 363.462 397.302 364.425L399.948 367.425Z" fill="black" fill-opacity="0.1"/>
</g>
<defs>
<filter id="filter0_f_262_3" x="0.552734" y="0" width="720.894" height="680" filterUnits="userSpaceOnUse" color-interpolation-filters="sRGB">
<feFlood flood-opacity="0" result="BackgroundImageFix"/>
<feBlend mode="normal" in="SourceGraphic" in2="BackgroundImageFix" result="shape"/>
<feGaussianBlur stdDeviation="100" result="effect1_foregroundBlur_262_3"/>
</filter>
<filter id="filter1_di_262_3" x="175.553" y="190" width="360.894" height="320" filterUnits="userSpaceOnUse" color-interpolation-filters="sRGB">
<feFlood flood-opacity="0" result="BackgroundImageFix"/>
<feColorMatrix in="SourceAlpha" type="matrix" values="0 0 0 0 0 0 0 0 0 0 0 0 0 0 0 0 0 0 127 0" result="hardAlpha"/>
<feOffset dx="-5" dy="10"/>
<feGaussianBlur stdDeviation="10"/>
<feComposite in2="hardAlpha" operator="out"/>
<feColorMatrix type="matrix" values="0 0 0 0 0 0 0 0 0 0 0 0 0 0 0 0 0 0 0.25 0"/>
<feBlend mode="normal" in2="BackgroundImageFix" result="effect1_dropShadow_262_3"/>
<feBlend mode="normal" in="SourceGraphic" in2="effect1_dropShadow_262_3" result="shape"/>
<feColorMatrix in="SourceAlpha" type="matrix" values="0 0 0 0 0 0 0 0 0 0 0 0 0 0 0 0 0 0 127 0" result="hardAlpha"/>
<feOffset dy="-5"/>
<feGaussianBlur stdDeviation="5"/>
<feComposite in2="hardAlpha" operator="arithmetic" k2="-1" k3="1"/>
<feColorMatrix type="matrix" values="0 0 0 0 0 0 0 0 0 0 0 0 0 0 0 0 0 0 0.25 0"/>
<feBlend mode="normal" in2="shape" result="effect2_innerShadow_262_3"/>
</filter>
<filter id="filter2_di_262_3" x="249.125" y="212.325" width="229.925" height="249.875" filterUnits="userSpaceOnUse" color-interpolation-filters="sRGB">
<feFlood flood-opacity="0" result="BackgroundImageFix"/>
<feColorMatrix in="SourceAlpha" type="matrix" values="0 0 0 0 0 0 0 0 0 0 0 0 0 0 0 0 0 0 127 0" result="hardAlpha"/>
<feOffset dy="4"/>
<feGaussianBlur stdDeviation="35"/>
<feComposite in2="hardAlpha" operator="out"/>
<feColorMatrix type="matrix" values="0 0 0 0 0 0 0 0 0 0 0 0 0 0 0 0 0 0 0.25 0"/>
<feBlend mode="normal" in2="BackgroundImageFix" result="effect1_dropShadow_262_3"/>
<feBlend mode="normal" in="SourceGraphic" in2="effect1_dropShadow_262_3" result="shape"/>
<feColorMatrix in="SourceAlpha" type="matrix" values="0 0 0 0 0 0 0 0 0 0 0 0 0 0 0 0 0 0 127 0" result="hardAlpha"/>
<feOffset dy="4"/>
<feGaussianBlur stdDeviation="5"/>
<feComposite in2="hardAlpha" operator="arithmetic" k2="-1" k3="1"/>
<feColorMatrix type="matrix" values="0 0 0 0 0 0 0 0 0 0 0 0 0 0 0 0 0 0 0.25 0"/>
<feBlend mode="normal" in2="shape" result="effect2_innerShadow_262_3"/>
</filter>
</defs>
</svg>
