<svg width="721" height="680" viewBox="0 0 721 680" fill="none" xmlns="http://www.w3.org/2000/svg">
<g opacity="0.5" filter="url(#filter0_f_262_4)">
<path d="M444.13 205.003C442.344 201.907 439.042 200 435.468 200H285.521C281.946 200 278.644 201.908 276.858 205.004L201.882 334.998C200.098 338.09 200.098 341.898 201.881 344.99L276.858 474.996C278.644 478.092 281.947 480 285.521 480H435.468C439.042 480 442.344 478.092 444.13 474.996L519.118 344.991C520.902 341.899 520.901 338.09 519.118 334.998L444.13 205.003Z" fill="#FFC107"/>
</g>
<g filter="url(#filter1_di_262_4)">
<path d="M444.13 205.003C442.344 201.907 439.042 200 435.468 200H285.521C281.946 200 278.644 201.908 276.858 205.004L201.882 334.998C200.098 338.09 200.098 341.898 201.881 344.99L276.858 474.996C278.644 478.092 281.947 480 285.521 480H435.468C439.042 480 442.344 478.092 444.13 474.996L519.118 344.991C520.902 341.899 520.901 338.09 519.118 334.998L444.13 205.003Z" fill="#FFC107"/>
</g>
<g filter="url(#filter2_di_262_4)">
<path d="M400.175 364.8C400.975 364.8 401.675 365.125 402.275 365.775L408.05 372C403.65 377.1 398.3 381.075 392 383.925C385.75 386.775 378.175 388.2 369.275 388.2C361.575 388.2 354.575 386.875 348.275 384.225C341.975 381.525 336.6 377.775 332.15 372.975C327.7 368.125 324.25 362.325 321.8 355.575C319.35 348.825 318.125 341.4 318.125 333.3C318.125 325.2 319.4 317.775 321.95 311.025C324.5 304.275 328.075 298.475 332.675 293.625C337.325 288.775 342.875 285.025 349.325 282.375C355.775 279.675 362.9 278.325 370.7 278.325C378.35 278.325 385.1 279.55 390.95 282C396.8 284.45 401.95 287.775 406.4 291.975L401.6 298.65C401.3 299.15 400.9 299.575 400.4 299.925C399.95 300.225 399.325 300.375 398.525 300.375C397.625 300.375 396.525 299.9 395.225 298.95C393.925 297.95 392.225 296.85 390.125 295.65C388.025 294.45 385.4 293.375 382.25 292.425C379.1 291.425 375.225 290.925 370.625 290.925C365.075 290.925 360 291.9 355.4 293.85C350.8 295.75 346.825 298.525 343.475 302.175C340.175 305.825 337.6 310.275 335.75 315.525C333.9 320.775 332.975 326.7 332.975 333.3C332.975 340 333.925 345.975 335.825 351.225C337.775 356.475 340.4 360.925 343.7 364.575C347.05 368.175 350.975 370.925 355.475 372.825C360.025 374.725 364.925 375.675 370.175 375.675C373.375 375.675 376.25 375.5 378.8 375.15C381.4 374.75 383.775 374.15 385.925 373.35C388.125 372.55 390.15 371.55 392 370.35C393.9 369.1 395.775 367.625 397.625 365.925C398.475 365.175 399.325 364.8 400.175 364.8Z" fill="white" shape-rendering="crispEdges"/>
<path d="M402.275 365.775L400.805 367.132L400.809 367.135L402.275 365.775ZM408.05 372L409.564 373.306L410.733 371.952L409.516 370.64L408.05 372ZM392 383.925L391.176 382.103L391.17 382.105L392 383.925ZM348.275 384.225L347.487 386.063L347.5 386.069L348.275 384.225ZM332.15 372.975L330.676 374.327L330.683 374.335L332.15 372.975ZM321.8 355.575L323.68 354.893L321.8 355.575ZM321.95 311.025L323.821 311.732L321.95 311.025ZM332.675 293.625L331.231 292.241L331.224 292.249L332.675 293.625ZM349.325 282.375L350.085 284.225L350.097 284.22L349.325 282.375ZM390.95 282L391.723 280.155L390.95 282ZM406.4 291.975L408.024 293.143L409.046 291.722L407.773 290.521L406.4 291.975ZM401.6 298.65L399.976 297.482L399.928 297.55L399.885 297.621L401.6 298.65ZM400.4 299.925L401.509 301.589L401.528 301.576L401.547 301.563L400.4 299.925ZM395.225 298.95L394.006 300.535L394.025 300.55L394.045 300.565L395.225 298.95ZM390.125 295.65L391.117 293.914L390.125 295.65ZM382.25 292.425L381.645 294.331L381.659 294.336L381.673 294.34L382.25 292.425ZM355.4 293.85L356.164 295.699L356.172 295.695L356.181 295.691L355.4 293.85ZM343.475 302.175L342.002 300.823L341.996 300.828L341.991 300.834L343.475 302.175ZM335.825 351.225L333.944 351.906L333.947 351.913L333.95 351.921L335.825 351.225ZM343.7 364.575L342.216 365.916L342.226 365.927L342.236 365.937L343.7 364.575ZM355.475 372.825L354.697 374.668L354.704 374.671L355.475 372.825ZM378.8 375.15L379.072 377.131L379.088 377.129L379.104 377.127L378.8 375.15ZM385.925 373.35L385.242 371.47L385.235 371.473L385.228 371.476L385.925 373.35ZM392 370.35L393.088 372.028L393.099 372.021L392 370.35ZM397.625 365.925L396.302 364.425L396.287 364.439L396.272 364.452L397.625 365.925ZM400.175 366.8C400.354 366.8 400.54 366.844 400.805 367.132L403.745 364.418C402.81 363.406 401.596 362.8 400.175 362.8V366.8ZM400.809 367.135L406.584 373.36L409.516 370.64L403.741 364.415L400.809 367.135ZM406.536 370.694C402.331 375.568 397.218 379.369 391.176 382.103L392.824 385.747C399.382 382.781 404.969 378.632 409.564 373.306L406.536 370.694ZM391.17 382.105C385.246 384.807 377.97 386.2 369.275 386.2V390.2C378.38 390.2 386.254 388.743 392.83 385.745L391.17 382.105ZM369.275 386.2C361.808 386.2 355.076 384.916 349.05 382.381L347.5 386.069C354.074 388.834 361.342 390.2 369.275 390.2V386.2ZM349.063 382.387C343.008 379.792 337.867 376.2 333.617 371.615L330.683 374.335C335.333 379.35 340.942 383.258 347.487 386.063L349.063 382.387ZM333.624 371.623C329.368 366.984 326.048 361.417 323.68 354.893L319.92 356.257C322.452 363.233 326.032 369.266 330.676 374.327L333.624 371.623ZM323.68 354.893C321.319 348.387 320.125 341.197 320.125 333.3H316.125C316.125 341.603 317.381 349.263 319.92 356.257L323.68 354.893ZM320.125 333.3C320.125 325.412 321.366 318.23 323.821 311.732L320.079 310.318C317.434 317.32 316.125 324.988 316.125 333.3H320.125ZM323.821 311.732C326.284 305.211 329.723 299.643 334.126 295.001L331.224 292.249C326.427 297.307 322.716 303.339 320.079 310.318L323.821 311.732ZM334.119 295.009C338.568 290.368 343.883 286.773 350.085 284.225L348.565 280.525C341.867 283.277 336.082 287.182 331.231 292.241L334.119 295.009ZM350.097 284.22C356.276 281.633 363.135 280.325 370.7 280.325V276.325C362.665 276.325 355.274 277.717 348.553 280.53L350.097 284.22ZM370.7 280.325C378.138 280.325 384.617 281.516 390.177 283.845L391.723 280.155C385.583 277.584 378.562 276.325 370.7 276.325V280.325ZM390.177 283.845C395.814 286.205 400.759 289.401 405.027 293.429L407.773 290.521C403.141 286.149 397.786 282.695 391.723 280.155L390.177 283.845ZM404.776 290.807L399.976 297.482L403.224 299.818L408.024 293.143L404.776 290.807ZM399.885 297.621C399.736 297.869 399.534 298.09 399.253 298.287L401.547 301.563C402.266 301.06 402.864 300.431 403.315 299.679L399.885 297.621ZM399.291 298.261C399.292 298.26 399.109 298.375 398.525 298.375V302.375C399.541 302.375 400.609 302.19 401.509 301.589L399.291 298.261ZM398.525 298.375C398.271 298.375 397.6 298.209 396.405 297.335L394.045 300.565C395.45 301.591 396.979 302.375 398.525 302.375V298.375ZM396.444 297.365C395.047 296.29 393.263 295.14 391.117 293.914L389.133 297.386C391.187 298.56 392.803 299.61 394.006 300.535L396.444 297.365ZM391.117 293.914C388.849 292.617 386.074 291.489 382.827 290.51L381.673 294.34C384.726 295.261 387.201 296.283 389.133 297.386L391.117 293.914ZM382.855 290.519C379.45 289.438 375.356 288.925 370.625 288.925V292.925C375.094 292.925 378.75 293.412 381.645 294.331L382.855 290.519ZM370.625 288.925C364.837 288.925 359.492 289.943 354.619 292.009L356.181 295.691C360.508 293.857 365.313 292.925 370.625 292.925V288.925ZM354.636 292.001C349.768 294.012 345.55 296.956 342.002 300.823L344.948 303.527C348.1 300.094 351.832 297.487 356.164 295.699L354.636 292.001ZM341.991 300.834C338.492 304.704 335.79 309.393 333.864 314.86L337.636 316.19C339.41 311.157 341.858 306.946 344.959 303.516L341.991 300.834ZM333.864 314.86C331.926 320.359 330.975 326.515 330.975 333.3H334.975C334.975 326.885 335.874 321.191 337.636 316.19L333.864 314.86ZM330.975 333.3C330.975 340.187 331.951 346.399 333.944 351.906L337.706 350.544C335.899 345.551 334.975 339.813 334.975 333.3H330.975ZM333.95 351.921C335.976 357.377 338.724 362.054 342.216 365.916L345.184 363.234C342.076 359.796 339.574 355.573 337.7 350.529L333.95 351.921ZM342.236 365.937C345.777 369.743 349.935 372.657 354.697 374.667L356.253 370.982C352.015 369.193 348.323 366.607 345.164 363.213L342.236 365.937ZM354.704 374.671C359.514 376.679 364.678 377.675 370.175 377.675V373.675C365.172 373.675 360.536 372.771 356.246 370.979L354.704 374.671ZM370.175 377.675C373.445 377.675 376.413 377.496 379.072 377.131L378.528 373.169C376.087 373.504 373.305 373.675 370.175 373.675V377.675ZM379.104 377.127C381.819 376.709 384.328 376.078 386.622 375.224L385.228 371.476C383.222 372.222 380.981 372.791 378.496 373.173L379.104 377.127ZM386.608 375.23C388.942 374.381 391.104 373.315 393.088 372.028L390.912 368.672C389.196 369.785 387.308 370.719 385.242 371.47L386.608 375.23ZM393.099 372.021C395.098 370.706 397.057 369.163 398.978 367.398L396.272 364.452C394.493 366.087 392.702 367.494 390.901 368.679L393.099 372.021ZM398.948 367.425C399.556 366.888 399.955 366.8 400.175 366.8V362.8C398.695 362.8 397.394 363.462 396.302 364.425L398.948 367.425Z" fill="black" fill-opacity="0.1"/>
</g>
<defs>
<filter id="filter0_f_262_4" x="0.543945" y="0" width="719.912" height="680" filterUnits="userSpaceOnUse" color-interpolation-filters="sRGB">
<feFlood flood-opacity="0" result="BackgroundImageFix"/>
<feBlend mode="normal" in="SourceGraphic" in2="BackgroundImageFix" result="shape"/>
<feGaussianBlur stdDeviation="100" result="effect1_foregroundBlur_262_4"/>
</filter>
<filter id="filter1_di_262_4" x="170.544" y="175" width="359.912" height="320" filterUnits="userSpaceOnUse" color-interpolation-filters="sRGB">
<feFlood flood-opacity="0" result="BackgroundImageFix"/>
<feColorMatrix in="SourceAlpha" type="matrix" values="0 0 0 0 0 0 0 0 0 0 0 0 0 0 0 0 0 0 127 0" result="hardAlpha"/>
<feOffset dx="-10" dy="-5"/>
<feGaussianBlur stdDeviation="10"/>
<feComposite in2="hardAlpha" operator="out"/>
<feColorMatrix type="matrix" values="0 0 0 0 0 0 0 0 0 0 0 0 0 0 0 0 0 0 0.25 0"/>
<feBlend mode="normal" in2="BackgroundImageFix" result="effect1_dropShadow_262_4"/>
<feBlend mode="normal" in="SourceGraphic" in2="effect1_dropShadow_262_4" result="shape"/>
<feColorMatrix in="SourceAlpha" type="matrix" values="0 0 0 0 0 0 0 0 0 0 0 0 0 0 0 0 0 0 127 0" result="hardAlpha"/>
<feOffset dx="5" dy="5"/>
<feGaussianBlur stdDeviation="5"/>
<feComposite in2="hardAlpha" operator="arithmetic" k2="-1" k3="1"/>
<feColorMatrix type="matrix" values="0 0 0 0 0 0 0 0 0 0 0 0 0 0 0 0 0 0 0.25 0"/>
<feBlend mode="normal" in2="shape" result="effect2_innerShadow_262_4"/>
</filter>
<filter id="filter2_di_262_4" x="248.125" y="212.325" width="229.925" height="249.875" filterUnits="userSpaceOnUse" color-interpolation-filters="sRGB">
<feFlood flood-opacity="0" result="BackgroundImageFix"/>
<feColorMatrix in="SourceAlpha" type="matrix" values="0 0 0 0 0 0 0 0 0 0 0 0 0 0 0 0 0 0 127 0" result="hardAlpha"/>
<feOffset dy="4"/>
<feGaussianBlur stdDeviation="35"/>
<feComposite in2="hardAlpha" operator="out"/>
<feColorMatrix type="matrix" values="0 0 0 0 0 0 0 0 0 0 0 0 0 0 0 0 0 0 0.25 0"/>
<feBlend mode="normal" in2="BackgroundImageFix" result="effect1_dropShadow_262_4"/>
<feBlend mode="normal" in="SourceGraphic" in2="effect1_dropShadow_262_4" result="shape"/>
<feColorMatrix in="SourceAlpha" type="matrix" values="0 0 0 0 0 0 0 0 0 0 0 0 0 0 0 0 0 0 127 0" result="hardAlpha"/>
<feOffset dy="4"/>
<feGaussianBlur stdDeviation="5"/>
<feComposite in2="hardAlpha" operator="arithmetic" k2="-1" k3="1"/>
<feColorMatrix type="matrix" values="0 0 0 0 0 0 0 0 0 0 0 0 0 0 0 0 0 0 0.25 0"/>
<feBlend mode="normal" in2="shape" result="effect2_innerShadow_262_4"/>
</filter>
</defs>
</svg>
