<svg width="43" height="43" viewBox="0 0 43 43" fill="none" xmlns="http://www.w3.org/2000/svg">
<mask id="mask0_445_2464" style="mask-type:luminance" maskUnits="userSpaceOnUse" x="5" y="4" width="38" height="37">
<path d="M5.89258 4.24707H43V40.902H5.89258V4.24707Z" fill="white"/>
</mask>
<g mask="url(#mask0_445_2464)">
<path d="M42.4552 14.2202C40.8673 16.8938 40.2689 20.0295 40.7695 23.05C40.9358 24.0531 41.1425 25.3012 41.245 26.5545C41.3578 27.9391 41.3321 29.1761 41.1657 30.3357C40.7394 33.3073 39.3608 35.9237 36.9508 38.3345C35.247 40.0389 33.1534 40.9022 30.726 40.9022C30.6694 40.9022 30.6123 40.9016 30.5553 40.9007C28.6094 40.8686 26.4343 40.2859 24.0906 39.1688C22.229 38.2815 20.2553 37.0559 18.2237 35.5266C14.8817 33.0106 12.4669 30.4755 12.2942 30.2928L7.64914 26.1226C7.13549 25.6616 6.83211 25.0281 6.79478 24.3388C6.75745 23.6497 6.99095 22.987 7.45172 22.4733C7.91271 21.9595 8.5458 21.6561 9.2351 21.619C9.92045 21.5818 10.5799 21.8126 11.0925 22.2693L16.1413 26.2713C16.1732 26.2966 16.2062 26.2922 16.2232 26.2872C16.2398 26.2823 16.2701 26.2684 16.2834 26.2298C16.2954 26.1948 16.2854 26.1566 16.2576 26.1323C16.06 25.9581 15.6077 25.5515 14.5151 24.5698C13.1403 23.3341 10.8391 21.2666 6.7784 17.6238C6.26475 17.1626 5.96137 16.5291 5.92404 15.8398C5.88671 15.1505 6.12021 14.488 6.58098 13.9743C7.04217 13.4607 7.67548 13.1571 8.36415 13.1197C9.05365 13.0824 9.71578 13.3159 10.2294 13.7769L17.7638 20.5408C17.478 20.2549 17.1031 19.8787 16.6052 19.3792C15.2243 17.9929 12.9128 15.6731 8.95536 11.7256C7.94796 10.7176 7.94796 9.07791 8.95515 8.07051C9.44309 7.58237 10.0919 7.31341 10.7821 7.31341C11.472 7.31341 12.1206 7.58237 12.6088 8.07031C16.7078 12.1721 19.0123 14.4763 20.3893 15.8531C21.2183 16.6819 21.6747 17.1385 21.9178 17.3822C21.9536 17.4181 21.9955 17.4237 22.0173 17.4237C22.0175 17.4237 22.0175 17.4237 22.0175 17.4237C22.0393 17.4237 22.0812 17.4181 22.1173 17.3824C22.1672 17.3322 22.1724 17.2522 22.1293 17.1962L15.3552 8.41288C14.9338 7.86625 14.7501 7.18816 14.8384 6.50363C14.9267 5.81911 15.276 5.20986 15.8226 4.78828C16.369 4.36649 17.0469 4.18297 17.731 4.2711C18.4155 4.35965 19.0246 4.70927 19.4461 5.25569L26.6294 14.5699C27.5532 15.7678 28.7251 16.898 29.8436 17.6702C31.121 18.5524 32.2354 18.9192 33.0659 18.7318C33.8875 18.5462 34.4468 17.7924 34.7282 16.4913C35.0936 14.8013 35.8776 13.3837 37.0582 12.2776C38.0523 11.3463 39.123 10.8333 39.8463 10.5672C40.7066 10.2502 41.6568 10.4281 42.3258 11.0315C42.7106 11.3787 42.9342 11.7994 42.9902 12.2818C43.0567 12.858 42.877 13.51 42.4552 14.2202Z" fill="#F7CD3C"/>
<path d="M41.9156 13.8999C40.2525 16.7006 39.6256 19.9865 40.1505 23.1529C40.5053 25.2929 40.9074 27.7183 40.5447 30.2463C40.1384 33.079 38.8179 35.5794 36.5072 37.8908C35.6663 38.7319 34.7174 39.3579 33.6864 39.7519C32.7325 40.116 31.6828 40.2915 30.5663 40.2732C28.7124 40.243 26.6261 39.6814 24.3656 38.6047C22.543 37.7367 20.6066 36.5342 18.6094 35.0314C15.1986 32.465 12.7666 29.8791 12.7423 29.8534L12.733 29.8434L8.06802 25.6556C7.67921 25.3064 7.44965 24.827 7.42124 24.3048C7.39304 23.7831 7.56972 23.2814 7.91872 22.8924C8.26772 22.5034 8.74716 22.2736 9.2691 22.2456C9.30498 22.2433 9.34085 22.2425 9.37694 22.2425C9.85969 22.2425 10.319 22.4182 10.6809 22.7431L10.6879 22.7495L15.7515 26.7632C15.9339 26.9077 16.1759 26.955 16.3991 26.8896C16.6222 26.8245 16.8009 26.6541 16.8764 26.4343C16.9718 26.1578 16.8916 25.8545 16.6724 25.6614C16.477 25.4891 16.0254 25.0833 14.9344 24.1028C13.5596 22.8673 11.2582 20.7996 7.19728 17.1566C6.80847 16.8074 6.5787 16.3277 6.5505 15.806C6.52251 15.284 6.69918 14.7824 7.04798 14.3934C7.39719 14.0044 7.87662 13.7746 8.39836 13.7464C8.9199 13.7184 9.42152 13.8951 9.81034 14.2439L18.2896 21.8558C18.4219 21.9746 18.5988 22.0285 18.7751 22.004C18.9514 21.9794 19.1067 21.8788 19.2014 21.728C19.359 21.4769 19.3082 21.1424 19.0832 20.95C18.9026 20.7957 18.473 20.3646 17.0498 18.936C15.6683 17.5498 13.3566 15.2293 9.39871 11.2814C8.63622 10.5185 8.63622 9.27719 9.39871 8.51428C9.76824 8.14454 10.2595 7.94111 10.7821 7.94111C11.3044 7.94111 11.7959 8.14454 12.165 8.51428C16.2641 12.6156 18.5688 14.9201 19.9459 16.2968C20.7743 17.1257 21.231 17.5821 21.4734 17.8251C21.6185 17.9707 21.8116 18.051 22.0169 18.0512H22.0175C22.2228 18.0512 22.4159 17.9711 22.561 17.826C22.8333 17.5537 22.8613 17.118 22.6259 16.813L15.852 8.02945C15.5327 7.61575 15.3937 7.10231 15.4607 6.58409C15.5275 6.06567 15.7923 5.60427 16.2058 5.28493C16.6193 4.96579 17.1325 4.82685 17.651 4.89362C18.169 4.96039 18.6301 5.2252 18.9493 5.63911L26.1327 14.9531C27.0945 16.2004 28.3174 17.3791 29.4874 18.1868C30.333 18.771 31.5098 19.4063 32.6251 19.4061C32.8208 19.4061 33.0145 19.3866 33.2042 19.3439C33.7293 19.2253 34.1764 18.9406 34.5324 18.4976C34.8991 18.0418 35.1711 17.4114 35.3414 16.6241C35.6794 15.0611 36.4014 13.753 37.487 12.7357C38.4042 11.8761 39.3942 11.4023 40.063 11.156C40.2741 11.0782 40.4922 11.0402 40.7073 11.0402C41.146 11.0402 41.5732 11.1978 41.9056 11.4977C42.1738 11.7397 42.3289 12.0277 42.3668 12.3541C42.4174 12.7904 42.2656 13.3105 41.9156 13.8999ZM42.9902 12.2818C42.9342 11.7994 42.7106 11.3787 42.3258 11.0315C41.6568 10.4281 40.7066 10.2502 39.8463 10.5672C39.123 10.8333 38.0523 11.3463 37.0582 12.2776C35.8776 13.3837 35.0936 14.8013 34.7282 16.4913C34.4468 17.7924 33.8875 18.5462 33.0659 18.7318C32.2354 18.9192 31.121 18.5524 29.8436 17.6702C28.7251 16.898 27.5532 15.7678 26.6294 14.5699L19.4461 5.25569C19.0246 4.70927 18.4155 4.35965 17.731 4.2711C17.0469 4.18297 16.369 4.36649 15.8226 4.78828C15.276 5.20986 14.9267 5.81911 14.8384 6.50363C14.7501 7.18816 14.9338 7.86625 15.3552 8.41288L22.1293 17.1962C22.1724 17.2522 22.1672 17.3322 22.1173 17.3824C22.0812 17.4181 22.0393 17.4237 22.0175 17.4237C22.0175 17.4237 22.0175 17.4237 22.0173 17.4237C21.9955 17.4237 21.9536 17.4181 21.9178 17.3822C21.6747 17.1385 21.2183 16.6819 20.3893 15.8531C19.0123 14.4763 16.7078 12.1721 12.6088 8.07031C12.1206 7.58237 11.472 7.31341 10.7821 7.31341C10.0919 7.31341 9.44309 7.58237 8.95515 8.07051C7.94796 9.07791 7.94796 10.7176 8.95536 11.7256C12.9128 15.6731 15.2243 17.9929 16.6052 19.3792C17.1031 19.8787 17.478 20.2549 17.7638 20.5408L10.2294 13.7769C9.71578 13.3159 9.05365 13.0824 8.36415 13.1197C7.67548 13.1571 7.04217 13.4607 6.58098 13.9743C6.12021 14.488 5.88671 15.1505 5.92404 15.8398C5.96137 16.5291 6.26475 17.1626 6.7784 17.6238C10.8391 21.2666 13.1403 23.3341 14.5151 24.5698C15.6077 25.5515 16.06 25.9581 16.2576 26.1323C16.2854 26.1566 16.2954 26.1948 16.2834 26.2298C16.2701 26.2684 16.2398 26.2823 16.2232 26.2872C16.2062 26.2922 16.1732 26.2966 16.1413 26.2713L11.0925 22.2693C10.5799 21.8126 9.92045 21.5818 9.2351 21.619C8.5458 21.6561 7.91271 21.9595 7.45172 22.4733C6.99095 22.987 6.75745 23.6497 6.79478 24.3388C6.83211 25.0281 7.13549 25.6616 7.64914 26.1226L12.2942 30.2928C12.4669 30.4755 14.8817 33.0106 18.2237 35.5266C20.2553 37.0559 22.229 38.2815 24.0906 39.1688C26.4343 40.2859 28.6094 40.8686 30.5553 40.9007C30.6123 40.9016 30.6694 40.9022 30.726 40.9022C33.1534 40.9022 35.247 40.0389 36.9508 38.3345C39.3608 35.9237 40.7394 33.3073 41.1657 30.3357C41.3321 29.1761 41.3578 27.9391 41.245 26.5545C41.1425 25.3012 40.9358 24.0531 40.7695 23.05C40.2689 20.0295 40.8673 16.8938 42.4552 14.2202C42.877 13.51 43.0567 12.858 42.9902 12.2818Z" fill="#D19119"/>
</g>
<path d="M32.1482 10.5387C31.9502 10.5387 31.7799 10.3888 31.759 10.1874C31.6591 9.24038 31.4015 8.32982 30.9934 7.48106C30.5959 6.65449 30.0654 5.90672 29.4172 5.25807C28.7687 4.60963 28.0212 4.07918 27.1948 3.68124C26.3463 3.27314 25.4361 3.01558 24.4895 2.91563C24.274 2.89303 24.1179 2.69997 24.1405 2.48431C24.1633 2.26906 24.3564 2.1127 24.5716 2.13551C25.6082 2.24479 26.6051 2.52702 27.5347 2.97453C28.4407 3.41041 29.2606 3.99229 29.9717 4.70336C30.6826 5.41463 31.2642 6.23478 31.7001 7.14119C32.1472 8.07103 32.4294 9.06826 32.5387 10.1051C32.5613 10.3206 32.4054 10.5136 32.1899 10.5364C32.1758 10.5379 32.1619 10.5387 32.1482 10.5387Z" fill="#FCFCFC"/>
<path d="M28.9593 10.8321C28.7625 10.8321 28.5929 10.6842 28.5701 10.4841C28.4394 9.33675 27.9511 8.3109 27.1581 7.51771C26.3651 6.72453 25.3399 6.23617 24.1927 6.10532C23.9777 6.08065 23.823 5.88634 23.8477 5.67109C23.8721 5.45605 24.0665 5.30115 24.2815 5.32583C24.9447 5.40152 25.5792 5.58359 26.1677 5.86706C26.7434 6.14452 27.2633 6.51343 27.7128 6.963C28.1622 7.41279 28.5307 7.93287 28.8084 8.50852C29.0918 9.09724 29.2737 9.732 29.3494 10.3954C29.3739 10.6104 29.2194 10.8049 29.0041 10.8294C28.989 10.8311 28.974 10.8321 28.9593 10.8321Z" fill="#FCFCFC"/>
<path d="M8.03343 34.6622C8.01953 34.6622 8.00585 34.6614 7.99175 34.6599C6.95532 34.5506 5.95829 34.2684 5.02886 33.8209C4.12266 33.385 3.30272 32.8031 2.59165 32.0921C1.88079 31.3808 1.29933 30.5606 0.863443 29.6542C0.416148 28.7244 0.134127 27.7271 0.0246358 26.6903C0.0020326 26.4748 0.158181 26.2818 0.37343 26.259C0.588886 26.2366 0.781739 26.3925 0.80455 26.608C0.904502 27.555 1.16205 28.4656 1.57016 29.3141C1.96747 30.1407 2.49792 30.8887 3.14637 31.5373C3.7946 32.1858 4.54237 32.7164 5.36874 33.114C6.21708 33.5223 7.12722 33.7798 8.07407 33.8798C8.28953 33.9026 8.44568 34.0954 8.42286 34.3109C8.40171 34.5125 8.23146 34.6622 8.03343 34.6622Z" fill="#FCFCFC"/>
<path d="M8.32669 31.472C8.31217 31.472 8.29704 31.4712 8.2819 31.4693C7.61894 31.3938 6.98418 31.2117 6.39588 30.9283C5.82022 30.6506 5.30035 30.2819 4.85077 29.8323C4.4012 29.3825 4.0327 28.8627 3.75524 28.2868C3.47177 27.6981 3.2897 27.0633 3.21422 26.4C3.18975 26.1847 3.34424 25.9904 3.55928 25.9659C3.77453 25.9415 3.96883 26.0959 3.99351 26.3112C4.12415 27.4586 4.6123 28.4844 5.40528 29.2776C6.19826 30.0708 7.22369 30.5591 8.37086 30.69C8.5859 30.7147 8.7406 30.909 8.71592 31.1242C8.69311 31.3243 8.52348 31.472 8.32669 31.472Z" fill="#FCFCFC"/>
</svg>
