<svg width="136" height="29" viewBox="0 0 136 29" fill="none" xmlns="http://www.w3.org/2000/svg">
<path d="M0.275568 28V1.81818H5.81108V12.6207H17.0483V1.81818H22.571V28H17.0483V17.1847H5.81108V28H0.275568ZM27.0327 28V8.36364H32.4787V28H27.0327ZM29.7685 5.83239C28.9588 5.83239 28.2642 5.56392 27.6847 5.02699C27.1136 4.48153 26.8281 3.82954 26.8281 3.07102C26.8281 2.32102 27.1136 1.67756 27.6847 1.14062C28.2642 0.59517 28.9588 0.322442 29.7685 0.322442C30.5781 0.322442 31.2685 0.59517 31.8395 1.14062C32.419 1.67756 32.7088 2.32102 32.7088 3.07102C32.7088 3.82954 32.419 4.48153 31.8395 5.02699C31.2685 5.56392 30.5781 5.83239 29.7685 5.83239ZM55.6179 8.36364V12.4545H43.7926V8.36364H55.6179ZM46.4773 3.65909H51.9233V21.9659C51.9233 22.4687 52 22.8608 52.1534 23.142C52.3068 23.4148 52.5199 23.6065 52.7926 23.7173C53.0739 23.8281 53.3977 23.8835 53.7642 23.8835C54.0199 23.8835 54.2756 23.8622 54.5312 23.8196C54.7869 23.7685 54.983 23.7301 55.1193 23.7045L55.9759 27.7571C55.7031 27.8423 55.3196 27.9403 54.8253 28.0511C54.331 28.1705 53.7301 28.2429 53.0227 28.2685C51.7102 28.3196 50.5597 28.1449 49.571 27.7443C48.5909 27.3437 47.8281 26.7216 47.2827 25.8778C46.7372 25.0341 46.4688 23.9687 46.4773 22.6818V3.65909ZM65.0334 16.6477V28H59.5874V1.81818H64.88V11.8281H65.1101C65.5533 10.669 66.2692 9.76136 67.2578 9.10511C68.2464 8.44034 69.4865 8.10795 70.978 8.10795C72.3416 8.10795 73.5305 8.40625 74.5447 9.00284C75.5675 9.59091 76.3601 10.4389 76.9226 11.5469C77.4936 12.6463 77.7749 13.9631 77.7663 15.4972V28H72.3203V16.4688C72.3288 15.2585 72.022 14.3168 71.3999 13.6435C70.7862 12.9702 69.9254 12.6335 68.8175 12.6335C68.076 12.6335 67.4197 12.7912 66.8487 13.1065C66.2862 13.4219 65.843 13.8821 65.5192 14.4872C65.2038 15.0838 65.0419 15.804 65.0334 16.6477ZM91.0011 28.3835C88.9812 28.3835 87.2425 27.9744 85.7852 27.1562C84.3363 26.3295 83.2198 25.1619 82.4357 23.6534C81.6516 22.1364 81.2596 20.3423 81.2596 18.2713C81.2596 16.2514 81.6516 14.4787 82.4357 12.9531C83.2198 11.4276 84.3235 10.2386 85.7468 9.38636C87.1786 8.53409 88.8576 8.10795 90.7837 8.10795C92.0792 8.10795 93.2852 8.31676 94.4016 8.73438C95.5266 9.14347 96.5067 9.76136 97.342 10.5881C98.1857 11.4148 98.842 12.4545 99.3107 13.7074C99.7795 14.9517 100.014 16.4091 100.014 18.0795V19.5753H83.4329V16.2003H94.8874C94.8874 15.4162 94.717 14.7216 94.3761 14.1165C94.0352 13.5114 93.5621 13.0384 92.957 12.6974C92.3604 12.348 91.6658 12.1733 90.8732 12.1733C90.0465 12.1733 89.3136 12.3651 88.6744 12.7486C88.0437 13.1236 87.5494 13.6307 87.1914 14.2699C86.8335 14.9006 86.6502 15.6037 86.6417 16.3793V19.5881C86.6417 20.5597 86.8207 21.3991 87.1786 22.1065C87.5451 22.8139 88.0607 23.3594 88.7255 23.7429C89.3903 24.1264 90.1786 24.3182 91.0906 24.3182C91.6957 24.3182 92.2496 24.233 92.7525 24.0625C93.2553 23.892 93.6857 23.6364 94.0437 23.2955C94.4016 22.9545 94.6744 22.5369 94.8619 22.0426L99.8988 22.375C99.6431 23.5852 99.119 24.642 98.3264 25.5455C97.5423 26.4403 96.5281 27.1392 95.2837 27.642C94.0479 28.1364 92.6204 28.3835 91.0011 28.3835ZM103.568 28V8.36364H108.848V11.7898H109.052C109.41 10.571 110.011 9.65057 110.855 9.02841C111.699 8.39773 112.67 8.08239 113.77 8.08239C114.042 8.08239 114.336 8.09943 114.652 8.13352C114.967 8.16761 115.244 8.21449 115.483 8.27415V13.1065C115.227 13.0298 114.873 12.9616 114.422 12.902C113.97 12.8423 113.556 12.8125 113.181 12.8125C112.38 12.8125 111.664 12.9872 111.034 13.3366C110.412 13.6776 109.917 14.1548 109.551 14.7685C109.193 15.3821 109.014 16.0895 109.014 16.8906V28H103.568ZM126.333 28.3835C124.313 28.3835 122.575 27.9744 121.117 27.1562C119.668 26.3295 118.552 25.1619 117.768 23.6534C116.984 22.1364 116.592 20.3423 116.592 18.2713C116.592 16.2514 116.984 14.4787 117.768 12.9531C118.552 11.4276 119.656 10.2386 121.079 9.38636C122.511 8.53409 124.19 8.10795 126.116 8.10795C127.411 8.10795 128.617 8.31676 129.734 8.73438C130.859 9.14347 131.839 9.76136 132.674 10.5881C133.518 11.4148 134.174 12.4545 134.643 13.7074C135.112 14.9517 135.346 16.4091 135.346 18.0795V19.5753H118.765V16.2003H130.219C130.219 15.4162 130.049 14.7216 129.708 14.1165C129.367 13.5114 128.894 13.0384 128.289 12.6974C127.692 12.348 126.998 12.1733 126.205 12.1733C125.379 12.1733 124.646 12.3651 124.006 12.7486C123.376 13.1236 122.881 13.6307 122.523 14.2699C122.165 14.9006 121.982 15.6037 121.974 16.3793V19.5881C121.974 20.5597 122.153 21.3991 122.511 22.1065C122.877 22.8139 123.393 23.3594 124.058 23.7429C124.722 24.1264 125.511 24.3182 126.423 24.3182C127.028 24.3182 127.582 24.233 128.085 24.0625C128.587 23.892 129.018 23.6364 129.376 23.2955C129.734 22.9545 130.006 22.5369 130.194 22.0426L135.231 22.375C134.975 23.5852 134.451 24.642 133.658 25.5455C132.874 26.4403 131.86 27.1392 130.616 27.642C129.38 28.1364 127.952 28.3835 126.333 28.3835Z" fill="#FCFCFC"/>
</svg>
