<svg width="491" height="88" viewBox="0 0 491 88" fill="none" xmlns="http://www.w3.org/2000/svg">
<g clip-path="url(#clip0_352_1621)">
<path d="M66.4573 26.9151C65.5857 26.3104 64.7141 26.084 62.5304 26.084H49.0926C39.6712 26.084 35.4825 26.3877 32.3409 26.3877H24.1391C20.5602 26.3877 16.199 26.1613 9.13057 26.1613H1.36611C0.66692 26.1613 0.0571289 26.5368 0.0571289 27.216C0.0571289 28.1216 0.580719 29.5574 2.41329 29.5574C23.0057 29.5574 26.8432 29.5574 29.9848 29.7065C30.071 31.2168 30.071 32.6497 30.071 34.0827C30.071 35.2921 30.071 36.725 29.9848 38.2353C29.0238 37.026 27.453 36.2722 25.7099 36.2722C20.6496 36.2722 14.2803 42.6861 11.5729 46.4605C8.52078 50.6849 6.25082 54.6856 6.25082 56.7978C6.25082 59.5893 9.74036 61.5524 13.8429 61.5524C19.2512 61.5524 26.2335 54.081 29.5474 47.7416C29.0238 55.4394 28.3278 66.456 28.3278 68.1154C28.3278 69.3247 30.3328 70.5313 31.9036 70.5313C32.8645 70.5313 33.6499 70.0039 33.6499 68.7946C33.6499 66.155 33.6499 59.8157 33.8255 53.7027C35.1345 46.6096 39.933 39.8947 47.3495 39.8947C51.8 39.8947 55.2033 45.0247 55.2033 51.516C55.2033 58.6836 52.7578 65.6249 43.9461 69.8521C42.9852 70.3049 42.4616 70.8322 42.4616 71.4369C42.4616 72.268 42.8128 73.2481 43.9461 73.2481C44.4697 73.2481 45.0795 73.1736 45.8649 72.7208C57.1221 66.2296 60.2636 59.7411 60.2636 51.5905C60.2636 43.97 54.6797 36.1204 46.4779 36.1204C40.8908 36.1204 36.8777 39.0637 34.1735 42.9871C34.2597 41.4023 34.2597 40.1211 34.2597 39.141C34.2597 37.7825 34.5215 33.1771 34.5215 29.5574C36.0061 29.6319 46.3023 29.4801 46.3023 29.4801H53.8943C59.5644 29.4801 63.2296 29.6319 64.6248 29.6319C66.5467 29.6319 67.5907 29.2537 67.5907 28.5744C67.5907 28.0471 67.2427 27.4424 66.4573 26.9151ZM23.2675 49.7047C20.7358 53.0235 16.4608 58.4572 12.4477 58.4572C11.7485 58.4572 11.2249 58.079 11.2249 57.0988C11.2249 54.7602 12.9713 52.1179 14.8039 49.4783C17.0706 46.3086 22.7439 39.6683 26.3197 39.6683C27.2806 39.6683 27.8042 40.2702 27.8042 41.0268C27.8042 42.4597 26.0579 46.0822 23.2675 49.7047Z" fill="black"/>
<path d="M79.457 26.1617C79.1952 26.1617 76.6635 26.0844 74.7447 26.0844V25.1787C74.7447 18.6157 73.6113 9.48495 69.1608 5.10594C66.4567 2.46638 63.7493 0.956086 60.5216 0.127773C59.9118 -0.0240841 59.2126 -0.0986328 58.2548 -0.0986328C56.7703 -0.0986328 55.3751 1.0334 55.3751 2.46638C55.3751 3.44655 56.8565 3.82481 59.2988 4.12576C61.655 4.42948 63.5769 5.40965 65.8437 7.4473C69.8568 11.0698 70.7316 17.7847 71.2552 25.0296C65.4095 15.0678 61.3932 10.3906 52.3197 10.3906C49.2644 10.3906 46.7358 10.4651 46.7358 12.1245C46.7358 13.4829 47.8692 14.9159 49.8774 14.9159C50.9246 14.9159 53.2807 14.5404 54.8515 14.5404C59.1264 14.5404 63.0533 18.4639 68.1136 26.2362C65.1477 26.2362 63.4875 26.1617 62.8777 26.1617C61.3932 26.1617 60.6078 26.7636 60.6078 27.9729C60.6078 29.5577 62.0062 29.6323 63.9249 29.6323C64.2729 29.6323 65.8437 29.7068 68.4616 29.7068H69.9462C69.9462 30.687 69.9462 31.5926 69.9462 32.4983V39.8178C69.9462 45.7043 69.7706 50.0806 69.5088 56.7982C69.4226 58.8359 69.3332 61.1745 69.3332 62.5329C69.3332 63.8913 68.9852 66.0035 68.9852 68.1157C68.9852 69.2478 70.4698 70.3052 72.3024 70.3052C73.7837 70.3052 74.4829 69.626 74.4829 68.4194V63.2867C74.4829 59.5896 74.4829 55.8926 74.4829 52.422V38.8376C74.4829 35.8198 74.4829 32.8765 74.4829 29.6323H79.7188C81.114 29.6323 82.2474 29.3313 82.2474 27.8956C82.2474 26.4626 81.0278 26.1617 79.457 26.1617Z" fill="black"/>
<path d="M106.418 57.7779C103.539 55.4393 99.4362 52.6479 96.0329 50.6102C103.453 48.1198 109.994 43.3653 113.487 38.0088C114.62 36.2721 114.968 34.8391 114.968 33.3289C114.968 29.48 110.256 25.6311 104.934 24.499C102.84 24.0462 101.531 23.9717 100.311 23.9717C94.7271 23.9717 89.4018 26.3103 89.4018 30.4629C89.4018 35.6675 97.9548 38.7626 106.067 40.0437L105.196 40.8748C101.62 44.1963 96.2947 47.0623 92.2815 47.8188C89.6636 46.9132 87.6586 46.3085 85.4749 46.3085C83.6455 46.3085 82.0747 46.4604 82.0747 49.1745C82.0747 51.4385 83.7317 52.2696 86.0878 52.2696C87.831 52.2696 89.6636 52.1178 91.4099 51.7423C95.0751 53.929 98.1272 55.8921 102.054 59.2109C104.586 61.3258 108.162 64.5701 111.827 69.4737C112.612 70.5312 113.398 70.683 114.011 70.683C115.316 70.683 117.672 69.1727 117.672 68.1153C117.672 67.6624 117.5 67.2096 116.277 66.1549C113.05 63.3635 109.384 60.1938 106.418 57.7779ZM141.234 26.0839C135.998 26.0839 133.818 26.2357 128.668 26.2357C123.608 26.2357 120.38 26.0839 118.895 26.0839C117.848 26.0839 117.063 26.0839 117.063 27.2159C117.063 27.9724 117.586 29.2536 118.72 29.48C119.505 29.6318 120.38 29.5573 122.385 29.5573C124.217 29.5573 125.702 29.5573 127.273 29.5573V39.8173C127.273 45.7039 127.183 49.2518 127.183 55.9667C127.183 60.1165 126.574 66.0776 126.574 67.2869C126.574 68.419 126.66 69.3991 127.796 70.0784C128.492 70.4566 129.191 70.6057 129.891 70.6057C131.11 70.6057 131.985 69.9265 132.071 68.7199C132.247 66.2295 132.247 64.0427 132.247 61.5523C132.247 59.5891 132.419 55.3648 132.071 47.5924C131.985 45.4029 131.723 39.8173 131.723 34.7618C131.723 32.876 131.809 31.0648 131.809 29.5573C135.037 29.5573 139.488 29.6318 141.496 29.6318C142.891 29.6318 143.763 29.3309 143.763 28.4998C143.763 26.7631 143.067 26.0839 141.234 26.0839ZM94.6377 30.612C94.6377 28.8007 96.9938 27.3678 99.7874 27.3678C104.586 27.3678 109.822 29.3309 109.822 32.876C109.822 34.309 109.123 35.8939 108.162 37.3296C102.667 36.3467 94.6377 34.0081 94.6377 30.612Z" fill="#FF0000"/>
<path d="M195.94 26.0843C194.455 26.0843 192.623 26.2362 191.055 26.2362C185.992 26.2362 180.759 26.0098 177.355 26.0098C167.845 26.0098 155.802 26.0843 147.514 26.0843H136.257C135.034 26.0843 134.686 27.2937 134.686 27.7465C134.686 29.5577 136.432 29.6323 137.566 29.6323C145.943 29.6323 152.661 29.4804 157.983 29.4804C172.729 29.5577 178.926 29.4804 182.24 29.4804C182.33 30.3115 182.33 32.1973 182.416 33.934C175.871 38.6885 169.24 44.0449 165.051 49.8541V49.0258C165.051 43.5921 160.253 39.8951 154.231 39.8951C150.828 39.8951 146.901 41.1762 144.021 43.5175C141.668 45.5552 140.532 48.1948 140.532 51.2126C140.532 58.9849 146.116 64.7969 154.841 69.4741C155.978 70.0788 157.111 70.3797 157.896 70.3797C159.292 70.3797 160.776 69.8524 160.776 69.1732C160.776 68.6458 160.428 68.4194 158.944 67.7402C157.111 66.9091 154.145 65.1752 152.399 63.5903C148.472 60.1169 145.681 56.4199 145.681 51.138C145.681 46.9136 149.695 43.2138 154.493 43.2138C159.292 43.2138 161.038 47.0627 161.038 50.006C161.038 52.7229 160.428 54.0068 160.166 54.9124C159.815 55.9671 159.643 56.6463 159.643 57.1737C159.729 57.9302 161.214 59.2886 163.219 59.2886C164.179 59.2886 164.875 57.8529 165.399 56.7982C168.802 49.2522 174.386 44.9505 182.416 39.064C182.416 40.9498 182.416 43.0647 182.502 44.3459L182.764 48.9485C182.85 51.0635 182.939 54.9124 182.939 58.684V66.1553C182.939 68.9468 183.463 69.7005 186.604 69.7005C187.824 69.7005 188.523 69.2477 188.523 67.8893C188.348 62.3064 188 57.0991 187.562 52.1955C187.39 49.8541 187.128 45.9307 187.128 40.6488C186.952 37.932 187.913 36.6508 187.913 34.6877C187.913 34.0085 187.824 33.4038 187.562 32.7246C187.3 32.0454 187.3 30.687 187.562 29.6323H196.725C197.948 29.6323 198.733 29.4804 198.733 28.5748C198.733 26.8408 197.597 26.0843 195.94 26.0843Z" fill="black"/>
<path d="M272.462 26.084C271.501 26.084 268.969 26.2359 267.925 26.2359C263.737 26.2359 255.273 26.2359 246.548 26.1613C246.372 24.6511 245.5 24.1982 244.016 24.1982C242.621 24.1982 241.922 24.952 241.746 26.1613C236.424 26.1613 231.364 26.084 227.437 26.084C227.002 26.0095 226.565 26.0095 226.041 26.0095C225.518 26.0095 224.384 26.0095 223.248 26.084H222.724C221.853 26.1613 220.981 26.1613 220.544 26.1613H208.852C202.917 26.1613 201.959 26.0095 191.05 26.0095C190.092 26.0095 189.479 26.1613 189.479 26.7633C189.479 26.9151 189.741 27.8207 190.265 28.5745C190.878 29.4801 192.359 29.632 193.32 29.632C197.771 29.632 201.784 29.632 208.501 29.632H214.174C213.826 32.6498 211.904 37.4789 210.857 39.442C209.638 41.706 207.02 44.7238 204.226 44.7238C203.093 44.7238 202.745 44.3456 202.046 43.2909C200.912 41.6287 200.299 41.0268 198.556 41.0268C197.857 41.0268 196.2 41.8551 196.2 42.7607C196.2 43.2909 196.462 43.6664 196.985 44.4229C198.033 45.9304 203.093 51.9688 207.891 57.0243C210.685 59.9676 213.389 62.6071 216.093 65.1749C216.968 66.0032 217.84 66.6079 219.321 66.6079C220.63 66.6079 222.462 65.9287 222.462 64.7966C222.462 64.192 222.201 63.8165 221.591 63.4382C220.544 62.8335 219.934 62.458 218.363 61.0996C216.444 59.4374 213.737 57.0243 210.947 54.4593C208.939 52.5707 206.148 49.4011 204.054 47.2889C208.763 48.269 213.737 48.4954 216.444 48.4954C219.41 48.4954 224.471 48.4954 226.565 48.4209H227.874C229.531 50.4585 233.544 52.3443 235.9 53.4018C240.613 55.4395 243.93 55.8177 247.157 55.8177C252.393 55.8177 258.411 53.2499 261.381 49.9312V54.4593C261.381 63.5901 260.857 66.0032 260.857 67.7399C260.857 69.3247 262.776 70.1531 264.433 70.1531C265.656 70.1531 266.527 68.9465 266.527 67.8145C266.527 66.5306 266.355 63.7392 266.179 61.627C265.831 57.0988 265.48 51.5906 265.308 45.5549C265.218 43.6664 265.218 41.1759 265.218 38.6882C265.218 35.5185 265.218 32.3488 265.308 29.632H272.896C274.205 29.632 275.253 29.331 275.253 28.2735C275.253 26.5368 274.119 26.084 272.462 26.084ZM219.235 45.1767C216.093 45.1767 213.826 45.1021 211.643 44.8757C214.522 43.0645 215.659 41.1759 216.792 37.7826C217.316 36.1977 218.625 31.7442 219.059 29.632H226.128C226.389 29.632 226.565 29.632 226.827 29.5574C236.424 29.5574 231.625 29.4801 241.574 29.5574C241.136 37.7053 238.604 44.6493 233.196 44.6493H232.848C232.673 44.572 232.586 44.572 232.411 44.572H232.149C230.926 44.4229 229.968 44.0446 229.183 44.0446C228.659 44.0446 228.222 44.3456 227.788 44.7984C224.646 44.9502 220.719 45.1767 219.235 45.1767ZM260.333 35.7449C260.333 41.9324 260.072 45.4031 256.493 48.1945C253.613 50.4585 249.686 51.7424 246.634 51.7424C241.574 51.7424 238.084 50.384 233.544 47.819C243.317 47.5926 246.11 40.6485 246.548 29.632H260.42C260.333 31.9706 260.333 30.6867 260.333 35.7449Z" fill="black"/>
<path d="M341.912 26.5371C341.127 26.0843 340.255 26.0843 339.818 26.0843C332.315 26.0843 326.555 26.0098 319.053 26.0098C314.513 26.0098 311.199 26.0843 288.164 26.0843C287.551 26.0843 286.504 26.388 286.242 26.7635C286.156 26.9154 286.07 27.1418 286.07 27.4427C286.07 27.8956 286.242 28.4257 286.68 28.8012C287.289 29.3313 288.337 29.6323 288.774 29.6323C307.796 29.5577 314.775 29.7841 319.924 29.7841H321.147C321.058 34.9887 319.401 39.5168 313.207 42.3082C311.636 42.9874 310.851 43.4402 310.851 44.1195C310.851 45.1769 312.246 46.6099 314.165 46.6099C315.212 46.6099 316.345 46.0826 317.393 45.4779C319.053 44.4977 322.367 43.6666 324.809 43.6666C329.435 43.6666 331.53 46.309 331.53 50.4588C331.53 59.2113 323.59 63.7394 311.984 63.7394C309.542 63.7394 302.387 63.4385 298.371 60.7962C296.714 59.6641 295.753 57.9302 295.753 56.4199C295.753 55.7407 295.929 55.2133 296.277 54.686C296.714 54.0813 296.976 53.4766 296.976 52.9493C296.976 52.3446 295.842 51.9691 295.057 51.9691C292.701 51.9691 291.216 53.3275 291.216 56.0444C291.216 64.496 301.602 67.5138 312.422 67.5138C326.118 67.5138 336.766 61.6272 336.766 51.138C336.766 44.2713 332.139 40.2706 325.508 40.2706C324.024 40.2706 322.542 40.497 321.058 40.9498C323.59 38.5366 325.422 35.2924 325.595 31.8963C325.684 30.9134 325.684 30.2369 325.684 29.7068C330.83 29.7068 337.899 29.6323 340.692 29.6323C341.74 29.6323 342.787 29.5577 342.787 28.1993C342.787 27.6692 342.611 26.9154 341.912 26.5371Z" fill="black"/>
<path d="M396.97 26.0842C394.613 26.0842 393.129 26.3879 385.537 26.3879C384.755 26.3879 383.446 26.3879 382.833 25.8578C381.786 24.9521 381.262 24.9521 380.652 24.9521C379.781 24.9521 378.995 25.1786 378.558 25.7087C377.948 26.3879 377.335 26.3879 376.463 26.3879C375.502 26.3879 366.429 26.1615 362.33 26.1615L337.897 26.0842C336.674 26.0842 336.064 26.3879 336.064 27.1417C336.064 28.1991 336.588 29.1793 338.334 29.4057C339.467 29.5576 340.428 29.6321 342.085 29.6321C367.738 29.6321 370.704 29.5576 372.798 29.5576H378.906C379.168 30.3859 379.781 32.8018 379.781 33.782C373.584 35.0659 362.24 37.1781 356.481 38.4619C355.785 38.611 354.999 38.8374 354.214 39.0638C352.557 39.5167 351.682 40.1213 351.682 41.4024C351.682 42.5345 352.381 44.2712 353.515 45.0249C354.999 46.0079 356.219 46.6098 359.013 46.6098C362.853 46.6098 368.437 46.6098 373.935 46.8362C381.176 47.1399 384.665 47.6673 384.665 49.3266C384.665 54.0066 368.871 55.5141 363.115 55.5141C356.308 55.5141 351.682 54.3076 348.892 51.1379C348.279 50.4587 347.146 50.2323 346.098 50.2323C344.703 50.2323 343.308 50.6851 343.308 51.7426C343.308 52.1954 344.18 53.3274 344.703 53.7802C348.455 57.0244 354.476 58.9848 361.455 58.9848C366.167 58.9848 370.704 58.7584 374.893 58.0792C375.244 59.664 375.502 61.7016 375.502 62.3063C370.618 63.0601 362.939 64.1921 358.665 64.8713C355.175 65.3987 352.643 66.1552 352.643 68.041C352.643 68.7202 352.729 70.0041 353.515 71.0588C354.562 72.4173 356.308 72.7955 363.463 73.5493C374.806 74.7559 384.055 76.7935 384.055 78.1519C384.055 82.0782 372.626 84.4168 365.296 84.4168C360.759 84.4168 350.986 83.5111 348.279 78.7566C346.446 75.5124 345.399 75.8879 344.703 76.0397C343.656 76.2662 342.957 77.6246 342.957 78.6048C342.957 78.9085 343.046 79.284 343.219 79.6622C343.742 80.7943 345.227 82.0782 347.059 83.2074C352.819 86.7554 358.403 87.8128 366.081 87.8128C372.189 87.8128 383.707 85.6233 387.197 82.1527C388.33 81.0207 388.768 80.2669 388.768 78.7566C388.768 77.0199 387.982 75.4351 386.322 74.6813C378.21 70.9843 372.45 70.7579 360.759 70.1532C359.361 70.0787 358.489 69.5513 358.489 68.8721C358.489 68.4938 359.188 68.1929 360.583 67.9665C363.811 67.4363 373.935 66.3043 377.073 66.0779C379.429 65.9288 380.215 65.0977 380.215 63.4383C380.215 61.3261 379.691 59.2885 379.081 57.2508C381.699 56.6462 384.231 55.8179 386.498 54.7604C388.244 53.9293 389.116 52.2699 389.116 50.5332C389.116 47.9682 387.283 45.1768 383.969 44.3457C381.613 43.7438 379.429 43.592 376.987 43.5174C372.189 43.3656 367.39 43.2137 361.455 43.2137C359.974 43.2137 358.403 43.1391 358.403 42.0071C358.403 41.6289 358.489 41.4024 359.622 41.176L380.738 37.4045C382.66 37.0262 384.665 36.6507 384.665 34.8394C384.665 33.1773 383.88 31.1396 383.446 29.6321H396.27C397.927 29.6321 398.713 29.2539 399.15 28.3482C399.326 27.9727 399.412 27.5945 399.412 27.2935C399.412 26.3879 398.451 26.0842 396.97 26.0842Z" fill="black"/>
<path d="M443.648 26.084C442.687 26.084 440.159 26.2359 439.112 26.2359C434.923 26.2359 426.459 26.2359 417.734 26.1613C417.558 24.6511 416.687 24.1982 415.202 24.1982C413.807 24.1982 413.108 24.952 412.935 26.1613C405.43 26.1613 398.45 26.084 394.437 26.084C392.691 26.084 391.73 26.6887 391.73 28.1217C391.73 28.9528 392.429 29.5574 394.262 29.5574C408.833 29.5574 401.764 29.4801 412.76 29.5574C412.322 37.7053 409.794 44.6493 404.382 44.6493C402.639 44.6493 401.33 44.0446 400.369 44.0446C399.322 44.0446 398.275 45.4031 398.275 46.6096C398.275 49.252 404.034 52.0434 407.09 53.4018C411.799 55.4395 415.116 55.8177 418.344 55.8177C423.58 55.8177 429.601 53.2499 432.567 49.9312V54.4593C432.567 63.5901 432.043 66.0032 432.043 67.7399C432.043 69.3247 433.962 70.1531 435.622 70.1531C436.842 70.1531 437.717 68.9465 437.717 67.8145C437.717 66.5306 437.541 63.7392 437.365 61.627C437.017 57.0988 436.669 51.5906 436.494 45.5549C436.408 43.6664 436.408 41.1759 436.408 38.6882C436.408 35.5185 436.408 32.3488 436.494 29.632H444.086C445.395 29.632 446.442 29.331 446.442 28.2735C446.442 26.5368 445.305 26.084 443.648 26.084ZM431.52 35.7449C431.52 41.9324 431.258 45.4031 427.682 48.1945C424.802 50.4585 420.875 51.7424 417.82 51.7424C412.76 51.7424 409.27 50.384 404.734 47.819C414.506 47.5926 417.297 40.6485 417.734 29.632H431.606C431.52 31.9706 431.52 30.6867 431.52 35.7449Z" fill="black"/>
<path d="M488.32 26.084C478.461 26.2358 476.804 26.2358 448.62 26.2358C447.049 26.2358 443.297 26.084 441.727 26.084C440.418 26.084 439.632 26.7632 439.632 27.4424C439.632 28.1216 440.156 29.6319 441.813 29.6319C443.907 29.6319 447.659 29.4801 450.19 29.4801C455.774 29.4801 460.662 29.5574 464.761 29.5574C470.173 29.5574 474.01 29.6319 477.152 29.6319C477.152 30.5375 477.241 31.4432 477.241 33.8563C477.241 34.6874 477.241 36.0458 477.152 37.4043C476.105 38.0835 473.487 39.0637 472.267 39.5165C469.388 40.5739 466.77 41.4796 463.976 42.4597C461.534 43.2908 459.701 42.9871 459.091 42.9871C458.306 42.9871 457.607 43.2908 457.345 43.97C456.911 44.9502 455.602 45.7813 454.465 46.4605C451.675 48.0426 449.581 49.3265 448.272 50.533C446.615 52.0433 446.439 52.7971 446.439 53.7027C446.439 55.2875 448.01 56.5714 449.753 57.6262C452.46 59.2883 454.816 59.8157 457.345 59.8157C462.057 59.8157 464.5 57.7035 464.5 54.3819C464.5 52.0433 464.065 49.5529 463.366 46.7614C467.903 44.9502 472.963 43.2135 476.98 42.0069V55.1385C476.98 56.345 476.98 63.0599 477.152 65.2494C477.328 68.0408 477.937 70.2303 480.817 70.2303C482.564 70.2303 483.26 69.5511 483.26 67.9663C483.26 66.6824 482.564 64.5702 482.302 62.8335C481.951 60.4203 481.778 58.5318 481.778 56.1186V41.6287C481.778 37.8571 481.864 32.4233 482.04 29.5574C483.435 29.5574 484.482 29.6319 485.791 29.6319H489.195C490.242 29.6319 491.027 29.1046 491.027 28.2735C491.027 27.0669 489.98 26.084 488.32 26.084ZM459.439 54.081C459.439 55.6658 458.654 56.5714 456.821 56.5714C454.379 56.5714 451.847 55.514 451.847 53.8546C451.847 52.4961 454.727 50.6103 458.83 48.7218C459.178 50.3839 459.439 52.1952 459.439 54.081Z" fill="black"/>
</g>
<defs>
<clipPath id="clip0_352_1621">
<rect width="491" height="88" fill="white"/>
</clipPath>
</defs>
</svg>
