<svg width="28" height="29" viewBox="0 0 28 29" fill="none" xmlns="http://www.w3.org/2000/svg">
<g id="logos:whatsapp-icon" clip-path="url(#clip0_167_548)">
<path id="Vector" d="M0.753595 14.7693C0.752961 17.1127 1.35136 19.4009 2.48922 21.4178L0.644775 28.3087L7.53655 26.4597C9.44272 27.5215 11.5784 28.0779 13.7488 28.078H13.7545C20.9191 28.078 26.7514 22.1124 26.7544 14.7798C26.7558 11.2266 25.4047 7.88546 22.9501 5.37175C20.4958 2.85826 17.2317 1.4733 13.754 1.47168C6.58844 1.47168 0.756659 7.43703 0.753701 14.7693" fill="url(#paint0_linear_167_548)"/>
<path id="Vector_2" d="M0.289559 14.7648C0.28882 17.1926 0.908669 19.5626 2.08709 21.6517L0.176514 28.7897L7.3154 26.8743C9.2824 27.9717 11.497 28.5503 13.7506 28.5512H13.7564C21.1781 28.5512 27.2198 22.3709 27.223 14.7758C27.2242 11.095 25.8246 7.63374 23.2822 5.02998C20.7395 2.42655 17.3587 0.991748 13.7564 0.990234C6.33338 0.990234 0.292518 7.16964 0.289559 14.7648ZM4.54092 21.2919L4.27437 20.8589C3.15384 19.0358 2.56241 16.929 2.56326 14.7657C2.56569 8.45276 7.5866 3.3167 13.7606 3.3167C16.7505 3.318 19.5604 4.51064 21.6738 6.67451C23.7871 8.8386 24.95 11.7153 24.9493 14.775C24.9465 21.0879 19.9255 26.2246 13.7564 26.2246H13.7519C11.7432 26.2235 9.77314 25.6715 8.05506 24.6284L7.64619 24.3803L3.40983 25.5168L4.54092 21.2918V21.2919Z" fill="url(#paint1_linear_167_548)"/>
<path id="Vector_3" d="M10.3905 9.00625C10.1384 8.43295 9.87315 8.42138 9.63343 8.41133C9.43713 8.40268 9.21273 8.40333 8.98854 8.40333C8.76414 8.40333 8.39954 8.48971 8.09136 8.83403C7.78286 9.17868 6.91357 10.0115 6.91357 11.7055C6.91357 13.3995 8.11936 15.0366 8.28745 15.2665C8.45575 15.496 10.6152 19.0835 14.0353 20.4635C16.8778 21.6105 17.4562 21.3823 18.0731 21.3248C18.6901 21.2675 20.064 20.4922 20.3442 19.6882C20.6247 18.8843 20.6247 18.1952 20.5406 18.0512C20.4565 17.9078 20.2321 17.8216 19.8957 17.6495C19.5591 17.4773 17.9048 16.6443 17.5964 16.5294C17.2879 16.4146 17.0636 16.3573 16.8392 16.7021C16.6148 17.0463 15.9704 17.8216 15.774 18.0512C15.5778 18.2814 15.3814 18.3101 15.045 18.1378C14.7083 17.9651 13.6247 17.602 12.339 16.4291C11.3387 15.5165 10.6634 14.3894 10.4671 14.0447C10.2708 13.7005 10.4461 13.5139 10.6148 13.3423C10.766 13.188 10.9514 12.9403 11.1198 12.7393C11.2876 12.5382 11.3436 12.3948 11.4558 12.1651C11.5681 11.9353 11.5119 11.7342 11.4279 11.562C11.3436 11.3898 10.6897 9.687 10.3905 9.00625Z" fill="white"/>
</g>
<defs>
<linearGradient id="paint0_linear_167_548" x1="1306.13" y1="2685.18" x2="1306.13" y2="1.47168" gradientUnits="userSpaceOnUse">
<stop stop-color="#1FAF38"/>
<stop offset="1" stop-color="#60D669"/>
</linearGradient>
<linearGradient id="paint1_linear_167_548" x1="1352.5" y1="2780.93" x2="1352.5" y2="0.990234" gradientUnits="userSpaceOnUse">
<stop stop-color="#F9F9F9"/>
<stop offset="1" stop-color="white"/>
</linearGradient>
<clipPath id="clip0_167_548">
<rect width="27.0464" height="27.8916" fill="white" transform="translate(0.176514 0.990234)"/>
</clipPath>
</defs>
</svg>
