<svg width="28" height="28" viewBox="0 0 28 28" fill="none" xmlns="http://www.w3.org/2000/svg">
<g id="logos:facebook" clip-path="url(#clip0_167_545)">
<path id="Vector" d="M27.0464 14.3587C27.0464 6.89005 20.9918 0.835449 13.5232 0.835449C6.0546 0.835449 0 6.88994 0 14.3587C0 21.1084 4.94527 26.7032 11.4102 27.7176V18.2677H7.97659V14.3587H11.4102V11.3793C11.4102 7.99008 13.4292 6.11796 16.5181 6.11796C17.9977 6.11796 19.5453 6.38208 19.5453 6.38208V9.71006H17.8401C16.16 9.71006 15.6362 10.7525 15.6362 11.822V14.3587H19.3868L18.7872 18.2677H15.6362V27.7176C22.1012 26.7032 27.0464 21.1086 27.0464 14.3587Z" fill="#1877F2"/>
<path id="Vector_2" d="M18.7872 18.2679L19.3868 14.3589H15.6362V11.8222C15.6362 10.7526 16.1601 9.71027 17.8401 9.71027H19.5453V6.38229C19.5453 6.38229 17.9977 6.11816 16.5181 6.11816C13.4292 6.11816 11.4102 7.99029 11.4102 11.3795V14.3589H7.97656V18.2679H11.4102V27.7178C12.1092 27.8274 12.8157 27.8823 13.5232 27.8821C14.2307 27.8823 14.9372 27.8274 15.6362 27.7178V18.2679H18.7872Z" fill="white"/>
</g>
<defs>
<clipPath id="clip0_167_545">
<rect width="27.0464" height="27.0464" fill="white" transform="translate(0 0.835449)"/>
</clipPath>
</defs>
</svg>
