<svg width="29" height="29" viewBox="0 0 29 29" fill="none" xmlns="http://www.w3.org/2000/svg">
<g id="logos:telegram" clip-path="url(#clip0_167_561)">
<path id="Vector" d="M14.6316 0.14502C10.8217 0.14502 7.16452 1.65977 4.47268 4.3534C1.77807 7.04809 0.26393 10.7026 0.263184 14.5134C0.263184 18.3226 1.7786 21.9799 4.47268 24.6735C7.16452 27.3671 10.8217 28.8819 14.6316 28.8819C18.4415 28.8819 22.0987 27.3671 24.7905 24.6735C27.4846 21.9799 29 18.3226 29 14.5134C29 10.7042 27.4846 7.04703 24.7905 4.3534C22.0987 1.65977 18.4415 0.14502 14.6316 0.14502Z" fill="url(#paint0_linear_167_561)"/>
<path id="Vector_2" d="M6.76708 14.3615C10.9564 12.5367 13.7492 11.3336 15.1457 10.7523C19.1374 9.09255 19.9658 8.80428 20.5069 8.79452C20.6259 8.79261 20.8908 8.82202 21.0637 8.96178C21.2073 9.07964 21.2477 9.23904 21.268 9.35096C21.2859 9.46276 21.3106 9.71758 21.2904 9.91649C21.0749 12.1885 20.1387 17.7019 19.6627 20.2467C19.4629 21.3234 19.0655 21.6845 18.6816 21.7197C17.8465 21.7965 17.2134 21.1683 16.4051 20.6387C15.1412 19.8096 14.4272 19.2937 13.1992 18.4848C11.7803 17.5499 12.7008 17.036 13.509 16.1964C13.72 15.9766 17.3975 12.6326 17.4671 12.3293C17.476 12.2913 17.485 12.1499 17.3997 12.0753C17.3166 12.0006 17.1932 12.0262 17.1034 12.0464C16.9754 12.0751 14.9571 13.4105 11.0417 16.0523C10.4692 16.446 9.95058 16.638 9.48361 16.6279C8.97173 16.6169 7.9839 16.3378 7.24977 16.0994C6.35174 15.8069 5.63556 15.6522 5.69842 15.1554C5.72986 14.8967 6.08682 14.632 6.76708 14.3615Z" fill="white"/>
</g>
<defs>
<linearGradient id="paint0_linear_167_561" x1="1437.11" y1="0.14502" x2="1437.11" y2="2873.83" gradientUnits="userSpaceOnUse">
<stop stop-color="#2AABEE"/>
<stop offset="1" stop-color="#229ED9"/>
</linearGradient>
<clipPath id="clip0_167_561">
<rect width="28.7368" height="28.7368" fill="white" transform="translate(0.263184 0.14502)"/>
</clipPath>
</defs>
</svg>
