<svg width="1075" height="133" viewBox="0 0 1075 133" fill="none" xmlns="http://www.w3.org/2000/svg">
<path d="M41.0405 25.1818C41.0405 29.9403 40.1385 33.9886 38.3345 37.3267C36.5447 40.6648 34.1016 43.2145 31.005 44.9759C27.9226 46.723 24.4567 47.5966 20.6072 47.5966C16.7294 47.5966 13.2493 46.7159 10.1669 44.9545C7.08452 43.1932 4.64844 40.6435 2.85867 37.3054C1.06889 33.9673 0.174006 29.9261 0.174006 25.1818C0.174006 20.4233 1.06889 16.375 2.85867 13.0369C4.64844 9.69886 7.08452 7.15625 10.1669 5.40909C13.2493 3.64773 16.7294 2.76704 20.6072 2.76704C24.4567 2.76704 27.9226 3.64773 31.005 5.40909C34.1016 7.15625 36.5447 9.69886 38.3345 13.0369C40.1385 16.375 41.0405 20.4233 41.0405 25.1818ZM31.6868 25.1818C31.6868 22.0994 31.2251 19.5 30.3018 17.3835C29.3928 15.267 28.1072 13.6619 26.4453 12.5682C24.7834 11.4744 22.8374 10.9276 20.6072 10.9276C18.3771 10.9276 16.4311 11.4744 14.7692 12.5682C13.1072 13.6619 11.8146 15.267 10.8913 17.3835C9.98224 19.5 9.5277 22.0994 9.5277 25.1818C9.5277 28.2642 9.98224 30.8636 10.8913 32.9801C11.8146 35.0966 13.1072 36.7017 14.7692 37.7955C16.4311 38.8892 18.3771 39.4361 20.6072 39.4361C22.8374 39.4361 24.7834 38.8892 26.4453 37.7955C28.1072 36.7017 29.3928 35.0966 30.3018 32.9801C31.2251 30.8636 31.6868 28.2642 31.6868 25.1818ZM68.6914 33.0653V14.2727H77.7681V47H69.0536V41.0554H68.7127C67.9741 42.973 66.7454 44.5142 65.0266 45.679C63.3221 46.8437 61.2411 47.4261 58.7837 47.4261C56.5962 47.4261 54.6715 46.929 53.0096 45.9347C51.3477 44.9403 50.0479 43.527 49.1104 41.6946C48.1871 39.8622 47.7184 37.6676 47.7042 35.1108V14.2727H56.7809V33.4915C56.7951 35.4233 57.3136 36.9503 58.3363 38.0724C59.359 39.1946 60.7298 39.7557 62.4485 39.7557C63.5423 39.7557 64.565 39.5071 65.5167 39.0099C66.4684 38.4986 67.2354 37.7457 67.8178 36.7514C68.4144 35.7571 68.7056 34.5284 68.6914 33.0653ZM85.0284 47V14.2727H93.8281V19.983H94.169C94.7656 17.9517 95.767 16.4176 97.1733 15.3807C98.5795 14.3295 100.199 13.804 102.031 13.804C102.486 13.804 102.976 13.8324 103.501 13.8892C104.027 13.946 104.489 14.0241 104.886 14.1236V22.1776C104.46 22.0497 103.871 21.9361 103.118 21.8366C102.365 21.7372 101.676 21.6875 101.051 21.6875C99.7159 21.6875 98.5227 21.9787 97.4716 22.5611C96.4347 23.1293 95.6108 23.9247 95 24.9474C94.4034 25.9702 94.1051 27.1491 94.1051 28.4844V47H85.0284ZM322.216 47V14.2727H331.293V47H322.216ZM326.776 10.054C325.426 10.054 324.268 9.60653 323.303 8.71165C322.351 7.80256 321.875 6.71591 321.875 5.4517C321.875 4.2017 322.351 3.12926 323.303 2.23438C324.268 1.32528 325.426 0.870736 326.776 0.870736C328.125 0.870736 329.276 1.32528 330.227 2.23438C331.193 3.12926 331.676 4.2017 331.676 5.4517C331.676 6.71591 331.193 7.80256 330.227 8.71165C329.276 9.60653 328.125 10.054 326.776 10.054ZM365.794 23.6051L357.484 24.1165C357.342 23.4062 357.037 22.767 356.568 22.1989C356.099 21.6165 355.481 21.1548 354.714 20.8139C353.961 20.4588 353.059 20.2812 352.008 20.2812C350.602 20.2812 349.416 20.5795 348.45 21.1761C347.484 21.7585 347.001 22.5398 347.001 23.5199C347.001 24.3011 347.314 24.9616 347.939 25.5014C348.564 26.0412 349.636 26.4744 351.156 26.8011L357.079 27.9943C360.261 28.6477 362.633 29.6989 364.196 31.1477C365.758 32.5966 366.539 34.5 366.539 36.858C366.539 39.0028 365.907 40.8849 364.643 42.5043C363.393 44.1236 361.674 45.3878 359.487 46.2969C357.314 47.1918 354.806 47.6392 351.966 47.6392C347.633 47.6392 344.181 46.7372 341.61 44.9332C339.054 43.1151 337.555 40.6435 337.115 37.5185L346.042 37.0497C346.312 38.3707 346.966 39.3793 348.002 40.0753C349.039 40.7571 350.368 41.098 351.987 41.098C353.578 41.098 354.856 40.7926 355.822 40.1818C356.802 39.5568 357.299 38.7543 357.314 37.7741C357.299 36.9503 356.951 36.2756 356.27 35.75C355.588 35.2102 354.537 34.7983 353.116 34.5142L347.449 33.3849C344.252 32.7457 341.873 31.6378 340.311 30.0611C338.762 28.4844 337.988 26.4744 337.988 24.0312C337.988 21.929 338.556 20.1179 339.693 18.598C340.843 17.0781 342.456 15.9063 344.529 15.0824C346.618 14.2585 349.061 13.8466 351.859 13.8466C355.993 13.8466 359.245 14.7202 361.618 16.4673C364.004 18.2145 365.396 20.5937 365.794 23.6051ZM403.549 14.2727V21.0909H383.841V14.2727H403.549ZM388.315 6.43182H397.392V36.9432C397.392 37.7812 397.52 38.4347 397.775 38.9034C398.031 39.358 398.386 39.6776 398.841 39.8622C399.309 40.0469 399.849 40.1392 400.46 40.1392C400.886 40.1392 401.312 40.1037 401.738 40.0327C402.164 39.9474 402.491 39.8835 402.718 39.8409L404.146 46.5952C403.691 46.7372 403.052 46.9006 402.228 47.0852C401.404 47.2841 400.403 47.4048 399.224 47.4474C397.037 47.5327 395.119 47.2415 393.471 46.5739C391.838 45.9062 390.566 44.8693 389.657 43.4631C388.748 42.0568 388.301 40.2812 388.315 38.1364V6.43182ZM423.897 47.6392C420.588 47.6392 417.725 46.9361 415.311 45.5298C412.91 44.1094 411.056 42.1349 409.75 39.6065C408.443 37.0639 407.789 34.1165 407.789 30.7642C407.789 27.3835 408.443 24.429 409.75 21.9006C411.056 19.358 412.91 17.3835 415.311 15.9773C417.725 14.5568 420.588 13.8466 423.897 13.8466C427.207 13.8466 430.062 14.5568 432.463 15.9773C434.877 17.3835 436.738 19.358 438.045 21.9006C439.352 24.429 440.005 27.3835 440.005 30.7642C440.005 34.1165 439.352 37.0639 438.045 39.6065C436.738 42.1349 434.877 44.1094 432.463 45.5298C430.062 46.9361 427.207 47.6392 423.897 47.6392ZM423.94 40.608C425.446 40.608 426.703 40.1818 427.711 39.3295C428.72 38.4631 429.48 37.2841 429.991 35.7926C430.517 34.3011 430.779 32.6037 430.779 30.7003C430.779 28.7969 430.517 27.0994 429.991 25.608C429.48 24.1165 428.72 22.9375 427.711 22.071C426.703 21.2045 425.446 20.7713 423.94 20.7713C422.42 20.7713 421.142 21.2045 420.105 22.071C419.082 22.9375 418.308 24.1165 417.782 25.608C417.271 27.0994 417.015 28.7969 417.015 30.7003C417.015 32.6037 417.271 34.3011 417.782 35.7926C418.308 37.2841 419.082 38.4631 420.105 39.3295C421.142 40.1818 422.42 40.608 423.94 40.608ZM468.871 28.0795V47H459.794V14.2727H468.445V20.0469H468.828C469.553 18.1435 470.767 16.6378 472.472 15.5298C474.176 14.4077 476.243 13.8466 478.672 13.8466C480.945 13.8466 482.926 14.3437 484.616 15.3381C486.307 16.3324 487.621 17.7528 488.558 19.5994C489.496 21.4318 489.964 23.6193 489.964 26.1619V47H480.888V27.7812C480.902 25.7784 480.391 24.2159 479.354 23.0938C478.317 21.9574 476.889 21.3892 475.071 21.3892C473.849 21.3892 472.77 21.652 471.832 22.1776C470.909 22.7031 470.185 23.4702 469.659 24.4787C469.148 25.473 468.885 26.6733 468.871 28.0795ZM518.105 33.0653V14.2727H527.182V47H518.468V41.0554H518.127C517.388 42.973 516.159 44.5142 514.441 45.679C512.736 46.8437 510.655 47.4261 508.198 47.4261C506.01 47.4261 504.086 46.929 502.424 45.9347C500.762 44.9403 499.462 43.527 498.525 41.6946C497.601 39.8622 497.132 37.6676 497.118 35.1108V14.2727H506.195V33.4915C506.209 35.4233 506.728 36.9503 507.75 38.0724C508.773 39.1946 510.144 39.7557 511.863 39.7557C512.956 39.7557 513.979 39.5071 514.931 39.0099C515.882 38.4986 516.65 37.7457 517.232 36.7514C517.828 35.7571 518.12 34.5284 518.105 33.0653ZM534.442 47V14.2727H543.242V19.983H543.583C544.18 17.9517 545.181 16.4176 546.587 15.3807C547.994 14.3295 549.613 13.804 551.445 13.804C551.9 13.804 552.39 13.8324 552.915 13.8892C553.441 13.946 553.903 14.0241 554.3 14.1236V22.1776C553.874 22.0497 553.285 21.9361 552.532 21.8366C551.779 21.7372 551.09 21.6875 550.465 21.6875C549.13 21.6875 547.937 21.9787 546.886 22.5611C545.849 23.1293 545.025 23.9247 544.414 24.9474C543.817 25.9702 543.519 27.1491 543.519 28.4844V47H534.442ZM578.042 14.2727V21.0909H558.333V14.2727H578.042ZM562.807 6.43182H571.884V36.9432C571.884 37.7812 572.012 38.4347 572.267 38.9034C572.523 39.358 572.878 39.6776 573.333 39.8622C573.801 40.0469 574.341 40.1392 574.952 40.1392C575.378 40.1392 575.804 40.1037 576.23 40.0327C576.657 39.9474 576.983 39.8835 577.211 39.8409L578.638 46.5952C578.184 46.7372 577.544 46.9006 576.721 47.0852C575.897 47.2841 574.895 47.4048 573.716 47.4474C571.529 47.5327 569.611 47.2415 567.963 46.5739C566.33 45.9062 565.059 44.8693 564.15 43.4631C563.24 42.0568 562.793 40.2812 562.807 38.1364V6.43182ZM604.941 33.0653V14.2727H614.018V47H605.304V41.0554H604.963C604.224 42.973 602.995 44.5142 601.277 45.679C599.572 46.8437 597.491 47.4261 595.034 47.4261C592.846 47.4261 590.922 46.929 589.26 45.9347C587.598 44.9403 586.298 43.527 585.36 41.6946C584.437 39.8622 583.968 37.6676 583.954 35.1108V14.2727H593.031V33.4915C593.045 35.4233 593.564 36.9503 594.586 38.0724C595.609 39.1946 596.98 39.7557 598.699 39.7557C599.792 39.7557 600.815 39.5071 601.767 39.0099C602.718 38.4986 603.485 37.7457 604.068 36.7514C604.664 35.7571 604.956 34.5284 604.941 33.0653ZM621.278 47V14.2727H630.078V19.983H630.419C631.016 17.9517 632.017 16.4176 633.423 15.3807C634.83 14.3295 636.449 13.804 638.281 13.804C638.736 13.804 639.226 13.8324 639.751 13.8892C640.277 13.946 640.739 14.0241 641.136 14.1236V22.1776C640.71 22.0497 640.121 21.9361 639.368 21.8366C638.615 21.7372 637.926 21.6875 637.301 21.6875C635.966 21.6875 634.773 21.9787 633.722 22.5611C632.685 23.1293 631.861 23.9247 631.25 24.9474C630.653 25.9702 630.355 27.1491 630.355 28.4844V47H621.278ZM659.221 47.6392C655.854 47.6392 652.956 46.9574 650.527 45.5938C648.113 44.2159 646.252 42.2699 644.945 39.7557C643.638 37.2273 642.985 34.2372 642.985 30.7855C642.985 27.419 643.638 24.4645 644.945 21.9219C646.252 19.3793 648.091 17.3977 650.463 15.9773C652.85 14.5568 655.648 13.8466 658.858 13.8466C661.017 13.8466 663.027 14.1946 664.888 14.8906C666.763 15.5724 668.397 16.6023 669.789 17.9801C671.195 19.358 672.289 21.0909 673.07 23.179C673.851 25.2528 674.242 27.6818 674.242 30.4659V32.9588H646.607V27.3338H665.698C665.698 26.027 665.414 24.8693 664.846 23.8608C664.277 22.8523 663.489 22.0639 662.48 21.4957C661.486 20.9134 660.328 20.6222 659.007 20.6222C657.63 20.6222 656.408 20.9418 655.343 21.581C654.292 22.206 653.468 23.0511 652.871 24.1165C652.275 25.1676 651.969 26.3395 651.955 27.6321V32.9801C651.955 34.5994 652.253 35.9986 652.85 37.1776C653.461 38.3565 654.32 39.2656 655.428 39.9048C656.536 40.544 657.85 40.8636 659.37 40.8636C660.378 40.8636 661.301 40.7216 662.14 40.4375C662.978 40.1534 663.695 39.7273 664.292 39.1591C664.888 38.5909 665.343 37.8949 665.655 37.071L674.05 37.625C673.624 39.642 672.75 41.4034 671.429 42.9091C670.123 44.4006 668.432 45.5653 666.358 46.4034C664.299 47.2273 661.919 47.6392 659.221 47.6392ZM721.282 23.6051L712.972 24.1165C712.83 23.4062 712.525 22.767 712.056 22.1989C711.587 21.6165 710.969 21.1548 710.202 20.8139C709.45 20.4588 708.548 20.2812 707.496 20.2812C706.09 20.2812 704.904 20.5795 703.938 21.1761C702.972 21.7585 702.489 22.5398 702.489 23.5199C702.489 24.3011 702.802 24.9616 703.427 25.5014C704.052 26.0412 705.124 26.4744 706.644 26.8011L712.567 27.9943C715.749 28.6477 718.121 29.6989 719.684 31.1477C721.246 32.5966 722.028 34.5 722.028 36.858C722.028 39.0028 721.396 40.8849 720.131 42.5043C718.881 44.1236 717.163 45.3878 714.975 46.2969C712.802 47.1918 710.295 47.6392 707.454 47.6392C703.121 47.6392 699.67 46.7372 697.099 44.9332C694.542 43.1151 693.043 40.6435 692.603 37.5185L701.531 37.0497C701.8 38.3707 702.454 39.3793 703.491 40.0753C704.528 40.7571 705.856 41.098 707.475 41.098C709.066 41.098 710.344 40.7926 711.31 40.1818C712.29 39.5568 712.788 38.7543 712.802 37.7741C712.788 36.9503 712.44 36.2756 711.758 35.75C711.076 35.2102 710.025 34.7983 708.604 34.5142L702.937 33.3849C699.741 32.7457 697.362 31.6378 695.799 30.0611C694.251 28.4844 693.477 26.4744 693.477 24.0312C693.477 21.929 694.045 20.1179 695.181 18.598C696.332 17.0781 697.944 15.9063 700.018 15.0824C702.106 14.2585 704.549 13.8466 707.347 13.8466C711.481 13.8466 714.734 14.7202 717.106 16.4673C719.492 18.2145 720.884 20.5937 721.282 23.6051ZM748.73 33.0653V14.2727H757.807V47H749.093V41.0554H748.752C748.013 42.973 746.784 44.5142 745.066 45.679C743.361 46.8437 741.28 47.4261 738.823 47.4261C736.635 47.4261 734.711 46.929 733.049 45.9347C731.387 44.9403 730.087 43.527 729.15 41.6946C728.226 39.8622 727.757 37.6676 727.743 35.1108V14.2727H736.82V33.4915C736.834 35.4233 737.353 36.9503 738.375 38.0724C739.398 39.1946 740.769 39.7557 742.488 39.7557C743.581 39.7557 744.604 39.5071 745.556 39.0099C746.507 38.4986 747.275 37.7457 747.857 36.7514C748.453 35.7571 748.745 34.5284 748.73 33.0653ZM779.854 47.6392C776.502 47.6392 773.619 46.929 771.204 45.5085C768.803 44.0739 766.957 42.0852 765.664 39.5426C764.386 37 763.746 34.0739 763.746 30.7642C763.746 27.4119 764.393 24.4716 765.685 21.9432C766.992 19.4006 768.846 17.419 771.246 15.9986C773.647 14.5639 776.502 13.8466 779.812 13.8466C782.667 13.8466 785.167 14.3651 787.312 15.402C789.457 16.4389 791.154 17.8949 792.404 19.7699C793.654 21.6449 794.343 23.8466 794.471 26.375H785.906C785.664 24.7415 785.025 23.4276 783.988 22.4332C782.965 21.4247 781.623 20.9205 779.961 20.9205C778.555 20.9205 777.326 21.304 776.275 22.071C775.238 22.8239 774.428 23.9247 773.846 25.3736C773.263 26.8224 772.972 28.5767 772.972 30.6364C772.972 32.7244 773.256 34.5 773.825 35.9631C774.407 37.4261 775.224 38.5412 776.275 39.3082C777.326 40.0753 778.555 40.4588 779.961 40.4588C780.998 40.4588 781.928 40.2457 782.752 39.8196C783.59 39.3935 784.279 38.7756 784.819 37.9659C785.373 37.142 785.735 36.1548 785.906 35.0043H794.471C794.329 37.5043 793.647 39.706 792.425 41.6094C791.218 43.4986 789.549 44.9759 787.418 46.0412C785.288 47.1065 782.766 47.6392 779.854 47.6392ZM815.069 47.6392C811.717 47.6392 808.833 46.929 806.419 45.5085C804.018 44.0739 802.172 42.0852 800.879 39.5426C799.6 37 798.961 34.0739 798.961 30.7642C798.961 27.4119 799.608 24.4716 800.9 21.9432C802.207 19.4006 804.061 17.419 806.461 15.9986C808.862 14.5639 811.717 13.8466 815.027 13.8466C817.882 13.8466 820.382 14.3651 822.527 15.402C824.672 16.4389 826.369 17.8949 827.619 19.7699C828.869 21.6449 829.558 23.8466 829.686 26.375H821.12C820.879 24.7415 820.24 23.4276 819.203 22.4332C818.18 21.4247 816.838 20.9205 815.176 20.9205C813.77 20.9205 812.541 21.304 811.49 22.071C810.453 22.8239 809.643 23.9247 809.061 25.3736C808.478 26.8224 808.187 28.5767 808.187 30.6364C808.187 32.7244 808.471 34.5 809.039 35.9631C809.622 37.4261 810.439 38.5412 811.49 39.3082C812.541 40.0753 813.77 40.4588 815.176 40.4588C816.213 40.4588 817.143 40.2457 817.967 39.8196C818.805 39.3935 819.494 38.7756 820.034 37.9659C820.588 37.142 820.95 36.1548 821.12 35.0043H829.686C829.544 37.5043 828.862 39.706 827.64 41.6094C826.433 43.4986 824.764 44.9759 822.633 46.0412C820.502 47.1065 817.981 47.6392 815.069 47.6392ZM850.412 47.6392C847.045 47.6392 844.148 46.9574 841.719 45.5938C839.304 44.2159 837.443 42.2699 836.136 39.7557C834.83 37.2273 834.176 34.2372 834.176 30.7855C834.176 27.419 834.83 24.4645 836.136 21.9219C837.443 19.3793 839.283 17.3977 841.655 15.9773C844.041 14.5568 846.839 13.8466 850.05 13.8466C852.209 13.8466 854.219 14.1946 856.08 14.8906C857.955 15.5724 859.588 16.6023 860.98 17.9801C862.386 19.358 863.48 21.0909 864.261 23.179C865.043 25.2528 865.433 27.6818 865.433 30.4659V32.9588H837.798V27.3338H856.889C856.889 26.027 856.605 24.8693 856.037 23.8608C855.469 22.8523 854.68 22.0639 853.672 21.4957C852.678 20.9134 851.52 20.6222 850.199 20.6222C848.821 20.6222 847.599 20.9418 846.534 21.581C845.483 22.206 844.659 23.0511 844.062 24.1165C843.466 25.1676 843.161 26.3395 843.146 27.6321V32.9801C843.146 34.5994 843.445 35.9986 844.041 37.1776C844.652 38.3565 845.511 39.2656 846.619 39.9048C847.727 40.544 849.041 40.8636 850.561 40.8636C851.57 40.8636 852.493 40.7216 853.331 40.4375C854.169 40.1534 854.886 39.7273 855.483 39.1591C856.08 38.5909 856.534 37.8949 856.847 37.071L865.241 37.625C864.815 39.642 863.942 41.4034 862.621 42.9091C861.314 44.4006 859.624 45.5653 857.55 46.4034C855.49 47.2273 853.111 47.6392 850.412 47.6392ZM898.587 23.6051L890.277 24.1165C890.135 23.4062 889.83 22.767 889.361 22.1989C888.892 21.6165 888.274 21.1548 887.507 20.8139C886.754 20.4588 885.852 20.2812 884.801 20.2812C883.395 20.2812 882.209 20.5795 881.243 21.1761C880.277 21.7585 879.794 22.5398 879.794 23.5199C879.794 24.3011 880.107 24.9616 880.732 25.5014C881.357 26.0412 882.429 26.4744 883.949 26.8011L889.872 27.9943C893.054 28.6477 895.426 29.6989 896.989 31.1477C898.551 32.5966 899.332 34.5 899.332 36.858C899.332 39.0028 898.7 40.8849 897.436 42.5043C896.186 44.1236 894.467 45.3878 892.28 46.2969C890.107 47.1918 887.599 47.6392 884.759 47.6392C880.426 47.6392 876.974 46.7372 874.403 44.9332C871.847 43.1151 870.348 40.6435 869.908 37.5185L878.835 37.0497C879.105 38.3707 879.759 39.3793 880.795 40.0753C881.832 40.7571 883.161 41.098 884.78 41.098C886.371 41.098 887.649 40.7926 888.615 40.1818C889.595 39.5568 890.092 38.7543 890.107 37.7741C890.092 36.9503 889.744 36.2756 889.062 35.75C888.381 35.2102 887.33 34.7983 885.909 34.5142L880.241 33.3849C877.045 32.7457 874.666 31.6378 873.104 30.0611C871.555 28.4844 870.781 26.4744 870.781 24.0312C870.781 21.929 871.349 20.1179 872.486 18.598C873.636 17.0781 875.249 15.9063 877.322 15.0824C879.411 14.2585 881.854 13.8466 884.652 13.8466C888.786 13.8466 892.038 14.7202 894.411 16.4673C896.797 18.2145 898.189 20.5937 898.587 23.6051ZM932.278 23.6051L923.968 24.1165C923.826 23.4062 923.521 22.767 923.052 22.1989C922.583 21.6165 921.966 21.1548 921.199 20.8139C920.446 20.4588 919.544 20.2812 918.493 20.2812C917.086 20.2812 915.9 20.5795 914.934 21.1761C913.968 21.7585 913.485 22.5398 913.485 23.5199C913.485 24.3011 913.798 24.9616 914.423 25.5014C915.048 26.0412 916.12 26.4744 917.64 26.8011L923.564 27.9943C926.745 28.6477 929.118 29.6989 930.68 31.1477C932.243 32.5966 933.024 34.5 933.024 36.858C933.024 39.0028 932.392 40.8849 931.127 42.5043C929.877 44.1236 928.159 45.3878 925.971 46.2969C923.798 47.1918 921.291 47.6392 918.45 47.6392C914.118 47.6392 910.666 46.7372 908.095 44.9332C905.538 43.1151 904.039 40.6435 903.599 37.5185L912.527 37.0497C912.797 38.3707 913.45 39.3793 914.487 40.0753C915.524 40.7571 916.852 41.098 918.471 41.098C920.062 41.098 921.341 40.7926 922.306 40.1818C923.287 39.5568 923.784 38.7543 923.798 37.7741C923.784 36.9503 923.436 36.2756 922.754 35.75C922.072 35.2102 921.021 34.7983 919.6 34.5142L913.933 33.3849C910.737 32.7457 908.358 31.6378 906.795 30.0611C905.247 28.4844 904.473 26.4744 904.473 24.0312C904.473 21.929 905.041 20.1179 906.177 18.598C907.328 17.0781 908.94 15.9063 911.014 15.0824C913.102 14.2585 915.545 13.8466 918.343 13.8466C922.477 13.8466 925.73 14.7202 928.102 16.4673C930.488 18.2145 931.88 20.5937 932.278 23.6051ZM959.082 47L950.176 14.2727H959.359L964.43 36.2614H964.728L970.012 14.2727H979.025L984.395 36.1335H984.672L989.657 14.2727H998.819L989.934 47H980.325L974.7 26.4176H974.295L968.67 47H959.082ZM1003.66 47V14.2727H1012.74V47H1003.66ZM1008.22 10.054C1006.87 10.054 1005.71 9.60653 1004.75 8.71165C1003.8 7.80256 1003.32 6.71591 1003.32 5.4517C1003.32 4.2017 1003.8 3.12926 1004.75 2.23438C1005.71 1.32528 1006.87 0.870736 1008.22 0.870736C1009.57 0.870736 1010.72 1.32528 1011.67 2.23438C1012.64 3.12926 1013.12 4.2017 1013.12 5.4517C1013.12 6.71591 1012.64 7.80256 1011.67 8.71165C1010.72 9.60653 1009.57 10.054 1008.22 10.054ZM1037.42 14.2727V21.0909H1017.71V14.2727H1037.42ZM1022.18 6.43182H1031.26V36.9432C1031.26 37.7812 1031.39 38.4347 1031.64 38.9034C1031.9 39.358 1032.25 39.6776 1032.71 39.8622C1033.18 40.0469 1033.72 40.1392 1034.33 40.1392C1034.75 40.1392 1035.18 40.1037 1035.61 40.0327C1036.03 39.9474 1036.36 39.8835 1036.59 39.8409L1038.01 46.5952C1037.56 46.7372 1036.92 46.9006 1036.1 47.0852C1035.27 47.2841 1034.27 47.4048 1033.09 47.4474C1030.9 47.5327 1028.99 47.2415 1027.34 46.5739C1025.7 45.9062 1024.43 44.8693 1023.52 43.4631C1022.62 42.0568 1022.17 40.2812 1022.18 38.1364V6.43182ZM1053.11 28.0795V47H1044.03V3.36364H1052.85V20.0469H1053.24C1053.98 18.1151 1055.17 16.6023 1056.82 15.5085C1058.46 14.4006 1060.53 13.8466 1063.02 13.8466C1065.29 13.8466 1067.27 14.3437 1068.96 15.3381C1070.67 16.3182 1071.99 17.7315 1072.92 19.5781C1073.88 21.4105 1074.34 23.6051 1074.33 26.1619V47H1065.25V27.7812C1065.27 25.7642 1064.76 24.1946 1063.72 23.0724C1062.7 21.9503 1061.26 21.3892 1059.42 21.3892C1058.18 21.3892 1057.09 21.652 1056.13 22.1776C1055.2 22.7031 1054.46 23.4702 1053.92 24.4787C1053.39 25.473 1053.12 26.6733 1053.11 28.0795ZM172.269 120V76.3636H181.495V112.393H200.202V120H172.269ZM220.929 120.639C217.619 120.639 214.757 119.936 212.342 118.53C209.941 117.109 208.088 115.135 206.781 112.607C205.474 110.064 204.821 107.116 204.821 103.764C204.821 100.384 205.474 97.429 206.781 94.9006C208.088 92.358 209.941 90.3835 212.342 88.9773C214.757 87.5568 217.619 86.8466 220.929 86.8466C224.238 86.8466 227.093 87.5568 229.494 88.9773C231.909 90.3835 233.77 92.358 235.076 94.9006C236.383 97.429 237.037 100.384 237.037 103.764C237.037 107.116 236.383 110.064 235.076 112.607C233.77 115.135 231.909 117.109 229.494 118.53C227.093 119.936 224.238 120.639 220.929 120.639ZM220.971 113.608C222.477 113.608 223.734 113.182 224.743 112.33C225.751 111.463 226.511 110.284 227.022 108.793C227.548 107.301 227.811 105.604 227.811 103.7C227.811 101.797 227.548 100.099 227.022 98.608C226.511 97.1165 225.751 95.9375 224.743 95.071C223.734 94.2045 222.477 93.7713 220.971 93.7713C219.451 93.7713 218.173 94.2045 217.136 95.071C216.113 95.9375 215.339 97.1165 214.814 98.608C214.302 100.099 214.047 101.797 214.047 103.7C214.047 105.604 214.302 107.301 214.814 108.793C215.339 110.284 216.113 111.463 217.136 112.33C218.173 113.182 219.451 113.608 220.971 113.608ZM242.939 120V87.2727H251.738V92.983H252.079C252.676 90.9517 253.677 89.4176 255.083 88.3807C256.49 87.3295 258.109 86.804 259.941 86.804C260.396 86.804 260.886 86.8324 261.412 86.8892C261.937 86.946 262.399 87.0241 262.797 87.1236V95.1776C262.37 95.0497 261.781 94.9361 261.028 94.8366C260.275 94.7372 259.586 94.6875 258.961 94.6875C257.626 94.6875 256.433 94.9787 255.382 95.5611C254.345 96.1293 253.521 96.9247 252.91 97.9474C252.314 98.9702 252.015 100.149 252.015 101.484V120H242.939ZM278.026 120.533C275.54 120.533 273.288 119.893 271.271 118.615C269.268 117.322 267.678 115.426 266.499 112.926C265.334 110.412 264.751 107.33 264.751 103.679C264.751 99.929 265.355 96.8111 266.562 94.3253C267.77 91.8253 269.375 89.9574 271.378 88.7216C273.395 87.4716 275.604 86.8466 278.004 86.8466C279.837 86.8466 281.364 87.1591 282.585 87.7841C283.821 88.3949 284.815 89.1619 285.568 90.0852C286.335 90.9943 286.918 91.8892 287.315 92.7699H287.592V76.3636H296.648V120H287.699V114.759H287.315C286.889 115.668 286.286 116.57 285.504 117.464C284.737 118.345 283.736 119.077 282.5 119.659C281.278 120.241 279.787 120.533 278.026 120.533ZM280.902 113.31C282.365 113.31 283.601 112.912 284.609 112.116C285.632 111.307 286.413 110.178 286.953 108.729C287.507 107.28 287.784 105.582 287.784 103.636C287.784 101.69 287.514 100 286.974 98.5653C286.435 97.1307 285.653 96.0227 284.631 95.2415C283.608 94.4602 282.365 94.0696 280.902 94.0696C279.411 94.0696 278.153 94.4744 277.131 95.2841C276.108 96.0937 275.334 97.2159 274.808 98.6506C274.283 100.085 274.02 101.747 274.02 103.636C274.02 105.54 274.283 107.223 274.808 108.686C275.348 110.135 276.122 111.271 277.131 112.095C278.153 112.905 279.411 113.31 280.902 113.31ZM318.168 120V76.3636H327.393V95.6037H327.969L343.672 76.3636H354.73L338.537 95.902L354.922 120H343.885L331.932 102.06L327.393 107.599V120H318.168ZM359.364 120V87.2727H368.164V92.983H368.505C369.102 90.9517 370.103 89.4176 371.509 88.3807C372.915 87.3295 374.535 86.804 376.367 86.804C376.822 86.804 377.312 86.8324 377.837 86.8892C378.363 86.946 378.825 87.0241 379.222 87.1236V95.1776C378.796 95.0497 378.207 94.9361 377.454 94.8366C376.701 94.7372 376.012 94.6875 375.387 94.6875C374.052 94.6875 372.859 94.9787 371.808 95.5611C370.771 96.1293 369.947 96.9247 369.336 97.9474C368.739 98.9702 368.441 100.149 368.441 101.484V120H359.364ZM383.915 120V87.2727H392.992V120H383.915ZM388.475 83.054C387.125 83.054 385.968 82.6065 385.002 81.7116C384.05 80.8026 383.574 79.7159 383.574 78.4517C383.574 77.2017 384.05 76.1293 385.002 75.2344C385.968 74.3253 387.125 73.8707 388.475 73.8707C389.824 73.8707 390.975 74.3253 391.926 75.2344C392.892 76.1293 393.375 77.2017 393.375 78.4517C393.375 79.7159 392.892 80.8026 391.926 81.7116C390.975 82.6065 389.824 83.054 388.475 83.054ZM427.493 96.6051L419.183 97.1165C419.041 96.4062 418.736 95.767 418.267 95.1989C417.798 94.6165 417.18 94.1548 416.413 93.8139C415.661 93.4588 414.759 93.2812 413.707 93.2812C412.301 93.2812 411.115 93.5795 410.149 94.1761C409.183 94.7585 408.7 95.5398 408.7 96.5199C408.7 97.3011 409.013 97.9616 409.638 98.5014C410.263 99.0412 411.335 99.4744 412.855 99.8011L418.778 100.994C421.96 101.648 424.332 102.699 425.895 104.148C427.457 105.597 428.239 107.5 428.239 109.858C428.239 112.003 427.607 113.885 426.342 115.504C425.092 117.124 423.374 118.388 421.186 119.297C419.013 120.192 416.506 120.639 413.665 120.639C409.332 120.639 405.881 119.737 403.31 117.933C400.753 116.115 399.254 113.643 398.814 110.518L407.741 110.05C408.011 111.371 408.665 112.379 409.702 113.075C410.739 113.757 412.067 114.098 413.686 114.098C415.277 114.098 416.555 113.793 417.521 113.182C418.501 112.557 418.999 111.754 419.013 110.774C418.999 109.95 418.651 109.276 417.969 108.75C417.287 108.21 416.236 107.798 414.815 107.514L409.148 106.385C405.952 105.746 403.572 104.638 402.01 103.061C400.462 101.484 399.688 99.4744 399.688 97.0312C399.688 94.929 400.256 93.1179 401.392 91.598C402.543 90.0781 404.155 88.9062 406.229 88.0824C408.317 87.2585 410.76 86.8466 413.558 86.8466C417.692 86.8466 420.945 87.7202 423.317 89.4673C425.703 91.2145 427.095 93.5937 427.493 96.6051ZM443.031 101.08V120H433.954V76.3636H442.775V93.0469H443.159C443.897 91.1151 445.091 89.6023 446.738 88.5085C448.386 87.4006 450.453 86.8466 452.939 86.8466C455.211 86.8466 457.193 87.3438 458.883 88.3381C460.588 89.3182 461.909 90.7315 462.846 92.5781C463.798 94.4105 464.267 96.6051 464.252 99.1619V120H455.176V100.781C455.19 98.7642 454.679 97.1946 453.642 96.0724C452.619 94.9503 451.184 94.3892 449.338 94.3892C448.102 94.3892 447.008 94.652 446.056 95.1776C445.119 95.7031 444.38 96.4702 443.841 97.4787C443.315 98.473 443.045 99.6733 443.031 101.08ZM480.472 101.08V120H471.396V87.2727H480.046V93.0469H480.43C481.154 91.1435 482.369 89.6378 484.073 88.5298C485.778 87.4077 487.844 86.8466 490.273 86.8466C492.546 86.8466 494.528 87.3438 496.218 88.3381C497.908 89.3324 499.222 90.7528 500.16 92.5994C501.097 94.4318 501.566 96.6193 501.566 99.1619V120H492.489V100.781C492.504 98.7784 491.992 97.2159 490.955 96.0938C489.918 94.9574 488.491 94.3892 486.673 94.3892C485.451 94.3892 484.371 94.652 483.434 95.1776C482.511 95.7031 481.786 96.4702 481.261 97.4787C480.749 98.473 480.487 99.6733 480.472 101.08ZM518.052 120.618C515.964 120.618 514.103 120.256 512.47 119.531C510.836 118.793 509.544 117.706 508.592 116.271C507.654 114.822 507.186 113.018 507.186 110.859C507.186 109.041 507.52 107.514 508.187 106.278C508.855 105.043 509.764 104.048 510.914 103.295C512.065 102.543 513.372 101.974 514.835 101.591C516.312 101.207 517.86 100.938 519.48 100.781C521.383 100.582 522.917 100.398 524.082 100.227C525.247 100.043 526.092 99.7727 526.618 99.4176C527.143 99.0625 527.406 98.5369 527.406 97.8409V97.7131C527.406 96.3636 526.98 95.3196 526.127 94.581C525.289 93.8423 524.096 93.473 522.548 93.473C520.914 93.473 519.615 93.8352 518.649 94.5597C517.683 95.2699 517.044 96.1648 516.731 97.2443L508.336 96.5625C508.762 94.5739 509.6 92.8551 510.85 91.4062C512.1 89.9432 513.713 88.821 515.687 88.0398C517.676 87.2443 519.977 86.8466 522.591 86.8466C524.409 86.8466 526.149 87.0597 527.811 87.4858C529.487 87.9119 530.971 88.5724 532.264 89.4673C533.571 90.3622 534.6 91.5128 535.353 92.919C536.106 94.3111 536.483 95.9801 536.483 97.9261V120H527.875V115.462H527.619C527.093 116.484 526.39 117.386 525.51 118.168C524.629 118.935 523.571 119.538 522.335 119.979C521.099 120.405 519.672 120.618 518.052 120.618ZM520.652 114.354C521.987 114.354 523.166 114.091 524.189 113.565C525.211 113.026 526.014 112.301 526.596 111.392C527.179 110.483 527.47 109.453 527.47 108.303V104.83C527.186 105.014 526.795 105.185 526.298 105.341C525.815 105.483 525.268 105.618 524.657 105.746C524.047 105.859 523.436 105.966 522.825 106.065C522.214 106.151 521.66 106.229 521.163 106.3C520.098 106.456 519.167 106.705 518.372 107.045C517.576 107.386 516.958 107.848 516.518 108.43C516.078 108.999 515.858 109.709 515.858 110.561C515.858 111.797 516.305 112.741 517.2 113.395C518.109 114.034 519.26 114.354 520.652 114.354ZM551.131 76.3636V80.9659C551.131 82.2727 550.875 83.608 550.364 84.9716C549.867 86.321 549.199 87.5994 548.361 88.8068C547.523 90 546.607 91.0156 545.613 91.8537L541.607 89.4886C542.317 88.3665 542.942 87.1236 543.482 85.7599C544.036 84.3963 544.313 82.8125 544.313 81.0085V76.3636H551.131ZM580.305 96.6051L571.996 97.1165C571.854 96.4062 571.548 95.767 571.08 95.1989C570.611 94.6165 569.993 94.1548 569.226 93.8139C568.473 93.4588 567.571 93.2812 566.52 93.2812C565.114 93.2812 563.928 93.5795 562.962 94.1761C561.996 94.7585 561.513 95.5398 561.513 96.5199C561.513 97.3011 561.825 97.9616 562.45 98.5014C563.075 99.0412 564.148 99.4744 565.668 99.8011L571.591 100.994C574.773 101.648 577.145 102.699 578.707 104.148C580.27 105.597 581.051 107.5 581.051 109.858C581.051 112.003 580.419 113.885 579.155 115.504C577.905 117.124 576.186 118.388 573.999 119.297C571.825 120.192 569.318 120.639 566.477 120.639C562.145 120.639 558.693 119.737 556.122 117.933C553.565 116.115 552.067 113.643 551.626 110.518L560.554 110.05C560.824 111.371 561.477 112.379 562.514 113.075C563.551 113.757 564.879 114.098 566.499 114.098C568.089 114.098 569.368 113.793 570.334 113.182C571.314 112.557 571.811 111.754 571.825 110.774C571.811 109.95 571.463 109.276 570.781 108.75C570.099 108.21 569.048 107.798 567.628 107.514L561.96 106.385C558.764 105.746 556.385 104.638 554.822 103.061C553.274 101.484 552.5 99.4744 552.5 97.0312C552.5 94.929 553.068 93.1179 554.205 91.598C555.355 90.0781 556.967 88.9062 559.041 88.0824C561.129 87.2585 563.572 86.8466 566.371 86.8466C570.504 86.8466 573.757 87.7202 576.129 89.4673C578.516 91.2145 579.908 93.5937 580.305 96.6051ZM618.061 87.2727V94.0909H598.352V87.2727H618.061ZM602.827 79.4318H611.903V109.943C611.903 110.781 612.031 111.435 612.287 111.903C612.543 112.358 612.898 112.678 613.352 112.862C613.821 113.047 614.361 113.139 614.972 113.139C615.398 113.139 615.824 113.104 616.25 113.033C616.676 112.947 617.003 112.884 617.23 112.841L618.658 119.595C618.203 119.737 617.564 119.901 616.74 120.085C615.916 120.284 614.915 120.405 613.736 120.447C611.548 120.533 609.631 120.241 607.983 119.574C606.349 118.906 605.078 117.869 604.169 116.463C603.26 115.057 602.813 113.281 602.827 111.136V79.4318ZM638.537 120.639C635.17 120.639 632.273 119.957 629.844 118.594C627.429 117.216 625.568 115.27 624.261 112.756C622.955 110.227 622.301 107.237 622.301 103.786C622.301 100.419 622.955 97.4645 624.261 94.9219C625.568 92.3793 627.408 90.3977 629.78 88.9773C632.166 87.5568 634.964 86.8466 638.175 86.8466C640.334 86.8466 642.344 87.1946 644.205 87.8906C646.08 88.5724 647.713 89.6023 649.105 90.9801C650.511 92.358 651.605 94.0909 652.386 96.179C653.168 98.2528 653.558 100.682 653.558 103.466V105.959H625.923V100.334H645.014C645.014 99.027 644.73 97.8693 644.162 96.8608C643.594 95.8523 642.805 95.0639 641.797 94.4957C640.803 93.9134 639.645 93.6222 638.324 93.6222C636.946 93.6222 635.724 93.9418 634.659 94.581C633.608 95.206 632.784 96.0511 632.188 97.1165C631.591 98.1676 631.286 99.3395 631.271 100.632V105.98C631.271 107.599 631.57 108.999 632.166 110.178C632.777 111.357 633.636 112.266 634.744 112.905C635.852 113.544 637.166 113.864 638.686 113.864C639.695 113.864 640.618 113.722 641.456 113.438C642.294 113.153 643.011 112.727 643.608 112.159C644.205 111.591 644.659 110.895 644.972 110.071L653.366 110.625C652.94 112.642 652.067 114.403 650.746 115.909C649.439 117.401 647.749 118.565 645.675 119.403C643.615 120.227 641.236 120.639 638.537 120.639ZM668.814 120.618C666.726 120.618 664.865 120.256 663.232 119.531C661.598 118.793 660.305 117.706 659.354 116.271C658.416 114.822 657.947 113.018 657.947 110.859C657.947 109.041 658.281 107.514 658.949 106.278C659.616 105.043 660.526 104.048 661.676 103.295C662.827 102.543 664.134 101.974 665.597 101.591C667.074 101.207 668.622 100.938 670.241 100.781C672.145 100.582 673.679 100.398 674.844 100.227C676.009 100.043 676.854 99.7727 677.379 99.4176C677.905 99.0625 678.168 98.5369 678.168 97.8409V97.7131C678.168 96.3636 677.741 95.3196 676.889 94.581C676.051 93.8423 674.858 93.473 673.31 93.473C671.676 93.473 670.376 93.8352 669.411 94.5597C668.445 95.2699 667.805 96.1648 667.493 97.2443L659.098 96.5625C659.524 94.5739 660.362 92.8551 661.612 91.4062C662.862 89.9432 664.474 88.821 666.449 88.0398C668.438 87.2443 670.739 86.8466 673.352 86.8466C675.17 86.8466 676.911 87.0597 678.572 87.4858C680.249 87.9119 681.733 88.5724 683.026 89.4673C684.332 90.3622 685.362 91.5128 686.115 92.919C686.868 94.3111 687.244 95.9801 687.244 97.9261V120H678.636V115.462H678.381C677.855 116.484 677.152 117.386 676.271 118.168C675.391 118.935 674.332 119.538 673.097 119.979C671.861 120.405 670.433 120.618 668.814 120.618ZM671.413 114.354C672.749 114.354 673.928 114.091 674.95 113.565C675.973 113.026 676.776 112.301 677.358 111.392C677.94 110.483 678.232 109.453 678.232 108.303V104.83C677.947 105.014 677.557 105.185 677.06 105.341C676.577 105.483 676.03 105.618 675.419 105.746C674.808 105.859 674.197 105.966 673.587 106.065C672.976 106.151 672.422 106.229 671.925 106.3C670.859 106.456 669.929 106.705 669.134 107.045C668.338 107.386 667.72 107.848 667.28 108.43C666.839 108.999 666.619 109.709 666.619 110.561C666.619 111.797 667.067 112.741 667.962 113.395C668.871 114.034 670.021 114.354 671.413 114.354ZM709.073 120.639C705.721 120.639 702.837 119.929 700.423 118.509C698.022 117.074 696.175 115.085 694.883 112.543C693.604 110 692.965 107.074 692.965 103.764C692.965 100.412 693.612 97.4716 694.904 94.9432C696.211 92.4006 698.065 90.419 700.465 88.9986C702.866 87.5639 705.721 86.8466 709.031 86.8466C711.886 86.8466 714.386 87.3651 716.531 88.402C718.675 89.4389 720.373 90.8949 721.623 92.7699C722.873 94.6449 723.562 96.8466 723.69 99.375H715.124C714.883 97.7415 714.244 96.4276 713.207 95.4332C712.184 94.4247 710.842 93.9205 709.18 93.9205C707.773 93.9205 706.545 94.304 705.494 95.071C704.457 95.8239 703.647 96.9247 703.065 98.3736C702.482 99.8224 702.191 101.577 702.191 103.636C702.191 105.724 702.475 107.5 703.043 108.963C703.626 110.426 704.442 111.541 705.494 112.308C706.545 113.075 707.773 113.459 709.18 113.459C710.217 113.459 711.147 113.246 711.971 112.82C712.809 112.393 713.498 111.776 714.038 110.966C714.592 110.142 714.954 109.155 715.124 108.004H723.69C723.548 110.504 722.866 112.706 721.644 114.609C720.437 116.499 718.768 117.976 716.637 119.041C714.506 120.107 711.985 120.639 709.073 120.639ZM738.578 101.08V120H729.501V76.3636H738.322V93.0469H738.706C739.444 91.1151 740.637 89.6023 742.285 88.5085C743.933 87.4006 746 86.8466 748.485 86.8466C750.758 86.8466 752.74 87.3438 754.43 88.3381C756.135 89.3182 757.456 90.7315 758.393 92.5781C759.345 94.4105 759.814 96.6051 759.799 99.1619V120H750.723V100.781C750.737 98.7642 750.225 97.1946 749.189 96.0724C748.166 94.9503 746.731 94.3892 744.885 94.3892C743.649 94.3892 742.555 94.652 741.603 95.1776C740.666 95.7031 739.927 96.4702 739.387 97.4787C738.862 98.473 738.592 99.6733 738.578 101.08ZM766.942 120V87.2727H776.019V120H766.942ZM771.502 83.054C770.153 83.054 768.995 82.6065 768.029 81.7116C767.077 80.8026 766.602 79.7159 766.602 78.4517C766.602 77.2017 767.077 76.1293 768.029 75.2344C768.995 74.3253 770.153 73.8707 771.502 73.8707C772.852 73.8707 774.002 74.3253 774.954 75.2344C775.92 76.1293 776.403 77.2017 776.403 78.4517C776.403 79.7159 775.92 80.8026 774.954 81.7116C774.002 82.6065 772.852 83.054 771.502 83.054ZM792.367 101.08V120H783.29V87.2727H791.941V93.0469H792.324C793.049 91.1435 794.263 89.6378 795.968 88.5298C797.672 87.4077 799.739 86.8466 802.168 86.8466C804.441 86.8466 806.422 87.3438 808.113 88.3381C809.803 89.3324 811.117 90.7528 812.054 92.5994C812.992 94.4318 813.461 96.6193 813.461 99.1619V120H804.384V100.781C804.398 98.7784 803.887 97.2159 802.85 96.0938C801.813 94.9574 800.385 94.3892 798.567 94.3892C797.346 94.3892 796.266 94.652 795.328 95.1776C794.405 95.7031 793.681 96.4702 793.155 97.4787C792.644 98.473 792.381 99.6733 792.367 101.08ZM835.359 132.955C832.418 132.955 829.897 132.55 827.795 131.74C825.707 130.945 824.045 129.858 822.809 128.48C821.573 127.102 820.771 125.554 820.401 123.835L828.796 122.706C829.052 123.359 829.457 123.97 830.011 124.538C830.565 125.107 831.296 125.561 832.205 125.902C833.129 126.257 834.251 126.435 835.572 126.435C837.546 126.435 839.173 125.952 840.451 124.986C841.744 124.034 842.39 122.436 842.39 120.192V114.205H842.006C841.609 115.114 841.012 115.973 840.217 116.783C839.421 117.592 838.398 118.253 837.148 118.764C835.898 119.276 834.407 119.531 832.674 119.531C830.217 119.531 827.979 118.963 825.962 117.827C823.96 116.676 822.362 114.922 821.168 112.564C819.989 110.192 819.4 107.195 819.4 103.572C819.4 99.8651 820.004 96.7685 821.211 94.2827C822.418 91.7969 824.023 89.9361 826.026 88.7003C828.043 87.4645 830.252 86.8466 832.653 86.8466C834.485 86.8466 836.019 87.1591 837.255 87.7841C838.491 88.3949 839.485 89.1619 840.238 90.0852C841.005 90.9943 841.594 91.8892 842.006 92.7699H842.347V87.2727H851.36V120.32C851.36 123.104 850.678 125.433 849.315 127.308C847.951 129.183 846.062 130.589 843.647 131.527C841.246 132.479 838.484 132.955 835.359 132.955ZM835.55 112.713C837.013 112.713 838.249 112.351 839.258 111.626C840.281 110.888 841.062 109.837 841.602 108.473C842.156 107.095 842.433 105.447 842.433 103.53C842.433 101.612 842.163 99.9503 841.623 98.544C841.083 97.1236 840.302 96.0227 839.279 95.2415C838.256 94.4602 837.013 94.0696 835.55 94.0696C834.059 94.0696 832.802 94.4744 831.779 95.2841C830.756 96.0795 829.982 97.1875 829.457 98.608C828.931 100.028 828.668 101.669 828.668 103.53C828.668 105.419 828.931 107.053 829.457 108.43C829.996 109.794 830.771 110.852 831.779 111.605C832.802 112.344 834.059 112.713 835.55 112.713ZM885.813 96.6051L877.504 97.1165C877.362 96.4062 877.056 95.767 876.587 95.1989C876.119 94.6165 875.501 94.1548 874.734 93.8139C873.981 93.4588 873.079 93.2812 872.028 93.2812C870.621 93.2812 869.435 93.5795 868.469 94.1761C867.504 94.7585 867.021 95.5398 867.021 96.5199C867.021 97.3011 867.333 97.9616 867.958 98.5014C868.583 99.0412 869.656 99.4744 871.175 99.8011L877.099 100.994C880.281 101.648 882.653 102.699 884.215 104.148C885.778 105.597 886.559 107.5 886.559 109.858C886.559 112.003 885.927 113.885 884.663 115.504C883.413 117.124 881.694 118.388 879.506 119.297C877.333 120.192 874.826 120.639 871.985 120.639C867.653 120.639 864.201 119.737 861.63 117.933C859.073 116.115 857.575 113.643 857.134 110.518L866.062 110.05C866.332 111.371 866.985 112.379 868.022 113.075C869.059 113.757 870.387 114.098 872.006 114.098C873.597 114.098 874.876 113.793 875.842 113.182C876.822 112.557 877.319 111.754 877.333 110.774C877.319 109.95 876.971 109.276 876.289 108.75C875.607 108.21 874.556 107.798 873.136 107.514L867.468 106.385C864.272 105.746 861.893 104.638 860.33 103.061C858.782 101.484 858.008 99.4744 858.008 97.0312C858.008 94.929 858.576 93.1179 859.712 91.598C860.863 90.0781 862.475 88.9062 864.549 88.0824C866.637 87.2585 869.08 86.8466 871.879 86.8466C876.012 86.8466 879.265 87.7202 881.637 89.4673C884.023 91.2145 885.415 93.5937 885.813 96.6051ZM897.58 120.554C896.174 120.554 894.966 120.057 893.958 119.062C892.963 118.054 892.466 116.847 892.466 115.44C892.466 114.048 892.963 112.855 893.958 111.861C894.966 110.866 896.174 110.369 897.58 110.369C898.944 110.369 900.137 110.866 901.159 111.861C902.182 112.855 902.694 114.048 902.694 115.44C902.694 116.378 902.452 117.237 901.969 118.018C901.5 118.786 900.882 119.403 900.115 119.872C899.348 120.327 898.503 120.554 897.58 120.554Z" fill="black"/>
<path d="M123.636 3.36364H135.014L147.031 32.6818H147.543L159.56 3.36364H170.938V47H161.989V18.598H161.626L150.334 46.7869H144.24L132.947 18.4915H132.585V47H123.636V3.36364ZM218.638 25.1818C218.638 29.9403 217.736 33.9886 215.932 37.3267C214.142 40.6648 211.699 43.2145 208.603 44.9759C205.52 46.723 202.054 47.5966 198.205 47.5966C194.327 47.5966 190.847 46.7159 187.765 44.9545C184.682 43.1932 182.246 40.6435 180.456 37.3054C178.667 33.9673 177.772 29.9261 177.772 25.1818C177.772 20.4233 178.667 16.375 180.456 13.0369C182.246 9.69886 184.682 7.15625 187.765 5.40909C190.847 3.64773 194.327 2.76704 198.205 2.76704C202.054 2.76704 205.52 3.64773 208.603 5.40909C211.699 7.15625 214.142 9.69886 215.932 13.0369C217.736 16.375 218.638 20.4233 218.638 25.1818ZM209.284 25.1818C209.284 22.0994 208.823 19.5 207.9 17.3835C206.99 15.267 205.705 13.6619 204.043 12.5682C202.381 11.4744 200.435 10.9276 198.205 10.9276C195.975 10.9276 194.029 11.4744 192.367 12.5682C190.705 13.6619 189.412 15.267 188.489 17.3835C187.58 19.5 187.125 22.0994 187.125 25.1818C187.125 28.2642 187.58 30.8636 188.489 32.9801C189.412 35.0966 190.705 36.7017 192.367 37.7955C194.029 38.8892 195.975 39.4361 198.205 39.4361C200.435 39.4361 202.381 38.8892 204.043 37.7955C205.705 36.7017 206.99 35.0966 207.9 32.9801C208.823 30.8636 209.284 28.2642 209.284 25.1818ZM221.818 10.9702V3.36364H257.656V10.9702H244.297V47H235.178V10.9702H221.818ZM301.665 25.1818C301.665 29.9403 300.763 33.9886 298.96 37.3267C297.17 40.6648 294.727 43.2145 291.63 44.9759C288.548 46.723 285.082 47.5966 281.232 47.5966C277.354 47.5966 273.874 46.7159 270.792 44.9545C267.71 43.1932 265.273 40.6435 263.484 37.3054C261.694 33.9673 260.799 29.9261 260.799 25.1818C260.799 20.4233 261.694 16.375 263.484 13.0369C265.273 9.69886 267.71 7.15625 270.792 5.40909C273.874 3.64773 277.354 2.76704 281.232 2.76704C285.082 2.76704 288.548 3.64773 291.63 5.40909C294.727 7.15625 297.17 9.69886 298.96 13.0369C300.763 16.375 301.665 20.4233 301.665 25.1818ZM292.312 25.1818C292.312 22.0994 291.85 19.5 290.927 17.3835C290.018 15.267 288.732 13.6619 287.07 12.5682C285.408 11.4744 283.462 10.9276 281.232 10.9276C279.002 10.9276 277.056 11.4744 275.394 12.5682C273.732 13.6619 272.44 15.267 271.516 17.3835C270.607 19.5 270.153 22.0994 270.153 25.1818C270.153 28.2642 270.607 30.8636 271.516 32.9801C272.44 35.0966 273.732 36.7017 275.394 37.7955C277.056 38.8892 279.002 39.4361 281.232 39.4361C283.462 39.4361 285.408 38.8892 287.07 37.7955C288.732 36.7017 290.018 35.0966 290.927 32.9801C291.85 30.8636 292.312 28.2642 292.312 25.1818Z" fill="#FF3049"/>
</svg>
