<svg width="28" height="28" viewBox="0 0 28 28" fill="none" xmlns="http://www.w3.org/2000/svg">
<g id="skill-icons:instagram" clip-path="url(#clip0_167_552)">
<g id="Group">
<path id="Vector" d="M6.69198 0.835449H21.0604C24.5613 0.835449 27.3994 3.67352 27.3994 7.17446V21.5429C27.3994 25.0438 24.5613 27.8819 21.0604 27.8819H6.69198C3.19105 27.8819 0.352974 25.0438 0.352974 21.5429V7.17446C0.352974 3.67352 3.19105 0.835449 6.69198 0.835449Z" fill="url(#paint0_radial_167_552)"/>
<path id="Vector_2" d="M6.69198 0.835449H21.0604C24.5613 0.835449 27.3994 3.67352 27.3994 7.17446V21.5429C27.3994 25.0438 24.5613 27.8819 21.0604 27.8819H6.69198C3.19105 27.8819 0.352974 25.0438 0.352974 21.5429V7.17446C0.352974 3.67352 3.19105 0.835449 6.69198 0.835449Z" fill="url(#paint1_radial_167_552)"/>
<path id="Vector_3" d="M13.8752 3.79346C16.7444 3.79346 17.1046 3.80603 18.2315 3.85727C19.3562 3.90883 20.124 4.08685 20.7957 4.34812C21.4907 4.61795 22.0801 4.97896 22.6673 5.56637C23.255 6.15368 23.616 6.7431 23.8867 7.43775C24.1487 8.10969 24.327 8.87777 24.3776 10.002C24.428 11.129 24.4412 11.4892 24.4412 14.3586C24.4412 17.2279 24.4285 17.5869 24.3773 18.7138C24.3256 19.8385 24.1476 20.6063 23.8865 21.278C23.6165 21.973 23.2555 22.5624 22.668 23.1496C22.0809 23.7374 21.4915 24.0992 20.7971 24.369C20.1248 24.6303 19.357 24.8083 18.2324 24.8599C17.1054 24.9111 16.7456 24.9237 13.8765 24.9237C11.0069 24.9237 10.6479 24.9111 9.52104 24.8599C8.39628 24.8083 7.62768 24.6303 6.95543 24.369C6.26078 24.0992 5.6722 23.7374 5.08521 23.1496C4.49748 22.5624 4.13658 21.973 3.86579 21.2783C3.60611 20.6063 3.42777 19.8383 3.37494 18.714C3.32434 17.5871 3.31113 17.2279 3.31113 14.3586C3.31113 11.4892 3.32434 11.1292 3.37494 10.0022C3.42777 8.87745 3.60611 8.10979 3.86579 7.43807C4.13658 6.7431 4.49748 6.15368 5.08521 5.56637C5.67283 4.97875 6.26057 4.61774 6.95606 4.34823C7.62958 4.08685 8.39776 3.90872 9.52252 3.85727C10.6495 3.80603 11.0083 3.79346 13.8785 3.79346H13.8752ZM14.823 5.69738C14.5416 5.69696 14.2277 5.69738 13.8752 5.69738C11.0542 5.69738 10.72 5.70752 9.60598 5.75813C8.57589 5.80525 8.01679 5.97735 7.64437 6.12199C7.1513 6.31342 6.7998 6.54237 6.43024 6.91225C6.06046 7.28203 5.83162 7.63416 5.63966 8.12723C5.49502 8.49911 5.32271 9.05822 5.2758 10.0883C5.22519 11.2021 5.21421 11.5366 5.21421 14.3561C5.21421 17.1757 5.22519 17.5103 5.2758 18.624C5.32292 19.6541 5.49502 20.2132 5.63966 20.5852C5.8311 21.0782 6.06046 21.4293 6.43024 21.7989C6.80001 22.1687 7.15109 22.3975 7.64437 22.589C8.01637 22.7343 8.57589 22.906 9.60598 22.9531C10.7197 23.0037 11.0542 23.0147 13.8752 23.0147C16.6963 23.0147 17.0306 23.0037 18.1443 22.9531C19.1744 22.9056 19.7335 22.7335 20.1062 22.5888C20.5992 22.3973 20.9514 22.1685 21.3212 21.7987C21.691 21.4289 21.9198 21.0776 22.1118 20.5843C22.2564 20.2123 22.4287 19.6532 22.4756 18.6231C22.5263 17.5094 22.5364 17.1749 22.5364 14.3535C22.5364 11.5322 22.5263 11.1994 22.4756 10.0857C22.4285 9.05557 22.2564 8.49647 22.1118 8.12406C21.9202 7.63099 21.691 7.27886 21.3211 6.90908C20.9513 6.5393 20.5992 6.31036 20.1061 6.1185C19.7337 5.97323 19.1744 5.80155 18.1443 5.75422C17.1697 5.71016 16.792 5.69696 14.823 5.69474V5.69738ZM8.23559 7.45159C8.93552 7.45159 9.50339 8.01894 9.50339 8.71897C9.50339 9.41891 8.93552 9.98678 8.23559 9.98678C7.53566 9.98678 6.96779 9.41891 6.96779 8.71897C6.96779 8.01904 7.53566 7.45117 8.23559 7.45117V7.45159ZM13.8752 8.93292C16.8714 8.93292 19.3008 11.3622 19.3008 14.3586C19.3008 17.3549 16.8714 19.7831 13.8752 19.7831C10.8789 19.7831 8.45038 17.3549 8.45038 14.3586C8.45038 11.3623 10.8791 8.93292 13.8754 8.93292H13.8752ZM13.8752 10.8368C11.9303 10.8368 10.3535 12.4135 10.3535 14.3586C10.3535 16.3035 11.9303 17.8803 13.8752 17.8803C15.8202 17.8803 17.3968 16.3035 17.3968 14.3586C17.3968 12.4135 15.8202 10.8368 13.8752 10.8368Z" fill="white"/>
</g>
</g>
<defs>
<radialGradient id="paint0_radial_167_552" cx="0" cy="0" r="1" gradientUnits="userSpaceOnUse" gradientTransform="translate(20.2152 29.965) rotate(-90) scale(26.805 24.9308)">
<stop stop-color="#FFDD55"/>
<stop offset="0.1" stop-color="#FFDD55"/>
<stop offset="0.5" stop-color="#FF543E"/>
<stop offset="1" stop-color="#C837AB"/>
</radialGradient>
<radialGradient id="paint1_radial_167_552" cx="0" cy="0" r="1" gradientUnits="userSpaceOnUse" gradientTransform="translate(31.9298 2.78374) rotate(101.319) scale(11.982 49.3902)">
<stop stop-color="#3771C8"/>
<stop offset="0.128" stop-color="#3771C8"/>
<stop offset="1" stop-color="#6600FF" stop-opacity="0"/>
</radialGradient>
<clipPath id="clip0_167_552">
<rect width="27.0464" height="27.0464" fill="white" transform="matrix(-1 0 0 1 27.3994 0.835449)"/>
</clipPath>
</defs>
</svg>
