<svg width="16" height="16" viewBox="0 0 16 16" fill="none" xmlns="http://www.w3.org/2000/svg">
<g id="simple-line-icons:paper-clip" clip-path="url(#clip0_167_574)">
<path id="Vector" d="M2.69885 15.7444C2.0206 15.7444 1.3694 15.4637 0.8504 14.9442C-0.30035 13.7897 -0.30035 11.9119 0.850135 10.7582L9.82314 1.22968C11.2231 -0.172573 13.3676 -0.0465728 14.9326 1.52043C15.6339 2.22293 16.0274 3.23568 16.0126 4.30018C15.9979 5.35344 15.5864 6.36143 14.8831 7.06593L8.10162 14.2854C7.91287 14.4877 7.59637 14.4969 7.39488 14.3072C7.19388 14.1172 7.18413 13.8002 7.37363 13.5987L14.1654 6.36818C14.6966 5.83593 15.0014 5.08091 15.0126 4.28616C15.0239 3.49093 14.7366 2.74116 14.2256 2.22891C13.2656 1.26691 11.7026 0.763162 10.5406 1.92791L1.56785 11.4564C0.796353 12.2299 0.796603 13.4722 1.55785 14.2354C1.91484 14.5926 2.33859 14.7666 2.78984 14.7394C3.23634 14.7121 3.69534 14.4831 4.08234 14.0951L11.2218 6.49613C11.4806 6.23688 12.0006 5.60138 11.4713 5.07088C11.1716 4.77063 10.9611 4.78913 10.8918 4.79488C10.6941 4.81238 10.4631 4.94913 10.2233 5.18963L4.84959 10.9049C4.65984 11.1066 4.34309 11.1164 4.14282 10.9261C3.94157 10.7366 3.93232 10.4191 4.12157 10.2181L9.5051 4.49213C9.92835 4.06688 10.3611 3.83638 10.8016 3.79688C11.1454 3.76636 11.6566 3.83963 12.1781 4.36263C12.9521 5.13811 12.8559 6.27563 11.9394 7.19413L4.79985 14.7926C4.22985 15.3646 3.54159 15.6969 2.85109 15.7393C2.80034 15.7428 2.74959 15.7443 2.69884 15.7443L2.69885 15.7444Z" fill="white"/>
</g>
<defs>
<clipPath id="clip0_167_574">
<rect width="16" height="16" fill="white"/>
</clipPath>
</defs>
</svg>
