<svg width="77" height="77" viewBox="0 0 77 77" fill="none" xmlns="http://www.w3.org/2000/svg">
<g id="teenyicons:chat-solid" clip-path="url(#clip0_455_2898)">
<g id="Vector" filter="url(#filter0_i_455_2898)">
<path d="M38.5 1.37206e-06C28.2928 -0.0027221 18.5025 4.04912 11.2825 11.2643C4.06245 18.4795 0.00408361 28.2671 0 38.4743C0.00134806 43.5289 0.998249 48.5337 2.93378 53.2029C4.86932 57.8722 7.70559 62.1145 11.2806 65.6877C14.8557 69.2608 19.0995 72.0948 23.7698 74.0279C28.4401 75.9609 33.4455 76.9551 38.5 76.9538C45.2041 76.9538 53.438 75.2701 59.3105 72.0925L73.6325 76.8255C74.0848 76.9739 74.5695 76.9937 75.0324 76.8825C75.4952 76.7713 75.9181 76.5336 76.2536 76.196C76.5892 75.8583 76.8242 75.434 76.9324 74.9704C77.0407 74.5068 77.0179 74.0223 76.8665 73.5709L72.1131 59.3465C75.5627 53.3251 77 45.4557 77 38.4743C76.9959 28.2671 72.9375 18.4795 65.7175 11.2643C58.4975 4.04912 48.7072 -0.0027221 38.5 1.37206e-06Z" fill="white"/>
</g>
<g id="Design Work">
<path id="Vector_2" d="M62.9857 53.892C60.6727 56.2273 57.9198 58.0791 54.8868 59.3398C51.8538 60.6006 48.601 61.2452 45.3173 61.2363C38.774 61.1131 32.5283 58.4746 27.8725 53.8665C23.2167 49.2585 20.507 43.0337 20.3041 36.48C20.1544 31.335 21.61 26.2713 24.4681 21.9941C20.9432 26.559 19.0675 32.1866 19.1474 37.9576C19.1474 51.806 30.8154 62.5835 44.6378 62.5835C48.0996 62.4369 51.4982 61.6049 54.6374 60.1356C57.7766 58.6662 60.5943 56.5885 62.9278 54.0224C62.9411 53.9765 62.9605 53.9326 62.9857 53.892Z" fill="#EF6036"/>
<path id="Vector_3" d="M50.3198 13.5635C53.0911 14.2665 55.7387 15.3901 58.1708 16.8952C55.7642 15.3411 53.1084 14.2141 50.3198 13.5635Z" fill="#EF6036"/>
<path id="Vector_4" d="M62.7831 54.3702C62.8102 54.2525 62.844 54.1364 62.8843 54.0226C60.554 56.5938 57.7374 58.6759 54.5977 60.148C51.458 61.6201 48.0578 62.4529 44.5943 62.5982C30.7719 62.5982 19.1039 51.8062 19.1039 37.9722C19.1039 24.1382 28.7767 12.8972 44.6377 12.8972C50.9273 12.8963 56.9851 15.2764 61.5975 19.5607L62.2337 20.0242L63 20.5312C57.5058 14.085 49.4813 10 42.7147 10C25.8561 10 14.0001 21.835 14.0001 37.19C13.9925 40.8454 14.7045 44.4664 16.0955 47.8457C17.4864 51.2251 19.529 54.2964 22.1062 56.8839C24.6834 59.4713 27.7446 61.5241 31.1147 62.9247C34.4848 64.3254 38.0975 65.0463 41.746 65.0463C49.2644 65.0463 57.3323 60.9033 62.812 54.4571L62.7831 54.3702Z" fill="#EE3138"/>
<path id="Vector_5" d="M23.4848 36.9152C23.4848 30.8643 25.884 25.0611 30.1546 20.7824C34.4252 16.5037 40.2174 14.1 46.2569 14.1C51.297 14.0623 56.2114 15.6747 60.2528 18.692L60.9613 19.1556L61.2649 19.3584L61.4095 19.4743C56.7775 15.0008 50.5794 12.5252 44.146 12.579C28.6175 12.579 20.1738 23.3275 20.1738 36.5821C20.1738 49.8366 31.408 61.4109 46.8787 61.4109C51.6137 61.4663 56.2183 59.8568 59.8913 56.8623C55.3501 59.5221 50.1383 60.8099 44.8834 60.5707C33.9961 60.5707 23.4848 50.0394 23.4848 36.9152Z" fill="#D13236"/>
<path id="Vector_6" d="M55.1636 43.2308C55.1636 46.6639 52.8358 51.9223 46.9945 51.9223C45.9294 51.9848 44.863 51.8251 43.8627 51.4532C42.8624 51.0813 41.9501 50.5054 41.1835 49.7619C40.4169 49.0184 39.8128 48.1235 39.4094 47.1339C39.006 46.1443 38.8121 45.0816 38.8399 44.013C38.7368 42.1728 39.316 40.3592 40.4662 38.9208C41.6164 37.4823 43.2565 36.5203 45.0715 36.2196V30.9033C41.91 31.3691 39.0211 32.9584 36.9321 35.3811C34.8432 37.8038 33.6934 40.8984 33.6927 44.0999C33.6515 45.8588 33.9712 47.6075 34.6321 49.2375C35.2931 50.8675 36.2811 52.3442 37.535 53.576C38.7888 54.8078 40.2818 55.7684 41.9215 56.3985C43.5611 57.0285 45.3124 57.3144 47.0668 57.2386C48.8474 57.2275 50.6079 56.8615 52.2458 56.1618C53.8837 55.4621 55.3663 54.4429 56.607 53.1634C57.8478 51.8838 58.822 50.3697 59.4727 48.7092C60.1235 47.0487 60.4379 45.275 60.3976 43.4915C60.3976 43.4046 60.3976 43.3177 60.3976 43.2308H55.1636Z" fill="#00AFF0"/>
<path id="Vector_7" d="M60.3975 30.9033H47.0378V36.2341H60.3975V30.9033Z" fill="#EE3138"/>
<path id="Vector_8" d="M55.0624 30.9177V41.2896H60.3831V30.9177H55.0624Z" fill="#EE3138"/>
<path id="Vector_9" d="M58.1708 29.817C59.6321 29.817 60.8167 28.6301 60.8167 27.166C60.8167 25.702 59.6321 24.5151 58.1708 24.5151C56.7095 24.5151 55.5249 25.702 55.5249 27.166C55.5249 28.6301 56.7095 29.817 58.1708 29.817Z" fill="#00AFF0"/>
<path id="Vector_10" d="M56.9998 52.705C55.1564 54.52 52.8256 55.7583 50.2917 56.2689C47.7579 56.7795 45.1305 56.5403 42.73 55.5804C40.3296 54.6206 38.2598 52.9816 36.7731 50.8634C35.2865 48.7451 34.4472 46.2392 34.3577 43.6513C34.2472 40.962 34.9969 38.3077 36.4976 36.0752C34.594 38.4347 33.5714 41.3854 33.6059 44.4191C33.6059 51.662 39.8086 57.2246 47.1391 57.2246C50.8317 57.069 54.3156 55.4668 56.8407 52.7629L56.9998 52.705Z" fill="#0071BC"/>
</g>
</g>
<defs>
<filter id="filter0_i_455_2898" x="-4" y="-4" width="81" height="80.9536" filterUnits="userSpaceOnUse" color-interpolation-filters="sRGB">
<feFlood flood-opacity="0" result="BackgroundImageFix"/>
<feBlend mode="normal" in="SourceGraphic" in2="BackgroundImageFix" result="shape"/>
<feColorMatrix in="SourceAlpha" type="matrix" values="0 0 0 0 0 0 0 0 0 0 0 0 0 0 0 0 0 0 127 0" result="hardAlpha"/>
<feOffset dx="-4" dy="-4"/>
<feGaussianBlur stdDeviation="2.5"/>
<feComposite in2="hardAlpha" operator="arithmetic" k2="-1" k3="1"/>
<feColorMatrix type="matrix" values="0 0 0 0 0 0 0 0 0 0 0 0 0 0 0 0 0 0 0.18 0"/>
<feBlend mode="normal" in2="shape" result="effect1_innerShadow_455_2898"/>
</filter>
<clipPath id="clip0_455_2898">
<rect width="77" height="77" fill="white"/>
</clipPath>
</defs>
</svg>
