<svg width="29" height="29" viewBox="0 0 29 29" fill="none" xmlns="http://www.w3.org/2000/svg">
<circle cx="14.5052" cy="14.785" r="14.097" fill="white"/>
<g clip-path="url(#clip0_167_564)">
<path d="M21.0641 11.5763C21.0746 11.7289 21.0746 11.8814 21.0746 12.0353C21.0746 16.7255 17.504 22.1347 10.9753 22.1347V22.132C9.04651 22.1347 7.15772 21.5822 5.53442 20.5406C5.81489 20.5744 6.0967 20.5913 6.37919 20.5919C7.97778 20.5932 9.53038 20.057 10.7875 19.0696C10.0468 19.0556 9.32902 18.8105 8.73446 18.3685C8.1399 17.9266 7.69831 17.3099 7.47144 16.6046C8.00358 16.7073 8.5518 16.6861 9.07407 16.5434C7.41805 16.2089 6.22673 14.754 6.22673 13.0643V13.0193C6.72038 13.2943 7.27289 13.4467 7.83773 13.4636C6.27782 12.4212 5.79732 10.3463 6.73913 8.72423C7.63024 9.82076 8.74205 10.7176 10.0023 11.3564C11.2626 11.9953 12.6432 12.3619 14.0544 12.4324C13.9137 11.8267 13.9346 11.1947 14.1148 10.5996C14.295 10.0045 14.6283 9.46709 15.0814 9.04119C16.511 7.69726 18.7594 7.7662 20.1032 9.19514C20.8981 9.03818 21.6604 8.74673 22.3573 8.33334C22.0923 9.15522 21.5378 9.85289 20.797 10.2966C21.5006 10.2136 22.1877 10.0252 22.8353 9.73768C22.3589 10.451 21.7591 11.0736 21.0641 11.5763Z" fill="#1D9BF0"/>
</g>
<defs>
<clipPath id="clip0_167_564">
<rect width="17.3008" height="17.3008" fill="white" transform="translate(5.53442 6.45508)"/>
</clipPath>
</defs>
</svg>
