<svg width="163" height="54" viewBox="0 0 163 54" fill="none" xmlns="http://www.w3.org/2000/svg">
<g id="WINDOWS LOGO 1" clip-path="url(#clip0_167_500)">
<g id="Windows OS">
<path id="Vector" d="M163 46.8121C163.002 47.7544 162.817 48.6878 162.457 49.559C162.097 50.4302 161.568 51.2221 160.901 51.8896C160.234 52.5571 159.442 53.087 158.57 53.4491C157.697 53.8112 156.762 53.9985 155.817 54.0002H7.66418C5.75597 53.996 3.92748 53.2365 2.58055 51.8887C1.23361 50.5408 0.478435 48.7149 0.480963 46.8121V8.01057C0.478436 6.10808 1.23372 4.28247 2.58074 2.93514C3.92776 1.5878 5.75626 0.829039 7.66418 0.825684L155.817 0.825684C157.725 0.829039 159.553 1.5878 160.9 2.93514C162.247 4.28247 163.003 6.10808 163 8.01057V46.8121Z" fill="black"/>
<path id="Vector_2" d="M43.3327 11.7739C37.8762 12.5209 32.8261 13.2299 27.6045 13.9421V26.4412H43.3327V11.7739Z" fill="#5CB2E4"/>
<path id="Vector_3" d="M13.3936 38.3675C17.6502 38.9783 21.7861 39.6747 25.919 40.2666V27.7896H13.3936V38.3675Z" fill="#5CB2E4"/>
<path id="Vector_4" d="M43.3327 27.7295H27.6045V40.5325C32.8737 41.3681 37.9619 42.2069 43.3327 43.0646V27.7295Z" fill="#5CB2E4"/>
<path id="Vector_5" d="M13.3936 15.7874V26.4412H26.0586V14.1858L13.3936 15.7874Z" fill="#5CB2E4"/>
<path id="Vector_6" d="M48.2559 22.4437V14.4644H50.5667C53.5166 14.4644 54.9915 15.761 54.9915 18.3543C55.0143 18.9079 54.9162 19.4597 54.7041 19.9718C54.492 20.4838 54.171 20.9439 53.7631 21.3201C52.9463 22.0713 51.8491 22.4458 50.4715 22.4437H48.2559ZM49.5795 15.588V21.3232H50.6333C51.0292 21.3471 51.4259 21.2916 51.7999 21.1601C52.1739 21.0285 52.5176 20.8235 52.8108 20.5573C53.0813 20.2668 53.2896 19.9245 53.4233 19.5513C53.557 19.178 53.6132 18.7816 53.5885 18.386C53.5885 16.5228 52.6193 15.5901 50.6809 15.588H49.5795Z" fill="white"/>
<path id="Vector_7" d="M58.8417 22.5767C58.4533 22.5952 58.0653 22.534 57.7016 22.3968C57.338 22.2596 57.0065 22.0493 56.7277 21.7791C56.4602 21.497 56.2524 21.1642 56.1166 20.8004C55.9808 20.4367 55.9199 20.0494 55.9373 19.6616C55.9018 19.2536 55.956 18.8429 56.096 18.4579C56.236 18.073 56.4585 17.7231 56.748 17.4326C57.0374 17.1422 57.3869 16.9181 57.7721 16.7761C58.1573 16.6341 58.5689 16.5776 58.9782 16.6104C59.362 16.5881 59.7463 16.6465 60.1061 16.7817C60.4659 16.9169 60.7932 17.126 61.0668 17.3953C61.5922 17.9956 61.86 18.7776 61.8128 19.573C61.8323 19.9723 61.7709 20.3715 61.6324 20.7467C61.4939 21.1219 61.281 21.4655 61.0065 21.7569C60.7215 22.0344 60.3821 22.2505 60.0097 22.3915C59.6372 22.5325 59.2397 22.5956 58.8417 22.5767ZM58.902 17.6422C58.6747 17.6321 58.4481 17.6746 58.24 17.7663C58.0318 17.858 57.8478 17.9964 57.7022 18.1708C57.3859 18.5882 57.2295 19.1045 57.261 19.6268C57.232 20.1361 57.3912 20.6383 57.7085 21.0384C57.8561 21.2078 58.04 21.3418 58.2466 21.4306C58.4532 21.5193 58.6772 21.5605 58.902 21.5512C59.1238 21.5641 59.3456 21.5251 59.5496 21.4371C59.7535 21.3492 59.934 21.2148 60.0765 21.0448C60.3702 20.6242 60.5103 20.1158 60.4732 19.6046C60.5059 19.0881 60.3615 18.5758 60.0638 18.1518C59.9229 17.983 59.7447 17.849 59.5431 17.7606C59.3415 17.6722 59.122 17.6316 58.902 17.6422Z" fill="white"/>
<path id="Vector_8" d="M70.8147 16.7463L69.1292 22.4436H67.7738L66.7359 18.5821C66.6927 18.4185 66.6661 18.251 66.6565 18.082H66.6343C66.6189 18.2475 66.5859 18.4109 66.5359 18.5695L65.4059 22.4436H64.0791L62.3999 16.7463H63.7394L64.7774 20.861C64.8146 21.0222 64.8369 21.1864 64.844 21.3516H64.8821C64.8966 21.1816 64.9263 21.0131 64.971 20.8484L66.1264 16.7558H67.3421L68.3706 20.8705C68.4076 21.0319 68.432 21.196 68.4436 21.3611H68.4817C68.4933 21.1953 68.521 21.031 68.5642 20.8705L69.5799 16.7558L70.8147 16.7463Z" fill="white"/>
<path id="Vector_9" d="M76.8617 22.4435H75.5666V19.2309C75.5666 18.1674 75.1921 17.6483 74.4366 17.6483C74.2506 17.6436 74.066 17.681 73.8966 17.7577C73.7273 17.8345 73.5776 17.9486 73.4589 18.0915C73.2015 18.3965 73.0649 18.7849 73.0749 19.1834V22.4435H71.7734V16.7463H73.0749V17.6958H73.0971C73.2745 17.3622 73.5416 17.0845 73.8685 16.8939C74.1954 16.7032 74.5691 16.6072 74.9476 16.6165C75.2159 16.6002 75.4844 16.6463 75.7317 16.7512C75.9791 16.8561 76.1986 17.017 76.3729 17.221C76.7313 17.7294 76.9039 18.345 76.8617 18.965V22.4435Z" fill="white"/>
<path id="Vector_10" d="M79.7406 22.4437H78.4424V14.0085H79.7406V22.4437Z" fill="white"/>
<path id="Vector_11" d="M83.9627 22.5765C83.5748 22.595 83.1873 22.5338 82.8241 22.3966C82.461 22.2593 82.13 22.0491 81.8519 21.7789C81.5844 21.4969 81.3766 21.1641 81.2408 20.8003C81.105 20.4365 81.044 20.0492 81.0615 19.6614C81.0249 19.2532 81.0783 18.842 81.2179 18.4565C81.3575 18.0711 81.5799 17.7207 81.8697 17.43C82.1594 17.1393 82.5093 16.9153 82.895 16.7737C83.2807 16.6321 83.6928 16.5763 84.1024 16.6102C84.4852 16.5891 84.8682 16.6479 85.2268 16.7831C85.5854 16.9183 85.9116 17.1268 86.1846 17.3952C86.71 17.9955 86.9779 18.7775 86.9306 19.5728C86.9494 19.9721 86.8877 20.3711 86.7492 20.7462C86.6107 21.1213 86.3983 21.4649 86.1243 21.7568C85.8395 22.0337 85.5007 22.2494 85.1289 22.3904C84.757 22.5315 84.3601 22.5948 83.9627 22.5765ZM84.0262 17.6421C83.7988 17.6313 83.572 17.6734 83.3637 17.7651C83.1554 17.8569 82.9715 17.9957 82.8263 18.1707C82.5067 18.5868 82.3468 19.1032 82.3756 19.6266C82.3472 20.1353 82.5052 20.637 82.82 21.0383C82.9683 21.2075 83.1528 21.3414 83.3599 21.4302C83.567 21.5189 83.7915 21.5602 84.0167 21.551C84.2385 21.5637 84.4602 21.5246 84.6641 21.4366C84.868 21.3487 85.0485 21.2145 85.1911 21.0446C85.4894 20.6257 85.6339 20.1172 85.6006 19.6045C85.6333 19.0879 85.4889 18.5756 85.1911 18.1517C85.0493 17.9823 84.87 17.8481 84.6673 17.7597C84.4645 17.6713 84.244 17.631 84.023 17.6421H84.0262Z" fill="white"/>
<path id="Vector_12" d="M92.5008 22.4437H91.2629V21.5511H91.2407C91.0767 21.8671 90.8269 22.1307 90.52 22.312C90.213 22.4933 89.8611 22.585 89.5044 22.5766C89.0221 22.6049 88.5482 22.4409 88.1871 22.1208C88.0259 21.9646 87.8998 21.7761 87.8172 21.5676C87.7346 21.3592 87.6973 21.1356 87.7078 20.9117C87.7078 19.8356 88.3289 19.2089 89.5711 19.0317L91.2693 18.7943C91.2693 17.9819 90.882 17.5757 90.1075 17.5757C89.4282 17.574 88.7724 17.8232 88.2665 18.2752V17.1452C88.9001 16.7817 89.621 16.5968 90.3519 16.6103C91.7951 16.6103 92.5167 17.3193 92.5167 18.7373L92.5008 22.4437ZM91.2629 19.6425L90.0631 19.8103C89.7655 19.8337 89.4776 19.9258 89.2219 20.0793C89.1213 20.1628 89.043 20.2698 88.9937 20.3907C88.9444 20.5116 88.9258 20.6427 88.9394 20.7725C88.9369 20.8846 88.9588 20.9958 89.0038 21.0986C89.0487 21.2014 89.1156 21.2931 89.1997 21.3675C89.3951 21.5267 89.6428 21.6079 89.8948 21.5954C90.0787 21.6013 90.2616 21.5672 90.431 21.4956C90.6003 21.424 90.752 21.3166 90.8757 21.1808C91.1377 20.8958 91.2768 20.5195 91.2629 20.1331V19.6425Z" fill="white"/>
<path id="Vector_13" d="M99.2749 22.4437H97.983V21.4751H97.9608C97.7835 21.7828 97.5346 22.0434 97.2352 22.2352C96.9358 22.427 96.5946 22.5442 96.2403 22.5771C95.886 22.61 95.5289 22.5575 95.1992 22.4242C94.8694 22.2908 94.5766 22.0804 94.3454 21.8106C93.8935 21.2131 93.6686 20.4752 93.7105 19.728C93.6684 18.9136 93.917 18.1107 94.412 17.4617C94.6355 17.1851 94.9205 16.9641 95.2445 16.8164C95.5684 16.6686 95.9224 16.598 96.2785 16.6103C96.6174 16.5901 96.9551 16.6662 97.2524 16.8298C97.5496 16.9934 97.7942 17.2378 97.9576 17.5345H97.9798V14.0085H99.2717L99.2749 22.4437ZM98.0052 19.8387V19.0918C98.0138 18.7108 97.8725 18.3416 97.6116 18.0631C97.4835 17.9249 97.327 17.8158 97.1528 17.7432C96.9787 17.6705 96.7909 17.6361 96.6022 17.6421C96.3823 17.6331 96.1635 17.6773 95.9645 17.771C95.7655 17.8647 95.5922 18.0051 95.4595 18.1802C95.1602 18.6203 95.0152 19.1466 95.0469 19.6773C95.0185 20.1659 95.1585 20.6495 95.4437 21.0478C95.5701 21.2109 95.7336 21.3416 95.9207 21.4291C96.1078 21.5166 96.3132 21.5584 96.5197 21.5511C96.7213 21.5575 96.9217 21.5187 97.1063 21.4376C97.2909 21.3566 97.4549 21.2353 97.5862 21.0826C97.8725 20.7327 98.0195 20.2899 97.9989 19.8387H98.0052Z" fill="white"/>
<path id="Vector_14" d="M107.341 15.0688C107.157 14.9668 106.95 14.9154 106.741 14.92C106.106 14.92 105.788 15.2713 105.788 15.9803V16.7463H107.134V17.7591H105.811V22.4435H104.515V17.7591H103.541V16.7463H104.515V15.8221C104.502 15.5561 104.548 15.2904 104.651 15.0445C104.754 14.7987 104.91 14.5788 105.109 14.4009C105.419 14.1595 105.783 13.9958 106.169 13.9236C106.556 13.8515 106.954 13.873 107.331 13.9863L107.341 15.0688Z" fill="white"/>
<path id="Vector_15" d="M110.581 22.5765C110.193 22.5951 109.805 22.5339 109.441 22.3967C109.078 22.2595 108.746 22.0492 108.467 21.7789C108.201 21.4963 107.994 21.1633 107.859 20.7997C107.724 20.436 107.663 20.0489 107.68 19.6614C107.644 19.2532 107.697 18.842 107.837 18.4565C107.976 18.0711 108.199 17.7207 108.488 17.43C108.778 17.1393 109.128 16.9153 109.514 16.7737C109.899 16.6321 110.311 16.5763 110.721 16.6102C111.104 16.5882 111.488 16.6467 111.847 16.7819C112.207 16.9171 112.533 17.1261 112.806 17.3952C113.333 17.9952 113.602 18.7771 113.556 19.5728C113.574 19.9721 113.513 20.3711 113.374 20.7462C113.236 21.1213 113.023 21.4649 112.749 21.7568C112.464 22.0342 112.124 22.2502 111.751 22.3912C111.378 22.5322 110.98 22.5953 110.581 22.5765ZM110.642 17.6421C110.414 17.632 110.188 17.6745 109.98 17.7662C109.771 17.8578 109.587 17.9963 109.442 18.1707C109.127 18.5889 108.971 19.1046 109.001 19.6266C108.972 20.1359 109.131 20.6381 109.448 21.0383C109.596 21.2074 109.78 21.3413 109.986 21.4301C110.193 21.5188 110.417 21.5602 110.642 21.551C110.864 21.5645 111.086 21.5257 111.29 21.4377C111.494 21.3497 111.674 21.215 111.816 21.0446C112.11 20.624 112.25 20.1157 112.213 19.6045C112.246 19.0879 112.101 18.5756 111.803 18.1517C111.663 17.9826 111.485 17.8486 111.283 17.7601C111.081 17.6717 110.862 17.6313 110.642 17.6421Z" fill="white"/>
<path id="Vector_16" d="M118.187 17.9744C117.989 17.8395 117.75 17.7749 117.511 17.7909C117.322 17.793 117.136 17.8415 116.97 17.932C116.804 18.0225 116.663 18.1523 116.559 18.31C116.281 18.7244 116.145 19.2174 116.171 19.7153V22.4436H114.879V16.7464H116.171V17.9175H116.194C116.293 17.5519 116.496 17.2224 116.778 16.9679C117.02 16.7602 117.331 16.6477 117.65 16.6514C117.835 16.641 118.02 16.6769 118.187 16.7559V17.9744Z" fill="white"/>
<path id="Vector_17" d="M64.2442 28.3276L60.8351 40.7382H58.4989L56.1309 32.0562C56.0272 31.6607 55.9655 31.2554 55.9468 30.8471H55.9119C55.8837 31.2508 55.8145 31.6506 55.7056 32.0404L53.3249 40.7382H50.9506L47.459 28.3276H49.7254L51.9822 37.4148C52.0759 37.8064 52.1333 38.2059 52.1536 38.608H52.1981C52.2427 38.2037 52.3246 37.8042 52.4425 37.4148L54.9818 28.3276H57.1086L59.4702 37.4844C59.5611 37.8482 59.6227 38.2186 59.6543 38.5922H59.686C59.7214 38.2066 59.7883 37.8244 59.886 37.4496L62.1079 28.3276H64.2442Z" fill="white"/>
<path id="Vector_18" d="M66.7614 30.0147C66.4495 30.0221 66.1469 29.9086 65.9171 29.6982C65.7998 29.5972 65.7062 29.4717 65.6431 29.3305C65.58 29.1894 65.549 29.0361 65.5521 28.8816C65.5484 28.7273 65.5779 28.574 65.6387 28.432C65.6995 28.29 65.7901 28.1627 65.9044 28.0587C66.1331 27.8465 66.4365 27.7328 66.7487 27.7421C67.0688 27.7315 67.3805 27.845 67.6185 28.0587C67.7332 28.1626 67.8243 28.2898 67.8856 28.4317C67.947 28.5737 67.9771 28.7271 67.974 28.8816C67.9747 29.0325 67.9434 29.1819 67.8822 29.3199C67.8209 29.4579 67.731 29.5815 67.6185 29.6824C67.3869 29.8999 67.0796 30.0191 66.7614 30.0147ZM67.774 40.7382H65.7584V31.8758H67.774V40.7382Z" fill="white"/>
<path id="Vector_19" d="M78.3061 40.7382H76.2937V35.7436C76.2937 34.0893 75.7064 33.2621 74.532 33.2621C74.2431 33.2554 73.9564 33.3136 73.6932 33.4325C73.4299 33.5514 73.197 33.7279 73.0115 33.949C72.6028 34.4329 72.3889 35.0511 72.4116 35.6835V40.7477H70.3896V31.8853H72.4116V33.3571H72.4465C72.7229 32.8376 73.139 32.4052 73.6481 32.1083C74.1572 31.8115 74.7391 31.6619 75.3287 31.6764C75.7478 31.6502 76.1671 31.7225 76.553 31.8874C76.939 32.0523 77.2807 32.3053 77.5506 32.6259C78.0606 33.259 78.3156 34.1631 78.3156 35.3385L78.3061 40.7382Z" fill="white"/>
<path id="Vector_20" d="M88.8443 40.7382H86.8191V39.2316H86.7842C86.506 39.7064 86.1183 40.1083 85.6533 40.404C85.1883 40.6997 84.6594 40.8807 84.1103 40.9321C83.5612 40.9834 83.0077 40.9036 82.4957 40.6993C81.9837 40.4949 81.5278 40.1719 81.1659 39.757C80.5099 38.9615 80.1808 37.8811 80.1787 36.5159C80.1787 35.0494 80.5416 33.8751 81.2675 32.9931C81.6149 32.5622 82.0583 32.2179 82.5625 31.9877C83.0667 31.7575 83.6177 31.6477 84.1719 31.6669C85.3717 31.6669 86.2425 32.1459 86.7842 33.1039H86.8191V27.6187H88.8348L88.8443 40.7382ZM86.8541 36.6868V35.5284C86.8685 34.9344 86.6472 34.3588 86.2383 33.9268C86.0388 33.7115 85.7953 33.5413 85.5242 33.4277C85.2532 33.3141 84.9609 33.2598 84.667 33.2684C84.3254 33.2552 83.9856 33.3246 83.6766 33.4707C83.3676 33.6167 83.0987 33.8351 82.8927 34.1072C82.4289 34.7925 82.2057 35.6116 82.2578 36.4368C82.2204 37.1991 82.4443 37.9515 82.8927 38.5701C83.0883 38.8238 83.3419 39.0274 83.6322 39.164C83.9226 39.3005 84.2414 39.366 84.5623 39.355C84.8813 39.3645 85.1982 39.3009 85.4887 39.1693C85.7793 39.0376 86.0357 38.8413 86.2383 38.5954C86.6687 38.0546 86.8875 37.3764 86.8541 36.6868Z" fill="white"/>
<path id="Vector_21" d="M95.4119 40.9472C94.0407 40.9472 92.9466 40.5326 92.1298 39.7033C91.313 38.874 90.9035 37.7768 90.9014 36.4115C90.9014 34.9239 91.3246 33.7634 92.171 32.9299C93.0175 32.0964 94.1676 31.6744 95.6214 31.6638C97.0096 31.6638 98.0909 32.0711 98.8654 32.8856C99.64 33.7001 100.031 34.83 100.04 36.2754C100.04 37.6892 99.622 38.8213 98.7861 39.6716C97.9502 40.522 96.8255 40.9472 95.4119 40.9472ZM95.5103 33.2685C95.1567 33.2534 94.8043 33.3197 94.4806 33.4624C94.1569 33.6052 93.8706 33.8204 93.6439 34.0915C93.1537 34.7423 92.9108 35.5452 92.9583 36.3577C92.9118 37.1497 93.158 37.9311 93.6502 38.5543C93.8804 38.8181 94.167 39.027 94.489 39.1656C94.8109 39.3042 95.1599 39.369 95.5103 39.3551C95.855 39.3742 96.1995 39.3129 96.5163 39.1761C96.8331 39.0393 97.1136 38.8307 97.3355 38.567C97.7587 38.0416 97.9703 37.2936 97.9703 36.3229C97.9703 35.348 97.7576 34.5979 97.3355 34.0662C97.1157 33.7994 96.8358 33.588 96.5187 33.4494C96.2015 33.3108 95.856 33.2489 95.5103 33.2685Z" fill="white"/>
<path id="Vector_22" d="M114.038 31.8757L111.419 40.7381H109.308L107.696 34.7243C107.627 34.4699 107.585 34.2089 107.572 33.9457H107.537C107.514 34.205 107.462 34.4608 107.382 34.7085L105.629 40.7223H103.563L100.951 31.8599H103.033L104.649 38.2471C104.708 38.4974 104.743 38.7529 104.753 39.0099H104.814C104.834 38.7463 104.88 38.4854 104.953 38.2313L106.75 31.8599H108.654L110.242 38.2724C110.3 38.5231 110.337 38.7783 110.353 39.0353H110.413C110.433 38.7776 110.477 38.5223 110.543 38.2724L112.13 31.8599L114.038 31.8757Z" fill="white"/>
<path id="Vector_23" d="M114.978 40.4629V38.6018C115.688 39.1576 116.566 39.4586 117.469 39.4564C118.682 39.4564 119.291 39.0987 119.291 38.3834C119.296 38.2002 119.242 38.0204 119.136 37.8706C119.021 37.7193 118.877 37.5914 118.714 37.494C118.514 37.3728 118.301 37.2741 118.079 37.1996L117.292 36.9084C116.954 36.7761 116.626 36.6228 116.308 36.4495C116.037 36.3048 115.791 36.119 115.577 35.8988C115.387 35.6979 115.238 35.4612 115.139 35.2024C115.035 34.9111 114.985 34.6033 114.99 34.294C114.986 33.8949 115.096 33.5029 115.308 33.1641C115.516 32.8339 115.795 32.5531 116.123 32.3411C116.476 32.1151 116.863 31.9473 117.269 31.8442C117.708 31.7296 118.159 31.6722 118.612 31.6733C119.364 31.6621 120.112 31.7887 120.818 32.0468V33.8034C120.183 33.3762 119.432 33.1551 118.666 33.1704C118.433 33.168 118.201 33.1935 117.974 33.2464C117.789 33.2924 117.613 33.366 117.45 33.4648C117.315 33.5441 117.199 33.6522 117.111 33.7813C117.031 33.9097 116.989 34.0577 116.99 34.2086C116.985 34.378 117.027 34.5455 117.111 34.6928C117.203 34.8356 117.327 34.9557 117.472 35.0442C117.653 35.1557 117.845 35.249 118.044 35.3227C118.266 35.405 118.523 35.4968 118.812 35.5949C119.163 35.7347 119.506 35.8932 119.84 36.0697C120.124 36.2159 120.386 36.4013 120.618 36.6204C120.828 36.8221 120.996 37.063 121.113 37.3294C121.234 37.6312 121.294 37.954 121.288 38.279C121.296 38.6935 121.186 39.102 120.97 39.4564C120.761 39.7935 120.476 40.0782 120.139 40.2888C119.767 40.516 119.361 40.6807 118.936 40.7763C118.464 40.8858 117.982 40.94 117.498 40.9377C116.633 40.9614 115.774 40.7995 114.978 40.4629Z" fill="white"/>
<path id="Vector_24" d="M133.439 40.947C131.646 40.947 130.209 40.3667 129.128 39.2062C128.047 38.0456 127.507 36.5369 127.509 34.68C127.509 32.6838 128.059 31.0918 129.16 29.9038C130.26 28.7158 131.753 28.1208 133.639 28.1187C135.384 28.1187 136.792 28.6958 137.86 29.85C138.929 31.0042 139.458 32.5129 139.447 34.3761C139.447 36.4018 138.901 38.0034 137.81 39.1808C136.718 40.3583 135.261 40.947 133.439 40.947ZM133.534 29.9291C133.004 29.9139 132.477 30.0201 131.995 30.2396C131.512 30.4591 131.086 30.786 130.75 31.1952C130.031 32.0498 129.671 33.1681 129.671 34.5502C129.671 35.9323 130.018 37.0433 130.712 37.8831C131.037 38.2908 131.452 38.6175 131.925 38.8372C132.399 39.057 132.917 39.1638 133.439 39.1492C133.969 39.1737 134.498 39.0782 134.986 38.8699C135.474 38.6616 135.909 38.3459 136.257 37.9464C136.945 37.1425 137.29 36.0199 137.292 34.5787C137.292 33.1016 136.958 31.9569 136.289 31.1445C135.954 30.7464 135.53 30.4309 135.052 30.2229C134.575 30.0148 134.055 29.9197 133.534 29.9449V29.9291Z" fill="white"/>
<path id="Vector_25" d="M141.171 40.2445V38.1239C141.378 38.3083 141.607 38.4657 141.854 38.5923C142.122 38.7337 142.402 38.8513 142.691 38.9437C142.981 39.0372 143.277 39.1102 143.577 39.1621C143.846 39.2131 144.119 39.2396 144.393 39.2412C145.26 39.2412 145.907 39.0966 146.332 38.8076C146.54 38.6702 146.708 38.4811 146.819 38.2589C146.93 38.0368 146.981 37.7894 146.967 37.5415C146.973 37.2709 146.899 37.0046 146.754 36.7755C146.596 36.541 146.393 36.339 146.158 36.1805C145.873 35.9852 145.572 35.8137 145.259 35.6677C144.917 35.5031 144.548 35.3322 144.155 35.1518C143.761 34.9714 143.339 34.6992 142.974 34.4681C142.627 34.2523 142.307 33.9951 142.022 33.7022C141.755 33.426 141.54 33.1044 141.387 32.7526C141.228 32.3641 141.151 31.9471 141.162 31.5277C141.148 30.9942 141.286 30.4678 141.558 30.0084C141.82 29.5793 142.176 29.2147 142.599 28.9418C143.05 28.6493 143.547 28.4352 144.069 28.3088C144.62 28.1721 145.186 28.103 145.755 28.103C147.056 28.103 148.008 28.2507 148.611 28.5461V30.5782C147.806 30.0432 146.851 29.7772 145.885 29.8185C145.578 29.8184 145.272 29.847 144.971 29.904C144.685 29.9541 144.409 30.0503 144.155 30.1889C143.923 30.3133 143.722 30.4886 143.568 30.7016C143.415 30.9216 143.336 31.1842 143.342 31.4518C143.335 31.7025 143.395 31.9507 143.517 32.1702C143.644 32.389 143.818 32.5779 144.025 32.7241C144.28 32.9133 144.553 33.0776 144.84 33.2147C145.158 33.373 145.532 33.5313 145.955 33.7307C146.377 33.9301 146.799 34.1928 147.183 34.4397C147.552 34.6744 147.893 34.9505 148.199 35.2626C148.485 35.5535 148.72 35.8906 148.894 36.2596C149.07 36.6581 149.157 37.0902 149.148 37.5257C149.164 38.0775 149.032 38.6238 148.767 39.1082C148.515 39.5378 148.162 39.8997 147.738 40.1622C147.281 40.4449 146.777 40.6442 146.25 40.751C145.664 40.8747 145.067 40.9363 144.469 40.9345C144.212 40.9316 143.956 40.9157 143.701 40.8871C143.399 40.8554 143.088 40.8079 142.768 40.7478C142.463 40.69 142.163 40.616 141.866 40.5262C141.623 40.4638 141.389 40.3691 141.171 40.2445Z" fill="white"/>
</g>
</g>
<defs>
<clipPath id="clip0_167_500">
<rect width="162.519" height="53.1745" fill="white" transform="translate(0.480957 0.825684)"/>
</clipPath>
</defs>
</svg>
